solid OpenSCAD_Model
  facet normal -1 0 0
    outer loop
      vertex -28.4 -15 -1.5
      vertex -28.4 15 0.5
      vertex -28.4 15 -1.5
    endloop
  endfacet
  facet normal -1 -0 0
    outer loop
      vertex -28.4 15 0.5
      vertex -28.4 -15 -1.5
      vertex -28.4 -15 0.5
    endloop
  endfacet
  facet normal 1 -0 0
    outer loop
      vertex 28.4 -15 0.5
      vertex 28.4 15 -1.5
      vertex 28.4 15 0.5
    endloop
  endfacet
  facet normal 1 0 0
    outer loop
      vertex 28.4 15 -1.5
      vertex 28.4 -15 0.5
      vertex 28.4 -15 -1.5
    endloop
  endfacet
  facet normal 0 1 -0
    outer loop
      vertex 28.4 15 -1.5
      vertex -28.4 15 0.5
      vertex 28.4 15 0.5
    endloop
  endfacet
  facet normal 0 1 0
    outer loop
      vertex -28.4 15 0.5
      vertex 28.4 15 -1.5
      vertex -28.4 15 -1.5
    endloop
  endfacet
  facet normal 0 1 0
    outer loop
      vertex 28.4 15 0.5
      vertex 37 15 2.5
      vertex 37 15 0.5
    endloop
  endfacet
  facet normal 0 1 0
    outer loop
      vertex 37 15 2.5
      vertex 28.4 15 0.5
      vertex -37 15 2.5
    endloop
  endfacet
  facet normal 0 1 -0
    outer loop
      vertex -28.4 15 0.5
      vertex -37 15 2.5
      vertex 28.4 15 0.5
    endloop
  endfacet
  facet normal 0 1 0
    outer loop
      vertex -37 15 2.5
      vertex -28.4 15 0.5
      vertex -37 15 0.5
    endloop
  endfacet
  facet normal 0 0 -1
    outer loop
      vertex -28.4 -15 -1.5
      vertex 28.4 15 -1.5
      vertex 28.4 -15 -1.5
    endloop
  endfacet
  facet normal -0 0 -1
    outer loop
      vertex 28.4 15 -1.5
      vertex -28.4 -15 -1.5
      vertex -28.4 15 -1.5
    endloop
  endfacet
  facet normal 0 -1 0
    outer loop
      vertex -28.4 -15 -1.5
      vertex 28.4 -15 0.5
      vertex -28.4 -15 0.5
    endloop
  endfacet
  facet normal 0 -1 -0
    outer loop
      vertex 28.4 -15 0.5
      vertex -28.4 -15 -1.5
      vertex 28.4 -15 -1.5
    endloop
  endfacet
  facet normal 0 -1 0
    outer loop
      vertex -28.4 -15 0.5
      vertex -37 -15 2.5
      vertex -37 -15 0.5
    endloop
  endfacet
  facet normal 0 -1 0
    outer loop
      vertex -37 -15 2.5
      vertex -28.4 -15 0.5
      vertex 37 -15 2.5
    endloop
  endfacet
  facet normal 0 -1 0
    outer loop
      vertex 28.4 -15 0.5
      vertex 37 -15 2.5
      vertex -28.4 -15 0.5
    endloop
  endfacet
  facet normal 0 -1 -0
    outer loop
      vertex 37 -15 2.5
      vertex 28.4 -15 0.5
      vertex 37 -15 0.5
    endloop
  endfacet
  facet normal -1 0 0
    outer loop
      vertex -37 -15 0.5
      vertex -37 15 2.5
      vertex -37 15 0.5
    endloop
  endfacet
  facet normal -1 -0 0
    outer loop
      vertex -37 15 2.5
      vertex -37 -15 0.5
      vertex -37 -15 2.5
    endloop
  endfacet
  facet normal -0 0 1
    outer loop
      vertex -37 15 2.5
      vertex 37 -15 2.5
      vertex 37 15 2.5
    endloop
  endfacet
  facet normal 0 0 1
    outer loop
      vertex 37 -15 2.5
      vertex -37 15 2.5
      vertex -37 -15 2.5
    endloop
  endfacet
  facet normal 1 -0 0
    outer loop
      vertex 37 -15 2.5
      vertex 37 15 0.5
      vertex 37 15 2.5
    endloop
  endfacet
  facet normal 1 0 0
    outer loop
      vertex 37 15 0.5
      vertex 37 -15 2.5
      vertex 37 -15 0.5
    endloop
  endfacet
  facet normal 0 0 -1
    outer loop
      vertex -37 -15 0.5
      vertex -28.4 15 0.5
      vertex -28.4 -15 0.5
    endloop
  endfacet
  facet normal -0 0 -1
    outer loop
      vertex -28.4 15 0.5
      vertex -37 -15 0.5
      vertex -37 15 0.5
    endloop
  endfacet
  facet normal 0 0 -1
    outer loop
      vertex 28.4 -15 0.5
      vertex 37 15 0.5
      vertex 37 -15 0.5
    endloop
  endfacet
  facet normal -0 0 -1
    outer loop
      vertex 37 15 0.5
      vertex 28.4 -15 0.5
      vertex 28.4 15 0.5
    endloop
  endfacet
endsolid OpenSCAD_Model
