solid OpenSCAD_Model
  facet normal -1 0 0
    outer loop
      vertex -92.92 15 -62.02
      vertex -92.92 45 62.02
      vertex -92.92 45 -62.02
    endloop
  endfacet
  facet normal -1 -0 0
    outer loop
      vertex -92.92 45 62.02
      vertex -92.92 15 -62.02
      vertex -92.92 15 62.02
    endloop
  endfacet
  facet normal -0 0 1
    outer loop
      vertex -92.92 45 62.02
      vertex 92.92 15 62.02
      vertex 92.92 45 62.02
    endloop
  endfacet
  facet normal 0 0 1
    outer loop
      vertex 92.92 15 62.02
      vertex -92.92 45 62.02
      vertex -92.92 15 62.02
    endloop
  endfacet
  facet normal 1 -0 0
    outer loop
      vertex 92.92 15 62.02
      vertex 92.92 45 -62.02
      vertex 92.92 45 62.02
    endloop
  endfacet
  facet normal 1 0 0
    outer loop
      vertex 92.92 45 -62.02
      vertex 92.92 15 62.02
      vertex 92.92 15 -62.02
    endloop
  endfacet
  facet normal 0 1 -0
    outer loop
      vertex 92.92 45 -62.02
      vertex -92.92 45 62.02
      vertex 92.92 45 62.02
    endloop
  endfacet
  facet normal 0 1 0
    outer loop
      vertex -92.92 45 62.02
      vertex 92.92 45 -62.02
      vertex -92.92 45 -62.02
    endloop
  endfacet
  facet normal 0 0 -1
    outer loop
      vertex -92.92 15 -62.02
      vertex 92.92 45 -62.02
      vertex 92.92 15 -62.02
    endloop
  endfacet
  facet normal -0 0 -1
    outer loop
      vertex 92.92 45 -62.02
      vertex -92.92 15 -62.02
      vertex -92.92 45 -62.02
    endloop
  endfacet
  facet normal 0 -1 0
    outer loop
      vertex -92.92 15 62.02
      vertex -90.9 15 60.6
      vertex 92.92 15 62.02
    endloop
  endfacet
  facet normal 0 -1 0
    outer loop
      vertex -92.92 15 62.02
      vertex -90.9 15 -60.6
      vertex -90.9 15 60.6
    endloop
  endfacet
  facet normal 0 -1 -0
    outer loop
      vertex -90.9 15 -60.6
      vertex -92.92 15 -62.02
      vertex 90.9 15 -60.6
    endloop
  endfacet
  facet normal 0 -1 0
    outer loop
      vertex -92.92 15 -62.02
      vertex -90.9 15 -60.6
      vertex -92.92 15 62.02
    endloop
  endfacet
  facet normal 0 -1 0
    outer loop
      vertex 90.9 15 60.6
      vertex 92.92 15 62.02
      vertex -90.9 15 60.6
    endloop
  endfacet
  facet normal 0 -1 0
    outer loop
      vertex 90.9 15 -60.6
      vertex 92.92 15 62.02
      vertex 90.9 15 60.6
    endloop
  endfacet
  facet normal 0 -1 0
    outer loop
      vertex 90.9 15 -60.6
      vertex 92.92 15 -62.02
      vertex 92.92 15 62.02
    endloop
  endfacet
  facet normal 0 -1 0
    outer loop
      vertex 92.92 15 -62.02
      vertex 90.9 15 -60.6
      vertex -92.92 15 -62.02
    endloop
  endfacet
  facet normal 1 -0 0
    outer loop
      vertex -90.9 15 60.6
      vertex -90.9 43 -60.6
      vertex -90.9 43 60.6
    endloop
  endfacet
  facet normal 1 0 0
    outer loop
      vertex -90.9 43 -60.6
      vertex -90.9 15 60.6
      vertex -90.9 15 -60.6
    endloop
  endfacet
  facet normal 0 0 -1
    outer loop
      vertex -90.9 15 60.6
      vertex 90.9 43 60.6
      vertex 90.9 15 60.6
    endloop
  endfacet
  facet normal -0 0 -1
    outer loop
      vertex 90.9 43 60.6
      vertex -90.9 15 60.6
      vertex -90.9 43 60.6
    endloop
  endfacet
  facet normal -1 0 0
    outer loop
      vertex 90.9 15 -60.6
      vertex 90.9 43 60.6
      vertex 90.9 43 -60.6
    endloop
  endfacet
  facet normal -1 -0 0
    outer loop
      vertex 90.9 43 60.6
      vertex 90.9 15 -60.6
      vertex 90.9 15 60.6
    endloop
  endfacet
  facet normal 0 -1 0
    outer loop
      vertex -90.9 43 -60.6
      vertex 90.9 43 60.6
      vertex -90.9 43 60.6
    endloop
  endfacet
  facet normal 0 -1 -0
    outer loop
      vertex 90.9 43 60.6
      vertex -90.9 43 -60.6
      vertex 90.9 43 -60.6
    endloop
  endfacet
  facet normal -0 0 1
    outer loop
      vertex -90.9 43 -60.6
      vertex 90.9 15 -60.6
      vertex 90.9 43 -60.6
    endloop
  endfacet
  facet normal 0 0 1
    outer loop
      vertex 90.9 15 -60.6
      vertex -90.9 43 -60.6
      vertex -90.9 15 -60.6
    endloop
  endfacet
endsolid OpenSCAD_Model
