solid OpenSCAD_Model
  facet normal 0.92388 0.382683 -0
    outer loop
      vertex 24 0 1.8
      vertex 23.6485 0.848528 70
      vertex 24 0 70
    endloop
  endfacet
  facet normal 0.92388 0.382683 0
    outer loop
      vertex 23.6485 0.848528 70
      vertex 24 0 1.8
      vertex 23.6485 0.848528 1.44853
    endloop
  endfacet
  facet normal -0.923879 0.382684 0
    outer loop
      vertex 21.6 0 1.8
      vertex 21.9515 0.848528 70
      vertex 21.9515 0.848528 1.44853
    endloop
  endfacet
  facet normal -0.923879 0.382684 0
    outer loop
      vertex 21.9515 0.848528 70
      vertex 21.6 0 1.8
      vertex 21.6 0 70
    endloop
  endfacet
  facet normal 0.382682 0.92388 -0
    outer loop
      vertex 23.6485 0.848528 1.44853
      vertex 23.4 0.951472 70
      vertex 23.6485 0.848528 70
    endloop
  endfacet
  facet normal 0.382682 0.92388 0
    outer loop
      vertex 23.4 0.951472 70
      vertex 23.6485 0.848528 1.44853
      vertex 23.4 0.951472 1.2
    endloop
  endfacet
  facet normal 0.707104 0 -0.707109
    outer loop
      vertex 23.6485 0.848528 1.44853
      vertex 23.4 0.951471 1.2
      vertex 23.4 0.951472 1.2
    endloop
  endfacet
  facet normal 0.382683 -0.92388 0
    outer loop
      vertex 22.8 -1.2 70
      vertex 23.6485 -0.848528 1.44853
      vertex 23.6485 -0.848528 70
    endloop
  endfacet
  facet normal 0.382683 -0.92388 0
    outer loop
      vertex 23.6485 -0.848528 1.44853
      vertex 22.8 -1.2 70
      vertex 22.8 -1.2 0.599999
    endloop
  endfacet
  facet normal 0.382683 -0.92388 0
    outer loop
      vertex 22.8 -1.2 0.599999
      vertex 22.8 -1.2 0
      vertex 23.4 -0.951472 0
    endloop
  endfacet
  facet normal 0 0 1
    outer loop
      vertex 23.4 79.0485 70
      vertex 24 80 70
      vertex 23.6485 80.8485 70
    endloop
  endfacet
  facet normal 0 0 1
    outer loop
      vertex 24 80 70
      vertex 23.4 79.0485 70
      vertex 23.6485 79.1515 70
    endloop
  endfacet
  facet normal 0 0 1
    outer loop
      vertex 22.2 70.9515 70
      vertex 23.4 70.9515 70
      vertex 23.4 79.0485 70
    endloop
  endfacet
  facet normal 0 0 1
    outer loop
      vertex 23.4 70.9515 70
      vertex 22.2 70.9515 70
      vertex 23.4 69.0485 70
    endloop
  endfacet
  facet normal 0 0 1
    outer loop
      vertex 23.4 69.0485 70
      vertex 22.2 69.0485 70
      vertex 23.4 60.9515 70
    endloop
  endfacet
  facet normal 0 0 1
    outer loop
      vertex 22.2 60.9515 70
      vertex 23.4 60.9515 70
      vertex 22.2 69.0485 70
    endloop
  endfacet
  facet normal 0 0 1
    outer loop
      vertex 22.2 59.0485 70
      vertex 23.4 59.0485 70
      vertex 22.2 60.9515 70
    endloop
  endfacet
  facet normal 0 0 1
    outer loop
      vertex 23.4 59.0485 70
      vertex 22.2 59.0485 70
      vertex 23.4 50.9515 70
    endloop
  endfacet
  facet normal 0 0 1
    outer loop
      vertex 23.4 50.9515 70
      vertex 22.2 50.9515 70
      vertex 23.4 49.0485 70
    endloop
  endfacet
  facet normal 0 0 1
    outer loop
      vertex 22.2 49.0485 70
      vertex 23.4 49.0485 70
      vertex 22.2 50.9515 70
    endloop
  endfacet
  facet normal 0 0 1
    outer loop
      vertex 22.2 40.9515 70
      vertex 23.4 40.9515 70
      vertex 22.2 49.0485 70
    endloop
  endfacet
  facet normal 0 0 1
    outer loop
      vertex 23.4 40.9515 70
      vertex 22.2 40.9515 70
      vertex 23.4 39.0485 70
    endloop
  endfacet
  facet normal 0 0 1
    outer loop
      vertex 23.4 39.0485 70
      vertex 22.2 39.0485 70
      vertex 23.4 30.9515 70
    endloop
  endfacet
  facet normal 0 0 1
    outer loop
      vertex 22.2 30.9515 70
      vertex 23.4 30.9515 70
      vertex 22.2 39.0485 70
    endloop
  endfacet
  facet normal 0 0 1
    outer loop
      vertex 23.4 30.9515 70
      vertex 22.2 30.9515 70
      vertex 23.4 29.0485 70
    endloop
  endfacet
  facet normal 0 0 1
    outer loop
      vertex 22.2 29.0485 70
      vertex 23.4 29.0485 70
      vertex 22.2 30.9515 70
    endloop
  endfacet
  facet normal 0 0 1
    outer loop
      vertex 22.2 79.0485 70
      vertex 23.4 79.0485 70
      vertex 22.8 81.2 70
    endloop
  endfacet
  facet normal 0 0 1
    outer loop
      vertex 22.8 81.2 70
      vertex 23.4 79.0485 70
      vertex 23.6485 80.8485 70
    endloop
  endfacet
  facet normal 0 0 1
    outer loop
      vertex 23.4 70.9515 70
      vertex 24 70 70
      vertex 23.6485 70.8485 70
    endloop
  endfacet
  facet normal 0 0 1
    outer loop
      vertex 23.4 69.0485 70
      vertex 24 70 70
      vertex 23.4 70.9515 70
    endloop
  endfacet
  facet normal 0 0 1
    outer loop
      vertex 24 70 70
      vertex 23.4 69.0485 70
      vertex 23.6485 69.1515 70
    endloop
  endfacet
  facet normal 0 0 1
    outer loop
      vertex 23.4 60.9515 70
      vertex 24 60 70
      vertex 23.6485 60.8485 70
    endloop
  endfacet
  facet normal 0 0 1
    outer loop
      vertex 23.4 59.0485 70
      vertex 24 60 70
      vertex 23.4 60.9515 70
    endloop
  endfacet
  facet normal 0 0 1
    outer loop
      vertex 24 60 70
      vertex 23.4 59.0485 70
      vertex 23.6485 59.1515 70
    endloop
  endfacet
  facet normal 0 0 1
    outer loop
      vertex 23.4 50.9515 70
      vertex 24 50 70
      vertex 23.6485 50.8485 70
    endloop
  endfacet
  facet normal 0 0 1
    outer loop
      vertex 23.4 49.0485 70
      vertex 24 50 70
      vertex 23.4 50.9515 70
    endloop
  endfacet
  facet normal 0 0 1
    outer loop
      vertex 24 50 70
      vertex 23.4 49.0485 70
      vertex 23.6485 49.1515 70
    endloop
  endfacet
  facet normal 0 0 1
    outer loop
      vertex 23.4 40.9515 70
      vertex 24 40 70
      vertex 23.6485 40.8485 70
    endloop
  endfacet
  facet normal 0 0 1
    outer loop
      vertex 23.4 39.0485 70
      vertex 24 40 70
      vertex 23.4 40.9515 70
    endloop
  endfacet
  facet normal 0 0 1
    outer loop
      vertex 24 40 70
      vertex 23.4 39.0485 70
      vertex 23.6485 39.1515 70
    endloop
  endfacet
  facet normal 0 0 1
    outer loop
      vertex 23.4 30.9515 70
      vertex 24 30 70
      vertex 23.6485 30.8485 70
    endloop
  endfacet
  facet normal 0 0 1
    outer loop
      vertex 23.4 29.0485 70
      vertex 24 30 70
      vertex 23.4 30.9515 70
    endloop
  endfacet
  facet normal 0 0 1
    outer loop
      vertex 24 30 70
      vertex 23.4 29.0485 70
      vertex 23.6485 29.1515 70
    endloop
  endfacet
  facet normal 0 0 1
    outer loop
      vertex 23.4 20.9515 70
      vertex 24 20 70
      vertex 23.6485 20.8485 70
    endloop
  endfacet
  facet normal 0 0 1
    outer loop
      vertex 23.4 19.0485 70
      vertex 24 20 70
      vertex 23.4 20.9515 70
    endloop
  endfacet
  facet normal 0 0 1
    outer loop
      vertex 24 20 70
      vertex 23.4 19.0485 70
      vertex 23.6485 19.1515 70
    endloop
  endfacet
  facet normal 0 0 1
    outer loop
      vertex 23.4 10.9515 70
      vertex 24 10 70
      vertex 23.6485 10.8485 70
    endloop
  endfacet
  facet normal 0 0 1
    outer loop
      vertex 23.4 9.04853 70
      vertex 24 10 70
      vertex 23.4 10.9515 70
    endloop
  endfacet
  facet normal 0 0 1
    outer loop
      vertex 24 10 70
      vertex 23.4 9.04853 70
      vertex 23.6485 9.15147 70
    endloop
  endfacet
  facet normal 0 0 1
    outer loop
      vertex 23.4 0.951472 70
      vertex 24 0 70
      vertex 23.6485 0.848528 70
    endloop
  endfacet
  facet normal 0 0 1
    outer loop
      vertex 24 0 70
      vertex 23.4 0.951472 70
      vertex 23.6485 -0.848528 70
    endloop
  endfacet
  facet normal 0 0 1
    outer loop
      vertex 23.4 0.951472 70
      vertex 22.8 -1.2 70
      vertex 23.6485 -0.848528 70
    endloop
  endfacet
  facet normal 0 0 1
    outer loop
      vertex 22.2 39.0485 70
      vertex 23.4 39.0485 70
      vertex 22.2 40.9515 70
    endloop
  endfacet
  facet normal 0 0 1
    outer loop
      vertex 23.4 79.0485 70
      vertex 22.2 79.0485 70
      vertex 22.2 70.9515 70
    endloop
  endfacet
  facet normal -0 0 1
    outer loop
      vertex 21.9515 80.8485 70
      vertex 22.2 79.0485 70
      vertex 22.8 81.2 70
    endloop
  endfacet
  facet normal -0 0 1
    outer loop
      vertex 21.6 80 70
      vertex 22.2 79.0485 70
      vertex 21.9515 80.8485 70
    endloop
  endfacet
  facet normal 0 0 1
    outer loop
      vertex 22.2 79.0485 70
      vertex 21.6 80 70
      vertex 21.9515 79.1515 70
    endloop
  endfacet
  facet normal 0 0 1
    outer loop
      vertex 21.6 10 70
      vertex 22.2 10.9515 70
      vertex 21.9515 10.8485 70
    endloop
  endfacet
  facet normal 0 0 1
    outer loop
      vertex 22.2 10.9515 70
      vertex 21.6 10 70
      vertex 22.2 9.04853 70
    endloop
  endfacet
  facet normal 0 0 1
    outer loop
      vertex 22.2 9.04853 70
      vertex 21.6 10 70
      vertex 21.9515 9.15147 70
    endloop
  endfacet
  facet normal 0 0 1
    outer loop
      vertex 21.6 20 70
      vertex 22.2 20.9515 70
      vertex 21.9515 20.8485 70
    endloop
  endfacet
  facet normal 0 0 1
    outer loop
      vertex 22.2 20.9515 70
      vertex 21.6 20 70
      vertex 22.2 19.0485 70
    endloop
  endfacet
  facet normal 0 0 1
    outer loop
      vertex 22.2 19.0485 70
      vertex 21.6 20 70
      vertex 21.9515 19.1515 70
    endloop
  endfacet
  facet normal 0 0 1
    outer loop
      vertex 21.6 30 70
      vertex 22.2 30.9515 70
      vertex 21.9515 30.8485 70
    endloop
  endfacet
  facet normal 0 0 1
    outer loop
      vertex 22.2 30.9515 70
      vertex 21.6 30 70
      vertex 22.2 29.0485 70
    endloop
  endfacet
  facet normal 0 0 1
    outer loop
      vertex 22.2 29.0485 70
      vertex 21.6 30 70
      vertex 21.9515 29.1515 70
    endloop
  endfacet
  facet normal 0 0 1
    outer loop
      vertex 21.6 40 70
      vertex 22.2 40.9515 70
      vertex 21.9515 40.8485 70
    endloop
  endfacet
  facet normal 0 0 1
    outer loop
      vertex 22.2 40.9515 70
      vertex 21.6 40 70
      vertex 22.2 39.0485 70
    endloop
  endfacet
  facet normal 0 0 1
    outer loop
      vertex 22.2 39.0485 70
      vertex 21.6 40 70
      vertex 21.9515 39.1515 70
    endloop
  endfacet
  facet normal 0 0 1
    outer loop
      vertex 21.6 50 70
      vertex 22.2 50.9515 70
      vertex 21.9515 50.8485 70
    endloop
  endfacet
  facet normal 0 0 1
    outer loop
      vertex 22.2 50.9515 70
      vertex 21.6 50 70
      vertex 22.2 49.0485 70
    endloop
  endfacet
  facet normal 0 0 1
    outer loop
      vertex 22.2 49.0485 70
      vertex 21.6 50 70
      vertex 21.9515 49.1515 70
    endloop
  endfacet
  facet normal 0 0 1
    outer loop
      vertex 21.6 60 70
      vertex 22.2 60.9515 70
      vertex 21.9515 60.8485 70
    endloop
  endfacet
  facet normal 0 0 1
    outer loop
      vertex 22.2 60.9515 70
      vertex 21.6 60 70
      vertex 22.2 59.0485 70
    endloop
  endfacet
  facet normal 0 0 1
    outer loop
      vertex 22.2 59.0485 70
      vertex 21.6 60 70
      vertex 21.9515 59.1515 70
    endloop
  endfacet
  facet normal 0 0 1
    outer loop
      vertex 21.6 70 70
      vertex 22.2 70.9515 70
      vertex 21.9515 70.8485 70
    endloop
  endfacet
  facet normal 0 0 1
    outer loop
      vertex 22.2 70.9515 70
      vertex 21.6 70 70
      vertex 22.2 69.0485 70
    endloop
  endfacet
  facet normal 0 0 1
    outer loop
      vertex 22.2 69.0485 70
      vertex 21.6 70 70
      vertex 21.9515 69.1515 70
    endloop
  endfacet
  facet normal 0 0 1
    outer loop
      vertex 23.4 69.0485 70
      vertex 22.2 70.9515 70
      vertex 22.2 69.0485 70
    endloop
  endfacet
  facet normal 0 0 1
    outer loop
      vertex 23.4 60.9515 70
      vertex 22.2 60.9515 70
      vertex 23.4 59.0485 70
    endloop
  endfacet
  facet normal 0 0 1
    outer loop
      vertex 22.2 50.9515 70
      vertex 23.4 50.9515 70
      vertex 22.2 59.0485 70
    endloop
  endfacet
  facet normal 0 0 1
    outer loop
      vertex 23.4 49.0485 70
      vertex 22.2 49.0485 70
      vertex 23.4 40.9515 70
    endloop
  endfacet
  facet normal 0 0 1
    outer loop
      vertex 23.4 29.0485 70
      vertex 22.2 29.0485 70
      vertex 23.4 20.9515 70
    endloop
  endfacet
  facet normal 0 0 1
    outer loop
      vertex 22.2 20.9515 70
      vertex 23.4 20.9515 70
      vertex 22.2 29.0485 70
    endloop
  endfacet
  facet normal 0 0 1
    outer loop
      vertex 23.4 20.9515 70
      vertex 22.2 20.9515 70
      vertex 23.4 19.0485 70
    endloop
  endfacet
  facet normal 0 0 1
    outer loop
      vertex 22.2 19.0485 70
      vertex 23.4 19.0485 70
      vertex 22.2 20.9515 70
    endloop
  endfacet
  facet normal 0 0 1
    outer loop
      vertex 23.4 19.0485 70
      vertex 22.2 19.0485 70
      vertex 23.4 10.9515 70
    endloop
  endfacet
  facet normal -0 0 1
    outer loop
      vertex 22.2 10.9515 70
      vertex 23.4 10.9515 70
      vertex 22.2 19.0485 70
    endloop
  endfacet
  facet normal 0 0 1
    outer loop
      vertex 23.4 10.9515 70
      vertex 22.2 10.9515 70
      vertex 23.4 9.04853 70
    endloop
  endfacet
  facet normal 0 0 1
    outer loop
      vertex 22.2 9.04853 70
      vertex 23.4 9.04853 70
      vertex 22.2 10.9515 70
    endloop
  endfacet
  facet normal 0 0 1
    outer loop
      vertex 23.4 9.04853 70
      vertex 22.2 9.04853 70
      vertex 23.4 0.951472 70
    endloop
  endfacet
  facet normal -0 0 1
    outer loop
      vertex 22.2 0.951472 70
      vertex 23.4 0.951472 70
      vertex 22.2 9.04853 70
    endloop
  endfacet
  facet normal 0 0 1
    outer loop
      vertex 23.4 0.951472 70
      vertex 22.2 0.951472 70
      vertex 22.8 -1.2 70
    endloop
  endfacet
  facet normal 0 0 1
    outer loop
      vertex 21.6 0 70
      vertex 22.2 0.951472 70
      vertex 21.9515 0.848528 70
    endloop
  endfacet
  facet normal 0 0 1
    outer loop
      vertex 22.2 0.951472 70
      vertex 21.9515 -0.848528 70
      vertex 22.8 -1.2 70
    endloop
  endfacet
  facet normal 0 0 1
    outer loop
      vertex 22.2 0.951472 70
      vertex 21.6 0 70
      vertex 21.9515 -0.848528 70
    endloop
  endfacet
  facet normal -0.382682 0.92388 0
    outer loop
      vertex 22.2 0.951472 70
      vertex 21.9515 0.848528 1.44853
      vertex 21.9515 0.848528 70
    endloop
  endfacet
  facet normal -0.382682 0.92388 0
    outer loop
      vertex 22.2 0.951472 1.2
      vertex 21.9515 0.848528 1.44853
      vertex 22.2 0.951472 70
    endloop
  endfacet
  facet normal -0.179877 0.959343 0.217496
    outer loop
      vertex 21.9515 0.848528 1.44853
      vertex 22.2 0.951472 1.2
      vertex 22.2 0.951471 1.2
    endloop
  endfacet
  facet normal -0.923879 -0.382684 -0
    outer loop
      vertex 21.9515 -0.848528 70
      vertex 21.6 0 1.8
      vertex 21.9515 -0.848528 1.44853
    endloop
  endfacet
  facet normal -0.923879 -0.382684 0
    outer loop
      vertex 21.6 0 1.8
      vertex 21.9515 -0.848528 70
      vertex 21.6 0 70
    endloop
  endfacet
  facet normal 0 0 -1
    outer loop
      vertex 24 0 0
      vertex 100 80 0
      vertex 100 0 0
    endloop
  endfacet
  facet normal 0 0 -1
    outer loop
      vertex 24 0 0
      vertex 24 80 0
      vertex 100 80 0
    endloop
  endfacet
  facet normal 0 0 -1
    outer loop
      vertex 23.4 -0.951472 0
      vertex 24 0 0
      vertex 23.6485 -0.848528 0
    endloop
  endfacet
  facet normal 0 0 -1
    outer loop
      vertex 24 0 0
      vertex 21.6 0 0
      vertex 24 80 0
    endloop
  endfacet
  facet normal -0 0 -1
    outer loop
      vertex 24 0 0
      vertex 23.4 -0.951472 0
      vertex 21.6 0 0
    endloop
  endfacet
  facet normal 0 0 -1
    outer loop
      vertex 21.6 80 0
      vertex 24 80 0
      vertex 21.6 0 0
    endloop
  endfacet
  facet normal 0 0 -1
    outer loop
      vertex 22.2 -0.951472 0
      vertex 23.4 -0.951472 0
      vertex 22.8 -1.2 0
    endloop
  endfacet
  facet normal 0 -0 -1
    outer loop
      vertex 23.4 80.9515 0
      vertex 24 80 0
      vertex 21.6 80 0
    endloop
  endfacet
  facet normal 0 0 -1
    outer loop
      vertex 23.4 -0.951472 0
      vertex 22.2 -0.951472 0
      vertex 21.6 0 0
    endloop
  endfacet
  facet normal 0 0 -1
    outer loop
      vertex 24 80 0
      vertex 23.4 80.9515 0
      vertex 23.6485 80.8485 0
    endloop
  endfacet
  facet normal 0 0 -1
    outer loop
      vertex 21.6 0 0
      vertex 22.2 -0.951472 0
      vertex 21.9515 -0.848528 0
    endloop
  endfacet
  facet normal 0 -0 -1
    outer loop
      vertex 22.2 80.9515 0
      vertex 23.4 80.9515 0
      vertex 21.6 80 0
    endloop
  endfacet
  facet normal 0 0 -1
    outer loop
      vertex 23.4 80.9515 0
      vertex 22.2 80.9515 0
      vertex 22.8 81.2 0
    endloop
  endfacet
  facet normal 0 0 -1
    outer loop
      vertex 22.2 80.9515 0
      vertex 21.6 80 0
      vertex 21.9515 80.8485 0
    endloop
  endfacet
  facet normal 0 0 -1
    outer loop
      vertex 0 0 0
      vertex 21.6 80 0
      vertex 21.6 0 0
    endloop
  endfacet
  facet normal -0 0 -1
    outer loop
      vertex 21.6 80 0
      vertex 0 0 0
      vertex 0 80 0
    endloop
  endfacet
  facet normal 0 0 -1
    outer loop
      vertex 24 80 0
      vertex 100 80.9515 0
      vertex 100 80 0
    endloop
  endfacet
  facet normal 0 0 -1
    outer loop
      vertex 23.6485 80.8485 0
      vertex 100 80.9515 0
      vertex 24 80 0
    endloop
  endfacet
  facet normal -0 0 -1
    outer loop
      vertex 100 80.9515 0
      vertex 23.6485 80.8485 0
      vertex 23.4 80.9515 0
    endloop
  endfacet
  facet normal 0 0 -1
    outer loop
      vertex 0 80.9515 0
      vertex 21.6 80 0
      vertex 0 80 0
    endloop
  endfacet
  facet normal 0 0 -1
    outer loop
      vertex 21.6 80 0
      vertex 0 80.9515 0
      vertex 21.9515 80.8485 0
    endloop
  endfacet
  facet normal 0 0 -1
    outer loop
      vertex 21.9515 80.8485 0
      vertex 0 80.9515 0
      vertex 22.2 80.9515 0
    endloop
  endfacet
  facet normal 0 0 -1
    outer loop
      vertex 0 -0.951472 0
      vertex 21.9515 -0.848528 0
      vertex 22.2 -0.951472 0
    endloop
  endfacet
  facet normal 0 0 -1
    outer loop
      vertex 0 -0.951472 0
      vertex 21.6 0 0
      vertex 21.9515 -0.848528 0
    endloop
  endfacet
  facet normal -0 0 -1
    outer loop
      vertex 21.6 0 0
      vertex 0 -0.951472 0
      vertex 0 0 0
    endloop
  endfacet
  facet normal 0 0 -1
    outer loop
      vertex 100 -0.951472 0
      vertex 24 0 0
      vertex 100 0 0
    endloop
  endfacet
  facet normal 0 0 -1
    outer loop
      vertex 100 -0.951472 0
      vertex 23.6485 -0.848528 0
      vertex 24 0 0
    endloop
  endfacet
  facet normal 0 -0 -1
    outer loop
      vertex 23.6485 -0.848528 0
      vertex 100 -0.951472 0
      vertex 23.4 -0.951472 0
    endloop
  endfacet
  facet normal 0.92388 -0.382683 0
    outer loop
      vertex 23.6485 -0.848528 70
      vertex 24 0 1.8
      vertex 24 0 70
    endloop
  endfacet
  facet normal 0.92388 -0.382683 0
    outer loop
      vertex 24 0 1.8
      vertex 23.6485 -0.848528 70
      vertex 23.6485 -0.848528 1.44853
    endloop
  endfacet
  facet normal -0.382684 -0.923879 0
    outer loop
      vertex 21.9515 -0.848528 1.44853
      vertex 22.8 -1.2 70
      vertex 21.9515 -0.848528 70
    endloop
  endfacet
  facet normal -0.382684 -0.923879 -0
    outer loop
      vertex 22.8 -1.2 70
      vertex 21.9515 -0.848528 1.44853
      vertex 22.8 -1.2 0.599999
    endloop
  endfacet
  facet normal -0.382683 -0.92388 -0
    outer loop
      vertex 22.8 -1.2 0.599999
      vertex 22.2 -0.951472 0
      vertex 22.8 -1.2 0
    endloop
  endfacet
  facet normal 0.92388 0.382683 -0
    outer loop
      vertex 24 10 1.8
      vertex 23.6485 10.8485 70
      vertex 24 10 70
    endloop
  endfacet
  facet normal 0.92388 0.382683 0
    outer loop
      vertex 23.6485 10.8485 70
      vertex 24 10 1.8
      vertex 23.6485 10.8485 1.44853
    endloop
  endfacet
  facet normal -0.382684 0.923879 0
    outer loop
      vertex 22.2 10.9515 70
      vertex 21.9515 10.8485 1.44853
      vertex 21.9515 10.8485 70
    endloop
  endfacet
  facet normal -0.382684 0.923879 0
    outer loop
      vertex 22.2 10.9515 1.2
      vertex 21.9515 10.8485 1.44853
      vertex 22.2 10.9515 70
    endloop
  endfacet
  facet normal 0.382681 0.923881 -0
    outer loop
      vertex 23.6485 10.8485 1.44853
      vertex 23.4 10.9515 70
      vertex 23.6485 10.8485 70
    endloop
  endfacet
  facet normal 0.382681 0.923881 0
    outer loop
      vertex 23.4 10.9515 70
      vertex 23.6485 10.8485 1.44853
      vertex 23.4 10.9515 1.2
    endloop
  endfacet
  facet normal -0.923879 0.382684 0
    outer loop
      vertex 21.6 10 1.8
      vertex 21.9515 10.8485 70
      vertex 21.9515 10.8485 1.44853
    endloop
  endfacet
  facet normal -0.923879 0.382684 0
    outer loop
      vertex 21.9515 10.8485 70
      vertex 21.6 10 1.8
      vertex 21.6 10 70
    endloop
  endfacet
  facet normal 0.92388 -0.382682 0
    outer loop
      vertex 23.6485 9.15147 70
      vertex 24 10 1.8
      vertex 24 10 70
    endloop
  endfacet
  facet normal 0.92388 -0.382682 0
    outer loop
      vertex 24 10 1.8
      vertex 23.6485 9.15147 70
      vertex 23.6485 9.15147 1.44853
    endloop
  endfacet
  facet normal -0.382684 -0.923879 0
    outer loop
      vertex 21.9515 9.15147 1.44853
      vertex 22.2 9.04853 70
      vertex 21.9515 9.15147 70
    endloop
  endfacet
  facet normal -0.382684 -0.923879 0
    outer loop
      vertex 21.9515 9.15147 1.44853
      vertex 22.2 9.04853 1.2
      vertex 22.2 9.04853 70
    endloop
  endfacet
  facet normal -0.923879 -0.382684 -0
    outer loop
      vertex 21.9515 9.15147 70
      vertex 21.6 10 1.8
      vertex 21.9515 9.15147 1.44853
    endloop
  endfacet
  facet normal -0.923879 -0.382684 0
    outer loop
      vertex 21.6 10 1.8
      vertex 21.9515 9.15147 70
      vertex 21.6 10 70
    endloop
  endfacet
  facet normal 0.382681 -0.923881 0
    outer loop
      vertex 23.4 9.04853 70
      vertex 23.6485 9.15147 1.44853
      vertex 23.6485 9.15147 70
    endloop
  endfacet
  facet normal 0.382681 -0.923881 0
    outer loop
      vertex 23.6485 9.15147 1.44853
      vertex 23.4 9.04853 70
      vertex 23.4 9.04853 1.2
    endloop
  endfacet
  facet normal 0.92388 0.382683 -0
    outer loop
      vertex 24 20 1.8
      vertex 23.6485 20.8485 70
      vertex 24 20 70
    endloop
  endfacet
  facet normal 0.92388 0.382683 0
    outer loop
      vertex 23.6485 20.8485 70
      vertex 24 20 1.8
      vertex 23.6485 20.8485 1.44853
    endloop
  endfacet
  facet normal -0.382681 0.923881 0
    outer loop
      vertex 22.2 20.9515 70
      vertex 21.9515 20.8485 1.44853
      vertex 21.9515 20.8485 70
    endloop
  endfacet
  facet normal -0.382681 0.923881 0
    outer loop
      vertex 22.2 20.9515 1.2
      vertex 21.9515 20.8485 1.44853
      vertex 22.2 20.9515 70
    endloop
  endfacet
  facet normal 0.382681 0.923881 -0
    outer loop
      vertex 23.6485 20.8485 1.44853
      vertex 23.4 20.9515 70
      vertex 23.6485 20.8485 70
    endloop
  endfacet
  facet normal 0.382681 0.923881 0
    outer loop
      vertex 23.4 20.9515 70
      vertex 23.6485 20.8485 1.44853
      vertex 23.4 20.9515 1.2
    endloop
  endfacet
  facet normal -0.923879 0.382684 0
    outer loop
      vertex 21.6 20 1.8
      vertex 21.9515 20.8485 70
      vertex 21.9515 20.8485 1.44853
    endloop
  endfacet
  facet normal -0.923879 0.382684 0
    outer loop
      vertex 21.9515 20.8485 70
      vertex 21.6 20 1.8
      vertex 21.6 20 70
    endloop
  endfacet
  facet normal 0.92388 -0.382682 0
    outer loop
      vertex 23.6485 19.1515 70
      vertex 24 20 1.8
      vertex 24 20 70
    endloop
  endfacet
  facet normal 0.92388 -0.382682 0
    outer loop
      vertex 24 20 1.8
      vertex 23.6485 19.1515 70
      vertex 23.6485 19.1515 1.44853
    endloop
  endfacet
  facet normal -0.382681 -0.923881 0
    outer loop
      vertex 21.9515 19.1515 1.44853
      vertex 22.2 19.0485 70
      vertex 21.9515 19.1515 70
    endloop
  endfacet
  facet normal -0.382681 -0.923881 0
    outer loop
      vertex 21.9515 19.1515 1.44853
      vertex 22.2 19.0485 1.2
      vertex 22.2 19.0485 70
    endloop
  endfacet
  facet normal -0.923879 -0.382684 -0
    outer loop
      vertex 21.9515 19.1515 70
      vertex 21.6 20 1.8
      vertex 21.9515 19.1515 1.44853
    endloop
  endfacet
  facet normal -0.923879 -0.382684 0
    outer loop
      vertex 21.6 20 1.8
      vertex 21.9515 19.1515 70
      vertex 21.6 20 70
    endloop
  endfacet
  facet normal 0.382681 -0.923881 0
    outer loop
      vertex 23.4 19.0485 70
      vertex 23.6485 19.1515 1.44853
      vertex 23.6485 19.1515 70
    endloop
  endfacet
  facet normal 0.382681 -0.923881 0
    outer loop
      vertex 23.6485 19.1515 1.44853
      vertex 23.4 19.0485 70
      vertex 23.4 19.0485 1.2
    endloop
  endfacet
  facet normal 0.92388 0.382683 -0
    outer loop
      vertex 24 30 1.8
      vertex 23.6485 30.8485 70
      vertex 24 30 70
    endloop
  endfacet
  facet normal 0.92388 0.382683 0
    outer loop
      vertex 23.6485 30.8485 70
      vertex 24 30 1.8
      vertex 23.6485 30.8485 1.44853
    endloop
  endfacet
  facet normal -0.382681 0.923881 0
    outer loop
      vertex 22.2 30.9515 70
      vertex 21.9515 30.8485 1.44853
      vertex 21.9515 30.8485 70
    endloop
  endfacet
  facet normal -0.382681 0.923881 0
    outer loop
      vertex 22.2 30.9515 1.2
      vertex 21.9515 30.8485 1.44853
      vertex 22.2 30.9515 70
    endloop
  endfacet
  facet normal 0.382681 0.923881 -0
    outer loop
      vertex 23.6485 30.8485 1.44853
      vertex 23.4 30.9515 70
      vertex 23.6485 30.8485 70
    endloop
  endfacet
  facet normal 0.382681 0.923881 0
    outer loop
      vertex 23.4 30.9515 70
      vertex 23.6485 30.8485 1.44853
      vertex 23.4 30.9515 1.2
    endloop
  endfacet
  facet normal -0.923879 0.382684 0
    outer loop
      vertex 21.6 30 1.8
      vertex 21.9515 30.8485 70
      vertex 21.9515 30.8485 1.44853
    endloop
  endfacet
  facet normal -0.923879 0.382684 0
    outer loop
      vertex 21.9515 30.8485 70
      vertex 21.6 30 1.8
      vertex 21.6 30 70
    endloop
  endfacet
  facet normal 0.92388 -0.382682 0
    outer loop
      vertex 23.6485 29.1515 70
      vertex 24 30 1.8
      vertex 24 30 70
    endloop
  endfacet
  facet normal 0.92388 -0.382682 0
    outer loop
      vertex 24 30 1.8
      vertex 23.6485 29.1515 70
      vertex 23.6485 29.1515 1.44853
    endloop
  endfacet
  facet normal -0.382681 -0.923881 0
    outer loop
      vertex 21.9515 29.1515 1.44853
      vertex 22.2 29.0485 70
      vertex 21.9515 29.1515 70
    endloop
  endfacet
  facet normal -0.382681 -0.923881 0
    outer loop
      vertex 21.9515 29.1515 1.44853
      vertex 22.2 29.0485 1.2
      vertex 22.2 29.0485 70
    endloop
  endfacet
  facet normal -0.923879 -0.382684 -0
    outer loop
      vertex 21.9515 29.1515 70
      vertex 21.6 30 1.8
      vertex 21.9515 29.1515 1.44853
    endloop
  endfacet
  facet normal -0.923879 -0.382684 0
    outer loop
      vertex 21.6 30 1.8
      vertex 21.9515 29.1515 70
      vertex 21.6 30 70
    endloop
  endfacet
  facet normal 0.382681 -0.923881 0
    outer loop
      vertex 23.4 29.0485 70
      vertex 23.6485 29.1515 1.44853
      vertex 23.6485 29.1515 70
    endloop
  endfacet
  facet normal 0.382681 -0.923881 0
    outer loop
      vertex 23.6485 29.1515 1.44853
      vertex 23.4 29.0485 70
      vertex 23.4 29.0485 1.2
    endloop
  endfacet
  facet normal 0.92388 0.382683 -0
    outer loop
      vertex 24 40 1.8
      vertex 23.6485 40.8485 70
      vertex 24 40 70
    endloop
  endfacet
  facet normal 0.92388 0.382683 0
    outer loop
      vertex 23.6485 40.8485 70
      vertex 24 40 1.8
      vertex 23.6485 40.8485 1.44853
    endloop
  endfacet
  facet normal -0.382693 0.923876 0
    outer loop
      vertex 22.2 40.9515 70
      vertex 21.9515 40.8485 1.44853
      vertex 21.9515 40.8485 70
    endloop
  endfacet
  facet normal -0.382693 0.923876 0
    outer loop
      vertex 22.2 40.9515 1.2
      vertex 21.9515 40.8485 1.44853
      vertex 22.2 40.9515 70
    endloop
  endfacet
  facet normal 0.382693 0.923876 -0
    outer loop
      vertex 23.6485 40.8485 1.44853
      vertex 23.4 40.9515 70
      vertex 23.6485 40.8485 70
    endloop
  endfacet
  facet normal 0.382693 0.923876 0
    outer loop
      vertex 23.4 40.9515 70
      vertex 23.6485 40.8485 1.44853
      vertex 23.4 40.9515 1.2
    endloop
  endfacet
  facet normal -0.923879 0.382685 0
    outer loop
      vertex 21.6 40 1.8
      vertex 21.9515 40.8485 70
      vertex 21.9515 40.8485 1.44853
    endloop
  endfacet
  facet normal -0.923879 0.382685 0
    outer loop
      vertex 21.9515 40.8485 70
      vertex 21.6 40 1.8
      vertex 21.6 40 70
    endloop
  endfacet
  facet normal 0.92388 -0.382682 0
    outer loop
      vertex 23.6485 39.1515 70
      vertex 24 40 1.8
      vertex 24 40 70
    endloop
  endfacet
  facet normal 0.92388 -0.382682 0
    outer loop
      vertex 24 40 1.8
      vertex 23.6485 39.1515 70
      vertex 23.6485 39.1515 1.44853
    endloop
  endfacet
  facet normal -0.382681 -0.923881 0
    outer loop
      vertex 21.9515 39.1515 1.44853
      vertex 22.2 39.0485 70
      vertex 21.9515 39.1515 70
    endloop
  endfacet
  facet normal -0.382681 -0.923881 0
    outer loop
      vertex 21.9515 39.1515 1.44853
      vertex 22.2 39.0485 1.2
      vertex 22.2 39.0485 70
    endloop
  endfacet
  facet normal -0.923879 -0.382684 -0
    outer loop
      vertex 21.9515 39.1515 70
      vertex 21.6 40 1.8
      vertex 21.9515 39.1515 1.44853
    endloop
  endfacet
  facet normal -0.923879 -0.382684 0
    outer loop
      vertex 21.6 40 1.8
      vertex 21.9515 39.1515 70
      vertex 21.6 40 70
    endloop
  endfacet
  facet normal 0.382681 -0.923881 0
    outer loop
      vertex 23.4 39.0485 70
      vertex 23.6485 39.1515 1.44853
      vertex 23.6485 39.1515 70
    endloop
  endfacet
  facet normal 0.382681 -0.923881 0
    outer loop
      vertex 23.6485 39.1515 1.44853
      vertex 23.4 39.0485 70
      vertex 23.4 39.0485 1.2
    endloop
  endfacet
  facet normal 0.92388 0.382683 -0
    outer loop
      vertex 24 50 1.8
      vertex 23.6485 50.8485 70
      vertex 24 50 70
    endloop
  endfacet
  facet normal 0.92388 0.382683 0
    outer loop
      vertex 23.6485 50.8485 70
      vertex 24 50 1.8
      vertex 23.6485 50.8485 1.44853
    endloop
  endfacet
  facet normal -0.382693 0.923876 0
    outer loop
      vertex 22.2 50.9515 70
      vertex 21.9515 50.8485 1.44853
      vertex 21.9515 50.8485 70
    endloop
  endfacet
  facet normal -0.382693 0.923876 0
    outer loop
      vertex 22.2 50.9515 1.2
      vertex 21.9515 50.8485 1.44853
      vertex 22.2 50.9515 70
    endloop
  endfacet
  facet normal 0.382693 0.923876 -0
    outer loop
      vertex 23.6485 50.8485 1.44853
      vertex 23.4 50.9515 70
      vertex 23.6485 50.8485 70
    endloop
  endfacet
  facet normal 0.382693 0.923876 0
    outer loop
      vertex 23.4 50.9515 70
      vertex 23.6485 50.8485 1.44853
      vertex 23.4 50.9515 1.2
    endloop
  endfacet
  facet normal -0.923879 0.382685 0
    outer loop
      vertex 21.6 50 1.8
      vertex 21.9515 50.8485 70
      vertex 21.9515 50.8485 1.44853
    endloop
  endfacet
  facet normal -0.923879 0.382685 0
    outer loop
      vertex 21.9515 50.8485 70
      vertex 21.6 50 1.8
      vertex 21.6 50 70
    endloop
  endfacet
  facet normal 0.92388 -0.382682 0
    outer loop
      vertex 23.6485 49.1515 70
      vertex 24 50 1.8
      vertex 24 50 70
    endloop
  endfacet
  facet normal 0.92388 -0.382682 0
    outer loop
      vertex 24 50 1.8
      vertex 23.6485 49.1515 70
      vertex 23.6485 49.1515 1.44853
    endloop
  endfacet
  facet normal -0.382681 -0.923881 0
    outer loop
      vertex 21.9515 49.1515 1.44853
      vertex 22.2 49.0485 70
      vertex 21.9515 49.1515 70
    endloop
  endfacet
  facet normal -0.382681 -0.923881 0
    outer loop
      vertex 21.9515 49.1515 1.44853
      vertex 22.2 49.0485 1.2
      vertex 22.2 49.0485 70
    endloop
  endfacet
  facet normal -0.923879 -0.382684 -0
    outer loop
      vertex 21.9515 49.1515 70
      vertex 21.6 50 1.8
      vertex 21.9515 49.1515 1.44853
    endloop
  endfacet
  facet normal -0.923879 -0.382684 0
    outer loop
      vertex 21.6 50 1.8
      vertex 21.9515 49.1515 70
      vertex 21.6 50 70
    endloop
  endfacet
  facet normal 0.382681 -0.923881 0
    outer loop
      vertex 23.4 49.0485 70
      vertex 23.6485 49.1515 1.44853
      vertex 23.6485 49.1515 70
    endloop
  endfacet
  facet normal 0.382681 -0.923881 0
    outer loop
      vertex 23.6485 49.1515 1.44853
      vertex 23.4 49.0485 70
      vertex 23.4 49.0485 1.2
    endloop
  endfacet
  facet normal 0.92388 0.382683 -0
    outer loop
      vertex 24 60 1.8
      vertex 23.6485 60.8485 70
      vertex 24 60 70
    endloop
  endfacet
  facet normal 0.92388 0.382683 0
    outer loop
      vertex 23.6485 60.8485 70
      vertex 24 60 1.8
      vertex 23.6485 60.8485 1.44853
    endloop
  endfacet
  facet normal -0.382693 0.923876 0
    outer loop
      vertex 22.2 60.9515 70
      vertex 21.9515 60.8485 1.44853
      vertex 21.9515 60.8485 70
    endloop
  endfacet
  facet normal -0.382693 0.923876 0
    outer loop
      vertex 22.2 60.9515 1.2
      vertex 21.9515 60.8485 1.44853
      vertex 22.2 60.9515 70
    endloop
  endfacet
  facet normal 0.382693 0.923876 -0
    outer loop
      vertex 23.6485 60.8485 1.44853
      vertex 23.4 60.9515 70
      vertex 23.6485 60.8485 70
    endloop
  endfacet
  facet normal 0.382693 0.923876 0
    outer loop
      vertex 23.4 60.9515 70
      vertex 23.6485 60.8485 1.44853
      vertex 23.4 60.9515 1.2
    endloop
  endfacet
  facet normal -0.923879 0.382685 0
    outer loop
      vertex 21.6 60 1.8
      vertex 21.9515 60.8485 70
      vertex 21.9515 60.8485 1.44853
    endloop
  endfacet
  facet normal -0.923879 0.382685 0
    outer loop
      vertex 21.9515 60.8485 70
      vertex 21.6 60 1.8
      vertex 21.6 60 70
    endloop
  endfacet
  facet normal 0.92388 -0.382682 0
    outer loop
      vertex 23.6485 59.1515 70
      vertex 24 60 1.8
      vertex 24 60 70
    endloop
  endfacet
  facet normal 0.92388 -0.382682 0
    outer loop
      vertex 24 60 1.8
      vertex 23.6485 59.1515 70
      vertex 23.6485 59.1515 1.44853
    endloop
  endfacet
  facet normal -0.382681 -0.923881 0
    outer loop
      vertex 21.9515 59.1515 1.44853
      vertex 22.2 59.0485 70
      vertex 21.9515 59.1515 70
    endloop
  endfacet
  facet normal -0.382681 -0.923881 0
    outer loop
      vertex 21.9515 59.1515 1.44853
      vertex 22.2 59.0485 1.2
      vertex 22.2 59.0485 70
    endloop
  endfacet
  facet normal -0.923879 -0.382684 -0
    outer loop
      vertex 21.9515 59.1515 70
      vertex 21.6 60 1.8
      vertex 21.9515 59.1515 1.44853
    endloop
  endfacet
  facet normal -0.923879 -0.382684 0
    outer loop
      vertex 21.6 60 1.8
      vertex 21.9515 59.1515 70
      vertex 21.6 60 70
    endloop
  endfacet
  facet normal 0.382681 -0.923881 0
    outer loop
      vertex 23.4 59.0485 70
      vertex 23.6485 59.1515 1.44853
      vertex 23.6485 59.1515 70
    endloop
  endfacet
  facet normal 0.382681 -0.923881 0
    outer loop
      vertex 23.6485 59.1515 1.44853
      vertex 23.4 59.0485 70
      vertex 23.4 59.0485 1.2
    endloop
  endfacet
  facet normal 0.92388 0.382683 -0
    outer loop
      vertex 24 70 1.8
      vertex 23.6485 70.8485 70
      vertex 24 70 70
    endloop
  endfacet
  facet normal 0.92388 0.382683 0
    outer loop
      vertex 23.6485 70.8485 70
      vertex 24 70 1.8
      vertex 23.6485 70.8485 1.44853
    endloop
  endfacet
  facet normal -0.382681 0.923881 0
    outer loop
      vertex 22.2 70.9515 70
      vertex 21.9515 70.8485 1.44853
      vertex 21.9515 70.8485 70
    endloop
  endfacet
  facet normal -0.382681 0.923881 0
    outer loop
      vertex 22.2 70.9515 1.2
      vertex 21.9515 70.8485 1.44853
      vertex 22.2 70.9515 70
    endloop
  endfacet
  facet normal 0.382681 0.923881 -0
    outer loop
      vertex 23.6485 70.8485 1.44853
      vertex 23.4 70.9515 70
      vertex 23.6485 70.8485 70
    endloop
  endfacet
  facet normal 0.382681 0.923881 0
    outer loop
      vertex 23.4 70.9515 70
      vertex 23.6485 70.8485 1.44853
      vertex 23.4 70.9515 1.2
    endloop
  endfacet
  facet normal -0.923879 0.382685 0
    outer loop
      vertex 21.6 70 1.8
      vertex 21.9515 70.8485 70
      vertex 21.9515 70.8485 1.44853
    endloop
  endfacet
  facet normal -0.923879 0.382685 0
    outer loop
      vertex 21.9515 70.8485 70
      vertex 21.6 70 1.8
      vertex 21.6 70 70
    endloop
  endfacet
  facet normal 0.92388 -0.382683 0
    outer loop
      vertex 23.6485 69.1515 70
      vertex 24 70 1.8
      vertex 24 70 70
    endloop
  endfacet
  facet normal 0.92388 -0.382683 0
    outer loop
      vertex 24 70 1.8
      vertex 23.6485 69.1515 70
      vertex 23.6485 69.1515 1.44853
    endloop
  endfacet
  facet normal -0.382681 -0.923881 0
    outer loop
      vertex 21.9515 69.1515 1.44853
      vertex 22.2 69.0485 70
      vertex 21.9515 69.1515 70
    endloop
  endfacet
  facet normal -0.382681 -0.923881 0
    outer loop
      vertex 21.9515 69.1515 1.44853
      vertex 22.2 69.0485 1.2
      vertex 22.2 69.0485 70
    endloop
  endfacet
  facet normal -0.923879 -0.382685 -0
    outer loop
      vertex 21.9515 69.1515 70
      vertex 21.6 70 1.8
      vertex 21.9515 69.1515 1.44853
    endloop
  endfacet
  facet normal -0.923879 -0.382685 0
    outer loop
      vertex 21.6 70 1.8
      vertex 21.9515 69.1515 70
      vertex 21.6 70 70
    endloop
  endfacet
  facet normal 0.382681 -0.923881 0
    outer loop
      vertex 23.4 69.0485 70
      vertex 23.6485 69.1515 1.44853
      vertex 23.6485 69.1515 70
    endloop
  endfacet
  facet normal 0.382681 -0.923881 0
    outer loop
      vertex 23.6485 69.1515 1.44853
      vertex 23.4 69.0485 70
      vertex 23.4 69.0485 1.2
    endloop
  endfacet
  facet normal 0.92388 0.382683 -0
    outer loop
      vertex 24 80 1.8
      vertex 23.6485 80.8485 70
      vertex 24 80 70
    endloop
  endfacet
  facet normal 0.92388 0.382683 0
    outer loop
      vertex 23.6485 80.8485 70
      vertex 24 80 1.8
      vertex 23.6485 80.8485 1.44853
    endloop
  endfacet
  facet normal -0.382682 0.92388 0
    outer loop
      vertex 22.8 81.2 0
      vertex 22.2 80.9515 0
      vertex 22.8 81.2 0.599999
    endloop
  endfacet
  facet normal -0.382683 0.92388 0
    outer loop
      vertex 22.8 81.2 70
      vertex 21.9515 80.8485 1.44853
      vertex 21.9515 80.8485 70
    endloop
  endfacet
  facet normal -0.382683 0.92388 0
    outer loop
      vertex 21.9515 80.8485 1.44853
      vertex 22.8 81.2 70
      vertex 22.8 81.2 0.599999
    endloop
  endfacet
  facet normal 0.382682 0.92388 -0
    outer loop
      vertex 23.6485 80.8485 1.44853
      vertex 22.8 81.2 70
      vertex 23.6485 80.8485 70
    endloop
  endfacet
  facet normal 0.382682 0.92388 0
    outer loop
      vertex 22.8 81.2 70
      vertex 23.6485 80.8485 1.44853
      vertex 22.8 81.2 0.599999
    endloop
  endfacet
  facet normal 0.382682 0.92388 0
    outer loop
      vertex 23.4 80.9515 0
      vertex 22.8 81.2 0
      vertex 22.8 81.2 0.599999
    endloop
  endfacet
  facet normal -0.923879 0.382685 0
    outer loop
      vertex 21.6 80 1.8
      vertex 21.9515 80.8485 70
      vertex 21.9515 80.8485 1.44853
    endloop
  endfacet
  facet normal -0.923879 0.382685 0
    outer loop
      vertex 21.9515 80.8485 70
      vertex 21.6 80 1.8
      vertex 21.6 80 70
    endloop
  endfacet
  facet normal 0.92388 -0.382683 0
    outer loop
      vertex 23.6485 79.1515 70
      vertex 24 80 1.8
      vertex 24 80 70
    endloop
  endfacet
  facet normal 0.92388 -0.382683 0
    outer loop
      vertex 24 80 1.8
      vertex 23.6485 79.1515 70
      vertex 23.6485 79.1515 1.44853
    endloop
  endfacet
  facet normal -0.382681 -0.923881 0
    outer loop
      vertex 21.9515 79.1515 1.44853
      vertex 22.2 79.0485 70
      vertex 21.9515 79.1515 70
    endloop
  endfacet
  facet normal -0.382681 -0.923881 0
    outer loop
      vertex 21.9515 79.1515 1.44853
      vertex 22.2 79.0485 1.2
      vertex 22.2 79.0485 70
    endloop
  endfacet
  facet normal -0.923879 -0.382685 -0
    outer loop
      vertex 21.9515 79.1515 70
      vertex 21.6 80 1.8
      vertex 21.9515 79.1515 1.44853
    endloop
  endfacet
  facet normal -0.923879 -0.382685 0
    outer loop
      vertex 21.6 80 1.8
      vertex 21.9515 79.1515 70
      vertex 21.6 80 70
    endloop
  endfacet
  facet normal 0.382681 -0.923881 0
    outer loop
      vertex 23.4 79.0485 70
      vertex 23.6485 79.1515 1.44853
      vertex 23.6485 79.1515 70
    endloop
  endfacet
  facet normal 0.382681 -0.923881 0
    outer loop
      vertex 23.6485 79.1515 1.44853
      vertex 23.4 79.0485 70
      vertex 23.4 79.0485 1.2
    endloop
  endfacet
  facet normal -0 0.382684 0.923879
    outer loop
      vertex 0 0.848528 1.44853
      vertex 21.6 0 1.8
      vertex 21.9515 0.848528 1.44853
    endloop
  endfacet
  facet normal 0 0.382684 0.923879
    outer loop
      vertex 21.6 0 1.8
      vertex 0 0.848528 1.44853
      vertex 0 0 1.8
    endloop
  endfacet
  facet normal 0 0.382684 0.923879
    outer loop
      vertex 100 0.848528 1.44853
      vertex 24 0 1.8
      vertex 100 0 1.8
    endloop
  endfacet
  facet normal 0 0.382684 0.923879
    outer loop
      vertex 24 0 1.8
      vertex 100 0.848528 1.44853
      vertex 23.6485 0.848528 1.44853
    endloop
  endfacet
  facet normal -0 0.923879 0.382684
    outer loop
      vertex 0 0.951471 1.2
      vertex 21.9515 0.848528 1.44853
      vertex 22.2 0.951471 1.2
    endloop
  endfacet
  facet normal 0 0.923879 0.382684
    outer loop
      vertex 21.9515 0.848528 1.44853
      vertex 0 0.951471 1.2
      vertex 0 0.848528 1.44853
    endloop
  endfacet
  facet normal 0 0.923879 0.382684
    outer loop
      vertex 100 0.951471 1.2
      vertex 23.6485 0.848528 1.44853
      vertex 100 0.848528 1.44853
    endloop
  endfacet
  facet normal 0 0.923879 0.382684
    outer loop
      vertex 23.6485 0.848528 1.44853
      vertex 100 0.951471 1.2
      vertex 23.4 0.951471 1.2
    endloop
  endfacet
  facet normal 0 -0.923879 0.382684
    outer loop
      vertex 100 -1.2 0.599999
      vertex 23.6485 -0.848528 1.44853
      vertex 22.8 -1.2 0.599999
    endloop
  endfacet
  facet normal 0 -0.923879 0.382684
    outer loop
      vertex 23.6485 -0.848528 1.44853
      vertex 100 -1.2 0.599999
      vertex 100 -0.848528 1.44853
    endloop
  endfacet
  facet normal 0 -0.923879 0.382684
    outer loop
      vertex 0 -1.2 0.599999
      vertex 21.9515 -0.848528 1.44853
      vertex 0 -0.848528 1.44853
    endloop
  endfacet
  facet normal 0 -0.923879 0.382684
    outer loop
      vertex 21.9515 -0.848528 1.44853
      vertex 0 -1.2 0.599999
      vertex 22.8 -1.2 0.599999
    endloop
  endfacet
  facet normal 0 -0.923879 -0.382684
    outer loop
      vertex 23.4 -0.951472 0
      vertex 100 -1.2 0.599999
      vertex 22.8 -1.2 0.599999
    endloop
  endfacet
  facet normal 0 -0.923879 -0.382684
    outer loop
      vertex 100 -1.2 0.599999
      vertex 23.4 -0.951472 0
      vertex 100 -0.951472 0
    endloop
  endfacet
  facet normal -0 -0.923879 -0.382684
    outer loop
      vertex 22.2 -0.951472 0
      vertex 0 -1.2 0.599999
      vertex 0 -0.951472 0
    endloop
  endfacet
  facet normal 0 -0.923879 -0.382684
    outer loop
      vertex 0 -1.2 0.599999
      vertex 22.2 -0.951472 0
      vertex 22.8 -1.2 0.599999
    endloop
  endfacet
  facet normal 0 -0.382684 0.923879
    outer loop
      vertex 0 -0.848528 1.44853
      vertex 21.6 0 1.8
      vertex 0 0 1.8
    endloop
  endfacet
  facet normal 0 -0.382684 0.923879
    outer loop
      vertex 21.6 0 1.8
      vertex 0 -0.848528 1.44853
      vertex 21.9515 -0.848528 1.44853
    endloop
  endfacet
  facet normal 0 -0.382684 0.923879
    outer loop
      vertex 24 0 1.8
      vertex 100 -0.848528 1.44853
      vertex 100 0 1.8
    endloop
  endfacet
  facet normal 0 -0.382684 0.923879
    outer loop
      vertex 100 -0.848528 1.44853
      vertex 24 0 1.8
      vertex 23.6485 -0.848528 1.44853
    endloop
  endfacet
  facet normal -1 0 0
    outer loop
      vertex 0 80 0
      vertex 0 81.2 0.599999
      vertex 0 80.9515 0
    endloop
  endfacet
  facet normal -1 -0 0
    outer loop
      vertex 0 81.2 0.599999
      vertex 0 80 0
      vertex 0 80.8485 1.44853
    endloop
  endfacet
  facet normal -1 0 0
    outer loop
      vertex 0 80 0
      vertex 0 80 1.8
      vertex 0 80.8485 1.44853
    endloop
  endfacet
  facet normal -1 0 0
    outer loop
      vertex 0 79.0485 1.2
      vertex 0 80 1.8
      vertex 0 80 0
    endloop
  endfacet
  facet normal -1 0 0
    outer loop
      vertex 0 80 1.8
      vertex 0 79.0485 1.2
      vertex 0 79.1515 1.44853
    endloop
  endfacet
  facet normal -1 0 0
    outer loop
      vertex 0 80 0
      vertex 0 70.9515 1.2
      vertex 0 79.0485 1.2
    endloop
  endfacet
  facet normal -1 0 0
    outer loop
      vertex 0 70.9515 1.2
      vertex 0 70 1.8
      vertex 0 70.8485 1.44853
    endloop
  endfacet
  facet normal -1 0 0
    outer loop
      vertex 0 69.0485 1.2
      vertex 0 70 1.8
      vertex 0 70.9515 1.2
    endloop
  endfacet
  facet normal -1 0 0
    outer loop
      vertex 0 70 1.8
      vertex 0 69.0485 1.2
      vertex 0 69.1515 1.44853
    endloop
  endfacet
  facet normal -1 0 0
    outer loop
      vertex 0 80 0
      vertex 0 69.0485 1.2
      vertex 0 70.9515 1.2
    endloop
  endfacet
  facet normal -1 0 0
    outer loop
      vertex 0 80 0
      vertex 0 60.9515 1.2
      vertex 0 69.0485 1.2
    endloop
  endfacet
  facet normal -1 0 0
    outer loop
      vertex 0 60.9515 1.2
      vertex 0 60 1.8
      vertex 0 60.8485 1.44853
    endloop
  endfacet
  facet normal -1 0 0
    outer loop
      vertex 0 59.0485 1.2
      vertex 0 60 1.8
      vertex 0 60.9515 1.2
    endloop
  endfacet
  facet normal -1 0 0
    outer loop
      vertex 0 60 1.8
      vertex 0 59.0485 1.2
      vertex 0 59.1515 1.44853
    endloop
  endfacet
  facet normal -1 0 0
    outer loop
      vertex 0 80 0
      vertex 0 59.0485 1.2
      vertex 0 60.9515 1.2
    endloop
  endfacet
  facet normal -1 0 0
    outer loop
      vertex 0 80 0
      vertex 0 50.9515 1.2
      vertex 0 59.0485 1.2
    endloop
  endfacet
  facet normal -1 0 0
    outer loop
      vertex 0 50.9515 1.2
      vertex 0 50 1.8
      vertex 0 50.8485 1.44853
    endloop
  endfacet
  facet normal -1 0 0
    outer loop
      vertex 0 49.0485 1.2
      vertex 0 50 1.8
      vertex 0 50.9515 1.2
    endloop
  endfacet
  facet normal -1 0 0
    outer loop
      vertex 0 50 1.8
      vertex 0 49.0485 1.2
      vertex 0 49.1515 1.44853
    endloop
  endfacet
  facet normal -1 0 0
    outer loop
      vertex 0 80 0
      vertex 0 49.0485 1.2
      vertex 0 50.9515 1.2
    endloop
  endfacet
  facet normal -1 0 0
    outer loop
      vertex 0 80 0
      vertex 0 40.9515 1.2
      vertex 0 49.0485 1.2
    endloop
  endfacet
  facet normal -1 0 0
    outer loop
      vertex 0 40.9515 1.2
      vertex 0 40 1.8
      vertex 0 40.8485 1.44853
    endloop
  endfacet
  facet normal -1 0 0
    outer loop
      vertex 0 39.0485 1.2
      vertex 0 40 1.8
      vertex 0 40.9515 1.2
    endloop
  endfacet
  facet normal -1 0 0
    outer loop
      vertex 0 40 1.8
      vertex 0 39.0485 1.2
      vertex 0 39.1515 1.44853
    endloop
  endfacet
  facet normal -1 0 0
    outer loop
      vertex 0 80 0
      vertex 0 39.0485 1.2
      vertex 0 40.9515 1.2
    endloop
  endfacet
  facet normal -1 0 0
    outer loop
      vertex 0 80 0
      vertex 0 30.9515 1.2
      vertex 0 39.0485 1.2
    endloop
  endfacet
  facet normal -1 0 0
    outer loop
      vertex 0 30.9515 1.2
      vertex 0 30 1.8
      vertex 0 30.8485 1.44853
    endloop
  endfacet
  facet normal -1 0 0
    outer loop
      vertex 0 29.0485 1.2
      vertex 0 30 1.8
      vertex 0 30.9515 1.2
    endloop
  endfacet
  facet normal -1 0 0
    outer loop
      vertex 0 30 1.8
      vertex 0 29.0485 1.2
      vertex 0 29.1515 1.44853
    endloop
  endfacet
  facet normal -1 0 0
    outer loop
      vertex 0 0 0
      vertex 0 30.9515 1.2
      vertex 0 80 0
    endloop
  endfacet
  facet normal -1 -0 0
    outer loop
      vertex 0 30.9515 1.2
      vertex 0 0 0
      vertex 0 29.0485 1.2
    endloop
  endfacet
  facet normal -1 0 0
    outer loop
      vertex 0 20.9515 1.2
      vertex 0 20 1.8
      vertex 0 20.8485 1.44853
    endloop
  endfacet
  facet normal -1 0 0
    outer loop
      vertex 0 19.0485 1.2
      vertex 0 20 1.8
      vertex 0 20.9515 1.2
    endloop
  endfacet
  facet normal -1 0 0
    outer loop
      vertex 0 20 1.8
      vertex 0 19.0485 1.2
      vertex 0 19.1515 1.44853
    endloop
  endfacet
  facet normal -1 -0 0
    outer loop
      vertex 0 29.0485 1.2
      vertex 0 0 0
      vertex 0 20.9515 1.2
    endloop
  endfacet
  facet normal -1 -0 0
    outer loop
      vertex 0 20.9515 1.2
      vertex 0 0 0
      vertex 0 19.0485 1.2
    endloop
  endfacet
  facet normal -1 0 0
    outer loop
      vertex 0 10.9515 1.2
      vertex 0 10 1.8
      vertex 0 10.8485 1.44853
    endloop
  endfacet
  facet normal -1 0 0
    outer loop
      vertex 0 9.04853 1.2
      vertex 0 10 1.8
      vertex 0 10.9515 1.2
    endloop
  endfacet
  facet normal -1 0 0
    outer loop
      vertex 0 10 1.8
      vertex 0 9.04853 1.2
      vertex 0 9.15147 1.44853
    endloop
  endfacet
  facet normal -1 -0 0
    outer loop
      vertex 0 19.0485 1.2
      vertex 0 0 0
      vertex 0 10.9515 1.2
    endloop
  endfacet
  facet normal -1 -0 0
    outer loop
      vertex 0 10.9515 1.2
      vertex 0 0 0
      vertex 0 9.04853 1.2
    endloop
  endfacet
  facet normal -1 -0 0
    outer loop
      vertex 0 9.04853 1.2
      vertex 0 0 0
      vertex 0 0.951471 1.2
    endloop
  endfacet
  facet normal -1 0 0
    outer loop
      vertex 0 0 1.8
      vertex 0 0.951471 1.2
      vertex 0 0 0
    endloop
  endfacet
  facet normal -1 0 0
    outer loop
      vertex 0 0.951471 1.2
      vertex 0 0 1.8
      vertex 0 0.848528 1.44853
    endloop
  endfacet
  facet normal -1 0 0
    outer loop
      vertex 0 0 0
      vertex 0 -0.848528 1.44853
      vertex 0 0 1.8
    endloop
  endfacet
  facet normal -1 0 0
    outer loop
      vertex 0 -1.2 0.599999
      vertex 0 0 0
      vertex 0 -0.951472 0
    endloop
  endfacet
  facet normal -1 0 0
    outer loop
      vertex 0 0 0
      vertex 0 -1.2 0.599999
      vertex 0 -0.848528 1.44853
    endloop
  endfacet
  facet normal 1 0 0
    outer loop
      vertex 100 80 0
      vertex 100 81.2 0.599999
      vertex 100 80.8485 1.44853
    endloop
  endfacet
  facet normal 1 0 0
    outer loop
      vertex 100 80 0
      vertex 100 80.8485 1.44853
      vertex 100 80 1.8
    endloop
  endfacet
  facet normal 1 0 0
    outer loop
      vertex 100 81.2 0.599999
      vertex 100 80 0
      vertex 100 80.9515 0
    endloop
  endfacet
  facet normal 1 0 0
    outer loop
      vertex 100 79.0485 1.2
      vertex 100 80 1.8
      vertex 100 79.1515 1.44853
    endloop
  endfacet
  facet normal 1 0 0
    outer loop
      vertex 100 80 1.8
      vertex 100 79.0485 1.2
      vertex 100 80 0
    endloop
  endfacet
  facet normal 1 -0 0
    outer loop
      vertex 100 70.9515 1.2
      vertex 100 80 0
      vertex 100 79.0485 1.2
    endloop
  endfacet
  facet normal 1 0 0
    outer loop
      vertex 100 70 1.8
      vertex 100 70.9515 1.2
      vertex 100 70.8485 1.44853
    endloop
  endfacet
  facet normal 1 0 0
    outer loop
      vertex 100 69.0485 1.2
      vertex 100 70 1.8
      vertex 100 69.1515 1.44853
    endloop
  endfacet
  facet normal 1 0 0
    outer loop
      vertex 100 70 1.8
      vertex 100 69.0485 1.2
      vertex 100 70.9515 1.2
    endloop
  endfacet
  facet normal 1 -0 0
    outer loop
      vertex 100 69.0485 1.2
      vertex 100 80 0
      vertex 100 70.9515 1.2
    endloop
  endfacet
  facet normal 1 -0 0
    outer loop
      vertex 100 60.9515 1.2
      vertex 100 80 0
      vertex 100 69.0485 1.2
    endloop
  endfacet
  facet normal 1 0 0
    outer loop
      vertex 100 60 1.8
      vertex 100 60.9515 1.2
      vertex 100 60.8485 1.44853
    endloop
  endfacet
  facet normal 1 0 0
    outer loop
      vertex 100 59.0485 1.2
      vertex 100 60 1.8
      vertex 100 59.1515 1.44853
    endloop
  endfacet
  facet normal 1 0 0
    outer loop
      vertex 100 60 1.8
      vertex 100 59.0485 1.2
      vertex 100 60.9515 1.2
    endloop
  endfacet
  facet normal 1 -0 0
    outer loop
      vertex 100 59.0485 1.2
      vertex 100 80 0
      vertex 100 60.9515 1.2
    endloop
  endfacet
  facet normal 1 -0 0
    outer loop
      vertex 100 50.9515 1.2
      vertex 100 80 0
      vertex 100 59.0485 1.2
    endloop
  endfacet
  facet normal 1 0 0
    outer loop
      vertex 100 50 1.8
      vertex 100 50.9515 1.2
      vertex 100 50.8485 1.44853
    endloop
  endfacet
  facet normal 1 0 0
    outer loop
      vertex 100 49.0485 1.2
      vertex 100 50 1.8
      vertex 100 49.1515 1.44853
    endloop
  endfacet
  facet normal 1 0 0
    outer loop
      vertex 100 50 1.8
      vertex 100 49.0485 1.2
      vertex 100 50.9515 1.2
    endloop
  endfacet
  facet normal 1 -0 0
    outer loop
      vertex 100 49.0485 1.2
      vertex 100 80 0
      vertex 100 50.9515 1.2
    endloop
  endfacet
  facet normal 1 -0 0
    outer loop
      vertex 100 40.9515 1.2
      vertex 100 80 0
      vertex 100 49.0485 1.2
    endloop
  endfacet
  facet normal 1 0 0
    outer loop
      vertex 100 40 1.8
      vertex 100 40.9515 1.2
      vertex 100 40.8485 1.44853
    endloop
  endfacet
  facet normal 1 0 0
    outer loop
      vertex 100 39.0485 1.2
      vertex 100 40 1.8
      vertex 100 39.1515 1.44853
    endloop
  endfacet
  facet normal 1 0 0
    outer loop
      vertex 100 40 1.8
      vertex 100 39.0485 1.2
      vertex 100 40.9515 1.2
    endloop
  endfacet
  facet normal 1 -0 0
    outer loop
      vertex 100 39.0485 1.2
      vertex 100 80 0
      vertex 100 40.9515 1.2
    endloop
  endfacet
  facet normal 1 -0 0
    outer loop
      vertex 100 30.9515 1.2
      vertex 100 80 0
      vertex 100 39.0485 1.2
    endloop
  endfacet
  facet normal 1 0 0
    outer loop
      vertex 100 30 1.8
      vertex 100 30.9515 1.2
      vertex 100 30.8485 1.44853
    endloop
  endfacet
  facet normal 1 0 0
    outer loop
      vertex 100 29.0485 1.2
      vertex 100 30 1.8
      vertex 100 29.1515 1.44853
    endloop
  endfacet
  facet normal 1 0 0
    outer loop
      vertex 100 30 1.8
      vertex 100 29.0485 1.2
      vertex 100 30.9515 1.2
    endloop
  endfacet
  facet normal 1 0 0
    outer loop
      vertex 100 0 0
      vertex 100 30.9515 1.2
      vertex 100 29.0485 1.2
    endloop
  endfacet
  facet normal 1 0 0
    outer loop
      vertex 100 0 0
      vertex 100 29.0485 1.2
      vertex 100 20.9515 1.2
    endloop
  endfacet
  facet normal 1 0 0
    outer loop
      vertex 100 20 1.8
      vertex 100 20.9515 1.2
      vertex 100 20.8485 1.44853
    endloop
  endfacet
  facet normal 1 0 0
    outer loop
      vertex 100 19.0485 1.2
      vertex 100 20 1.8
      vertex 100 19.1515 1.44853
    endloop
  endfacet
  facet normal 1 0 0
    outer loop
      vertex 100 20 1.8
      vertex 100 19.0485 1.2
      vertex 100 20.9515 1.2
    endloop
  endfacet
  facet normal 1 0 0
    outer loop
      vertex 100 0 0
      vertex 100 20.9515 1.2
      vertex 100 19.0485 1.2
    endloop
  endfacet
  facet normal 1 0 0
    outer loop
      vertex 100 0 0
      vertex 100 19.0485 1.2
      vertex 100 10.9515 1.2
    endloop
  endfacet
  facet normal 1 0 0
    outer loop
      vertex 100 10 1.8
      vertex 100 10.9515 1.2
      vertex 100 10.8485 1.44853
    endloop
  endfacet
  facet normal 1 0 0
    outer loop
      vertex 100 9.04853 1.2
      vertex 100 10 1.8
      vertex 100 9.15147 1.44853
    endloop
  endfacet
  facet normal 1 0 0
    outer loop
      vertex 100 10 1.8
      vertex 100 9.04853 1.2
      vertex 100 10.9515 1.2
    endloop
  endfacet
  facet normal 1 0 0
    outer loop
      vertex 100 0 0
      vertex 100 10.9515 1.2
      vertex 100 9.04853 1.2
    endloop
  endfacet
  facet normal 1 0 0
    outer loop
      vertex 100 0 0
      vertex 100 9.04853 1.2
      vertex 100 0.951471 1.2
    endloop
  endfacet
  facet normal 1 0 0
    outer loop
      vertex 100 0 1.8
      vertex 100 0.951471 1.2
      vertex 100 0.848528 1.44853
    endloop
  endfacet
  facet normal 1 0 0
    outer loop
      vertex 100 30.9515 1.2
      vertex 100 0 0
      vertex 100 80 0
    endloop
  endfacet
  facet normal 1 0 0
    outer loop
      vertex 100 0 1.8
      vertex 100 0 0
      vertex 100 0.951471 1.2
    endloop
  endfacet
  facet normal 1 -0 0
    outer loop
      vertex 100 -0.848528 1.44853
      vertex 100 0 0
      vertex 100 0 1.8
    endloop
  endfacet
  facet normal 1 -0 0
    outer loop
      vertex 100 -1.2 0.599999
      vertex 100 0 0
      vertex 100 -0.848528 1.44853
    endloop
  endfacet
  facet normal 1 0 0
    outer loop
      vertex 100 0 0
      vertex 100 -1.2 0.599999
      vertex 100 -0.951472 0
    endloop
  endfacet
  facet normal 0 -0.382683 0.92388
    outer loop
      vertex 0 9.15147 1.44853
      vertex 21.6 10 1.8
      vertex 0 10 1.8
    endloop
  endfacet
  facet normal 0 -0.382683 0.92388
    outer loop
      vertex 21.6 10 1.8
      vertex 0 9.15147 1.44853
      vertex 21.9515 9.15147 1.44853
    endloop
  endfacet
  facet normal 0 -0.382683 0.92388
    outer loop
      vertex 24 10 1.8
      vertex 100 9.15147 1.44853
      vertex 100 10 1.8
    endloop
  endfacet
  facet normal 0 -0.382683 0.92388
    outer loop
      vertex 100 9.15147 1.44853
      vertex 24 10 1.8
      vertex 23.6485 9.15147 1.44853
    endloop
  endfacet
  facet normal -0 0.92388 0.382683
    outer loop
      vertex 0 10.9515 1.2
      vertex 21.9515 10.8485 1.44853
      vertex 22.2 10.9515 1.2
    endloop
  endfacet
  facet normal 0 0.92388 0.382683
    outer loop
      vertex 21.9515 10.8485 1.44853
      vertex 0 10.9515 1.2
      vertex 0 10.8485 1.44853
    endloop
  endfacet
  facet normal 0 0.92388 0.382683
    outer loop
      vertex 100 10.9515 1.2
      vertex 23.6485 10.8485 1.44853
      vertex 100 10.8485 1.44853
    endloop
  endfacet
  facet normal 0 0.92388 0.382683
    outer loop
      vertex 23.6485 10.8485 1.44853
      vertex 100 10.9515 1.2
      vertex 23.4 10.9515 1.2
    endloop
  endfacet
  facet normal -0 0.382684 0.923879
    outer loop
      vertex 0 10.8485 1.44853
      vertex 21.6 10 1.8
      vertex 21.9515 10.8485 1.44853
    endloop
  endfacet
  facet normal 0 0.382684 0.923879
    outer loop
      vertex 21.6 10 1.8
      vertex 0 10.8485 1.44853
      vertex 0 10 1.8
    endloop
  endfacet
  facet normal 0 0.382684 0.923879
    outer loop
      vertex 100 10.8485 1.44853
      vertex 24 10 1.8
      vertex 100 10 1.8
    endloop
  endfacet
  facet normal 0 0.382684 0.923879
    outer loop
      vertex 24 10 1.8
      vertex 100 10.8485 1.44853
      vertex 23.6485 10.8485 1.44853
    endloop
  endfacet
  facet normal 0 -0.92388 0.382683
    outer loop
      vertex 0 9.04853 1.2
      vertex 21.9515 9.15147 1.44853
      vertex 0 9.15147 1.44853
    endloop
  endfacet
  facet normal 0 -0.92388 0.382683
    outer loop
      vertex 21.9515 9.15147 1.44853
      vertex 0 9.04853 1.2
      vertex 22.2 9.04853 1.2
    endloop
  endfacet
  facet normal 0 -0.92388 0.382683
    outer loop
      vertex 100 9.04853 1.2
      vertex 23.6485 9.15147 1.44853
      vertex 23.4 9.04853 1.2
    endloop
  endfacet
  facet normal 0 -0.92388 0.382683
    outer loop
      vertex 23.6485 9.15147 1.44853
      vertex 100 9.04853 1.2
      vertex 100 9.15147 1.44853
    endloop
  endfacet
  facet normal 0 -0.382683 0.92388
    outer loop
      vertex 0 19.1515 1.44853
      vertex 21.6 20 1.8
      vertex 0 20 1.8
    endloop
  endfacet
  facet normal 0 -0.382683 0.92388
    outer loop
      vertex 21.6 20 1.8
      vertex 0 19.1515 1.44853
      vertex 21.9515 19.1515 1.44853
    endloop
  endfacet
  facet normal 0 -0.382683 0.92388
    outer loop
      vertex 24 20 1.8
      vertex 100 19.1515 1.44853
      vertex 100 20 1.8
    endloop
  endfacet
  facet normal 0 -0.382683 0.92388
    outer loop
      vertex 100 19.1515 1.44853
      vertex 24 20 1.8
      vertex 23.6485 19.1515 1.44853
    endloop
  endfacet
  facet normal -0 0.92388 0.382683
    outer loop
      vertex 0 20.9515 1.2
      vertex 21.9515 20.8485 1.44853
      vertex 22.2 20.9515 1.2
    endloop
  endfacet
  facet normal 0 0.92388 0.382683
    outer loop
      vertex 21.9515 20.8485 1.44853
      vertex 0 20.9515 1.2
      vertex 0 20.8485 1.44853
    endloop
  endfacet
  facet normal 0 0.92388 0.382683
    outer loop
      vertex 100 20.9515 1.2
      vertex 23.6485 20.8485 1.44853
      vertex 100 20.8485 1.44853
    endloop
  endfacet
  facet normal 0 0.92388 0.382683
    outer loop
      vertex 23.6485 20.8485 1.44853
      vertex 100 20.9515 1.2
      vertex 23.4 20.9515 1.2
    endloop
  endfacet
  facet normal -0 0.382684 0.923879
    outer loop
      vertex 0 20.8485 1.44853
      vertex 21.6 20 1.8
      vertex 21.9515 20.8485 1.44853
    endloop
  endfacet
  facet normal 0 0.382684 0.923879
    outer loop
      vertex 21.6 20 1.8
      vertex 0 20.8485 1.44853
      vertex 0 20 1.8
    endloop
  endfacet
  facet normal 0 0.382684 0.923879
    outer loop
      vertex 100 20.8485 1.44853
      vertex 24 20 1.8
      vertex 100 20 1.8
    endloop
  endfacet
  facet normal 0 0.382684 0.923879
    outer loop
      vertex 24 20 1.8
      vertex 100 20.8485 1.44853
      vertex 23.6485 20.8485 1.44853
    endloop
  endfacet
  facet normal 0 -0.92388 0.382683
    outer loop
      vertex 0 19.0485 1.2
      vertex 21.9515 19.1515 1.44853
      vertex 0 19.1515 1.44853
    endloop
  endfacet
  facet normal 0 -0.92388 0.382683
    outer loop
      vertex 21.9515 19.1515 1.44853
      vertex 0 19.0485 1.2
      vertex 22.2 19.0485 1.2
    endloop
  endfacet
  facet normal 0 -0.92388 0.382683
    outer loop
      vertex 100 19.0485 1.2
      vertex 23.6485 19.1515 1.44853
      vertex 23.4 19.0485 1.2
    endloop
  endfacet
  facet normal 0 -0.92388 0.382683
    outer loop
      vertex 23.6485 19.1515 1.44853
      vertex 100 19.0485 1.2
      vertex 100 19.1515 1.44853
    endloop
  endfacet
  facet normal 0 -0.382683 0.92388
    outer loop
      vertex 0 29.1515 1.44853
      vertex 21.6 30 1.8
      vertex 0 30 1.8
    endloop
  endfacet
  facet normal 0 -0.382683 0.92388
    outer loop
      vertex 21.6 30 1.8
      vertex 0 29.1515 1.44853
      vertex 21.9515 29.1515 1.44853
    endloop
  endfacet
  facet normal 0 -0.382683 0.92388
    outer loop
      vertex 24 30 1.8
      vertex 100 29.1515 1.44853
      vertex 100 30 1.8
    endloop
  endfacet
  facet normal 0 -0.382683 0.92388
    outer loop
      vertex 100 29.1515 1.44853
      vertex 24 30 1.8
      vertex 23.6485 29.1515 1.44853
    endloop
  endfacet
  facet normal -0 0.92388 0.382683
    outer loop
      vertex 0 30.9515 1.2
      vertex 21.9515 30.8485 1.44853
      vertex 22.2 30.9515 1.2
    endloop
  endfacet
  facet normal 0 0.92388 0.382683
    outer loop
      vertex 21.9515 30.8485 1.44853
      vertex 0 30.9515 1.2
      vertex 0 30.8485 1.44853
    endloop
  endfacet
  facet normal 0 0.92388 0.382683
    outer loop
      vertex 100 30.9515 1.2
      vertex 23.6485 30.8485 1.44853
      vertex 100 30.8485 1.44853
    endloop
  endfacet
  facet normal 0 0.92388 0.382683
    outer loop
      vertex 23.6485 30.8485 1.44853
      vertex 100 30.9515 1.2
      vertex 23.4 30.9515 1.2
    endloop
  endfacet
  facet normal -0 0.382684 0.923879
    outer loop
      vertex 0 30.8485 1.44853
      vertex 21.6 30 1.8
      vertex 21.9515 30.8485 1.44853
    endloop
  endfacet
  facet normal 0 0.382684 0.923879
    outer loop
      vertex 21.6 30 1.8
      vertex 0 30.8485 1.44853
      vertex 0 30 1.8
    endloop
  endfacet
  facet normal 0 0.382684 0.923879
    outer loop
      vertex 100 30.8485 1.44853
      vertex 24 30 1.8
      vertex 100 30 1.8
    endloop
  endfacet
  facet normal 0 0.382684 0.923879
    outer loop
      vertex 24 30 1.8
      vertex 100 30.8485 1.44853
      vertex 23.6485 30.8485 1.44853
    endloop
  endfacet
  facet normal 0 -0.92388 0.382683
    outer loop
      vertex 0 29.0485 1.2
      vertex 21.9515 29.1515 1.44853
      vertex 0 29.1515 1.44853
    endloop
  endfacet
  facet normal 0 -0.92388 0.382683
    outer loop
      vertex 21.9515 29.1515 1.44853
      vertex 0 29.0485 1.2
      vertex 22.2 29.0485 1.2
    endloop
  endfacet
  facet normal 0 -0.92388 0.382683
    outer loop
      vertex 100 29.0485 1.2
      vertex 23.6485 29.1515 1.44853
      vertex 23.4 29.0485 1.2
    endloop
  endfacet
  facet normal 0 -0.92388 0.382683
    outer loop
      vertex 23.6485 29.1515 1.44853
      vertex 100 29.0485 1.2
      vertex 100 29.1515 1.44853
    endloop
  endfacet
  facet normal 0 -0.382683 0.92388
    outer loop
      vertex 0 39.1515 1.44853
      vertex 21.6 40 1.8
      vertex 0 40 1.8
    endloop
  endfacet
  facet normal 0 -0.382683 0.92388
    outer loop
      vertex 21.6 40 1.8
      vertex 0 39.1515 1.44853
      vertex 21.9515 39.1515 1.44853
    endloop
  endfacet
  facet normal 0 -0.382683 0.92388
    outer loop
      vertex 24 40 1.8
      vertex 100 39.1515 1.44853
      vertex 100 40 1.8
    endloop
  endfacet
  facet normal 0 -0.382683 0.92388
    outer loop
      vertex 100 39.1515 1.44853
      vertex 24 40 1.8
      vertex 23.6485 39.1515 1.44853
    endloop
  endfacet
  facet normal -0 0.923875 0.382695
    outer loop
      vertex 0 40.9515 1.2
      vertex 21.9515 40.8485 1.44853
      vertex 22.2 40.9515 1.2
    endloop
  endfacet
  facet normal 0 0.923875 0.382695
    outer loop
      vertex 21.9515 40.8485 1.44853
      vertex 0 40.9515 1.2
      vertex 0 40.8485 1.44853
    endloop
  endfacet
  facet normal 0 0.923875 0.382695
    outer loop
      vertex 100 40.9515 1.2
      vertex 23.6485 40.8485 1.44853
      vertex 100 40.8485 1.44853
    endloop
  endfacet
  facet normal 0 0.923875 0.382695
    outer loop
      vertex 23.6485 40.8485 1.44853
      vertex 100 40.9515 1.2
      vertex 23.4 40.9515 1.2
    endloop
  endfacet
  facet normal -0 0.382684 0.923879
    outer loop
      vertex 0 40.8485 1.44853
      vertex 21.6 40 1.8
      vertex 21.9515 40.8485 1.44853
    endloop
  endfacet
  facet normal 0 0.382684 0.923879
    outer loop
      vertex 21.6 40 1.8
      vertex 0 40.8485 1.44853
      vertex 0 40 1.8
    endloop
  endfacet
  facet normal 0 0.382684 0.923879
    outer loop
      vertex 100 40.8485 1.44853
      vertex 24 40 1.8
      vertex 100 40 1.8
    endloop
  endfacet
  facet normal 0 0.382684 0.923879
    outer loop
      vertex 24 40 1.8
      vertex 100 40.8485 1.44853
      vertex 23.6485 40.8485 1.44853
    endloop
  endfacet
  facet normal 0 -0.92388 0.382683
    outer loop
      vertex 0 39.0485 1.2
      vertex 21.9515 39.1515 1.44853
      vertex 0 39.1515 1.44853
    endloop
  endfacet
  facet normal 0 -0.92388 0.382683
    outer loop
      vertex 21.9515 39.1515 1.44853
      vertex 0 39.0485 1.2
      vertex 22.2 39.0485 1.2
    endloop
  endfacet
  facet normal 0 -0.92388 0.382683
    outer loop
      vertex 100 39.0485 1.2
      vertex 23.6485 39.1515 1.44853
      vertex 23.4 39.0485 1.2
    endloop
  endfacet
  facet normal 0 -0.92388 0.382683
    outer loop
      vertex 23.6485 39.1515 1.44853
      vertex 100 39.0485 1.2
      vertex 100 39.1515 1.44853
    endloop
  endfacet
  facet normal 0 -0.382683 0.92388
    outer loop
      vertex 0 49.1515 1.44853
      vertex 21.6 50 1.8
      vertex 0 50 1.8
    endloop
  endfacet
  facet normal 0 -0.382683 0.92388
    outer loop
      vertex 21.6 50 1.8
      vertex 0 49.1515 1.44853
      vertex 21.9515 49.1515 1.44853
    endloop
  endfacet
  facet normal 0 -0.382683 0.92388
    outer loop
      vertex 24 50 1.8
      vertex 100 49.1515 1.44853
      vertex 100 50 1.8
    endloop
  endfacet
  facet normal 0 -0.382683 0.92388
    outer loop
      vertex 100 49.1515 1.44853
      vertex 24 50 1.8
      vertex 23.6485 49.1515 1.44853
    endloop
  endfacet
  facet normal -0 0.923875 0.382695
    outer loop
      vertex 0 50.9515 1.2
      vertex 21.9515 50.8485 1.44853
      vertex 22.2 50.9515 1.2
    endloop
  endfacet
  facet normal 0 0.923875 0.382695
    outer loop
      vertex 21.9515 50.8485 1.44853
      vertex 0 50.9515 1.2
      vertex 0 50.8485 1.44853
    endloop
  endfacet
  facet normal 0 0.923875 0.382695
    outer loop
      vertex 100 50.9515 1.2
      vertex 23.6485 50.8485 1.44853
      vertex 100 50.8485 1.44853
    endloop
  endfacet
  facet normal 0 0.923875 0.382695
    outer loop
      vertex 23.6485 50.8485 1.44853
      vertex 100 50.9515 1.2
      vertex 23.4 50.9515 1.2
    endloop
  endfacet
  facet normal -0 0.382684 0.923879
    outer loop
      vertex 0 50.8485 1.44853
      vertex 21.6 50 1.8
      vertex 21.9515 50.8485 1.44853
    endloop
  endfacet
  facet normal 0 0.382684 0.923879
    outer loop
      vertex 21.6 50 1.8
      vertex 0 50.8485 1.44853
      vertex 0 50 1.8
    endloop
  endfacet
  facet normal 0 0.382684 0.923879
    outer loop
      vertex 100 50.8485 1.44853
      vertex 24 50 1.8
      vertex 100 50 1.8
    endloop
  endfacet
  facet normal 0 0.382684 0.923879
    outer loop
      vertex 24 50 1.8
      vertex 100 50.8485 1.44853
      vertex 23.6485 50.8485 1.44853
    endloop
  endfacet
  facet normal 0 -0.92388 0.382683
    outer loop
      vertex 0 49.0485 1.2
      vertex 21.9515 49.1515 1.44853
      vertex 0 49.1515 1.44853
    endloop
  endfacet
  facet normal 0 -0.92388 0.382683
    outer loop
      vertex 21.9515 49.1515 1.44853
      vertex 0 49.0485 1.2
      vertex 22.2 49.0485 1.2
    endloop
  endfacet
  facet normal 0 -0.92388 0.382683
    outer loop
      vertex 100 49.0485 1.2
      vertex 23.6485 49.1515 1.44853
      vertex 23.4 49.0485 1.2
    endloop
  endfacet
  facet normal 0 -0.92388 0.382683
    outer loop
      vertex 23.6485 49.1515 1.44853
      vertex 100 49.0485 1.2
      vertex 100 49.1515 1.44853
    endloop
  endfacet
  facet normal 0 -0.382683 0.92388
    outer loop
      vertex 0 59.1515 1.44853
      vertex 21.6 60 1.8
      vertex 0 60 1.8
    endloop
  endfacet
  facet normal 0 -0.382683 0.92388
    outer loop
      vertex 21.6 60 1.8
      vertex 0 59.1515 1.44853
      vertex 21.9515 59.1515 1.44853
    endloop
  endfacet
  facet normal 0 -0.382683 0.92388
    outer loop
      vertex 24 60 1.8
      vertex 100 59.1515 1.44853
      vertex 100 60 1.8
    endloop
  endfacet
  facet normal 0 -0.382683 0.92388
    outer loop
      vertex 100 59.1515 1.44853
      vertex 24 60 1.8
      vertex 23.6485 59.1515 1.44853
    endloop
  endfacet
  facet normal -0 0.923875 0.382695
    outer loop
      vertex 0 60.9515 1.2
      vertex 21.9515 60.8485 1.44853
      vertex 22.2 60.9515 1.2
    endloop
  endfacet
  facet normal 0 0.923875 0.382695
    outer loop
      vertex 21.9515 60.8485 1.44853
      vertex 0 60.9515 1.2
      vertex 0 60.8485 1.44853
    endloop
  endfacet
  facet normal 0 0.923875 0.382695
    outer loop
      vertex 100 60.9515 1.2
      vertex 23.6485 60.8485 1.44853
      vertex 100 60.8485 1.44853
    endloop
  endfacet
  facet normal 0 0.923875 0.382695
    outer loop
      vertex 23.6485 60.8485 1.44853
      vertex 100 60.9515 1.2
      vertex 23.4 60.9515 1.2
    endloop
  endfacet
  facet normal -0 0.382684 0.923879
    outer loop
      vertex 0 60.8485 1.44853
      vertex 21.6 60 1.8
      vertex 21.9515 60.8485 1.44853
    endloop
  endfacet
  facet normal 0 0.382684 0.923879
    outer loop
      vertex 21.6 60 1.8
      vertex 0 60.8485 1.44853
      vertex 0 60 1.8
    endloop
  endfacet
  facet normal 0 0.382684 0.923879
    outer loop
      vertex 100 60.8485 1.44853
      vertex 24 60 1.8
      vertex 100 60 1.8
    endloop
  endfacet
  facet normal 0 0.382684 0.923879
    outer loop
      vertex 24 60 1.8
      vertex 100 60.8485 1.44853
      vertex 23.6485 60.8485 1.44853
    endloop
  endfacet
  facet normal 0 -0.92388 0.382683
    outer loop
      vertex 0 59.0485 1.2
      vertex 21.9515 59.1515 1.44853
      vertex 0 59.1515 1.44853
    endloop
  endfacet
  facet normal 0 -0.92388 0.382683
    outer loop
      vertex 21.9515 59.1515 1.44853
      vertex 0 59.0485 1.2
      vertex 22.2 59.0485 1.2
    endloop
  endfacet
  facet normal 0 -0.92388 0.382683
    outer loop
      vertex 100 59.0485 1.2
      vertex 23.6485 59.1515 1.44853
      vertex 23.4 59.0485 1.2
    endloop
  endfacet
  facet normal 0 -0.92388 0.382683
    outer loop
      vertex 23.6485 59.1515 1.44853
      vertex 100 59.0485 1.2
      vertex 100 59.1515 1.44853
    endloop
  endfacet
  facet normal 0 -0.382684 0.923879
    outer loop
      vertex 0 69.1515 1.44853
      vertex 21.6 70 1.8
      vertex 0 70 1.8
    endloop
  endfacet
  facet normal 0 -0.382684 0.923879
    outer loop
      vertex 21.6 70 1.8
      vertex 0 69.1515 1.44853
      vertex 21.9515 69.1515 1.44853
    endloop
  endfacet
  facet normal 0 -0.382684 0.923879
    outer loop
      vertex 24 70 1.8
      vertex 100 69.1515 1.44853
      vertex 100 70 1.8
    endloop
  endfacet
  facet normal 0 -0.382684 0.923879
    outer loop
      vertex 100 69.1515 1.44853
      vertex 24 70 1.8
      vertex 23.6485 69.1515 1.44853
    endloop
  endfacet
  facet normal -0 0.92388 0.382683
    outer loop
      vertex 0 70.9515 1.2
      vertex 21.9515 70.8485 1.44853
      vertex 22.2 70.9515 1.2
    endloop
  endfacet
  facet normal 0 0.92388 0.382683
    outer loop
      vertex 21.9515 70.8485 1.44853
      vertex 0 70.9515 1.2
      vertex 0 70.8485 1.44853
    endloop
  endfacet
  facet normal 0 0.92388 0.382683
    outer loop
      vertex 100 70.9515 1.2
      vertex 23.6485 70.8485 1.44853
      vertex 100 70.8485 1.44853
    endloop
  endfacet
  facet normal 0 0.92388 0.382683
    outer loop
      vertex 23.6485 70.8485 1.44853
      vertex 100 70.9515 1.2
      vertex 23.4 70.9515 1.2
    endloop
  endfacet
  facet normal -0 0.382684 0.923879
    outer loop
      vertex 0 70.8485 1.44853
      vertex 21.6 70 1.8
      vertex 21.9515 70.8485 1.44853
    endloop
  endfacet
  facet normal 0 0.382684 0.923879
    outer loop
      vertex 21.6 70 1.8
      vertex 0 70.8485 1.44853
      vertex 0 70 1.8
    endloop
  endfacet
  facet normal 0 0.382684 0.923879
    outer loop
      vertex 100 70.8485 1.44853
      vertex 24 70 1.8
      vertex 100 70 1.8
    endloop
  endfacet
  facet normal 0 0.382684 0.923879
    outer loop
      vertex 24 70 1.8
      vertex 100 70.8485 1.44853
      vertex 23.6485 70.8485 1.44853
    endloop
  endfacet
  facet normal 0 -0.92388 0.382683
    outer loop
      vertex 0 69.0485 1.2
      vertex 21.9515 69.1515 1.44853
      vertex 0 69.1515 1.44853
    endloop
  endfacet
  facet normal 0 -0.92388 0.382683
    outer loop
      vertex 21.9515 69.1515 1.44853
      vertex 0 69.0485 1.2
      vertex 22.2 69.0485 1.2
    endloop
  endfacet
  facet normal 0 -0.92388 0.382683
    outer loop
      vertex 100 69.0485 1.2
      vertex 23.6485 69.1515 1.44853
      vertex 23.4 69.0485 1.2
    endloop
  endfacet
  facet normal 0 -0.92388 0.382683
    outer loop
      vertex 23.6485 69.1515 1.44853
      vertex 100 69.0485 1.2
      vertex 100 69.1515 1.44853
    endloop
  endfacet
  facet normal 0 -0.382684 0.923879
    outer loop
      vertex 0 79.1515 1.44853
      vertex 21.6 80 1.8
      vertex 0 80 1.8
    endloop
  endfacet
  facet normal 0 -0.382684 0.923879
    outer loop
      vertex 21.6 80 1.8
      vertex 0 79.1515 1.44853
      vertex 21.9515 79.1515 1.44853
    endloop
  endfacet
  facet normal 0 -0.382684 0.923879
    outer loop
      vertex 24 80 1.8
      vertex 100 79.1515 1.44853
      vertex 100 80 1.8
    endloop
  endfacet
  facet normal 0 -0.382684 0.923879
    outer loop
      vertex 100 79.1515 1.44853
      vertex 24 80 1.8
      vertex 23.6485 79.1515 1.44853
    endloop
  endfacet
  facet normal -0 0.92388 0.382683
    outer loop
      vertex 0 81.2 0.599999
      vertex 21.9515 80.8485 1.44853
      vertex 22.8 81.2 0.599999
    endloop
  endfacet
  facet normal 0 0.92388 0.382683
    outer loop
      vertex 21.9515 80.8485 1.44853
      vertex 0 81.2 0.599999
      vertex 0 80.8485 1.44853
    endloop
  endfacet
  facet normal 0 0.92388 0.382683
    outer loop
      vertex 100 81.2 0.599999
      vertex 23.6485 80.8485 1.44853
      vertex 100 80.8485 1.44853
    endloop
  endfacet
  facet normal 0 0.92388 0.382683
    outer loop
      vertex 23.6485 80.8485 1.44853
      vertex 100 81.2 0.599999
      vertex 22.8 81.2 0.599999
    endloop
  endfacet
  facet normal 0 0.92388 -0.382683
    outer loop
      vertex 22.2 80.9515 0
      vertex 0 81.2 0.599999
      vertex 22.8 81.2 0.599999
    endloop
  endfacet
  facet normal 0 0.92388 -0.382683
    outer loop
      vertex 0 81.2 0.599999
      vertex 22.2 80.9515 0
      vertex 0 80.9515 0
    endloop
  endfacet
  facet normal 0 0.92388 -0.382683
    outer loop
      vertex 23.4 80.9515 0
      vertex 100 81.2 0.599999
      vertex 100 80.9515 0
    endloop
  endfacet
  facet normal 0 0.92388 -0.382683
    outer loop
      vertex 100 81.2 0.599999
      vertex 23.4 80.9515 0
      vertex 22.8 81.2 0.599999
    endloop
  endfacet
  facet normal -0 0.382684 0.923879
    outer loop
      vertex 0 80.8485 1.44853
      vertex 21.6 80 1.8
      vertex 21.9515 80.8485 1.44853
    endloop
  endfacet
  facet normal 0 0.382684 0.923879
    outer loop
      vertex 21.6 80 1.8
      vertex 0 80.8485 1.44853
      vertex 0 80 1.8
    endloop
  endfacet
  facet normal 0 0.382684 0.923879
    outer loop
      vertex 100 80.8485 1.44853
      vertex 24 80 1.8
      vertex 100 80 1.8
    endloop
  endfacet
  facet normal 0 0.382684 0.923879
    outer loop
      vertex 24 80 1.8
      vertex 100 80.8485 1.44853
      vertex 23.6485 80.8485 1.44853
    endloop
  endfacet
  facet normal 0 -0.92388 0.382683
    outer loop
      vertex 0 79.0485 1.2
      vertex 21.9515 79.1515 1.44853
      vertex 0 79.1515 1.44853
    endloop
  endfacet
  facet normal 0 -0.92388 0.382683
    outer loop
      vertex 21.9515 79.1515 1.44853
      vertex 0 79.0485 1.2
      vertex 22.2 79.0485 1.2
    endloop
  endfacet
  facet normal 0 -0.92388 0.382683
    outer loop
      vertex 100 79.0485 1.2
      vertex 23.6485 79.1515 1.44853
      vertex 23.4 79.0485 1.2
    endloop
  endfacet
  facet normal 0 -0.92388 0.382683
    outer loop
      vertex 23.6485 79.1515 1.44853
      vertex 100 79.0485 1.2
      vertex 100 79.1515 1.44853
    endloop
  endfacet
  facet normal -0 0 1
    outer loop
      vertex 0 79.0485 1.2
      vertex 22.2 70.9515 1.2
      vertex 22.2 79.0485 1.2
    endloop
  endfacet
  facet normal 0 0 1
    outer loop
      vertex 22.2 70.9515 1.2
      vertex 0 79.0485 1.2
      vertex 0 70.9515 1.2
    endloop
  endfacet
  facet normal -0 0 1
    outer loop
      vertex 0 69.0485 1.2
      vertex 22.2 60.9515 1.2
      vertex 22.2 69.0485 1.2
    endloop
  endfacet
  facet normal 0 0 1
    outer loop
      vertex 22.2 60.9515 1.2
      vertex 0 69.0485 1.2
      vertex 0 60.9515 1.2
    endloop
  endfacet
  facet normal -0 0 1
    outer loop
      vertex 0 59.0485 1.2
      vertex 22.2 50.9515 1.2
      vertex 22.2 59.0485 1.2
    endloop
  endfacet
  facet normal 0 0 1
    outer loop
      vertex 22.2 50.9515 1.2
      vertex 0 59.0485 1.2
      vertex 0 50.9515 1.2
    endloop
  endfacet
  facet normal -0 0 1
    outer loop
      vertex 0 49.0485 1.2
      vertex 22.2 40.9515 1.2
      vertex 22.2 49.0485 1.2
    endloop
  endfacet
  facet normal 0 0 1
    outer loop
      vertex 22.2 40.9515 1.2
      vertex 0 49.0485 1.2
      vertex 0 40.9515 1.2
    endloop
  endfacet
  facet normal -0 0 1
    outer loop
      vertex 0 39.0485 1.2
      vertex 22.2 30.9515 1.2
      vertex 22.2 39.0485 1.2
    endloop
  endfacet
  facet normal 0 0 1
    outer loop
      vertex 22.2 30.9515 1.2
      vertex 0 39.0485 1.2
      vertex 0 30.9515 1.2
    endloop
  endfacet
  facet normal -0 0 1
    outer loop
      vertex 0 29.0485 1.2
      vertex 22.2 20.9515 1.2
      vertex 22.2 29.0485 1.2
    endloop
  endfacet
  facet normal 0 0 1
    outer loop
      vertex 22.2 20.9515 1.2
      vertex 0 29.0485 1.2
      vertex 0 20.9515 1.2
    endloop
  endfacet
  facet normal -0 0 1
    outer loop
      vertex 0 19.0485 1.2
      vertex 22.2 10.9515 1.2
      vertex 22.2 19.0485 1.2
    endloop
  endfacet
  facet normal 0 0 1
    outer loop
      vertex 22.2 10.9515 1.2
      vertex 0 19.0485 1.2
      vertex 0 10.9515 1.2
    endloop
  endfacet
  facet normal 0 0 1
    outer loop
      vertex 22.2 9.04853 1.2
      vertex 22.2 0.951471 1.2
      vertex 22.2 0.951472 1.2
    endloop
  endfacet
  facet normal -0 0 1
    outer loop
      vertex 0 9.04853 1.2
      vertex 22.2 0.951471 1.2
      vertex 22.2 9.04853 1.2
    endloop
  endfacet
  facet normal 0 0 1
    outer loop
      vertex 22.2 0.951471 1.2
      vertex 0 9.04853 1.2
      vertex 0 0.951471 1.2
    endloop
  endfacet
  facet normal -0 0 1
    outer loop
      vertex 23.4 79.0485 1.2
      vertex 100 70.9515 1.2
      vertex 100 79.0485 1.2
    endloop
  endfacet
  facet normal 0 0 1
    outer loop
      vertex 100 70.9515 1.2
      vertex 23.4 79.0485 1.2
      vertex 23.4 70.9515 1.2
    endloop
  endfacet
  facet normal -0 0 1
    outer loop
      vertex 23.4 69.0485 1.2
      vertex 100 60.9515 1.2
      vertex 100 69.0485 1.2
    endloop
  endfacet
  facet normal 0 0 1
    outer loop
      vertex 100 60.9515 1.2
      vertex 23.4 69.0485 1.2
      vertex 23.4 60.9515 1.2
    endloop
  endfacet
  facet normal -0 0 1
    outer loop
      vertex 23.4 59.0485 1.2
      vertex 100 50.9515 1.2
      vertex 100 59.0485 1.2
    endloop
  endfacet
  facet normal 0 0 1
    outer loop
      vertex 100 50.9515 1.2
      vertex 23.4 59.0485 1.2
      vertex 23.4 50.9515 1.2
    endloop
  endfacet
  facet normal -0 0 1
    outer loop
      vertex 23.4 49.0485 1.2
      vertex 100 40.9515 1.2
      vertex 100 49.0485 1.2
    endloop
  endfacet
  facet normal 0 0 1
    outer loop
      vertex 100 40.9515 1.2
      vertex 23.4 49.0485 1.2
      vertex 23.4 40.9515 1.2
    endloop
  endfacet
  facet normal -0 0 1
    outer loop
      vertex 23.4 39.0485 1.2
      vertex 100 30.9515 1.2
      vertex 100 39.0485 1.2
    endloop
  endfacet
  facet normal 0 0 1
    outer loop
      vertex 100 30.9515 1.2
      vertex 23.4 39.0485 1.2
      vertex 23.4 30.9515 1.2
    endloop
  endfacet
  facet normal -0 0 1
    outer loop
      vertex 23.4 29.0485 1.2
      vertex 100 20.9515 1.2
      vertex 100 29.0485 1.2
    endloop
  endfacet
  facet normal 0 0 1
    outer loop
      vertex 100 20.9515 1.2
      vertex 23.4 29.0485 1.2
      vertex 23.4 20.9515 1.2
    endloop
  endfacet
  facet normal -0 0 1
    outer loop
      vertex 23.4 19.0485 1.2
      vertex 100 10.9515 1.2
      vertex 100 19.0485 1.2
    endloop
  endfacet
  facet normal 0 0 1
    outer loop
      vertex 100 10.9515 1.2
      vertex 23.4 19.0485 1.2
      vertex 23.4 10.9515 1.2
    endloop
  endfacet
  facet normal -0 0 1
    outer loop
      vertex 23.4 9.04853 1.2
      vertex 100 0.951471 1.2
      vertex 100 9.04853 1.2
    endloop
  endfacet
  facet normal -0 0 1
    outer loop
      vertex 23.4 0.951472 1.2
      vertex 100 0.951471 1.2
      vertex 23.4 9.04853 1.2
    endloop
  endfacet
  facet normal 0 0 1
    outer loop
      vertex 100 0.951471 1.2
      vertex 23.4 0.951472 1.2
      vertex 23.4 0.951471 1.2
    endloop
  endfacet
  facet normal -1 0 0
    outer loop
      vertex 22.2 70.9515 1.2
      vertex 22.2 79.0485 70
      vertex 22.2 79.0485 1.2
    endloop
  endfacet
  facet normal -1 -0 0
    outer loop
      vertex 22.2 79.0485 70
      vertex 22.2 70.9515 1.2
      vertex 22.2 70.9515 70
    endloop
  endfacet
  facet normal -1 0 0
    outer loop
      vertex 22.2 60.9515 1.2
      vertex 22.2 69.0485 70
      vertex 22.2 69.0485 1.2
    endloop
  endfacet
  facet normal -1 -0 0
    outer loop
      vertex 22.2 69.0485 70
      vertex 22.2 60.9515 1.2
      vertex 22.2 60.9515 70
    endloop
  endfacet
  facet normal -1 0 0
    outer loop
      vertex 22.2 50.9515 1.2
      vertex 22.2 59.0485 70
      vertex 22.2 59.0485 1.2
    endloop
  endfacet
  facet normal -1 -0 0
    outer loop
      vertex 22.2 59.0485 70
      vertex 22.2 50.9515 1.2
      vertex 22.2 50.9515 70
    endloop
  endfacet
  facet normal -1 0 0
    outer loop
      vertex 22.2 40.9515 1.2
      vertex 22.2 49.0485 70
      vertex 22.2 49.0485 1.2
    endloop
  endfacet
  facet normal -1 -0 0
    outer loop
      vertex 22.2 49.0485 70
      vertex 22.2 40.9515 1.2
      vertex 22.2 40.9515 70
    endloop
  endfacet
  facet normal -1 0 0
    outer loop
      vertex 22.2 30.9515 1.2
      vertex 22.2 39.0485 70
      vertex 22.2 39.0485 1.2
    endloop
  endfacet
  facet normal -1 -0 0
    outer loop
      vertex 22.2 39.0485 70
      vertex 22.2 30.9515 1.2
      vertex 22.2 30.9515 70
    endloop
  endfacet
  facet normal -1 0 0
    outer loop
      vertex 22.2 20.9515 1.2
      vertex 22.2 29.0485 70
      vertex 22.2 29.0485 1.2
    endloop
  endfacet
  facet normal -1 -0 0
    outer loop
      vertex 22.2 29.0485 70
      vertex 22.2 20.9515 1.2
      vertex 22.2 20.9515 70
    endloop
  endfacet
  facet normal -1 0 0
    outer loop
      vertex 22.2 10.9515 1.2
      vertex 22.2 19.0485 70
      vertex 22.2 19.0485 1.2
    endloop
  endfacet
  facet normal -1 -0 0
    outer loop
      vertex 22.2 19.0485 70
      vertex 22.2 10.9515 1.2
      vertex 22.2 10.9515 70
    endloop
  endfacet
  facet normal -1 0 0
    outer loop
      vertex 22.2 0.951472 1.2
      vertex 22.2 9.04853 70
      vertex 22.2 9.04853 1.2
    endloop
  endfacet
  facet normal -1 -0 0
    outer loop
      vertex 22.2 9.04853 70
      vertex 22.2 0.951472 1.2
      vertex 22.2 0.951472 70
    endloop
  endfacet
  facet normal 1 -0 0
    outer loop
      vertex 23.4 70.9515 70
      vertex 23.4 79.0485 1.2
      vertex 23.4 79.0485 70
    endloop
  endfacet
  facet normal 1 0 0
    outer loop
      vertex 23.4 79.0485 1.2
      vertex 23.4 70.9515 70
      vertex 23.4 70.9515 1.2
    endloop
  endfacet
  facet normal 1 -0 0
    outer loop
      vertex 23.4 60.9515 70
      vertex 23.4 69.0485 1.2
      vertex 23.4 69.0485 70
    endloop
  endfacet
  facet normal 1 0 0
    outer loop
      vertex 23.4 69.0485 1.2
      vertex 23.4 60.9515 70
      vertex 23.4 60.9515 1.2
    endloop
  endfacet
  facet normal 1 -0 0
    outer loop
      vertex 23.4 50.9515 70
      vertex 23.4 59.0485 1.2
      vertex 23.4 59.0485 70
    endloop
  endfacet
  facet normal 1 0 0
    outer loop
      vertex 23.4 59.0485 1.2
      vertex 23.4 50.9515 70
      vertex 23.4 50.9515 1.2
    endloop
  endfacet
  facet normal 1 -0 0
    outer loop
      vertex 23.4 40.9515 70
      vertex 23.4 49.0485 1.2
      vertex 23.4 49.0485 70
    endloop
  endfacet
  facet normal 1 0 0
    outer loop
      vertex 23.4 49.0485 1.2
      vertex 23.4 40.9515 70
      vertex 23.4 40.9515 1.2
    endloop
  endfacet
  facet normal 1 -0 0
    outer loop
      vertex 23.4 30.9515 70
      vertex 23.4 39.0485 1.2
      vertex 23.4 39.0485 70
    endloop
  endfacet
  facet normal 1 0 0
    outer loop
      vertex 23.4 39.0485 1.2
      vertex 23.4 30.9515 70
      vertex 23.4 30.9515 1.2
    endloop
  endfacet
  facet normal 1 -0 0
    outer loop
      vertex 23.4 20.9515 70
      vertex 23.4 29.0485 1.2
      vertex 23.4 29.0485 70
    endloop
  endfacet
  facet normal 1 0 0
    outer loop
      vertex 23.4 29.0485 1.2
      vertex 23.4 20.9515 70
      vertex 23.4 20.9515 1.2
    endloop
  endfacet
  facet normal 1 -0 0
    outer loop
      vertex 23.4 10.9515 70
      vertex 23.4 19.0485 1.2
      vertex 23.4 19.0485 70
    endloop
  endfacet
  facet normal 1 0 0
    outer loop
      vertex 23.4 19.0485 1.2
      vertex 23.4 10.9515 70
      vertex 23.4 10.9515 1.2
    endloop
  endfacet
  facet normal 1 -0 0
    outer loop
      vertex 23.4 0.951472 70
      vertex 23.4 9.04853 1.2
      vertex 23.4 9.04853 70
    endloop
  endfacet
  facet normal 1 0 0
    outer loop
      vertex 23.4 9.04853 1.2
      vertex 23.4 0.951472 70
      vertex 23.4 0.951472 1.2
    endloop
  endfacet
endsolid OpenSCAD_Model
