solid OpenSCAD_Model
  facet normal -0.92388 0 -0.382683
    outer loop
      vertex 62.5 125 0
      vertex 61.7678 145 1.76777
      vertex 62.5 145 0
    endloop
  endfacet
  facet normal -0.92388 -0 -0.382683
    outer loop
      vertex 61.7678 145 1.76777
      vertex 62.5 125 0
      vertex 61.7678 125 1.76777
    endloop
  endfacet
  facet normal -0.382683 3.82317e-08 -0.92388
    outer loop
      vertex 60 125 2.5
      vertex 61.068 145 2.05761
      vertex 60.9207 125 2.11863
    endloop
  endfacet
  facet normal -0.382683 0 -0.92388
    outer loop
      vertex 61.068 145 2.05761
      vertex 60 125 2.5
      vertex 60 145 2.5
    endloop
  endfacet
  facet normal -0.382682 0 0.92388
    outer loop
      vertex 61.7678 145 -1.76777
      vertex 60.8471 125 -2.14914
      vertex 61.7678 125 -1.76777
    endloop
  endfacet
  facet normal -0.382683 3.69944e-08 0.92388
    outer loop
      vertex 60.8471 125 -2.14914
      vertex 61.7678 145 -1.76777
      vertex 60.6997 145 -2.21016
    endloop
  endfacet
  facet normal 0.382683 0 -0.92388
    outer loop
      vertex 59.0793 125 2.11863
      vertex 60 145 2.5
      vertex 60 125 2.5
    endloop
  endfacet
  facet normal 0.382683 3.29583e-08 -0.92388
    outer loop
      vertex 60 145 2.5
      vertex 59.0793 125 2.11863
      vertex 58.932 145 2.05761
    endloop
  endfacet
  facet normal 0.382682 3.07775e-08 -0.92388
    outer loop
      vertex 58.2322 125 1.76777
      vertex 58.932 145 2.05761
      vertex 59.0793 125 2.11863
    endloop
  endfacet
  facet normal 0.382683 0 -0.92388
    outer loop
      vertex 58.932 145 2.05761
      vertex 58.2322 125 1.76777
      vertex 58.2322 145 1.76777
    endloop
  endfacet
  facet normal 0 -1 0
    outer loop
      vertex 61.3066 0 12.4315
      vertex 10 0 25
      vertex 58.6934 0 12.4315
    endloop
  endfacet
  facet normal 0 -1 0
    outer loop
      vertex 10 0 25
      vertex 56.1373 0 11.8882
      vertex 58.6934 0 12.4315
    endloop
  endfacet
  facet normal 0 -1 0
    outer loop
      vertex 10 0 25
      vertex 53.75 0 10.8253
      vertex 56.1373 0 11.8882
    endloop
  endfacet
  facet normal 0 -1 0
    outer loop
      vertex 10 0 25
      vertex 51.6359 0 9.28931
      vertex 53.75 0 10.8253
    endloop
  endfacet
  facet normal 0 -1 0
    outer loop
      vertex 10 0 25
      vertex 49.8873 0 7.34731
      vertex 51.6359 0 9.28931
    endloop
  endfacet
  facet normal 0 -1 0
    outer loop
      vertex 10 0 25
      vertex 48.5807 0 5.08421
      vertex 49.8873 0 7.34731
    endloop
  endfacet
  facet normal 0 -1 0
    outer loop
      vertex 10 0 25
      vertex 47.7732 0 2.5989
      vertex 48.5807 0 5.08421
    endloop
  endfacet
  facet normal 0 -1 0
    outer loop
      vertex 10 0 25
      vertex 47.5 0 0
      vertex 47.7732 0 2.5989
    endloop
  endfacet
  facet normal 0 -1 0
    outer loop
      vertex 10 0 -25
      vertex 47.5 0 0
      vertex 10 0 25
    endloop
  endfacet
  facet normal 0 -1 -0
    outer loop
      vertex 47.5 0 0
      vertex 10 0 -25
      vertex 47.7732 0 -2.5989
    endloop
  endfacet
  facet normal 0 -1 -0
    outer loop
      vertex 47.7732 0 -2.5989
      vertex 10 0 -25
      vertex 48.5807 0 -5.08421
    endloop
  endfacet
  facet normal 0 -1 -0
    outer loop
      vertex 48.5807 0 -5.08421
      vertex 10 0 -25
      vertex 49.8873 0 -7.34731
    endloop
  endfacet
  facet normal 0 -1 -0
    outer loop
      vertex 58.6934 0 -12.4315
      vertex 10 0 -25
      vertex 61.3066 0 -12.4315
    endloop
  endfacet
  facet normal 0 -1 -0
    outer loop
      vertex 56.1373 0 -11.8882
      vertex 10 0 -25
      vertex 58.6934 0 -12.4315
    endloop
  endfacet
  facet normal 0 -1 -0
    outer loop
      vertex 53.75 0 -10.8253
      vertex 10 0 -25
      vertex 56.1373 0 -11.8882
    endloop
  endfacet
  facet normal 0 -1 -0
    outer loop
      vertex 51.6359 0 -9.28931
      vertex 10 0 -25
      vertex 53.75 0 -10.8253
    endloop
  endfacet
  facet normal 0 -1 -0
    outer loop
      vertex 49.8873 0 -7.34731
      vertex 10 0 -25
      vertex 51.6359 0 -9.28931
    endloop
  endfacet
  facet normal 0 -1 0
    outer loop
      vertex 10 0 25
      vertex 61.3066 0 12.4315
      vertex 120 0 25
    endloop
  endfacet
  facet normal 0 -1 0
    outer loop
      vertex 63.8627 0 11.8882
      vertex 120 0 25
      vertex 61.3066 0 12.4315
    endloop
  endfacet
  facet normal 0 -1 0
    outer loop
      vertex 66.25 0 10.8253
      vertex 120 0 25
      vertex 63.8627 0 11.8882
    endloop
  endfacet
  facet normal 0 -1 0
    outer loop
      vertex 68.3641 0 9.28931
      vertex 120 0 25
      vertex 66.25 0 10.8253
    endloop
  endfacet
  facet normal 0 -1 0
    outer loop
      vertex 70.1127 0 7.34731
      vertex 120 0 25
      vertex 68.3641 0 9.28931
    endloop
  endfacet
  facet normal 0 -1 0
    outer loop
      vertex 71.4193 0 5.08421
      vertex 120 0 25
      vertex 70.1127 0 7.34731
    endloop
  endfacet
  facet normal 0 -1 0
    outer loop
      vertex 72.2268 0 2.5989
      vertex 120 0 25
      vertex 71.4193 0 5.08421
    endloop
  endfacet
  facet normal 0 -1 0
    outer loop
      vertex 72.5 0 0
      vertex 120 0 25
      vertex 72.2268 0 2.5989
    endloop
  endfacet
  facet normal 0 -1 0
    outer loop
      vertex 120 0 -25
      vertex 72.5 0 0
      vertex 72.2268 0 -2.5989
    endloop
  endfacet
  facet normal 0 -1 0
    outer loop
      vertex 120 0 -25
      vertex 72.2268 0 -2.5989
      vertex 71.4193 0 -5.08421
    endloop
  endfacet
  facet normal 0 -1 0
    outer loop
      vertex 120 0 -25
      vertex 71.4193 0 -5.08421
      vertex 70.1127 0 -7.34731
    endloop
  endfacet
  facet normal 0 -1 0
    outer loop
      vertex 120 0 -25
      vertex 70.1127 0 -7.34731
      vertex 68.3641 0 -9.28931
    endloop
  endfacet
  facet normal 0 -1 0
    outer loop
      vertex 120 0 -25
      vertex 68.3641 0 -9.28931
      vertex 66.25 0 -10.8253
    endloop
  endfacet
  facet normal 0 -1 0
    outer loop
      vertex 120 0 -25
      vertex 61.3066 0 -12.4315
      vertex 10 0 -25
    endloop
  endfacet
  facet normal 0 -1 0
    outer loop
      vertex 72.5 0 0
      vertex 120 0 -25
      vertex 120 0 25
    endloop
  endfacet
  facet normal 0 -1 0
    outer loop
      vertex 63.8627 0 -11.8882
      vertex 120 0 -25
      vertex 66.25 0 -10.8253
    endloop
  endfacet
  facet normal 0 -1 0
    outer loop
      vertex 61.3066 0 -12.4315
      vertex 120 0 -25
      vertex 63.8627 0 -11.8882
    endloop
  endfacet
  facet normal -0.92388 0 0.382683
    outer loop
      vertex 61.7678 125 -1.76777
      vertex 62.5 145 0
      vertex 61.7678 145 -1.76777
    endloop
  endfacet
  facet normal -0.92388 0 0.382683
    outer loop
      vertex 62.5 145 0
      vertex 61.7678 125 -1.76777
      vertex 62.5 125 0
    endloop
  endfacet
  facet normal -0.382683 0 -0.92388
    outer loop
      vertex 61.7678 125 1.76777
      vertex 61.068 145 2.05761
      vertex 61.7678 145 1.76777
    endloop
  endfacet
  facet normal -0.382682 3.07775e-08 -0.92388
    outer loop
      vertex 61.068 145 2.05761
      vertex 61.7678 125 1.76777
      vertex 60.9207 125 2.11863
    endloop
  endfacet
  facet normal 0.92388 0 -0.382683
    outer loop
      vertex 58.2322 125 1.76777
      vertex 57.5 145 0
      vertex 58.2322 145 1.76777
    endloop
  endfacet
  facet normal 0.92388 0 -0.382683
    outer loop
      vertex 57.5 145 0
      vertex 58.2322 125 1.76777
      vertex 57.5 125 0
    endloop
  endfacet
  facet normal 0.92388 -0 0.382683
    outer loop
      vertex 57.5 125 0
      vertex 58.2322 145 -1.76777
      vertex 57.5 145 0
    endloop
  endfacet
  facet normal 0.92388 0 0.382683
    outer loop
      vertex 58.2322 145 -1.76777
      vertex 57.5 125 0
      vertex 58.2322 125 -1.76777
    endloop
  endfacet
  facet normal 0.382683 0 0.92388
    outer loop
      vertex 59.3003 145 -2.21016
      vertex 60 125 -2.5
      vertex 60 145 -2.5
    endloop
  endfacet
  facet normal 0.382682 -2.69466e-08 0.92388
    outer loop
      vertex 60 125 -2.5
      vertex 59.3003 145 -2.21016
      vertex 59.1529 125 -2.14914
    endloop
  endfacet
  facet normal 0.382683 -3.59966e-08 0.92388
    outer loop
      vertex 58.2322 145 -1.76777
      vertex 59.1529 125 -2.14914
      vertex 59.3003 145 -2.21016
    endloop
  endfacet
  facet normal 0.382684 0 0.923879
    outer loop
      vertex 59.1529 125 -2.14914
      vertex 58.2322 145 -1.76777
      vertex 58.2322 125 -1.76777
    endloop
  endfacet
  facet normal -0.382683 4.03712e-08 0.92388
    outer loop
      vertex 60 145 -2.5
      vertex 60.8471 125 -2.14914
      vertex 60.6997 145 -2.21016
    endloop
  endfacet
  facet normal -0.382683 0 0.92388
    outer loop
      vertex 60.8471 125 -2.14914
      vertex 60 145 -2.5
      vertex 60 125 -2.5
    endloop
  endfacet
  facet normal -0.991445 0 -0.130525
    outer loop
      vertex 67.5 120 0
      vertex 67.2444 125 1.94114
      vertex 67.5 125 0
    endloop
  endfacet
  facet normal -0.991445 -0 -0.130525
    outer loop
      vertex 67.2444 125 1.94114
      vertex 67.5 120 0
      vertex 67.2444 120 1.94114
    endloop
  endfacet
  facet normal -0.92388 -7.2991e-08 -0.382683
    outer loop
      vertex 66.4952 125 3.75
      vertex 67.2444 125 1.94114
      vertex 66.4952 120 3.75
    endloop
  endfacet
  facet normal 0.130527 0 -0.991445
    outer loop
      vertex 58.0589 125 7.24444
      vertex 60 120 7.5
      vertex 58.0589 120 7.24444
    endloop
  endfacet
  facet normal -0.130527 0 0.991445
    outer loop
      vertex 61.9411 120 -7.24444
      vertex 61.9411 125 -7.24444
      vertex 60 125 -7.5
    endloop
  endfacet
  facet normal -0.608762 0 -0.793353
    outer loop
      vertex 63.75 120 6.49519
      vertex 65.3033 125 5.3033
      vertex 65.3033 120 5.3033
    endloop
  endfacet
  facet normal -0.608762 0 -0.793353
    outer loop
      vertex 65.3033 125 5.3033
      vertex 63.75 120 6.49519
      vertex 63.75 125 6.49519
    endloop
  endfacet
  facet normal 0.793354 0 -0.608761
    outer loop
      vertex 54.6967 125 5.3033
      vertex 54.6967 120 5.3033
      vertex 53.5048 120 3.75
    endloop
  endfacet
  facet normal -0.793352 0 0.608763
    outer loop
      vertex 65.3033 120 -5.3033
      vertex 66.4952 125 -3.75
      vertex 65.3033 125 -5.3033
    endloop
  endfacet
  facet normal -0.793352 0 0.608763
    outer loop
      vertex 66.4952 125 -3.75
      vertex 65.3033 120 -5.3033
      vertex 66.4952 120 -3.75
    endloop
  endfacet
  facet normal -0.793352 -1.16112e-07 -0.608763
    outer loop
      vertex 66.4952 125 3.75
      vertex 66.4952 120 3.75
      vertex 65.3033 125 5.3033
    endloop
  endfacet
  facet normal -0.793352 -0 -0.608763
    outer loop
      vertex 65.3033 125 5.3033
      vertex 66.4952 120 3.75
      vertex 65.3033 120 5.3033
    endloop
  endfacet
  facet normal -0.382684 0 -0.923879
    outer loop
      vertex 61.9411 120 7.24444
      vertex 63.75 125 6.49519
      vertex 63.75 120 6.49519
    endloop
  endfacet
  facet normal -0.382684 0 -0.923879
    outer loop
      vertex 63.75 125 6.49519
      vertex 61.9411 120 7.24444
      vertex 61.9411 125 7.24444
    endloop
  endfacet
  facet normal 0.130526 -1.89103e-07 -0.991445
    outer loop
      vertex 60 125 7.5
      vertex 60 120 7.5
      vertex 58.0589 125 7.24444
    endloop
  endfacet
  facet normal 0 -1 0
    outer loop
      vertex 60 125 2.5
      vertex 60 125 7.5
      vertex 58.0589 125 7.24444
    endloop
  endfacet
  facet normal 0 -1 0
    outer loop
      vertex 59.0793 125 2.11863
      vertex 58.0589 125 7.24444
      vertex 56.25 125 6.49519
    endloop
  endfacet
  facet normal 0 -1 0
    outer loop
      vertex 60 125 7.5
      vertex 60 125 2.5
      vertex 61.9411 125 7.24444
    endloop
  endfacet
  facet normal 0 -1 0
    outer loop
      vertex 58.2322 125 1.76777
      vertex 56.25 125 6.49519
      vertex 54.6967 125 5.3033
    endloop
  endfacet
  facet normal 0 -1 0
    outer loop
      vertex 60.9207 125 2.11863
      vertex 61.9411 125 7.24444
      vertex 60 125 2.5
    endloop
  endfacet
  facet normal 0 -1 0
    outer loop
      vertex 58.2322 125 1.76777
      vertex 54.6967 125 5.3033
      vertex 53.5048 125 3.75
    endloop
  endfacet
  facet normal 0 -1 -0
    outer loop
      vertex 61.9411 125 7.24444
      vertex 60.9207 125 2.11863
      vertex 63.75 125 6.49519
    endloop
  endfacet
  facet normal 0 -1 0
    outer loop
      vertex 61.7678 125 1.76777
      vertex 63.75 125 6.49519
      vertex 60.9207 125 2.11863
    endloop
  endfacet
  facet normal 0 -1 0
    outer loop
      vertex 58.0589 125 7.24444
      vertex 59.0793 125 2.11863
      vertex 60 125 2.5
    endloop
  endfacet
  facet normal 0 -1 0
    outer loop
      vertex 58.2322 125 1.76777
      vertex 53.5048 125 3.75
      vertex 52.7556 125 1.94114
    endloop
  endfacet
  facet normal 0 -1 0
    outer loop
      vertex 56.25 125 6.49519
      vertex 58.2322 125 1.76777
      vertex 59.0793 125 2.11863
    endloop
  endfacet
  facet normal 0 -1 0
    outer loop
      vertex 57.5 125 0
      vertex 52.7556 125 1.94114
      vertex 52.5 125 0
    endloop
  endfacet
  facet normal 0 -1 0
    outer loop
      vertex 52.7556 125 1.94114
      vertex 57.5 125 0
      vertex 58.2322 125 1.76777
    endloop
  endfacet
  facet normal 0 -1 0
    outer loop
      vertex 52.7556 125 -1.94114
      vertex 57.5 125 0
      vertex 52.5 125 0
    endloop
  endfacet
  facet normal 0 -1 -0
    outer loop
      vertex 57.5 125 0
      vertex 52.7556 125 -1.94114
      vertex 58.2322 125 -1.76777
    endloop
  endfacet
  facet normal 0 -1 0
    outer loop
      vertex 53.5048 125 -3.75
      vertex 58.2322 125 -1.76777
      vertex 52.7556 125 -1.94114
    endloop
  endfacet
  facet normal 0 -1 0
    outer loop
      vertex 54.6967 125 -5.3033
      vertex 58.2322 125 -1.76777
      vertex 53.5048 125 -3.75
    endloop
  endfacet
  facet normal 0 -1 0
    outer loop
      vertex 56.25 125 -6.49519
      vertex 58.2322 125 -1.76777
      vertex 54.6967 125 -5.3033
    endloop
  endfacet
  facet normal 0 -1 -0
    outer loop
      vertex 63.75 125 6.49519
      vertex 61.7678 125 1.76777
      vertex 65.3033 125 5.3033
    endloop
  endfacet
  facet normal 0 -1 -0
    outer loop
      vertex 65.3033 125 5.3033
      vertex 61.7678 125 1.76777
      vertex 66.4952 125 3.75
    endloop
  endfacet
  facet normal 0 -1 -0
    outer loop
      vertex 66.4952 125 3.75
      vertex 61.7678 125 1.76777
      vertex 67.2444 125 1.94114
    endloop
  endfacet
  facet normal 0 -1 0
    outer loop
      vertex 62.5 125 0
      vertex 67.2444 125 1.94114
      vertex 61.7678 125 1.76777
    endloop
  endfacet
  facet normal 0 -1 0
    outer loop
      vertex 62.5 125 0
      vertex 67.5 125 0
      vertex 67.2444 125 1.94114
    endloop
  endfacet
  facet normal 0 -1 0
    outer loop
      vertex 67.2444 125 -1.94114
      vertex 62.5 125 0
      vertex 61.7678 125 -1.76777
    endloop
  endfacet
  facet normal 0 -1 0
    outer loop
      vertex 62.5 125 0
      vertex 67.2444 125 -1.94114
      vertex 67.5 125 0
    endloop
  endfacet
  facet normal 0 -1 0
    outer loop
      vertex 63.75 125 -6.49519
      vertex 61.7678 125 -1.76777
      vertex 60.8471 125 -2.14914
    endloop
  endfacet
  facet normal 0 -1 0
    outer loop
      vertex 61.9411 125 -7.24444
      vertex 60.8471 125 -2.14914
      vertex 60 125 -2.5
    endloop
  endfacet
  facet normal 0 -1 -0
    outer loop
      vertex 58.2322 125 -1.76777
      vertex 56.25 125 -6.49519
      vertex 59.1529 125 -2.14914
    endloop
  endfacet
  facet normal 0 -1 0
    outer loop
      vertex 61.7678 125 -1.76777
      vertex 66.4952 125 -3.75
      vertex 67.2444 125 -1.94114
    endloop
  endfacet
  facet normal 0 -1 0
    outer loop
      vertex 58.0589 125 -7.24444
      vertex 59.1529 125 -2.14914
      vertex 56.25 125 -6.49519
    endloop
  endfacet
  facet normal 0 -1 0
    outer loop
      vertex 61.7678 125 -1.76777
      vertex 65.3033 125 -5.3033
      vertex 66.4952 125 -3.75
    endloop
  endfacet
  facet normal 0 -1 -0
    outer loop
      vertex 59.1529 125 -2.14914
      vertex 58.0589 125 -7.24444
      vertex 60 125 -2.5
    endloop
  endfacet
  facet normal 0 -1 0
    outer loop
      vertex 61.7678 125 -1.76777
      vertex 63.75 125 -6.49519
      vertex 65.3033 125 -5.3033
    endloop
  endfacet
  facet normal 0 -1 0
    outer loop
      vertex 60 125 -7.5
      vertex 60 125 -2.5
      vertex 58.0589 125 -7.24444
    endloop
  endfacet
  facet normal 0 -1 0
    outer loop
      vertex 60.8471 125 -2.14914
      vertex 61.9411 125 -7.24444
      vertex 63.75 125 -6.49519
    endloop
  endfacet
  facet normal 0 -1 0
    outer loop
      vertex 60 125 -2.5
      vertex 60 125 -7.5
      vertex 61.9411 125 -7.24444
    endloop
  endfacet
  facet normal 0.793354 -1.16112e-07 -0.60876
    outer loop
      vertex 53.5048 125 3.75
      vertex 54.6967 125 5.3033
      vertex 53.5048 120 3.75
    endloop
  endfacet
  facet normal 0.608761 0 -0.793354
    outer loop
      vertex 54.6967 120 5.3033
      vertex 56.25 125 6.49519
      vertex 56.25 120 6.49519
    endloop
  endfacet
  facet normal 0.608761 0 -0.793354
    outer loop
      vertex 56.25 125 6.49519
      vertex 54.6967 120 5.3033
      vertex 54.6967 125 5.3033
    endloop
  endfacet
  facet normal 0.923879 -7.29913e-08 -0.382685
    outer loop
      vertex 53.5048 125 3.75
      vertex 53.5048 120 3.75
      vertex 52.7556 125 1.94114
    endloop
  endfacet
  facet normal 0.382684 0 -0.923879
    outer loop
      vertex 56.25 120 6.49519
      vertex 58.0589 125 7.24444
      vertex 58.0589 120 7.24444
    endloop
  endfacet
  facet normal 0.382684 0 -0.923879
    outer loop
      vertex 58.0589 125 7.24444
      vertex 56.25 120 6.49519
      vertex 56.25 125 6.49519
    endloop
  endfacet
  facet normal 0.923879 -0 0.382685
    outer loop
      vertex 52.7556 120 -1.94114
      vertex 53.5048 125 -3.75
      vertex 52.7556 125 -1.94114
    endloop
  endfacet
  facet normal 0.923879 0 0.382685
    outer loop
      vertex 53.5048 125 -3.75
      vertex 52.7556 120 -1.94114
      vertex 53.5048 120 -3.75
    endloop
  endfacet
  facet normal -0.130526 1.89103e-07 0.991445
    outer loop
      vertex 61.9411 120 -7.24444
      vertex 60 125 -7.5
      vertex 60 120 -7.5
    endloop
  endfacet
  facet normal -0.608762 0 0.793353
    outer loop
      vertex 63.75 125 -6.49519
      vertex 65.3033 120 -5.3033
      vertex 65.3033 125 -5.3033
    endloop
  endfacet
  facet normal -0.608762 0 0.793353
    outer loop
      vertex 65.3033 120 -5.3033
      vertex 63.75 125 -6.49519
      vertex 63.75 120 -6.49519
    endloop
  endfacet
  facet normal -0.92388 -0 -0.382683
    outer loop
      vertex 67.2444 125 1.94114
      vertex 67.2444 120 1.94114
      vertex 66.4952 120 3.75
    endloop
  endfacet
  facet normal -0.130527 -0 -0.991445
    outer loop
      vertex 61.9411 125 7.24444
      vertex 61.9411 120 7.24444
      vertex 60 120 7.5
    endloop
  endfacet
  facet normal -0.130526 -1.89103e-07 -0.991445
    outer loop
      vertex 60 125 7.5
      vertex 61.9411 125 7.24444
      vertex 60 120 7.5
    endloop
  endfacet
  facet normal 0.991445 0 -0.130525
    outer loop
      vertex 52.7556 120 1.94114
      vertex 52.5 125 0
      vertex 52.7556 125 1.94114
    endloop
  endfacet
  facet normal 0.991445 0 -0.130525
    outer loop
      vertex 52.5 125 0
      vertex 52.7556 120 1.94114
      vertex 52.5 120 0
    endloop
  endfacet
  facet normal 0.991445 -0 0.130525
    outer loop
      vertex 52.5 120 0
      vertex 52.7556 125 -1.94114
      vertex 52.5 125 0
    endloop
  endfacet
  facet normal 0.991445 0 0.130525
    outer loop
      vertex 52.7556 125 -1.94114
      vertex 52.5 120 0
      vertex 52.7556 120 -1.94114
    endloop
  endfacet
  facet normal 0.608761 0 0.793354
    outer loop
      vertex 54.6967 125 -5.3033
      vertex 56.25 120 -6.49519
      vertex 56.25 125 -6.49519
    endloop
  endfacet
  facet normal 0.608761 0 0.793354
    outer loop
      vertex 56.25 120 -6.49519
      vertex 54.6967 125 -5.3033
      vertex 54.6967 120 -5.3033
    endloop
  endfacet
  facet normal 0.793354 -0 0.60876
    outer loop
      vertex 53.5048 120 -3.75
      vertex 54.6967 125 -5.3033
      vertex 53.5048 125 -3.75
    endloop
  endfacet
  facet normal 0.793354 0 0.60876
    outer loop
      vertex 54.6967 125 -5.3033
      vertex 53.5048 120 -3.75
      vertex 54.6967 120 -5.3033
    endloop
  endfacet
  facet normal -0.382684 0 0.923879
    outer loop
      vertex 61.9411 125 -7.24444
      vertex 63.75 120 -6.49519
      vertex 63.75 125 -6.49519
    endloop
  endfacet
  facet normal -0.382684 0 0.923879
    outer loop
      vertex 63.75 120 -6.49519
      vertex 61.9411 125 -7.24444
      vertex 61.9411 120 -7.24444
    endloop
  endfacet
  facet normal -0.92388 0 0.382683
    outer loop
      vertex 66.4952 120 -3.75
      vertex 67.2444 125 -1.94114
      vertex 66.4952 125 -3.75
    endloop
  endfacet
  facet normal -0.92388 0 0.382683
    outer loop
      vertex 67.2444 125 -1.94114
      vertex 66.4952 120 -3.75
      vertex 67.2444 120 -1.94114
    endloop
  endfacet
  facet normal -0.991445 0 0.130525
    outer loop
      vertex 67.2444 120 -1.94114
      vertex 67.5 125 0
      vertex 67.2444 125 -1.94114
    endloop
  endfacet
  facet normal -0.991445 0 0.130525
    outer loop
      vertex 67.5 125 0
      vertex 67.2444 120 -1.94114
      vertex 67.5 120 0
    endloop
  endfacet
  facet normal 0 -1 0
    outer loop
      vertex 35 120 25
      vertex 60 120 7.5
      vertex 85 120 25
    endloop
  endfacet
  facet normal 0 -1 0
    outer loop
      vertex 35 120 25
      vertex 58.0589 120 7.24444
      vertex 60 120 7.5
    endloop
  endfacet
  facet normal 0 -1 0
    outer loop
      vertex 35 120 25
      vertex 56.25 120 6.49519
      vertex 58.0589 120 7.24444
    endloop
  endfacet
  facet normal 0 -1 0
    outer loop
      vertex 35 120 25
      vertex 54.6967 120 5.3033
      vertex 56.25 120 6.49519
    endloop
  endfacet
  facet normal 0 -1 0
    outer loop
      vertex 35 120 25
      vertex 53.5048 120 3.75
      vertex 54.6967 120 5.3033
    endloop
  endfacet
  facet normal 0 -1 0
    outer loop
      vertex 35 120 25
      vertex 52.7556 120 1.94114
      vertex 53.5048 120 3.75
    endloop
  endfacet
  facet normal 0 -1 0
    outer loop
      vertex 35 120 25
      vertex 52.5 120 0
      vertex 52.7556 120 1.94114
    endloop
  endfacet
  facet normal 0 -1 0
    outer loop
      vertex 35 120 -25
      vertex 52.5 120 0
      vertex 35 120 25
    endloop
  endfacet
  facet normal 0 -1 -0
    outer loop
      vertex 52.5 120 0
      vertex 35 120 -25
      vertex 52.7556 120 -1.94114
    endloop
  endfacet
  facet normal 0 -1 -0
    outer loop
      vertex 58.0589 120 -7.24444
      vertex 35 120 -25
      vertex 60 120 -7.5
    endloop
  endfacet
  facet normal 0 -1 -0
    outer loop
      vertex 56.25 120 -6.49519
      vertex 35 120 -25
      vertex 58.0589 120 -7.24444
    endloop
  endfacet
  facet normal 0 -1 -0
    outer loop
      vertex 54.6967 120 -5.3033
      vertex 35 120 -25
      vertex 56.25 120 -6.49519
    endloop
  endfacet
  facet normal 0 -1 -0
    outer loop
      vertex 53.5048 120 -3.75
      vertex 35 120 -25
      vertex 54.6967 120 -5.3033
    endloop
  endfacet
  facet normal 0 -1 -0
    outer loop
      vertex 52.7556 120 -1.94114
      vertex 35 120 -25
      vertex 53.5048 120 -3.75
    endloop
  endfacet
  facet normal 0 -1 0
    outer loop
      vertex 61.9411 120 7.24444
      vertex 85 120 25
      vertex 60 120 7.5
    endloop
  endfacet
  facet normal 0 -1 0
    outer loop
      vertex 63.75 120 6.49519
      vertex 85 120 25
      vertex 61.9411 120 7.24444
    endloop
  endfacet
  facet normal 0 -1 0
    outer loop
      vertex 65.3033 120 5.3033
      vertex 85 120 25
      vertex 63.75 120 6.49519
    endloop
  endfacet
  facet normal 0 -1 0
    outer loop
      vertex 66.4952 120 3.75
      vertex 85 120 25
      vertex 65.3033 120 5.3033
    endloop
  endfacet
  facet normal 0 -1 0
    outer loop
      vertex 67.2444 120 1.94114
      vertex 85 120 25
      vertex 66.4952 120 3.75
    endloop
  endfacet
  facet normal 0 -1 0
    outer loop
      vertex 67.5 120 0
      vertex 85 120 25
      vertex 67.2444 120 1.94114
    endloop
  endfacet
  facet normal 0 -1 0
    outer loop
      vertex 85 120 -25
      vertex 67.5 120 0
      vertex 67.2444 120 -1.94114
    endloop
  endfacet
  facet normal 0 -1 0
    outer loop
      vertex 85 120 -25
      vertex 67.2444 120 -1.94114
      vertex 66.4952 120 -3.75
    endloop
  endfacet
  facet normal 0 -1 0
    outer loop
      vertex 85 120 -25
      vertex 60 120 -7.5
      vertex 35 120 -25
    endloop
  endfacet
  facet normal 0 -1 0
    outer loop
      vertex 60 120 -7.5
      vertex 85 120 -25
      vertex 61.9411 120 -7.24444
    endloop
  endfacet
  facet normal 0 -1 0
    outer loop
      vertex 67.5 120 0
      vertex 85 120 -25
      vertex 85 120 25
    endloop
  endfacet
  facet normal 0 -1 0
    outer loop
      vertex 65.3033 120 -5.3033
      vertex 85 120 -25
      vertex 66.4952 120 -3.75
    endloop
  endfacet
  facet normal 0 -1 0
    outer loop
      vertex 63.75 120 -6.49519
      vertex 85 120 -25
      vertex 65.3033 120 -5.3033
    endloop
  endfacet
  facet normal 0 -1 0
    outer loop
      vertex 61.9411 120 -7.24444
      vertex 85 120 -25
      vertex 63.75 120 -6.49519
    endloop
  endfacet
  facet normal 0.923879 0 -0.382685
    outer loop
      vertex 52.7556 125 1.94114
      vertex 53.5048 120 3.75
      vertex 52.7556 120 1.94114
    endloop
  endfacet
  facet normal 0.382684 0 0.923879
    outer loop
      vertex 56.25 125 -6.49519
      vertex 58.0589 120 -7.24444
      vertex 58.0589 125 -7.24444
    endloop
  endfacet
  facet normal 0.382684 0 0.923879
    outer loop
      vertex 58.0589 120 -7.24444
      vertex 56.25 125 -6.49519
      vertex 56.25 120 -6.49519
    endloop
  endfacet
  facet normal 0.130527 0 0.991445
    outer loop
      vertex 60 125 -7.5
      vertex 58.0589 125 -7.24444
      vertex 58.0589 120 -7.24444
    endloop
  endfacet
  facet normal 0.130526 1.89103e-07 0.991445
    outer loop
      vertex 60 120 -7.5
      vertex 60 125 -7.5
      vertex 58.0589 120 -7.24444
    endloop
  endfacet
  facet normal -0.994522 0 -0.104529
    outer loop
      vertex 72.5 0 0
      vertex 72.2268 25 2.5989
      vertex 72.5 25 0
    endloop
  endfacet
  facet normal -0.994522 -0 -0.104529
    outer loop
      vertex 72.2268 25 2.5989
      vertex 72.5 0 0
      vertex 72.2268 0 2.5989
    endloop
  endfacet
  facet normal -0.951057 0 -0.309017
    outer loop
      vertex 72.2268 0 2.5989
      vertex 71.4193 25 5.08421
      vertex 72.2268 25 2.5989
    endloop
  endfacet
  facet normal -0.951057 -0 -0.309017
    outer loop
      vertex 71.4193 25 5.08421
      vertex 72.2268 0 2.5989
      vertex 71.4193 0 5.08421
    endloop
  endfacet
  facet normal 0 0 -1
    outer loop
      vertex 58.6934 0 12.4315
      vertex 61.3066 25 12.4315
      vertex 61.3066 0 12.4315
    endloop
  endfacet
  facet normal -0 0 -1
    outer loop
      vertex 61.3066 25 12.4315
      vertex 58.6934 0 12.4315
      vertex 58.6934 25 12.4315
    endloop
  endfacet
  facet normal -0.587785 0 -0.809017
    outer loop
      vertex 66.25 0 10.8253
      vertex 68.3641 25 9.28931
      vertex 68.3641 0 9.28931
    endloop
  endfacet
  facet normal -0.587785 0 -0.809017
    outer loop
      vertex 68.3641 25 9.28931
      vertex 66.25 0 10.8253
      vertex 66.25 25 10.8253
    endloop
  endfacet
  facet normal 0.743145 0 -0.669131
    outer loop
      vertex 51.6359 0 9.28931
      vertex 49.8873 25 7.34731
      vertex 51.6359 25 9.28931
    endloop
  endfacet
  facet normal 0.743145 0 -0.669131
    outer loop
      vertex 49.8873 25 7.34731
      vertex 51.6359 0 9.28931
      vertex 49.8873 0 7.34731
    endloop
  endfacet
  facet normal 0.406736 0 -0.913546
    outer loop
      vertex 53.75 0 10.8253
      vertex 56.1373 25 11.8882
      vertex 56.1373 0 11.8882
    endloop
  endfacet
  facet normal 0.406736 0 -0.913546
    outer loop
      vertex 56.1373 25 11.8882
      vertex 53.75 0 10.8253
      vertex 53.75 25 10.8253
    endloop
  endfacet
  facet normal -0.207912 0 0.978148
    outer loop
      vertex 61.3066 25 -12.4315
      vertex 63.8627 0 -11.8882
      vertex 63.8627 25 -11.8882
    endloop
  endfacet
  facet normal -0.207912 0 0.978148
    outer loop
      vertex 63.8627 0 -11.8882
      vertex 61.3066 25 -12.4315
      vertex 61.3066 0 -12.4315
    endloop
  endfacet
  facet normal 0.406736 0 0.913546
    outer loop
      vertex 53.75 25 -10.8253
      vertex 56.1373 0 -11.8882
      vertex 56.1373 25 -11.8882
    endloop
  endfacet
  facet normal 0.406736 0 0.913546
    outer loop
      vertex 56.1373 0 -11.8882
      vertex 53.75 25 -10.8253
      vertex 53.75 0 -10.8253
    endloop
  endfacet
  facet normal -0.866025 0 -0.500001
    outer loop
      vertex 71.4193 0 5.08421
      vertex 70.1127 25 7.34731
      vertex 71.4193 25 5.08421
    endloop
  endfacet
  facet normal -0.866025 -0 -0.500001
    outer loop
      vertex 70.1127 25 7.34731
      vertex 71.4193 0 5.08421
      vertex 70.1127 0 7.34731
    endloop
  endfacet
  facet normal -0.207912 0 -0.978148
    outer loop
      vertex 61.3066 0 12.4315
      vertex 63.8627 25 11.8882
      vertex 63.8627 0 11.8882
    endloop
  endfacet
  facet normal -0.207912 0 -0.978148
    outer loop
      vertex 63.8627 25 11.8882
      vertex 61.3066 0 12.4315
      vertex 61.3066 25 12.4315
    endloop
  endfacet
  facet normal -0.406736 0 -0.913546
    outer loop
      vertex 63.8627 0 11.8882
      vertex 66.25 25 10.8253
      vertex 66.25 0 10.8253
    endloop
  endfacet
  facet normal -0.406736 0 -0.913546
    outer loop
      vertex 66.25 25 10.8253
      vertex 63.8627 0 11.8882
      vertex 63.8627 25 11.8882
    endloop
  endfacet
  facet normal 0.951057 0 -0.309017
    outer loop
      vertex 48.5807 0 5.08421
      vertex 47.7732 25 2.5989
      vertex 48.5807 25 5.08421
    endloop
  endfacet
  facet normal 0.951057 0 -0.309017
    outer loop
      vertex 47.7732 25 2.5989
      vertex 48.5807 0 5.08421
      vertex 47.7732 0 2.5989
    endloop
  endfacet
  facet normal 0 1 0
    outer loop
      vertex 100 25 25
      vertex 61.3066 25 12.4315
      vertex 35 25 25
    endloop
  endfacet
  facet normal 0 1 0
    outer loop
      vertex 100 25 25
      vertex 63.8627 25 11.8882
      vertex 61.3066 25 12.4315
    endloop
  endfacet
  facet normal 0 1 0
    outer loop
      vertex 100 25 25
      vertex 66.25 25 10.8253
      vertex 63.8627 25 11.8882
    endloop
  endfacet
  facet normal 0 1 0
    outer loop
      vertex 100 25 25
      vertex 68.3641 25 9.28931
      vertex 66.25 25 10.8253
    endloop
  endfacet
  facet normal 0 1 0
    outer loop
      vertex 100 25 25
      vertex 70.1127 25 7.34731
      vertex 68.3641 25 9.28931
    endloop
  endfacet
  facet normal 0 1 0
    outer loop
      vertex 100 25 25
      vertex 71.4193 25 5.08421
      vertex 70.1127 25 7.34731
    endloop
  endfacet
  facet normal 0 1 0
    outer loop
      vertex 100 25 25
      vertex 72.2268 25 2.5989
      vertex 71.4193 25 5.08421
    endloop
  endfacet
  facet normal 0 1 0
    outer loop
      vertex 100 25 25
      vertex 72.5 25 0
      vertex 72.2268 25 2.5989
    endloop
  endfacet
  facet normal 0 1 -0
    outer loop
      vertex 100 25 -25
      vertex 72.5 25 0
      vertex 100 25 25
    endloop
  endfacet
  facet normal 0 1 0
    outer loop
      vertex 72.5 25 0
      vertex 100 25 -25
      vertex 72.2268 25 -2.5989
    endloop
  endfacet
  facet normal 0 1 0
    outer loop
      vertex 72.2268 25 -2.5989
      vertex 100 25 -25
      vertex 71.4193 25 -5.08421
    endloop
  endfacet
  facet normal 0 1 0
    outer loop
      vertex 71.4193 25 -5.08421
      vertex 100 25 -25
      vertex 70.1127 25 -7.34731
    endloop
  endfacet
  facet normal 0 1 0
    outer loop
      vertex 35 25 -25
      vertex 63.8627 25 -11.8882
      vertex 100 25 -25
    endloop
  endfacet
  facet normal 0 1 0
    outer loop
      vertex 66.25 25 -10.8253
      vertex 100 25 -25
      vertex 63.8627 25 -11.8882
    endloop
  endfacet
  facet normal 0 1 0
    outer loop
      vertex 68.3641 25 -9.28931
      vertex 100 25 -25
      vertex 66.25 25 -10.8253
    endloop
  endfacet
  facet normal 0 1 0
    outer loop
      vertex 70.1127 25 -7.34731
      vertex 100 25 -25
      vertex 68.3641 25 -9.28931
    endloop
  endfacet
  facet normal 0 1 -0
    outer loop
      vertex 58.6934 25 12.4315
      vertex 35 25 25
      vertex 61.3066 25 12.4315
    endloop
  endfacet
  facet normal 0 1 -0
    outer loop
      vertex 56.1373 25 11.8882
      vertex 35 25 25
      vertex 58.6934 25 12.4315
    endloop
  endfacet
  facet normal 0 1 -0
    outer loop
      vertex 53.75 25 10.8253
      vertex 35 25 25
      vertex 56.1373 25 11.8882
    endloop
  endfacet
  facet normal 0 1 -0
    outer loop
      vertex 51.6359 25 9.28931
      vertex 35 25 25
      vertex 53.75 25 10.8253
    endloop
  endfacet
  facet normal 0 1 -0
    outer loop
      vertex 49.8873 25 7.34731
      vertex 35 25 25
      vertex 51.6359 25 9.28931
    endloop
  endfacet
  facet normal 0 1 -0
    outer loop
      vertex 48.5807 25 5.08421
      vertex 35 25 25
      vertex 49.8873 25 7.34731
    endloop
  endfacet
  facet normal 0 1 -0
    outer loop
      vertex 47.7732 25 2.5989
      vertex 35 25 25
      vertex 48.5807 25 5.08421
    endloop
  endfacet
  facet normal 0 1 -0
    outer loop
      vertex 47.5 25 0
      vertex 35 25 25
      vertex 47.7732 25 2.5989
    endloop
  endfacet
  facet normal 0 1 0
    outer loop
      vertex 35 25 -25
      vertex 47.5 25 0
      vertex 47.7732 25 -2.5989
    endloop
  endfacet
  facet normal 0 1 0
    outer loop
      vertex 35 25 -25
      vertex 47.7732 25 -2.5989
      vertex 48.5807 25 -5.08421
    endloop
  endfacet
  facet normal 0 1 0
    outer loop
      vertex 47.5 25 0
      vertex 35 25 -25
      vertex 35 25 25
    endloop
  endfacet
  facet normal 0 1 0
    outer loop
      vertex 49.8873 25 -7.34731
      vertex 35 25 -25
      vertex 48.5807 25 -5.08421
    endloop
  endfacet
  facet normal 0 1 0
    outer loop
      vertex 51.6359 25 -9.28931
      vertex 35 25 -25
      vertex 49.8873 25 -7.34731
    endloop
  endfacet
  facet normal 0 1 0
    outer loop
      vertex 53.75 25 -10.8253
      vertex 35 25 -25
      vertex 51.6359 25 -9.28931
    endloop
  endfacet
  facet normal 0 1 0
    outer loop
      vertex 56.1373 25 -11.8882
      vertex 35 25 -25
      vertex 53.75 25 -10.8253
    endloop
  endfacet
  facet normal 0 1 0
    outer loop
      vertex 63.8627 25 -11.8882
      vertex 35 25 -25
      vertex 56.1373 25 -11.8882
    endloop
  endfacet
  facet normal 0.866025 0 -0.5
    outer loop
      vertex 49.8873 0 7.34731
      vertex 48.5807 25 5.08421
      vertex 49.8873 25 7.34731
    endloop
  endfacet
  facet normal 0.866025 0 -0.5
    outer loop
      vertex 48.5807 25 5.08421
      vertex 49.8873 0 7.34731
      vertex 48.5807 0 5.08421
    endloop
  endfacet
  facet normal 0.207912 0 -0.978148
    outer loop
      vertex 56.1373 0 11.8882
      vertex 58.6934 25 12.4315
      vertex 58.6934 0 12.4315
    endloop
  endfacet
  facet normal 0.207912 0 -0.978148
    outer loop
      vertex 58.6934 25 12.4315
      vertex 56.1373 0 11.8882
      vertex 56.1373 25 11.8882
    endloop
  endfacet
  facet normal -0.866025 0 0.500001
    outer loop
      vertex 70.1127 0 -7.34731
      vertex 71.4193 25 -5.08421
      vertex 70.1127 25 -7.34731
    endloop
  endfacet
  facet normal -0.866025 0 0.500001
    outer loop
      vertex 71.4193 25 -5.08421
      vertex 70.1127 0 -7.34731
      vertex 71.4193 0 -5.08421
    endloop
  endfacet
  facet normal 0 -1 0
    outer loop
      vertex 58.6934 25 -12.4315
      vertex 63.8627 25 -11.8882
      vertex 56.1373 25 -11.8882
    endloop
  endfacet
  facet normal 0 -1 0
    outer loop
      vertex 63.8627 25 -11.8882
      vertex 58.6934 25 -12.4315
      vertex 61.3066 25 -12.4315
    endloop
  endfacet
  facet normal 0.951057 -0 0.309017
    outer loop
      vertex 47.7732 0 -2.5989
      vertex 48.5807 25 -5.08421
      vertex 47.7732 25 -2.5989
    endloop
  endfacet
  facet normal 0.951057 0 0.309017
    outer loop
      vertex 48.5807 25 -5.08421
      vertex 47.7732 0 -2.5989
      vertex 48.5807 0 -5.08421
    endloop
  endfacet
  facet normal -0.743146 0 -0.669129
    outer loop
      vertex 70.1127 0 7.34731
      vertex 68.3641 25 9.28931
      vertex 70.1127 25 7.34731
    endloop
  endfacet
  facet normal -0.743146 -0 -0.669129
    outer loop
      vertex 68.3641 25 9.28931
      vertex 70.1127 0 7.34731
      vertex 68.3641 0 9.28931
    endloop
  endfacet
  facet normal 0.994522 0 -0.104529
    outer loop
      vertex 47.7732 0 2.5989
      vertex 47.5 25 0
      vertex 47.7732 25 2.5989
    endloop
  endfacet
  facet normal 0.994522 0 -0.104529
    outer loop
      vertex 47.5 25 0
      vertex 47.7732 0 2.5989
      vertex 47.5 0 0
    endloop
  endfacet
  facet normal 0.994522 -0 0.104529
    outer loop
      vertex 47.5 0 0
      vertex 47.7732 25 -2.5989
      vertex 47.5 25 0
    endloop
  endfacet
  facet normal 0.994522 0 0.104529
    outer loop
      vertex 47.7732 25 -2.5989
      vertex 47.5 0 0
      vertex 47.7732 0 -2.5989
    endloop
  endfacet
  facet normal 0.587786 0 -0.809017
    outer loop
      vertex 51.6359 0 9.28931
      vertex 53.75 25 10.8253
      vertex 53.75 0 10.8253
    endloop
  endfacet
  facet normal 0.587786 0 -0.809017
    outer loop
      vertex 53.75 25 10.8253
      vertex 51.6359 0 9.28931
      vertex 51.6359 25 9.28931
    endloop
  endfacet
  facet normal -0.406736 0 0.913546
    outer loop
      vertex 63.8627 25 -11.8882
      vertex 66.25 0 -10.8253
      vertex 66.25 25 -10.8253
    endloop
  endfacet
  facet normal -0.406736 0 0.913546
    outer loop
      vertex 66.25 0 -10.8253
      vertex 63.8627 25 -11.8882
      vertex 63.8627 0 -11.8882
    endloop
  endfacet
  facet normal -0.587785 0 0.809017
    outer loop
      vertex 66.25 25 -10.8253
      vertex 68.3641 0 -9.28931
      vertex 68.3641 25 -9.28931
    endloop
  endfacet
  facet normal -0.587785 0 0.809017
    outer loop
      vertex 68.3641 0 -9.28931
      vertex 66.25 25 -10.8253
      vertex 66.25 0 -10.8253
    endloop
  endfacet
  facet normal -0.743146 0 0.669129
    outer loop
      vertex 68.3641 0 -9.28931
      vertex 70.1127 25 -7.34731
      vertex 68.3641 25 -9.28931
    endloop
  endfacet
  facet normal -0.743146 0 0.669129
    outer loop
      vertex 70.1127 25 -7.34731
      vertex 68.3641 0 -9.28931
      vertex 70.1127 0 -7.34731
    endloop
  endfacet
  facet normal 0.207912 0 0.978148
    outer loop
      vertex 56.1373 25 -11.8882
      vertex 58.6934 0 -12.4315
      vertex 58.6934 25 -12.4315
    endloop
  endfacet
  facet normal 0.207912 0 0.978148
    outer loop
      vertex 58.6934 0 -12.4315
      vertex 56.1373 25 -11.8882
      vertex 56.1373 0 -11.8882
    endloop
  endfacet
  facet normal -0 0 1
    outer loop
      vertex 58.6934 25 -12.4315
      vertex 61.3066 0 -12.4315
      vertex 61.3066 25 -12.4315
    endloop
  endfacet
  facet normal 0 0 1
    outer loop
      vertex 61.3066 0 -12.4315
      vertex 58.6934 25 -12.4315
      vertex 58.6934 0 -12.4315
    endloop
  endfacet
  facet normal 0.743145 -0 0.669131
    outer loop
      vertex 49.8873 0 -7.34731
      vertex 51.6359 25 -9.28931
      vertex 49.8873 25 -7.34731
    endloop
  endfacet
  facet normal 0.743145 0 0.669131
    outer loop
      vertex 51.6359 25 -9.28931
      vertex 49.8873 0 -7.34731
      vertex 51.6359 0 -9.28931
    endloop
  endfacet
  facet normal 0.587786 0 0.809017
    outer loop
      vertex 51.6359 25 -9.28931
      vertex 53.75 0 -10.8253
      vertex 53.75 25 -10.8253
    endloop
  endfacet
  facet normal 0.587786 0 0.809017
    outer loop
      vertex 53.75 0 -10.8253
      vertex 51.6359 25 -9.28931
      vertex 51.6359 0 -9.28931
    endloop
  endfacet
  facet normal 0.866025 -0 0.5
    outer loop
      vertex 48.5807 0 -5.08421
      vertex 49.8873 25 -7.34731
      vertex 48.5807 25 -5.08421
    endloop
  endfacet
  facet normal 0.866025 0 0.5
    outer loop
      vertex 49.8873 25 -7.34731
      vertex 48.5807 0 -5.08421
      vertex 49.8873 0 -7.34731
    endloop
  endfacet
  facet normal -0.951057 0 0.309017
    outer loop
      vertex 71.4193 0 -5.08421
      vertex 72.2268 25 -2.5989
      vertex 71.4193 25 -5.08421
    endloop
  endfacet
  facet normal -0.951057 0 0.309017
    outer loop
      vertex 72.2268 25 -2.5989
      vertex 71.4193 0 -5.08421
      vertex 72.2268 0 -2.5989
    endloop
  endfacet
  facet normal -0.994522 0 0.104529
    outer loop
      vertex 72.2268 0 -2.5989
      vertex 72.5 25 0
      vertex 72.2268 25 -2.5989
    endloop
  endfacet
  facet normal -0.994522 0 0.104529
    outer loop
      vertex 72.5 25 0
      vertex 72.2268 0 -2.5989
      vertex 72.5 0 0
    endloop
  endfacet
  facet normal 0 0 -1
    outer loop
      vertex 100 25 -25
      vertex 130 10 -25
      vertex 120 0 -25
    endloop
  endfacet
  facet normal 0 -0 -1
    outer loop
      vertex 110 50 -25
      vertex 130 10 -25
      vertex 100 25 -25
    endloop
  endfacet
  facet normal 0 0 -1
    outer loop
      vertex 130 10 -25
      vertex 110 50 -25
      vertex 135 50 -25
    endloop
  endfacet
  facet normal 0 0 -1
    outer loop
      vertex 120 0 -25
      vertex 35 25 -25
      vertex 100 25 -25
    endloop
  endfacet
  facet normal 0 0 -1
    outer loop
      vertex 0 10 -25
      vertex 25 35 -25
      vertex 10 0 -25
    endloop
  endfacet
  facet normal -0 0 -1
    outer loop
      vertex 35 25 -25
      vertex 10 0 -25
      vertex 25 35 -25
    endloop
  endfacet
  facet normal 0 0 -1
    outer loop
      vertex 10 0 -25
      vertex 35 25 -25
      vertex 120 0 -25
    endloop
  endfacet
  facet normal 0 0 -1
    outer loop
      vertex 35 120 -25
      vertex 85 145 -25
      vertex 85 120 -25
    endloop
  endfacet
  facet normal -0 0 -1
    outer loop
      vertex 25 35 -25
      vertex 0 10 -25
      vertex 25 110 -25
    endloop
  endfacet
  facet normal 0 0 -1
    outer loop
      vertex 35 120 -25
      vertex 0 145 -25
      vertex 85 145 -25
    endloop
  endfacet
  facet normal 0 0 -1
    outer loop
      vertex 25 110 -25
      vertex 0 145 -25
      vertex 35 120 -25
    endloop
  endfacet
  facet normal 0 0 -1
    outer loop
      vertex 0 145 -25
      vertex 25 110 -25
      vertex 0 10 -25
    endloop
  endfacet
  facet normal 0 0 1
    outer loop
      vertex 85 145 25
      vertex 35 120 25
      vertex 85 120 25
    endloop
  endfacet
  facet normal 0 0 1
    outer loop
      vertex 0 10 25
      vertex 25 35 25
      vertex 25 110 25
    endloop
  endfacet
  facet normal -0 0 1
    outer loop
      vertex 0 145 25
      vertex 35 120 25
      vertex 85 145 25
    endloop
  endfacet
  facet normal 0 0 1
    outer loop
      vertex 0 145 25
      vertex 25 110 25
      vertex 35 120 25
    endloop
  endfacet
  facet normal 0 0 1
    outer loop
      vertex 0 10 25
      vertex 25 110 25
      vertex 0 145 25
    endloop
  endfacet
  facet normal 0 0 1
    outer loop
      vertex 25 35 25
      vertex 0 10 25
      vertex 10 0 25
    endloop
  endfacet
  facet normal -0 0 1
    outer loop
      vertex 110 50 25
      vertex 130 10 25
      vertex 135 50 25
    endloop
  endfacet
  facet normal 0 0 1
    outer loop
      vertex 130 10 25
      vertex 110 50 25
      vertex 100 25 25
    endloop
  endfacet
  facet normal 0 0 1
    outer loop
      vertex 130 10 25
      vertex 100 25 25
      vertex 120 0 25
    endloop
  endfacet
  facet normal -0 0 1
    outer loop
      vertex 35 25 25
      vertex 120 0 25
      vertex 100 25 25
    endloop
  endfacet
  facet normal 0 0 1
    outer loop
      vertex 35 25 25
      vertex 10 0 25
      vertex 120 0 25
    endloop
  endfacet
  facet normal 0 0 1
    outer loop
      vertex 10 0 25
      vertex 35 25 25
      vertex 25 35 25
    endloop
  endfacet
  facet normal 0.992278 -0.124035 0
    outer loop
      vertex 130 10 25
      vertex 135 50 -25
      vertex 135 50 25
    endloop
  endfacet
  facet normal 0.992278 -0.124035 0
    outer loop
      vertex 135 50 -25
      vertex 130 10 25
      vertex 130 10 -25
    endloop
  endfacet
  facet normal 0 1 -0
    outer loop
      vertex 135 50 -25
      vertex 110 50 25
      vertex 135 50 25
    endloop
  endfacet
  facet normal 0 1 0
    outer loop
      vertex 110 50 25
      vertex 135 50 -25
      vertex 110 50 -25
    endloop
  endfacet
  facet normal -0.928477 0.371391 0
    outer loop
      vertex 100 25 -25
      vertex 110 50 25
      vertex 110 50 -25
    endloop
  endfacet
  facet normal -0.928477 0.371391 0
    outer loop
      vertex 110 50 25
      vertex 100 25 -25
      vertex 100 25 25
    endloop
  endfacet
  facet normal 0.707107 0.707107 0
    outer loop
      vertex 35 25 25
      vertex 25 35 -25
      vertex 25 35 25
    endloop
  endfacet
  facet normal 0.707107 0.707107 0
    outer loop
      vertex 25 35 -25
      vertex 35 25 25
      vertex 35 25 -25
    endloop
  endfacet
  facet normal 1 -0 0
    outer loop
      vertex 25 35 25
      vertex 25 110 -25
      vertex 25 110 25
    endloop
  endfacet
  facet normal 1 0 0
    outer loop
      vertex 25 110 -25
      vertex 25 35 25
      vertex 25 35 -25
    endloop
  endfacet
  facet normal 0.707107 -0.707107 0
    outer loop
      vertex 25 110 25
      vertex 35 120 -25
      vertex 35 120 25
    endloop
  endfacet
  facet normal 0.707107 -0.707107 0
    outer loop
      vertex 35 120 -25
      vertex 25 110 25
      vertex 25 110 -25
    endloop
  endfacet
  facet normal 1 -0 0
    outer loop
      vertex 85 120 25
      vertex 85 145 -25
      vertex 85 145 25
    endloop
  endfacet
  facet normal 1 0 0
    outer loop
      vertex 85 145 -25
      vertex 85 120 25
      vertex 85 120 -25
    endloop
  endfacet
  facet normal 0 1 0
    outer loop
      vertex 85 145 25
      vertex 60 145 2.5
      vertex 0 145 25
    endloop
  endfacet
  facet normal 0 1 0
    outer loop
      vertex 85 145 25
      vertex 61.068 145 2.05761
      vertex 60 145 2.5
    endloop
  endfacet
  facet normal 0 1 0
    outer loop
      vertex 85 145 25
      vertex 61.7678 145 1.76777
      vertex 61.068 145 2.05761
    endloop
  endfacet
  facet normal 0 1 0
    outer loop
      vertex 85 145 25
      vertex 62.5 145 0
      vertex 61.7678 145 1.76777
    endloop
  endfacet
  facet normal 0 1 -0
    outer loop
      vertex 85 145 -25
      vertex 62.5 145 0
      vertex 85 145 25
    endloop
  endfacet
  facet normal 0 1 0
    outer loop
      vertex 60.6997 145 -2.21016
      vertex 85 145 -25
      vertex 60 145 -2.5
    endloop
  endfacet
  facet normal 0 1 0
    outer loop
      vertex 61.7678 145 -1.76777
      vertex 85 145 -25
      vertex 60.6997 145 -2.21016
    endloop
  endfacet
  facet normal 0 1 0
    outer loop
      vertex 62.5 145 0
      vertex 85 145 -25
      vertex 61.7678 145 -1.76777
    endloop
  endfacet
  facet normal 0 1 -0
    outer loop
      vertex 58.932 145 2.05761
      vertex 0 145 25
      vertex 60 145 2.5
    endloop
  endfacet
  facet normal 0 1 -0
    outer loop
      vertex 58.2322 145 1.76777
      vertex 0 145 25
      vertex 58.932 145 2.05761
    endloop
  endfacet
  facet normal 0 1 -0
    outer loop
      vertex 57.5 145 0
      vertex 0 145 25
      vertex 58.2322 145 1.76777
    endloop
  endfacet
  facet normal 0 1 0
    outer loop
      vertex 0 145 -25
      vertex 57.5 145 0
      vertex 58.2322 145 -1.76777
    endloop
  endfacet
  facet normal 0 1 0
    outer loop
      vertex 0 145 -25
      vertex 60 145 -2.5
      vertex 85 145 -25
    endloop
  endfacet
  facet normal 0 1 0
    outer loop
      vertex 60 145 -2.5
      vertex 0 145 -25
      vertex 59.3003 145 -2.21016
    endloop
  endfacet
  facet normal 0 1 0
    outer loop
      vertex 59.3003 145 -2.21016
      vertex 0 145 -25
      vertex 58.2322 145 -1.76777
    endloop
  endfacet
  facet normal 0 1 0
    outer loop
      vertex 57.5 145 0
      vertex 0 145 -25
      vertex 0 145 25
    endloop
  endfacet
  facet normal -1 0 0
    outer loop
      vertex 0 10 -25
      vertex 0 145 25
      vertex 0 145 -25
    endloop
  endfacet
  facet normal -1 -0 0
    outer loop
      vertex 0 145 25
      vertex 0 10 -25
      vertex 0 10 25
    endloop
  endfacet
  facet normal -0.707107 -0.707107 0
    outer loop
      vertex 10 0 -25
      vertex 0 10 25
      vertex 0 10 -25
    endloop
  endfacet
  facet normal -0.707107 -0.707107 0
    outer loop
      vertex 0 10 25
      vertex 10 0 -25
      vertex 10 0 25
    endloop
  endfacet
  facet normal 0.707107 -0.707107 0
    outer loop
      vertex 120 0 25
      vertex 130 10 -25
      vertex 130 10 25
    endloop
  endfacet
  facet normal 0.707107 -0.707107 0
    outer loop
      vertex 130 10 -25
      vertex 120 0 25
      vertex 120 0 -25
    endloop
  endfacet
endsolid OpenSCAD_Model
