solid OpenSCAD_Model
  facet normal -1 0 0
    outer loop
      vertex -30 -125 -30
      vertex -30 -125 30
      vertex -30 -30 -30
    endloop
  endfacet
  facet normal -1 0 0
    outer loop
      vertex -30 -30 -30
      vertex -30 -125 30
      vertex -30 -30 30
    endloop
  endfacet
  facet normal -1 0 0
    outer loop
      vertex -30 -30 30
      vertex -30 -30 125
      vertex -30 30 125
    endloop
  endfacet
  facet normal -1 0 0
    outer loop
      vertex -30 -30 30
      vertex -30 30 125
      vertex -30 -30 -30
    endloop
  endfacet
  facet normal -1 0 0
    outer loop
      vertex -30 -30 -30
      vertex -30 30 125
      vertex -30 30 -30
    endloop
  endfacet
  facet normal 0 -1 2.22045e-16
    outer loop
      vertex -25 -125 -25
      vertex -30 -125 -30
      vertex 30 -125 -30
    endloop
  endfacet
  facet normal 0 -1 2.22045e-16
    outer loop
      vertex -25 -125 25
      vertex -30 -125 30
      vertex -25 -125 -25
    endloop
  endfacet
  facet normal 0 -1 2.22045e-16
    outer loop
      vertex 25 -125 -25
      vertex -25 -125 -25
      vertex 30 -125 -30
    endloop
  endfacet
  facet normal 0 -1 2.22045e-16
    outer loop
      vertex -30 -125 30
      vertex -30 -125 -30
      vertex -25 -125 -25
    endloop
  endfacet
  facet normal 0 -1 2.22045e-16
    outer loop
      vertex 30 -125 30
      vertex -30 -125 30
      vertex -25 -125 25
    endloop
  endfacet
  facet normal 0 -1 2.22045e-16
    outer loop
      vertex 30 -125 30
      vertex 25 -125 25
      vertex 30 -125 -30
    endloop
  endfacet
  facet normal 0 -1 2.22045e-16
    outer loop
      vertex 30 -125 30
      vertex -25 -125 25
      vertex 25 -125 25
    endloop
  endfacet
  facet normal 0 -1 2.22045e-16
    outer loop
      vertex 25 -125 25
      vertex 25 -125 -25
      vertex 30 -125 -30
    endloop
  endfacet
  facet normal 0 -2.22045e-16 -1
    outer loop
      vertex -30 -125 -30
      vertex -30 -30 -30
      vertex 30 -125 -30
    endloop
  endfacet
  facet normal 0 -2.22045e-16 -1
    outer loop
      vertex 30 -125 -30
      vertex -30 -30 -30
      vertex -1.47911e-30 -30 -30
    endloop
  endfacet
  facet normal 0 -2.22045e-16 -1
    outer loop
      vertex 30 -125 -30
      vertex -1.47911e-30 -30 -30
      vertex 30 -30 -30
    endloop
  endfacet
  facet normal 0 -1 0
    outer loop
      vertex -1.47911e-30 -30 -30
      vertex -30 -30 -30
      vertex 0 -30 -30
    endloop
  endfacet
  facet normal 0 0 -1
    outer loop
      vertex -30 -30 -30
      vertex -30 30 -30
      vertex 0 -30 -30
    endloop
  endfacet
  facet normal 0 0 -1
    outer loop
      vertex 0 -30 -30
      vertex -30 30 -30
      vertex 30 30 -30
    endloop
  endfacet
  facet normal 0 0 -1
    outer loop
      vertex 0 -30 -30
      vertex 30 30 -30
      vertex 30 -30 -30
    endloop
  endfacet
  facet normal 0 1 0
    outer loop
      vertex -30 30 -30
      vertex -30 30 125
      vertex 30 30 -30
    endloop
  endfacet
  facet normal 0 1 0
    outer loop
      vertex 30 30 -30
      vertex -30 30 125
      vertex 30 30 125
    endloop
  endfacet
  facet normal 0 0 1
    outer loop
      vertex -25 -25 125
      vertex -30 -30 125
      vertex 30 -30 125
    endloop
  endfacet
  facet normal 0 0 1
    outer loop
      vertex -25 25 125
      vertex -30 30 125
      vertex -25 -25 125
    endloop
  endfacet
  facet normal 0 0 1
    outer loop
      vertex 25 -25 125
      vertex -25 -25 125
      vertex 30 -30 125
    endloop
  endfacet
  facet normal 0 0 1
    outer loop
      vertex -30 30 125
      vertex -30 -30 125
      vertex -25 -25 125
    endloop
  endfacet
  facet normal 0 0 1
    outer loop
      vertex 30 30 125
      vertex -30 30 125
      vertex -25 25 125
    endloop
  endfacet
  facet normal 0 0 1
    outer loop
      vertex 30 30 125
      vertex 25 25 125
      vertex 30 -30 125
    endloop
  endfacet
  facet normal 0 0 1
    outer loop
      vertex 30 30 125
      vertex -25 25 125
      vertex 25 25 125
    endloop
  endfacet
  facet normal 0 0 1
    outer loop
      vertex 25 25 125
      vertex 25 -25 125
      vertex 30 -30 125
    endloop
  endfacet
  facet normal 0 -1 0
    outer loop
      vertex -30 -30 125
      vertex -30 -30 30
      vertex 30 -30 30
    endloop
  endfacet
  facet normal 0 -1 0
    outer loop
      vertex 30 -30 125
      vertex -30 -30 125
      vertex 30 -30 30
    endloop
  endfacet
  facet normal 0 2.22045e-16 1
    outer loop
      vertex -30 -30 30
      vertex -30 -125 30
      vertex 30 -125 30
    endloop
  endfacet
  facet normal 0 2.22045e-16 1
    outer loop
      vertex 30 -30 30
      vertex -30 -30 30
      vertex 30 -125 30
    endloop
  endfacet
  facet normal 1 0 0
    outer loop
      vertex 30 -125 30
      vertex 30 -125 -30
      vertex 30 -30 -30
    endloop
  endfacet
  facet normal 1 0 0
    outer loop
      vertex 30 -30 30
      vertex 30 -125 30
      vertex 30 -30 -30
    endloop
  endfacet
  facet normal 1 0 0
    outer loop
      vertex -25 25 125
      vertex -25 0.5 -0.5
      vertex -25 25 -0.5
    endloop
  endfacet
  facet normal 1 0 0
    outer loop
      vertex -25 -25 125
      vertex -25 0.5 -0.5
      vertex -25 25 125
    endloop
  endfacet
  facet normal 1 0 0
    outer loop
      vertex -25 0.5 -25
      vertex -25 0.5 -0.5
      vertex -25 -25 125
    endloop
  endfacet
  facet normal 1 0 0
    outer loop
      vertex -25 -25 25
      vertex -25 0.5 -25
      vertex -25 -25 125
    endloop
  endfacet
  facet normal 1 0 0
    outer loop
      vertex -25 -125 25
      vertex -25 0.5 -25
      vertex -25 -25 25
    endloop
  endfacet
  facet normal 1 0 0
    outer loop
      vertex -25 -125 -25
      vertex -25 0.5 -25
      vertex -25 -125 25
    endloop
  endfacet
  facet normal 0 2.22045e-16 1
    outer loop
      vertex 25 -125 -25
      vertex 25 -25 -25
      vertex -0.5 -25 -25
    endloop
  endfacet
  facet normal 0 2.22045e-16 1
    outer loop
      vertex -25 0.5 -25
      vertex 25 -125 -25
      vertex -0.5 -25 -25
    endloop
  endfacet
  facet normal 0 2.22045e-16 1
    outer loop
      vertex -0.5 0.5 -25
      vertex -25 0.5 -25
      vertex -0.5 -25 -25
    endloop
  endfacet
  facet normal 0 2.22045e-16 1
    outer loop
      vertex -25 0.5 -25
      vertex -25 -125 -25
      vertex 25 -125 -25
    endloop
  endfacet
  facet normal -1 0 0
    outer loop
      vertex 25 -125 25
      vertex 25 -25 25
      vertex 25 -25 -25
    endloop
  endfacet
  facet normal -1 0 0
    outer loop
      vertex 25 -125 25
      vertex 25 -25 -25
      vertex 25 -125 -25
    endloop
  endfacet
  facet normal 0 -2.22045e-16 -1
    outer loop
      vertex -25 -25 25
      vertex 25 -25 25
      vertex 25 -125 25
    endloop
  endfacet
  facet normal 0 -2.22045e-16 -1
    outer loop
      vertex -25 -25 25
      vertex 25 -125 25
      vertex -25 -125 25
    endloop
  endfacet
  facet normal -2.22045e-16 -1 -4.93038e-32
    outer loop
      vertex 125 -30 30
      vertex 30 -30 30
      vertex 30 -30 -30
    endloop
  endfacet
  facet normal -2.22045e-16 -1 -4.93038e-32
    outer loop
      vertex 125 -30 -30
      vertex 125 -30 30
      vertex 30 -30 -30
    endloop
  endfacet
  facet normal 2.22045e-16 -4.93038e-32 -1
    outer loop
      vertex 30 -30 -30
      vertex 30 30 -30
      vertex 125 -30 -30
    endloop
  endfacet
  facet normal 2.22045e-16 -4.93038e-32 -1
    outer loop
      vertex 125 -30 -30
      vertex 30 30 -30
      vertex 125 30 -30
    endloop
  endfacet
  facet normal 1 0 0
    outer loop
      vertex 30 30 30
      vertex 30 30 -30
      vertex 30 30 125
    endloop
  endfacet
  facet normal 1 0 0
    outer loop
      vertex 30 30 125
      vertex 30 -30 125
      vertex 30 -30 30
    endloop
  endfacet
  facet normal 1 0 0
    outer loop
      vertex 30 -30 30
      vertex 30 30 30
      vertex 30 30 125
    endloop
  endfacet
  facet normal -2.22045e-16 -1 -4.93038e-32
    outer loop
      vertex 30 -30 -30
      vertex -1.47911e-30 -30 -30
      vertex 0 -30 -30
    endloop
  endfacet
  facet normal 0 1 0
    outer loop
      vertex 25 -25 125
      vertex 25 -25 25
      vertex -25 -25 125
    endloop
  endfacet
  facet normal 0 1 0
    outer loop
      vertex -25 -25 125
      vertex 25 -25 25
      vertex -25 -25 25
    endloop
  endfacet
  facet normal -1 0 0
    outer loop
      vertex 25 -25 25
      vertex 25 -25 125
      vertex 25 25 25
    endloop
  endfacet
  facet normal -1 0 0
    outer loop
      vertex 25 25 125
      vertex 25 25 -0.5
      vertex 25 25 25
    endloop
  endfacet
  facet normal -1 0 0
    outer loop
      vertex 25 25 125
      vertex 25 25 25
      vertex 25 -25 125
    endloop
  endfacet
  facet normal 0 -1 0
    outer loop
      vertex 25 25 125
      vertex -0.5 25 25
      vertex 0 25 25
    endloop
  endfacet
  facet normal 0 -1 0
    outer loop
      vertex -0.5 25 -0.5
      vertex -0.5 25 25
      vertex -25 25 125
    endloop
  endfacet
  facet normal 0 -1 0
    outer loop
      vertex 5.66214e-15 25 -0.5
      vertex 25 25 -0.5
      vertex 0 25 25
    endloop
  endfacet
  facet normal 0 -1 0
    outer loop
      vertex 25 25 -0.5
      vertex 25 25 125
      vertex 0 25 25
    endloop
  endfacet
  facet normal 0 -1 0
    outer loop
      vertex 25 25 125
      vertex -25 25 125
      vertex -0.5 25 25
    endloop
  endfacet
  facet normal 0 -1 0
    outer loop
      vertex -25 25 125
      vertex -25 25 -0.5
      vertex -0.5 25 -0.5
    endloop
  endfacet
  facet normal -2.22045e-16 4.93038e-32 1
    outer loop
      vertex 125 -30 30
      vertex 125 30 30
      vertex 30 -30 30
    endloop
  endfacet
  facet normal -2.22045e-16 4.93038e-32 1
    outer loop
      vertex 30 30 30
      vertex 30 -30 30
      vertex 125 30 30
    endloop
  endfacet
  facet normal 0 -1 2.22045e-16
    outer loop
      vertex -0.5 0.5 -25
      vertex -0.5 0.5 -0.5
      vertex -25 0.5 -0.5
    endloop
  endfacet
  facet normal 0 -1 2.22045e-16
    outer loop
      vertex -25 0.5 -25
      vertex -0.5 0.5 -25
      vertex -25 0.5 -0.5
    endloop
  endfacet
  facet normal 0 0 1
    outer loop
      vertex -0.5 0.5 -0.5
      vertex -0.5 25 -0.5
      vertex -25 25 -0.5
    endloop
  endfacet
  facet normal 0 0 1
    outer loop
      vertex -25 0.5 -0.5
      vertex -0.5 0.5 -0.5
      vertex -25 25 -0.5
    endloop
  endfacet
  facet normal 1 -2.22045e-16 2.22045e-16
    outer loop
      vertex -0.5 25 -0.5
      vertex -0.5 0.5 -0.5
      vertex -0.5 0.5 -25
    endloop
  endfacet
  facet normal 1 -2.22045e-16 2.22045e-16
    outer loop
      vertex -0.5 25 25
      vertex -0.5 25 -0.5
      vertex -0.5 25 -25
    endloop
  endfacet
  facet normal 1 -2.22045e-16 2.22045e-16
    outer loop
      vertex -0.5 25 -25
      vertex -0.5 25 -0.5
      vertex -0.5 0.5 -25
    endloop
  endfacet
  facet normal -2.22045e-16 4.93038e-32 1
    outer loop
      vertex 25 0.5 -25
      vertex 25 -25 -25
      vertex 125 -25 -25
    endloop
  endfacet
  facet normal -2.22045e-16 4.93038e-32 1
    outer loop
      vertex -0.5 25 -25
      vertex 25 0.5 -25
      vertex 125 25 -25
    endloop
  endfacet
  facet normal -2.22045e-16 4.93038e-32 1
    outer loop
      vertex 125 25 -25
      vertex 25 0.5 -25
      vertex 125 -25 -25
    endloop
  endfacet
  facet normal -2.22045e-16 4.93038e-32 1
    outer loop
      vertex -0.5 0.5 -25
      vertex 25 0.5 -25
      vertex -0.5 25 -25
    endloop
  endfacet
  facet normal 0 2.22045e-16 1
    outer loop
      vertex 25 -25 -25
      vertex 25 0.5 -25
      vertex -0.5 0.5 -25
    endloop
  endfacet
  facet normal -2.22045e-16 4.93038e-32 1
    outer loop
      vertex 25 -25 -25
      vertex -0.5 0.5 -25
      vertex -0.5 -25 -25
    endloop
  endfacet
  facet normal 2.22045e-16 1 4.93038e-32
    outer loop
      vertex 125 -25 -25
      vertex 25 -25 -25
      vertex 125 -25 25
    endloop
  endfacet
  facet normal 2.22045e-16 1 4.93038e-32
    outer loop
      vertex 125 -25 25
      vertex 25 -25 -25
      vertex 25 -25 25
    endloop
  endfacet
  facet normal 2.22045e-16 -4.93038e-32 -1
    outer loop
      vertex 25 25 25
      vertex 125 25 25
      vertex 25 -25 25
    endloop
  endfacet
  facet normal 2.22045e-16 -4.93038e-32 -1
    outer loop
      vertex 25 -25 25
      vertex 125 25 25
      vertex 125 -25 25
    endloop
  endfacet
  facet normal 1 -2.22045e-16 2.22045e-16
    outer loop
      vertex 125 -25 -25
      vertex 125 -30 30
      vertex 125 -30 -30
    endloop
  endfacet
  facet normal 1 -2.22045e-16 2.22045e-16
    outer loop
      vertex 125 -25 25
      vertex 125 30 30
      vertex 125 -30 30
    endloop
  endfacet
  facet normal 1 -2.22045e-16 2.22045e-16
    outer loop
      vertex 125 30 -30
      vertex 125 -25 -25
      vertex 125 -30 -30
    endloop
  endfacet
  facet normal 1 -2.22045e-16 2.22045e-16
    outer loop
      vertex 125 25 25
      vertex 125 30 30
      vertex 125 -25 25
    endloop
  endfacet
  facet normal 1 -2.22045e-16 2.22045e-16
    outer loop
      vertex 125 -25 -25
      vertex 125 -25 25
      vertex 125 -30 30
    endloop
  endfacet
  facet normal 1 -2.22045e-16 2.22045e-16
    outer loop
      vertex 125 30 -30
      vertex 125 30 30
      vertex 125 25 25
    endloop
  endfacet
  facet normal 1 -2.22045e-16 2.22045e-16
    outer loop
      vertex 125 30 -30
      vertex 125 25 -25
      vertex 125 -25 -25
    endloop
  endfacet
  facet normal 1 -2.22045e-16 2.22045e-16
    outer loop
      vertex 125 30 -30
      vertex 125 25 25
      vertex 125 25 -25
    endloop
  endfacet
  facet normal 2.22045e-16 1 4.93038e-32
    outer loop
      vertex 30 30 30
      vertex 125 30 30
      vertex 30 30 -30
    endloop
  endfacet
  facet normal 2.22045e-16 1 4.93038e-32
    outer loop
      vertex 30 30 -30
      vertex 125 30 30
      vertex 125 30 -30
    endloop
  endfacet
  facet normal -2.22045e-16 -1 -4.93038e-32
    outer loop
      vertex -0.5 25 -25
      vertex 125 25 -25
      vertex 125 25 25
    endloop
  endfacet
  facet normal -2.22045e-16 -1 -4.93038e-32
    outer loop
      vertex 25 25 -0.5
      vertex -0.5 25 -25
      vertex 125 25 25
    endloop
  endfacet
  facet normal -2.22045e-16 -1 -4.93038e-32
    outer loop
      vertex 25 25 25
      vertex 25 25 -0.5
      vertex 125 25 25
    endloop
  endfacet
  facet normal -2.22045e-16 -1 -4.93038e-32
    outer loop
      vertex 0 25 25
      vertex -0.5 25 -25
      vertex 5.66214e-15 25 -0.5
    endloop
  endfacet
  facet normal -2.22045e-16 -1 -4.93038e-32
    outer loop
      vertex -0.5 25 25
      vertex -0.5 25 -25
      vertex 0 25 25
    endloop
  endfacet
  facet normal -2.22045e-16 -1 -4.93038e-32
    outer loop
      vertex 25 25 -0.5
      vertex 5.66214e-15 25 -0.5
      vertex -0.5 25 -25
    endloop
  endfacet
endsolid OpenSCAD_Model
