solid OpenSCAD_Model
  facet normal -1 0 0
    outer loop
      vertex -15 -60 -15
      vertex -15 -60 15
      vertex -15 -15 -15
    endloop
  endfacet
  facet normal -1 0 0
    outer loop
      vertex -15 -15 -15
      vertex -15 -60 15
      vertex -15 -15 15
    endloop
  endfacet
  facet normal -1 0 0
    outer loop
      vertex -15 -15 15
      vertex -15 -15 60
      vertex -15 15 60
    endloop
  endfacet
  facet normal -1 0 0
    outer loop
      vertex -15 -15 15
      vertex -15 15 60
      vertex -15 -15 -15
    endloop
  endfacet
  facet normal -1 0 0
    outer loop
      vertex -15 -15 -15
      vertex -15 15 60
      vertex -15 15 -15
    endloop
  endfacet
  facet normal 0 -1 2.22045e-16
    outer loop
      vertex -10 -60 -10
      vertex -15 -60 -15
      vertex 15 -60 -15
    endloop
  endfacet
  facet normal 0 -1 2.22045e-16
    outer loop
      vertex -10 -60 10
      vertex -15 -60 15
      vertex -10 -60 -10
    endloop
  endfacet
  facet normal 0 -1 2.22045e-16
    outer loop
      vertex 10 -60 -10
      vertex -10 -60 -10
      vertex 15 -60 -15
    endloop
  endfacet
  facet normal 0 -1 2.22045e-16
    outer loop
      vertex -15 -60 15
      vertex -15 -60 -15
      vertex -10 -60 -10
    endloop
  endfacet
  facet normal 0 -1 2.22045e-16
    outer loop
      vertex 15 -60 15
      vertex -15 -60 15
      vertex -10 -60 10
    endloop
  endfacet
  facet normal 0 -1 2.22045e-16
    outer loop
      vertex 15 -60 15
      vertex 10 -60 10
      vertex 15 -60 -15
    endloop
  endfacet
  facet normal 0 -1 2.22045e-16
    outer loop
      vertex 15 -60 15
      vertex -10 -60 10
      vertex 10 -60 10
    endloop
  endfacet
  facet normal 0 -1 2.22045e-16
    outer loop
      vertex 10 -60 10
      vertex 10 -60 -10
      vertex 15 -60 -15
    endloop
  endfacet
  facet normal 0 -2.22045e-16 -1
    outer loop
      vertex -15 -60 -15
      vertex -15 -15 -15
      vertex 15 -60 -15
    endloop
  endfacet
  facet normal 0 -2.22045e-16 -1
    outer loop
      vertex 15 -60 -15
      vertex -15 -15 -15
      vertex -7.39557e-31 -15 -15
    endloop
  endfacet
  facet normal 0 -2.22045e-16 -1
    outer loop
      vertex 15 -60 -15
      vertex -7.39557e-31 -15 -15
      vertex 15 -15 -15
    endloop
  endfacet
  facet normal 0 -1 0
    outer loop
      vertex -7.39557e-31 -15 -15
      vertex -15 -15 -15
      vertex 0 -15 -15
    endloop
  endfacet
  facet normal 0 0 -1
    outer loop
      vertex -15 -15 -15
      vertex -15 15 -15
      vertex 0 -15 -15
    endloop
  endfacet
  facet normal 0 0 -1
    outer loop
      vertex 0 -15 -15
      vertex -15 15 -15
      vertex 15 15 -15
    endloop
  endfacet
  facet normal 0 0 -1
    outer loop
      vertex 0 -15 -15
      vertex 15 15 -15
      vertex 15 -15 -15
    endloop
  endfacet
  facet normal 0 1 0
    outer loop
      vertex -15 15 -15
      vertex -15 15 60
      vertex 15 15 -15
    endloop
  endfacet
  facet normal 0 1 0
    outer loop
      vertex 15 15 -15
      vertex -15 15 60
      vertex 15 15 60
    endloop
  endfacet
  facet normal 0 0 1
    outer loop
      vertex -10 -10 60
      vertex -15 -15 60
      vertex 15 -15 60
    endloop
  endfacet
  facet normal 0 0 1
    outer loop
      vertex -10 10 60
      vertex -15 15 60
      vertex -10 -10 60
    endloop
  endfacet
  facet normal 0 0 1
    outer loop
      vertex 10 -10 60
      vertex -10 -10 60
      vertex 15 -15 60
    endloop
  endfacet
  facet normal 0 0 1
    outer loop
      vertex -15 15 60
      vertex -15 -15 60
      vertex -10 -10 60
    endloop
  endfacet
  facet normal 0 0 1
    outer loop
      vertex 15 15 60
      vertex -15 15 60
      vertex -10 10 60
    endloop
  endfacet
  facet normal 0 0 1
    outer loop
      vertex 15 15 60
      vertex 10 10 60
      vertex 15 -15 60
    endloop
  endfacet
  facet normal 0 0 1
    outer loop
      vertex 15 15 60
      vertex -10 10 60
      vertex 10 10 60
    endloop
  endfacet
  facet normal 0 0 1
    outer loop
      vertex 10 10 60
      vertex 10 -10 60
      vertex 15 -15 60
    endloop
  endfacet
  facet normal 0 -1 0
    outer loop
      vertex -15 -15 60
      vertex -15 -15 15
      vertex 15 -15 15
    endloop
  endfacet
  facet normal 0 -1 0
    outer loop
      vertex 15 -15 60
      vertex -15 -15 60
      vertex 15 -15 15
    endloop
  endfacet
  facet normal 0 2.22045e-16 1
    outer loop
      vertex -15 -15 15
      vertex -15 -60 15
      vertex 15 -60 15
    endloop
  endfacet
  facet normal 0 2.22045e-16 1
    outer loop
      vertex 15 -15 15
      vertex -15 -15 15
      vertex 15 -60 15
    endloop
  endfacet
  facet normal 1 0 0
    outer loop
      vertex 15 -60 15
      vertex 15 -60 -15
      vertex 15 -15 -15
    endloop
  endfacet
  facet normal 1 0 0
    outer loop
      vertex 15 -15 15
      vertex 15 -60 15
      vertex 15 -15 -15
    endloop
  endfacet
  facet normal 1 0 0
    outer loop
      vertex -10 10 60
      vertex -10 0.5 -0.5
      vertex -10 10 -0.5
    endloop
  endfacet
  facet normal 1 0 0
    outer loop
      vertex -10 -10 60
      vertex -10 0.5 -0.5
      vertex -10 10 60
    endloop
  endfacet
  facet normal 1 0 0
    outer loop
      vertex -10 0.5 -10
      vertex -10 0.5 -0.5
      vertex -10 -10 60
    endloop
  endfacet
  facet normal 1 0 0
    outer loop
      vertex -10 -10 10
      vertex -10 0.5 -10
      vertex -10 -10 60
    endloop
  endfacet
  facet normal 1 0 0
    outer loop
      vertex -10 -60 10
      vertex -10 0.5 -10
      vertex -10 -10 10
    endloop
  endfacet
  facet normal 1 0 0
    outer loop
      vertex -10 -60 -10
      vertex -10 0.5 -10
      vertex -10 -60 10
    endloop
  endfacet
  facet normal 0 2.22045e-16 1
    outer loop
      vertex 10 -60 -10
      vertex 10 -10 -10
      vertex -0.5 -10 -10
    endloop
  endfacet
  facet normal 0 2.22045e-16 1
    outer loop
      vertex -10 0.5 -10
      vertex 10 -60 -10
      vertex -0.5 -10 -10
    endloop
  endfacet
  facet normal 0 2.22045e-16 1
    outer loop
      vertex -0.5 0.5 -10
      vertex -10 0.5 -10
      vertex -0.5 -10 -10
    endloop
  endfacet
  facet normal 0 2.22045e-16 1
    outer loop
      vertex -10 0.5 -10
      vertex -10 -60 -10
      vertex 10 -60 -10
    endloop
  endfacet
  facet normal -1 0 0
    outer loop
      vertex 10 -60 10
      vertex 10 -10 10
      vertex 10 -10 -10
    endloop
  endfacet
  facet normal -1 0 0
    outer loop
      vertex 10 -60 10
      vertex 10 -10 -10
      vertex 10 -60 -10
    endloop
  endfacet
  facet normal 0 -2.22045e-16 -1
    outer loop
      vertex -10 -10 10
      vertex 10 -10 10
      vertex 10 -60 10
    endloop
  endfacet
  facet normal 0 -2.22045e-16 -1
    outer loop
      vertex -10 -10 10
      vertex 10 -60 10
      vertex -10 -60 10
    endloop
  endfacet
  facet normal -2.22045e-16 -1 -4.93038e-32
    outer loop
      vertex 60 -15 15
      vertex 15 -15 15
      vertex 15 -15 -15
    endloop
  endfacet
  facet normal -2.22045e-16 -1 -4.93038e-32
    outer loop
      vertex 60 -15 -15
      vertex 60 -15 15
      vertex 15 -15 -15
    endloop
  endfacet
  facet normal 2.22045e-16 -4.93038e-32 -1
    outer loop
      vertex 15 -15 -15
      vertex 15 15 -15
      vertex 60 -15 -15
    endloop
  endfacet
  facet normal 2.22045e-16 -4.93038e-32 -1
    outer loop
      vertex 60 -15 -15
      vertex 15 15 -15
      vertex 60 15 -15
    endloop
  endfacet
  facet normal 1 0 0
    outer loop
      vertex 15 15 15
      vertex 15 15 -15
      vertex 15 15 60
    endloop
  endfacet
  facet normal 1 0 0
    outer loop
      vertex 15 15 60
      vertex 15 -15 60
      vertex 15 -15 15
    endloop
  endfacet
  facet normal 1 0 0
    outer loop
      vertex 15 -15 15
      vertex 15 15 15
      vertex 15 15 60
    endloop
  endfacet
  facet normal -2.22045e-16 -1 -4.93038e-32
    outer loop
      vertex 15 -15 -15
      vertex -7.39557e-31 -15 -15
      vertex 0 -15 -15
    endloop
  endfacet
  facet normal 0 1 0
    outer loop
      vertex 10 -10 60
      vertex 10 -10 10
      vertex -10 -10 60
    endloop
  endfacet
  facet normal 0 1 0
    outer loop
      vertex -10 -10 60
      vertex 10 -10 10
      vertex -10 -10 10
    endloop
  endfacet
  facet normal -1 0 0
    outer loop
      vertex 10 -10 10
      vertex 10 -10 60
      vertex 10 10 10
    endloop
  endfacet
  facet normal -1 0 0
    outer loop
      vertex 10 10 60
      vertex 10 10 -0.5
      vertex 10 10 10
    endloop
  endfacet
  facet normal -1 0 0
    outer loop
      vertex 10 10 60
      vertex 10 10 10
      vertex 10 -10 60
    endloop
  endfacet
  facet normal 0 -1 0
    outer loop
      vertex 10 10 60
      vertex -0.5 10 10
      vertex 0 10 10
    endloop
  endfacet
  facet normal 0 -1 0
    outer loop
      vertex -0.5 10 -0.5
      vertex -0.5 10 10
      vertex -10 10 60
    endloop
  endfacet
  facet normal 0 -1 0
    outer loop
      vertex 2.33147e-15 10 -0.5
      vertex 10 10 -0.5
      vertex 0 10 10
    endloop
  endfacet
  facet normal 0 -1 0
    outer loop
      vertex 10 10 -0.5
      vertex 10 10 60
      vertex 0 10 10
    endloop
  endfacet
  facet normal 0 -1 0
    outer loop
      vertex 10 10 60
      vertex -10 10 60
      vertex -0.5 10 10
    endloop
  endfacet
  facet normal 0 -1 0
    outer loop
      vertex -10 10 60
      vertex -10 10 -0.5
      vertex -0.5 10 -0.5
    endloop
  endfacet
  facet normal -2.22045e-16 4.93038e-32 1
    outer loop
      vertex 60 -15 15
      vertex 60 15 15
      vertex 15 -15 15
    endloop
  endfacet
  facet normal -2.22045e-16 4.93038e-32 1
    outer loop
      vertex 15 15 15
      vertex 15 -15 15
      vertex 60 15 15
    endloop
  endfacet
  facet normal 0 -1 2.22045e-16
    outer loop
      vertex -0.5 0.5 -10
      vertex -0.5 0.5 -0.5
      vertex -10 0.5 -0.5
    endloop
  endfacet
  facet normal 0 -1 2.22045e-16
    outer loop
      vertex -10 0.5 -10
      vertex -0.5 0.5 -10
      vertex -10 0.5 -0.5
    endloop
  endfacet
  facet normal 0 0 1
    outer loop
      vertex -0.5 0.5 -0.5
      vertex -0.5 10 -0.5
      vertex -10 10 -0.5
    endloop
  endfacet
  facet normal 0 0 1
    outer loop
      vertex -10 0.5 -0.5
      vertex -0.5 0.5 -0.5
      vertex -10 10 -0.5
    endloop
  endfacet
  facet normal 1 -2.22045e-16 2.22045e-16
    outer loop
      vertex -0.5 10 -0.5
      vertex -0.5 0.5 -0.5
      vertex -0.5 0.5 -10
    endloop
  endfacet
  facet normal 1 -2.22045e-16 2.22045e-16
    outer loop
      vertex -0.5 10 10
      vertex -0.5 10 -0.5
      vertex -0.5 10 -10
    endloop
  endfacet
  facet normal 1 -2.22045e-16 2.22045e-16
    outer loop
      vertex -0.5 10 -10
      vertex -0.5 10 -0.5
      vertex -0.5 0.5 -10
    endloop
  endfacet
  facet normal -2.22045e-16 4.93038e-32 1
    outer loop
      vertex 10 0.5 -10
      vertex 10 -10 -10
      vertex 60 -10 -10
    endloop
  endfacet
  facet normal -2.22045e-16 4.93038e-32 1
    outer loop
      vertex -0.5 10 -10
      vertex 10 0.5 -10
      vertex 60 10 -10
    endloop
  endfacet
  facet normal -2.22045e-16 4.93038e-32 1
    outer loop
      vertex 60 10 -10
      vertex 10 0.5 -10
      vertex 60 -10 -10
    endloop
  endfacet
  facet normal -2.22045e-16 4.93038e-32 1
    outer loop
      vertex -0.5 0.5 -10
      vertex 10 0.5 -10
      vertex -0.5 10 -10
    endloop
  endfacet
  facet normal 0 2.22045e-16 1
    outer loop
      vertex 10 -10 -10
      vertex 10 0.5 -10
      vertex -0.5 0.5 -10
    endloop
  endfacet
  facet normal -2.22045e-16 4.93038e-32 1
    outer loop
      vertex 10 -10 -10
      vertex -0.5 0.5 -10
      vertex -0.5 -10 -10
    endloop
  endfacet
  facet normal 2.22045e-16 1 4.93038e-32
    outer loop
      vertex 60 -10 -10
      vertex 10 -10 -10
      vertex 60 -10 10
    endloop
  endfacet
  facet normal 2.22045e-16 1 4.93038e-32
    outer loop
      vertex 60 -10 10
      vertex 10 -10 -10
      vertex 10 -10 10
    endloop
  endfacet
  facet normal 2.22045e-16 -4.93038e-32 -1
    outer loop
      vertex 10 10 10
      vertex 60 10 10
      vertex 10 -10 10
    endloop
  endfacet
  facet normal 2.22045e-16 -4.93038e-32 -1
    outer loop
      vertex 10 -10 10
      vertex 60 10 10
      vertex 60 -10 10
    endloop
  endfacet
  facet normal 1 -2.22045e-16 2.22045e-16
    outer loop
      vertex 60 -10 -10
      vertex 60 -15 15
      vertex 60 -15 -15
    endloop
  endfacet
  facet normal 1 -2.22045e-16 2.22045e-16
    outer loop
      vertex 60 -10 10
      vertex 60 15 15
      vertex 60 -15 15
    endloop
  endfacet
  facet normal 1 -2.22045e-16 2.22045e-16
    outer loop
      vertex 60 15 -15
      vertex 60 -10 -10
      vertex 60 -15 -15
    endloop
  endfacet
  facet normal 1 -2.22045e-16 2.22045e-16
    outer loop
      vertex 60 10 10
      vertex 60 15 15
      vertex 60 -10 10
    endloop
  endfacet
  facet normal 1 -2.22045e-16 2.22045e-16
    outer loop
      vertex 60 -10 -10
      vertex 60 -10 10
      vertex 60 -15 15
    endloop
  endfacet
  facet normal 1 -2.22045e-16 2.22045e-16
    outer loop
      vertex 60 15 -15
      vertex 60 15 15
      vertex 60 10 10
    endloop
  endfacet
  facet normal 1 -2.22045e-16 2.22045e-16
    outer loop
      vertex 60 15 -15
      vertex 60 10 -10
      vertex 60 -10 -10
    endloop
  endfacet
  facet normal 1 -2.22045e-16 2.22045e-16
    outer loop
      vertex 60 15 -15
      vertex 60 10 10
      vertex 60 10 -10
    endloop
  endfacet
  facet normal 2.22045e-16 1 4.93038e-32
    outer loop
      vertex 15 15 15
      vertex 60 15 15
      vertex 15 15 -15
    endloop
  endfacet
  facet normal 2.22045e-16 1 4.93038e-32
    outer loop
      vertex 15 15 -15
      vertex 60 15 15
      vertex 60 15 -15
    endloop
  endfacet
  facet normal -2.22045e-16 -1 -4.93038e-32
    outer loop
      vertex -0.5 10 -10
      vertex 60 10 -10
      vertex 60 10 10
    endloop
  endfacet
  facet normal -2.22045e-16 -1 -4.93038e-32
    outer loop
      vertex 10 10 -0.5
      vertex -0.5 10 -10
      vertex 60 10 10
    endloop
  endfacet
  facet normal -2.22045e-16 -1 -4.93038e-32
    outer loop
      vertex 10 10 10
      vertex 10 10 -0.5
      vertex 60 10 10
    endloop
  endfacet
  facet normal -2.22045e-16 -1 -4.93038e-32
    outer loop
      vertex 0 10 10
      vertex -0.5 10 -10
      vertex 2.33147e-15 10 -0.5
    endloop
  endfacet
  facet normal -2.22045e-16 -1 -4.93038e-32
    outer loop
      vertex -0.5 10 10
      vertex -0.5 10 -10
      vertex 0 10 10
    endloop
  endfacet
  facet normal -2.22045e-16 -1 -4.93038e-32
    outer loop
      vertex 10 10 -0.5
      vertex 2.33147e-15 10 -0.5
      vertex -0.5 10 -10
    endloop
  endfacet
endsolid OpenSCAD_Model
