solid OpenSCAD_Model
  facet normal -2.22045e-16 -1 4.93038e-32
    outer loop
      vertex -60 -15 15
      vertex -60 -15 -15
      vertex -15 -15 -15
    endloop
  endfacet
  facet normal -2.22045e-16 -1 4.93038e-32
    outer loop
      vertex -15 -15 15
      vertex -60 -15 15
      vertex -15 -15 -15
    endloop
  endfacet
  facet normal -2.22045e-16 4.93038e-32 -1
    outer loop
      vertex -60 -15 -15
      vertex -60 15 -15
      vertex -15 -15 -15
    endloop
  endfacet
  facet normal -2.22045e-16 4.93038e-32 -1
    outer loop
      vertex -15 -15 -15
      vertex -60 15 -15
      vertex -15 15 -15
    endloop
  endfacet
  facet normal -1 2.22045e-16 2.22045e-16
    outer loop
      vertex -60 -10 -10
      vertex -60 10 -10
      vertex -60 15 -15
    endloop
  endfacet
  facet normal -1 2.22045e-16 2.22045e-16
    outer loop
      vertex -60 -10 10
      vertex -60 -15 15
      vertex -60 15 15
    endloop
  endfacet
  facet normal -1 2.22045e-16 2.22045e-16
    outer loop
      vertex -60 -15 -15
      vertex -60 -15 15
      vertex -60 -10 10
    endloop
  endfacet
  facet normal -1 2.22045e-16 2.22045e-16
    outer loop
      vertex -60 10 10
      vertex -60 -10 10
      vertex -60 15 15
    endloop
  endfacet
  facet normal -1 2.22045e-16 2.22045e-16
    outer loop
      vertex -60 -15 -15
      vertex -60 -10 10
      vertex -60 -10 -10
    endloop
  endfacet
  facet normal -1 2.22045e-16 2.22045e-16
    outer loop
      vertex -60 -15 -15
      vertex -60 -10 -10
      vertex -60 15 -15
    endloop
  endfacet
  facet normal -1 2.22045e-16 2.22045e-16
    outer loop
      vertex -60 15 -15
      vertex -60 10 -10
      vertex -60 15 15
    endloop
  endfacet
  facet normal -1 2.22045e-16 2.22045e-16
    outer loop
      vertex -60 10 -10
      vertex -60 10 10
      vertex -60 15 15
    endloop
  endfacet
  facet normal 2.22045e-16 -4.93038e-32 1
    outer loop
      vertex -60 15 15
      vertex -60 -15 15
      vertex -15 -15 15
    endloop
  endfacet
  facet normal 2.22045e-16 -4.93038e-32 1
    outer loop
      vertex -15 15 15
      vertex -60 15 15
      vertex -15 -15 15
    endloop
  endfacet
  facet normal -1 0 0
    outer loop
      vertex -15 -60 -15
      vertex -15 -60 15
      vertex -15 -15 -15
    endloop
  endfacet
  facet normal -1 0 0
    outer loop
      vertex -15 -15 -15
      vertex -15 -60 15
      vertex -15 -15 15
    endloop
  endfacet
  facet normal -1 0 0
    outer loop
      vertex -15 -15 15
      vertex -15 -15 60
      vertex -15 15 60
    endloop
  endfacet
  facet normal -1 0 0
    outer loop
      vertex -15 -15 15
      vertex -15 15 60
      vertex -15 15 15
    endloop
  endfacet
  facet normal -1 1.22465e-16 2.54072e-33
    outer loop
      vertex -15 15 15
      vertex -15 60 15
      vertex -15 60 -15
    endloop
  endfacet
  facet normal -1 1.22465e-16 2.54072e-33
    outer loop
      vertex -15 15 15
      vertex -15 60 -15
      vertex -15 15 -15
    endloop
  endfacet
  facet normal 2.22045e-16 1 -4.93038e-32
    outer loop
      vertex -60 15 -15
      vertex -60 15 15
      vertex -15 15 -15
    endloop
  endfacet
  facet normal 2.22045e-16 1 -4.93038e-32
    outer loop
      vertex -15 15 -15
      vertex -60 15 15
      vertex -15 15 15
    endloop
  endfacet
  facet normal -2.22045e-16 4.93038e-32 -1
    outer loop
      vertex -60 10 10
      vertex -10 10 10
      vertex -10 -10 10
    endloop
  endfacet
  facet normal -2.22045e-16 4.93038e-32 -1
    outer loop
      vertex -60 10 10
      vertex -10 -10 10
      vertex -60 -10 10
    endloop
  endfacet
  facet normal 2.22045e-16 1 -4.93038e-32
    outer loop
      vertex -10 -10 10
      vertex -10 -10 -10
      vertex -60 -10 10
    endloop
  endfacet
  facet normal 2.22045e-16 1 -4.93038e-32
    outer loop
      vertex -60 -10 -10
      vertex -10 -10 -10
      vertex 0.5 -10 -10
    endloop
  endfacet
  facet normal 2.22045e-16 1 -4.93038e-32
    outer loop
      vertex -60 -10 10
      vertex -10 -10 -10
      vertex -60 -10 -10
    endloop
  endfacet
  facet normal -2.22045e-16 -1 4.93038e-32
    outer loop
      vertex -10 10 -10
      vertex -10 10 10
      vertex -60 10 10
    endloop
  endfacet
  facet normal -2.22045e-16 -1 4.93038e-32
    outer loop
      vertex -60 10 -10
      vertex -10 10 -10
      vertex -60 10 10
    endloop
  endfacet
  facet normal 2.22045e-16 -4.93038e-32 1
    outer loop
      vertex -10 0.5 -10
      vertex -60 10 -10
      vertex -10 -0.5 -10
    endloop
  endfacet
  facet normal 2.22045e-16 -4.93038e-32 1
    outer loop
      vertex 0.5 -10 -10
      vertex 0.5 -0.5 -10
      vertex -1.11022e-16 -0.5 -10
    endloop
  endfacet
  facet normal 2.22045e-16 -4.93038e-32 1
    outer loop
      vertex -0.5 -10 -10
      vertex 0.5 -10 -10
      vertex -2.22045e-15 -10 -10
    endloop
  endfacet
  facet normal 2.22045e-16 -4.93038e-32 1
    outer loop
      vertex -2.22045e-15 -10 -10
      vertex 0.5 -10 -10
      vertex -1.11022e-16 -0.5 -10
    endloop
  endfacet
  facet normal 2.22045e-16 -4.93038e-32 1
    outer loop
      vertex -10 -10 -10
      vertex 0.5 -10 -10
      vertex -0.5 -10 -10
    endloop
  endfacet
  facet normal 2.22045e-16 -4.93038e-32 1
    outer loop
      vertex -10 -10 -10
      vertex -0.5 -10 -10
      vertex -0.5 -0.5 -10
    endloop
  endfacet
  facet normal 2.22045e-16 -4.93038e-32 1
    outer loop
      vertex -60 -10 -10
      vertex 0.5 -10 -10
      vertex -10 -10 -10
    endloop
  endfacet
  facet normal 2.22045e-16 -4.93038e-32 1
    outer loop
      vertex -60 10 -10
      vertex -10 -10 -10
      vertex -10 -0.5 -10
    endloop
  endfacet
  facet normal 2.22045e-16 -4.93038e-32 1
    outer loop
      vertex -10 0.5 -10
      vertex -10 -0.5 -10
      vertex -10 1.43211e-15 -10
    endloop
  endfacet
  facet normal 2.22045e-16 -4.93038e-32 1
    outer loop
      vertex -10 10 -10
      vertex -60 10 -10
      vertex -10 0.5 -10
    endloop
  endfacet
  facet normal 2.22045e-16 -4.93038e-32 1
    outer loop
      vertex -60 10 -10
      vertex -60 -10 -10
      vertex -10 -10 -10
    endloop
  endfacet
  facet normal -2.71926e-32 -2.22045e-16 1
    outer loop
      vertex 15 60 15
      vertex -15 60 15
      vertex 15 15 15
    endloop
  endfacet
  facet normal -2.71926e-32 -2.22045e-16 1
    outer loop
      vertex 15 15 15
      vertex -15 60 15
      vertex -15 15 15
    endloop
  endfacet
  facet normal 0 1 0
    outer loop
      vertex -15 15 15
      vertex -15 15 60
      vertex 15 15 60
    endloop
  endfacet
  facet normal 0 1 0
    outer loop
      vertex -15 15 15
      vertex 15 15 60
      vertex 15 15 15
    endloop
  endfacet
  facet normal 0 -2.22045e-16 -1
    outer loop
      vertex -15 -60 -15
      vertex -15 -15 -15
      vertex 15 -60 -15
    endloop
  endfacet
  facet normal 0 -2.22045e-16 -1
    outer loop
      vertex 15 -60 -15
      vertex -15 -15 -15
      vertex -7.39557e-31 -15 -15
    endloop
  endfacet
  facet normal 0 -2.22045e-16 -1
    outer loop
      vertex 15 -60 -15
      vertex -7.39557e-31 -15 -15
      vertex 15 -15 -15
    endloop
  endfacet
  facet normal 0 -1 0
    outer loop
      vertex -7.39557e-31 -15 -15
      vertex -15 -15 -15
      vertex 0 -15 -15
    endloop
  endfacet
  facet normal 0 0 -1
    outer loop
      vertex -15 -15 -15
      vertex -15 15 -15
      vertex 0 -15 -15
    endloop
  endfacet
  facet normal 0 0 -1
    outer loop
      vertex 0 -15 -15
      vertex -15 15 -15
      vertex 0 15 -15
    endloop
  endfacet
  facet normal 0 0 -1
    outer loop
      vertex 0 -15 -15
      vertex 0 15 -15
      vertex 15 15 -15
    endloop
  endfacet
  facet normal 0 0 -1
    outer loop
      vertex 0 -15 -15
      vertex 15 15 -15
      vertex 15 1.4937e-15 -15
    endloop
  endfacet
  facet normal 0 0 -1
    outer loop
      vertex 0 -15 -15
      vertex 15 1.4937e-15 -15
      vertex 15 -15 -15
    endloop
  endfacet
  facet normal 0 0 1
    outer loop
      vertex -10 -10 60
      vertex -15 -15 60
      vertex 15 -15 60
    endloop
  endfacet
  facet normal 0 0 1
    outer loop
      vertex -10 10 60
      vertex -15 15 60
      vertex -10 -10 60
    endloop
  endfacet
  facet normal 0 0 1
    outer loop
      vertex 10 -10 60
      vertex -10 -10 60
      vertex 15 -15 60
    endloop
  endfacet
  facet normal 0 0 1
    outer loop
      vertex -15 15 60
      vertex -15 -15 60
      vertex -10 -10 60
    endloop
  endfacet
  facet normal 0 0 1
    outer loop
      vertex 15 15 60
      vertex -15 15 60
      vertex -10 10 60
    endloop
  endfacet
  facet normal 0 0 1
    outer loop
      vertex 15 15 60
      vertex 10 10 60
      vertex 15 -15 60
    endloop
  endfacet
  facet normal 0 0 1
    outer loop
      vertex 15 15 60
      vertex -10 10 60
      vertex 10 10 60
    endloop
  endfacet
  facet normal 0 0 1
    outer loop
      vertex 10 10 60
      vertex 10 -10 60
      vertex 15 -15 60
    endloop
  endfacet
  facet normal 0 -1 0
    outer loop
      vertex -15 -15 60
      vertex -15 -15 15
      vertex 15 -15 15
    endloop
  endfacet
  facet normal 0 -1 0
    outer loop
      vertex 15 -15 60
      vertex -15 -15 60
      vertex 15 -15 15
    endloop
  endfacet
  facet normal 0 2.22045e-16 1
    outer loop
      vertex -15 -15 15
      vertex -15 -60 15
      vertex 15 -60 15
    endloop
  endfacet
  facet normal 0 2.22045e-16 1
    outer loop
      vertex 15 -15 15
      vertex -15 -15 15
      vertex 15 -60 15
    endloop
  endfacet
  facet normal 0 -1 2.22045e-16
    outer loop
      vertex -10 -60 -10
      vertex -15 -60 -15
      vertex 15 -60 -15
    endloop
  endfacet
  facet normal 0 -1 2.22045e-16
    outer loop
      vertex -10 -60 10
      vertex -15 -60 15
      vertex -10 -60 -10
    endloop
  endfacet
  facet normal 0 -1 2.22045e-16
    outer loop
      vertex 10 -60 -10
      vertex -10 -60 -10
      vertex 15 -60 -15
    endloop
  endfacet
  facet normal 0 -1 2.22045e-16
    outer loop
      vertex -15 -60 15
      vertex -15 -60 -15
      vertex -10 -60 -10
    endloop
  endfacet
  facet normal 0 -1 2.22045e-16
    outer loop
      vertex 15 -60 15
      vertex -15 -60 15
      vertex -10 -60 10
    endloop
  endfacet
  facet normal 0 -1 2.22045e-16
    outer loop
      vertex 15 -60 15
      vertex 10 -60 10
      vertex 15 -60 -15
    endloop
  endfacet
  facet normal 0 -1 2.22045e-16
    outer loop
      vertex 15 -60 15
      vertex -10 -60 10
      vertex 10 -60 10
    endloop
  endfacet
  facet normal 0 -1 2.22045e-16
    outer loop
      vertex 10 -60 10
      vertex 10 -60 -10
      vertex 15 -60 -15
    endloop
  endfacet
  facet normal 0 1 0
    outer loop
      vertex 0 15 -15
      vertex 7.39557e-31 15 -15
      vertex 15 15 -15
    endloop
  endfacet
  facet normal 2.22045e-16 1 -4.93038e-32
    outer loop
      vertex 0 15 -15
      vertex -15 15 -15
      vertex 7.39557e-31 15 -15
    endloop
  endfacet
  facet normal 2.71926e-32 2.22045e-16 -1
    outer loop
      vertex 15 60 -15
      vertex 15 15 -15
      vertex 7.39557e-31 15 -15
    endloop
  endfacet
  facet normal 2.71926e-32 2.22045e-16 -1
    outer loop
      vertex -15 15 -15
      vertex -15 60 -15
      vertex 15 60 -15
    endloop
  endfacet
  facet normal 2.71926e-32 2.22045e-16 -1
    outer loop
      vertex -15 15 -15
      vertex 15 60 -15
      vertex 7.39557e-31 15 -15
    endloop
  endfacet
  facet normal 1.22465e-16 1 2.22045e-16
    outer loop
      vertex -10 60 10
      vertex -10 60 -10
      vertex -15 60 -15
    endloop
  endfacet
  facet normal 1.22465e-16 1 2.22045e-16
    outer loop
      vertex 10 60 -10
      vertex 15 60 15
      vertex 15 60 -15
    endloop
  endfacet
  facet normal 1.22465e-16 1 2.22045e-16
    outer loop
      vertex -15 60 15
      vertex 15 60 15
      vertex -10 60 10
    endloop
  endfacet
  facet normal 1.22465e-16 1 2.22045e-16
    outer loop
      vertex -15 60 15
      vertex -10 60 10
      vertex -15 60 -15
    endloop
  endfacet
  facet normal 1.22465e-16 1 2.22045e-16
    outer loop
      vertex -15 60 -15
      vertex -10 60 -10
      vertex 15 60 -15
    endloop
  endfacet
  facet normal 1.22465e-16 1 2.22045e-16
    outer loop
      vertex 10 60 10
      vertex 15 60 15
      vertex 10 60 -10
    endloop
  endfacet
  facet normal 1.22465e-16 1 2.22045e-16
    outer loop
      vertex -10 60 -10
      vertex 10 60 -10
      vertex 15 60 -15
    endloop
  endfacet
  facet normal 1.22465e-16 1 2.22045e-16
    outer loop
      vertex -10 60 10
      vertex 15 60 15
      vertex 10 60 10
    endloop
  endfacet
  facet normal 1 0 0
    outer loop
      vertex -10 10 60
      vertex -10 -10 10
      vertex -10 10 10
    endloop
  endfacet
  facet normal 1 0 0
    outer loop
      vertex -10 -10 60
      vertex -10 -10 10
      vertex -10 10 60
    endloop
  endfacet
  facet normal 1 0 0
    outer loop
      vertex -10 -10 -10
      vertex -10 -10 10
      vertex -10 -10 60
    endloop
  endfacet
  facet normal 1 0 0
    outer loop
      vertex -10 -10 10
      vertex -10 -10 -10
      vertex -10 -10 60
    endloop
  endfacet
  facet normal 1 0 0
    outer loop
      vertex -10 -60 10
      vertex -10 -10 -10
      vertex -10 -10 10
    endloop
  endfacet
  facet normal 1 0 0
    outer loop
      vertex -10 -60 -10
      vertex -10 -10 -10
      vertex -10 -60 10
    endloop
  endfacet
  facet normal 0 -1 0
    outer loop
      vertex -10 10 10
      vertex 10 10 10
      vertex 10 10 60
    endloop
  endfacet
  facet normal 0 -1 0
    outer loop
      vertex -10 10 60
      vertex -10 10 10
      vertex 10 10 60
    endloop
  endfacet
  facet normal 2.71926e-32 2.22045e-16 -1
    outer loop
      vertex 10 60 10
      vertex 10 10 10
      vertex -10 60 10
    endloop
  endfacet
  facet normal 2.71926e-32 2.22045e-16 -1
    outer loop
      vertex -10 10 10
      vertex -10 60 10
      vertex 10 10 10
    endloop
  endfacet
  facet normal 1 -1.22465e-16 -2.54072e-33
    outer loop
      vertex -10 60 -10
      vertex -10 60 10
      vertex -10 10 10
    endloop
  endfacet
  facet normal 1 -1.22465e-16 -2.54072e-33
    outer loop
      vertex -10 0.5 -10
      vertex -10 60 -10
      vertex -10 10 -10
    endloop
  endfacet
  facet normal 1 -1.22465e-16 -2.54072e-33
    outer loop
      vertex -10 10 10
      vertex -10 10 -10
      vertex -10 60 -10
    endloop
  endfacet
  facet normal 0 2.22045e-16 1
    outer loop
      vertex 10 -60 -10
      vertex 10 -10 -10
      vertex 0.5 -10 -10
    endloop
  endfacet
  facet normal 0 2.22045e-16 1
    outer loop
      vertex -10 -10 -10
      vertex 10 -60 -10
      vertex 0.5 -10 -10
    endloop
  endfacet
  facet normal 0 2.22045e-16 1
    outer loop
      vertex -10 -60 -10
      vertex 10 -60 -10
      vertex -10 -10 -10
    endloop
  endfacet
  facet normal 1 0 0
    outer loop
      vertex -10 6.12323e-16 -10
      vertex -10 0.5 -10
      vertex -10 1.43211e-15 -10
    endloop
  endfacet
  facet normal 0 2.22045e-16 1
    outer loop
      vertex -10 -10 -10
      vertex -0.5 -0.5 -10
      vertex -10 -0.5 -10
    endloop
  endfacet
  facet normal -2.22045e-16 4.93038e-32 1
    outer loop
      vertex -2.22045e-15 -10 -10
      vertex -1.11022e-16 -0.5 -10
      vertex -0.5 -0.5 -10
    endloop
  endfacet
  facet normal -2.22045e-16 4.93038e-32 1
    outer loop
      vertex -0.5 -10 -10
      vertex -2.22045e-15 -10 -10
      vertex -0.5 -0.5 -10
    endloop
  endfacet
  facet normal 1.22465e-16 1 2.22045e-16
    outer loop
      vertex -1.11022e-16 -0.5 -10
      vertex 0.5 -0.5 -10
      vertex -0.5 -0.5 -10
    endloop
  endfacet
  facet normal -2.71926e-32 -2.22045e-16 1
    outer loop
      vertex 0.5 -0.5 -10
      vertex 1.07921e-46 -1.55574e-48 -10
      vertex -1.07921e-46 -1.55574e-48 -10
    endloop
  endfacet
  facet normal -2.71926e-32 -2.22045e-16 1
    outer loop
      vertex -0.5 -0.5 -10
      vertex 0.5 -0.5 -10
      vertex -1.07921e-46 -1.55574e-48 -10
    endloop
  endfacet
  facet normal 2.22045e-16 -4.93038e-32 1
    outer loop
      vertex 0.5 -0.5 -10
      vertex 0.5 0.5 -10
      vertex 1.07921e-46 -1.55574e-48 -10
    endloop
  endfacet
  facet normal -1 2.22045e-16 2.22045e-16
    outer loop
      vertex 0.5 -3.06162e-17 -10
      vertex 0.5 0.5 -10
      vertex 0.5 -0.5 -10
    endloop
  endfacet
  facet normal -2.71926e-32 -2.22045e-16 1
    outer loop
      vertex 10 0.5 -10
      vertex 10 10 -10
      vertex 0.5 0.5 -10
    endloop
  endfacet
  facet normal -2.71926e-32 -2.22045e-16 1
    outer loop
      vertex 10 -6.12323e-16 -10
      vertex 10 10 -10
      vertex 10 0.5 -10
    endloop
  endfacet
  facet normal -2.71926e-32 -2.22045e-16 1
    outer loop
      vertex 10 -0.5 -10
      vertex 10 10 -10
      vertex 10 -6.12323e-16 -10
    endloop
  endfacet
  facet normal -2.71926e-32 -2.22045e-16 1
    outer loop
      vertex 0.5 -0.5 -10
      vertex 10 -0.5 -10
      vertex 0.5 -3.06162e-17 -10
    endloop
  endfacet
  facet normal -2.71926e-32 -2.22045e-16 1
    outer loop
      vertex 10 -6.12323e-16 -10
      vertex 0.5 -3.06162e-17 -10
      vertex 10 -0.5 -10
    endloop
  endfacet
  facet normal 1 -1.22465e-16 -2.54072e-33
    outer loop
      vertex 15 15 15
      vertex 15 15 -15
      vertex 15 60 -15
    endloop
  endfacet
  facet normal 1 -1.22465e-16 -2.54072e-33
    outer loop
      vertex 15 60 15
      vertex 15 15 15
      vertex 15 60 -15
    endloop
  endfacet
  facet normal 2.22045e-16 1 4.93038e-32
    outer loop
      vertex 60 15 15
      vertex 15 15 -15
      vertex 15 15 15
    endloop
  endfacet
  facet normal 2.22045e-16 1 4.93038e-32
    outer loop
      vertex 60 15 -15
      vertex 15 15 -15
      vertex 60 15 15
    endloop
  endfacet
  facet normal -2.22045e-16 4.93038e-32 1
    outer loop
      vertex 60 -15 15
      vertex 60 15 15
      vertex 15 -15 15
    endloop
  endfacet
  facet normal -2.22045e-16 4.93038e-32 1
    outer loop
      vertex 15 15 15
      vertex 15 -15 15
      vertex 60 15 15
    endloop
  endfacet
  facet normal 1 0 0
    outer loop
      vertex 15 -15 60
      vertex 15 -15 15
      vertex 15 15 15
    endloop
  endfacet
  facet normal 1 0 0
    outer loop
      vertex 15 15 60
      vertex 15 -15 60
      vertex 15 15 15
    endloop
  endfacet
  facet normal 1 0 0
    outer loop
      vertex 15 -60 15
      vertex 15 -60 -15
      vertex 15 -15 -15
    endloop
  endfacet
  facet normal 1 0 0
    outer loop
      vertex 15 -15 15
      vertex 15 -60 15
      vertex 15 -15 -15
    endloop
  endfacet
  facet normal -2.22045e-16 -1 -4.93038e-32
    outer loop
      vertex 60 -15 15
      vertex 15 -15 15
      vertex 15 -15 -15
    endloop
  endfacet
  facet normal -2.22045e-16 -1 -4.93038e-32
    outer loop
      vertex 60 -15 -15
      vertex 60 -15 15
      vertex 15 -15 -15
    endloop
  endfacet
  facet normal 2.22045e-16 -4.93038e-32 -1
    outer loop
      vertex 15 -15 -15
      vertex 15 1.4937e-15 -15
      vertex 60 -15 -15
    endloop
  endfacet
  facet normal 2.22045e-16 -4.93038e-32 -1
    outer loop
      vertex 60 -15 -15
      vertex 15 1.4937e-15 -15
      vertex 15 15 -15
    endloop
  endfacet
  facet normal 2.22045e-16 -4.93038e-32 -1
    outer loop
      vertex 15 15 -15
      vertex 60 15 -15
      vertex 60 -15 -15
    endloop
  endfacet
  facet normal -2.22045e-16 -1 -4.93038e-32
    outer loop
      vertex 15 -15 -15
      vertex -7.39557e-31 -15 -15
      vertex 0 -15 -15
    endloop
  endfacet
  facet normal 0 1 0
    outer loop
      vertex 10 -10 60
      vertex 10 -10 10
      vertex -10 -10 60
    endloop
  endfacet
  facet normal 0 1 0
    outer loop
      vertex -10 -10 60
      vertex 10 -10 10
      vertex -10 -10 10
    endloop
  endfacet
  facet normal -1 0 0
    outer loop
      vertex 10 10 60
      vertex 10 10 10
      vertex 10 -10 60
    endloop
  endfacet
  facet normal -1 0 0
    outer loop
      vertex 10 -10 60
      vertex 10 10 10
      vertex 10 -10 10
    endloop
  endfacet
  facet normal -1 0 0
    outer loop
      vertex 10 -60 10
      vertex 10 -10 10
      vertex 10 -10 -10
    endloop
  endfacet
  facet normal -1 0 0
    outer loop
      vertex 10 -60 10
      vertex 10 -10 -10
      vertex 10 -60 -10
    endloop
  endfacet
  facet normal 0 -2.22045e-16 -1
    outer loop
      vertex -10 -10 10
      vertex 10 -10 10
      vertex 10 -60 10
    endloop
  endfacet
  facet normal 0 -2.22045e-16 -1
    outer loop
      vertex -10 -10 10
      vertex 10 -60 10
      vertex -10 -60 10
    endloop
  endfacet
  facet normal -1 1.22465e-16 2.54072e-33
    outer loop
      vertex 10 60 10
      vertex 10 60 -10
      vertex 10 10 10
    endloop
  endfacet
  facet normal -1 1.22465e-16 2.54072e-33
    outer loop
      vertex 10 10 10
      vertex 10 60 -10
      vertex 10 10 -10
    endloop
  endfacet
  facet normal -2.71926e-32 -2.22045e-16 1
    outer loop
      vertex -0.5 10 -10
      vertex 10 60 -10
      vertex -10 10 -10
    endloop
  endfacet
  facet normal -2.71926e-32 -2.22045e-16 1
    outer loop
      vertex -10 0.5 -10
      vertex -0.5 0.5 -10
      vertex -10 10 -10
    endloop
  endfacet
  facet normal -2.71926e-32 -2.22045e-16 1
    outer loop
      vertex 10 10 -10
      vertex 10 60 -10
      vertex -0.5 10 -10
    endloop
  endfacet
  facet normal -2.71926e-32 -2.22045e-16 1
    outer loop
      vertex 10 60 -10
      vertex -10 60 -10
      vertex -10 10 -10
    endloop
  endfacet
  facet normal -2.71926e-32 -2.22045e-16 1
    outer loop
      vertex -10 60 -10
      vertex -10 0.5 -10
      vertex -10 10 -10
    endloop
  endfacet
  facet normal 2.22045e-16 -4.93038e-32 -1
    outer loop
      vertex 10 -10 10
      vertex 10 10 10
      vertex 60 10 10
    endloop
  endfacet
  facet normal 2.22045e-16 -4.93038e-32 -1
    outer loop
      vertex 10 -10 10
      vertex 60 10 10
      vertex 60 -10 10
    endloop
  endfacet
  facet normal -2.22045e-16 -1 -4.93038e-32
    outer loop
      vertex 10 10 -10
      vertex 60 10 -10
      vertex 60 10 10
    endloop
  endfacet
  facet normal -2.22045e-16 -1 -4.93038e-32
    outer loop
      vertex -0.5 10 -10
      vertex 60 10 -10
      vertex 10 10 -10
    endloop
  endfacet
  facet normal -2.22045e-16 -1 -4.93038e-32
    outer loop
      vertex 10 10 10
      vertex 10 10 -10
      vertex 60 10 10
    endloop
  endfacet
  facet normal -2.22045e-16 4.93038e-32 1
    outer loop
      vertex 0.5 -10 -10
      vertex 10 -10 -10
      vertex 0.5 -0.5 -10
    endloop
  endfacet
  facet normal 0 2.22045e-16 1
    outer loop
      vertex 10 -10 -10
      vertex 10 -1.01718e-15 -10
      vertex 10 -0.5 -10
    endloop
  endfacet
  facet normal 0 2.22045e-16 1
    outer loop
      vertex 0.5 -0.5 -10
      vertex 10 -10 -10
      vertex 10 -0.5 -10
    endloop
  endfacet
  facet normal -2.22045e-16 4.93038e-32 1
    outer loop
      vertex 10 10 -10
      vertex 2.22045e-15 10 -10
      vertex 0.5 10 -10
    endloop
  endfacet
  facet normal -2.22045e-16 4.93038e-32 1
    outer loop
      vertex 10 10 -10
      vertex 60 10 -10
      vertex 2.22045e-15 10 -10
    endloop
  endfacet
  facet normal -2.22045e-16 4.93038e-32 1
    outer loop
      vertex 1.11022e-16 0.5 -10
      vertex 2.22045e-15 10 -10
      vertex -0.5 10 -10
    endloop
  endfacet
  facet normal -2.22045e-16 4.93038e-32 1
    outer loop
      vertex 0.5 0.5 -10
      vertex 10 10 -10
      vertex 0.5 10 -10
    endloop
  endfacet
  facet normal -2.22045e-16 4.93038e-32 1
    outer loop
      vertex 10 -1.01718e-15 -10
      vertex 10 -10 -10
      vertex 10 10 -10
    endloop
  endfacet
  facet normal -2.22045e-16 4.93038e-32 1
    outer loop
      vertex 10 -10 -10
      vertex 60 -10 -10
      vertex 10 10 -10
    endloop
  endfacet
  facet normal -2.22045e-16 4.93038e-32 1
    outer loop
      vertex 60 -10 -10
      vertex 60 10 -10
      vertex 10 10 -10
    endloop
  endfacet
  facet normal -2.22045e-16 4.93038e-32 1
    outer loop
      vertex 60 10 -10
      vertex -0.5 10 -10
      vertex 2.22045e-15 10 -10
    endloop
  endfacet
  facet normal -2.22045e-16 4.93038e-32 1
    outer loop
      vertex -0.5 10 -10
      vertex -0.5 0.5 -10
      vertex 1.11022e-16 0.5 -10
    endloop
  endfacet
  facet normal 2.22045e-16 1 4.93038e-32
    outer loop
      vertex 60 -10 -10
      vertex 10 -10 -10
      vertex 60 -10 10
    endloop
  endfacet
  facet normal 2.22045e-16 1 4.93038e-32
    outer loop
      vertex 60 -10 10
      vertex 10 -10 -10
      vertex 10 -10 10
    endloop
  endfacet
  facet normal 1 -2.22045e-16 2.22045e-16
    outer loop
      vertex -0.5 0.5 -10
      vertex -0.5 3.06162e-17 -10
      vertex -0.5 -0.5 -10
    endloop
  endfacet
  facet normal 0 2.22045e-16 1
    outer loop
      vertex -0.5 3.06162e-17 -10
      vertex -0.5 0.5 -10
      vertex -10 0.5 -10
    endloop
  endfacet
  facet normal 0 2.22045e-16 1
    outer loop
      vertex -10 6.12323e-16 -10
      vertex -0.5 3.06162e-17 -10
      vertex -10 0.5 -10
    endloop
  endfacet
  facet normal 0 -1 2.22045e-16
    outer loop
      vertex 0.5 0.5 -10
      vertex 1.11022e-16 0.5 -10
      vertex -0.5 0.5 -10
    endloop
  endfacet
  facet normal 0 2.22045e-16 1
    outer loop
      vertex -1.07921e-46 -1.55574e-48 -10
      vertex 1.07921e-46 -1.55574e-48 -10
      vertex 0.5 0.5 -10
    endloop
  endfacet
  facet normal 0 2.22045e-16 1
    outer loop
      vertex -0.5 0.5 -10
      vertex -1.07921e-46 -1.55574e-48 -10
      vertex 0.5 0.5 -10
    endloop
  endfacet
  facet normal -2.22045e-16 4.93038e-32 1
    outer loop
      vertex -1.07921e-46 -1.55574e-48 -10
      vertex -0.5 0.5 -10
      vertex -0.5 -0.5 -10
    endloop
  endfacet
  facet normal -2.71926e-32 -2.22045e-16 1
    outer loop
      vertex -0.5 -0.5 -10
      vertex -0.5 3.06162e-17 -10
      vertex -10 6.12323e-16 -10
    endloop
  endfacet
  facet normal -2.71926e-32 -2.22045e-16 1
    outer loop
      vertex -10 -0.5 -10
      vertex -0.5 -0.5 -10
      vertex -10 6.12323e-16 -10
    endloop
  endfacet
  facet normal -2.71926e-32 -2.22045e-16 1
    outer loop
      vertex -10 1.43211e-15 -10
      vertex -10 -0.5 -10
      vertex -10 6.12323e-16 -10
    endloop
  endfacet
  facet normal 2.22045e-16 -4.93038e-32 1
    outer loop
      vertex 0.5 0.5 -10
      vertex 0.5 10 -10
      vertex 2.22045e-15 10 -10
    endloop
  endfacet
  facet normal 2.22045e-16 -4.93038e-32 1
    outer loop
      vertex 1.11022e-16 0.5 -10
      vertex 0.5 0.5 -10
      vertex 2.22045e-15 10 -10
    endloop
  endfacet
  facet normal 0 2.22045e-16 1
    outer loop
      vertex 10 -6.12323e-16 -10
      vertex 10 0.5 -10
      vertex 0.5 0.5 -10
    endloop
  endfacet
  facet normal 0 2.22045e-16 1
    outer loop
      vertex 0.5 -3.06162e-17 -10
      vertex 10 -6.12323e-16 -10
      vertex 0.5 0.5 -10
    endloop
  endfacet
  facet normal -1 1.22465e-16 2.54072e-33
    outer loop
      vertex 10 -1.01718e-15 -10
      vertex 10 10 -10
      vertex 10 -0.5 -10
    endloop
  endfacet
  facet normal 1 -2.22045e-16 2.22045e-16
    outer loop
      vertex 60 -10 -10
      vertex 60 -15 15
      vertex 60 -15 -15
    endloop
  endfacet
  facet normal 1 -2.22045e-16 2.22045e-16
    outer loop
      vertex 60 -10 10
      vertex 60 15 15
      vertex 60 -15 15
    endloop
  endfacet
  facet normal 1 -2.22045e-16 2.22045e-16
    outer loop
      vertex 60 15 -15
      vertex 60 -10 -10
      vertex 60 -15 -15
    endloop
  endfacet
  facet normal 1 -2.22045e-16 2.22045e-16
    outer loop
      vertex 60 10 10
      vertex 60 15 15
      vertex 60 -10 10
    endloop
  endfacet
  facet normal 1 -2.22045e-16 2.22045e-16
    outer loop
      vertex 60 -10 -10
      vertex 60 -10 10
      vertex 60 -15 15
    endloop
  endfacet
  facet normal 1 -2.22045e-16 2.22045e-16
    outer loop
      vertex 60 15 -15
      vertex 60 15 15
      vertex 60 10 10
    endloop
  endfacet
  facet normal 1 -2.22045e-16 2.22045e-16
    outer loop
      vertex 60 15 -15
      vertex 60 10 -10
      vertex 60 -10 -10
    endloop
  endfacet
  facet normal 1 -2.22045e-16 2.22045e-16
    outer loop
      vertex 60 15 -15
      vertex 60 10 10
      vertex 60 10 -10
    endloop
  endfacet
  facet normal 2.22045e-16 -4.93038e-32 1
    outer loop
      vertex -0.5 0.5 -10
      vertex -0.5 10 -10
      vertex -10 10 -10
    endloop
  endfacet
endsolid OpenSCAD_Model
