solid OpenSCAD_Model
  facet normal -1 0 0
    outer loop
      vertex -30 -125 -30
      vertex -30 -125 30
      vertex -30 -30 -30
    endloop
  endfacet
  facet normal -1 0 0
    outer loop
      vertex -30 -30 -30
      vertex -30 -125 30
      vertex -30 -30 30
    endloop
  endfacet
  facet normal -1 0 0
    outer loop
      vertex -30 -30 -30
      vertex -30 -30 30
      vertex -30 30 30
    endloop
  endfacet
  facet normal -1 0 0
    outer loop
      vertex -30 -30 -30
      vertex -30 30 30
      vertex -30 30 -30
    endloop
  endfacet
  facet normal -1 0 0
    outer loop
      vertex -30 -30 -30
      vertex -30 30 -30
      vertex -30 -6.66134e-15 -30
    endloop
  endfacet
  facet normal 0 -1 2.22045e-16
    outer loop
      vertex -25 -125 -25
      vertex -30 -125 -30
      vertex 30 -125 -30
    endloop
  endfacet
  facet normal 0 -1 2.22045e-16
    outer loop
      vertex -25 -125 25
      vertex -30 -125 30
      vertex -25 -125 -25
    endloop
  endfacet
  facet normal 0 -1 2.22045e-16
    outer loop
      vertex 25 -125 -25
      vertex -25 -125 -25
      vertex 30 -125 -30
    endloop
  endfacet
  facet normal 0 -1 2.22045e-16
    outer loop
      vertex -30 -125 30
      vertex -30 -125 -30
      vertex -25 -125 -25
    endloop
  endfacet
  facet normal 0 -1 2.22045e-16
    outer loop
      vertex 30 -125 30
      vertex -30 -125 30
      vertex -25 -125 25
    endloop
  endfacet
  facet normal 0 -1 2.22045e-16
    outer loop
      vertex 30 -125 30
      vertex 25 -125 25
      vertex 30 -125 -30
    endloop
  endfacet
  facet normal 0 -1 2.22045e-16
    outer loop
      vertex 30 -125 30
      vertex -25 -125 25
      vertex 25 -125 25
    endloop
  endfacet
  facet normal 0 -1 2.22045e-16
    outer loop
      vertex 25 -125 25
      vertex 25 -125 -25
      vertex 30 -125 -30
    endloop
  endfacet
  facet normal 0 -2.22045e-16 -1
    outer loop
      vertex -30 -125 -30
      vertex -30 -30 -30
      vertex 30 -125 -30
    endloop
  endfacet
  facet normal 0 -2.22045e-16 -1
    outer loop
      vertex 30 -125 -30
      vertex -30 -30 -30
      vertex 30 -30 -30
    endloop
  endfacet
  facet normal 0 0 -1
    outer loop
      vertex -30 -30 -30
      vertex -30 -6.66134e-15 -30
      vertex 30 -30 -30
    endloop
  endfacet
  facet normal 0 0 -1
    outer loop
      vertex 30 -30 -30
      vertex -30 -6.66134e-15 -30
      vertex -30 30 -30
    endloop
  endfacet
  facet normal 0 0 -1
    outer loop
      vertex 30 -30 -30
      vertex -30 30 -30
      vertex 30 30 -30
    endloop
  endfacet
  facet normal 0 1 0
    outer loop
      vertex -30 30 -30
      vertex -30 30 30
      vertex 30 30 -30
    endloop
  endfacet
  facet normal 0 1 0
    outer loop
      vertex 30 30 -30
      vertex -30 30 30
      vertex -30 30 125
    endloop
  endfacet
  facet normal 0 1 0
    outer loop
      vertex 30 30 -30
      vertex -30 30 125
      vertex 30 30 125
    endloop
  endfacet
  facet normal -1 0 0
    outer loop
      vertex -30 -30 30
      vertex -30 -30 125
      vertex -30 30 30
    endloop
  endfacet
  facet normal -1 0 0
    outer loop
      vertex -30 30 30
      vertex -30 -30 125
      vertex -30 30 125
    endloop
  endfacet
  facet normal 0 -1 0
    outer loop
      vertex -30 -30 125
      vertex -30 -30 30
      vertex 30 -30 30
    endloop
  endfacet
  facet normal 0 -1 0
    outer loop
      vertex 30 -30 125
      vertex -30 -30 125
      vertex 30 -30 30
    endloop
  endfacet
  facet normal 0 2.22045e-16 1
    outer loop
      vertex -30 -30 30
      vertex -30 -125 30
      vertex 30 -125 30
    endloop
  endfacet
  facet normal 0 2.22045e-16 1
    outer loop
      vertex 30 -30 30
      vertex -30 -30 30
      vertex 30 -125 30
    endloop
  endfacet
  facet normal 1 0 0
    outer loop
      vertex 30 -125 30
      vertex 30 -125 -30
      vertex 30 -30 -30
    endloop
  endfacet
  facet normal 1 0 0
    outer loop
      vertex 30 30 -30
      vertex 30 -125 30
      vertex 30 -30 -30
    endloop
  endfacet
  facet normal 1 0 0
    outer loop
      vertex 30 30 -30
      vertex 30 -30 30
      vertex 30 -125 30
    endloop
  endfacet
  facet normal 1 0 0
    outer loop
      vertex 30 30 -30
      vertex 30 30 125
      vertex 30 -30 30
    endloop
  endfacet
  facet normal 1 0 0
    outer loop
      vertex 30 -30 125
      vertex 30 -30 30
      vertex 30 30 125
    endloop
  endfacet
  facet normal 1 0 0
    outer loop
      vertex -25 25 125
      vertex -25 0.5 -0.5
      vertex -25 25 -0.5
    endloop
  endfacet
  facet normal 1 0 0
    outer loop
      vertex -25 -25 125
      vertex -25 0.5 -0.5
      vertex -25 25 125
    endloop
  endfacet
  facet normal 1 0 0
    outer loop
      vertex -25 0.5 -25
      vertex -25 0.5 -0.5
      vertex -25 -25 125
    endloop
  endfacet
  facet normal 1 0 0
    outer loop
      vertex -25 -25 25
      vertex -25 0.5 -25
      vertex -25 -25 125
    endloop
  endfacet
  facet normal 1 0 0
    outer loop
      vertex -25 -125 25
      vertex -25 0.5 -25
      vertex -25 -25 25
    endloop
  endfacet
  facet normal 1 0 0
    outer loop
      vertex -25 -125 -25
      vertex -25 0.5 -25
      vertex -25 -125 25
    endloop
  endfacet
  facet normal 0 2.22045e-16 1
    outer loop
      vertex 25 -125 -25
      vertex 25 0.5 -25
      vertex -25 0.5 -25
    endloop
  endfacet
  facet normal 0 2.22045e-16 1
    outer loop
      vertex -25 -125 -25
      vertex 25 -125 -25
      vertex -25 0.5 -25
    endloop
  endfacet
  facet normal -1 0 0
    outer loop
      vertex 25 -25 25
      vertex 25 -25 125
      vertex 25 25 125
    endloop
  endfacet
  facet normal -1 0 0
    outer loop
      vertex 25 -25 25
      vertex 25 25 125
      vertex 25 25 -0.5
    endloop
  endfacet
  facet normal -1 0 0
    outer loop
      vertex 25 -25 25
      vertex 25 25 -0.5
      vertex 25 -125 25
    endloop
  endfacet
  facet normal -1 0 0
    outer loop
      vertex 25 25 -0.5
      vertex 25 0.5 -0.5
      vertex 25 -125 25
    endloop
  endfacet
  facet normal -1 0 0
    outer loop
      vertex 25 0.5 -0.5
      vertex 25 0.5 -25
      vertex 25 -125 25
    endloop
  endfacet
  facet normal -1 0 0
    outer loop
      vertex 25 0.5 -25
      vertex 25 -125 -25
      vertex 25 -125 25
    endloop
  endfacet
  facet normal 0 -2.22045e-16 -1
    outer loop
      vertex 25 -25 25
      vertex 25 -125 25
      vertex -25 -25 25
    endloop
  endfacet
  facet normal 0 -2.22045e-16 -1
    outer loop
      vertex -25 -25 25
      vertex 25 -125 25
      vertex -25 -125 25
    endloop
  endfacet
  facet normal 0 0 1
    outer loop
      vertex -25 -25 125
      vertex -30 -30 125
      vertex 30 -30 125
    endloop
  endfacet
  facet normal 0 0 1
    outer loop
      vertex -25 25 125
      vertex -30 30 125
      vertex -25 -25 125
    endloop
  endfacet
  facet normal 0 0 1
    outer loop
      vertex 25 -25 125
      vertex -25 -25 125
      vertex 30 -30 125
    endloop
  endfacet
  facet normal 0 0 1
    outer loop
      vertex -30 30 125
      vertex -30 -30 125
      vertex -25 -25 125
    endloop
  endfacet
  facet normal 0 0 1
    outer loop
      vertex 30 30 125
      vertex -30 30 125
      vertex -25 25 125
    endloop
  endfacet
  facet normal 0 0 1
    outer loop
      vertex 30 30 125
      vertex 25 25 125
      vertex 30 -30 125
    endloop
  endfacet
  facet normal 0 0 1
    outer loop
      vertex 30 30 125
      vertex -25 25 125
      vertex 25 25 125
    endloop
  endfacet
  facet normal 0 0 1
    outer loop
      vertex 25 25 125
      vertex 25 -25 125
      vertex 30 -30 125
    endloop
  endfacet
  facet normal 0 -1 2.22045e-16
    outer loop
      vertex 25 0.5 -25
      vertex 25 0.5 -0.5
      vertex -25 0.5 -0.5
    endloop
  endfacet
  facet normal 0 -1 2.22045e-16
    outer loop
      vertex -25 0.5 -25
      vertex 25 0.5 -25
      vertex -25 0.5 -0.5
    endloop
  endfacet
  facet normal 0 1 0
    outer loop
      vertex 25 -25 125
      vertex 25 -25 25
      vertex -25 -25 125
    endloop
  endfacet
  facet normal 0 1 0
    outer loop
      vertex -25 -25 125
      vertex 25 -25 25
      vertex -25 -25 25
    endloop
  endfacet
  facet normal 0 -1 0
    outer loop
      vertex 25 25 -0.5
      vertex 25 25 125
      vertex -25 25 125
    endloop
  endfacet
  facet normal 0 -1 0
    outer loop
      vertex -25 25 -0.5
      vertex 25 25 -0.5
      vertex -25 25 125
    endloop
  endfacet
  facet normal 0 0 1
    outer loop
      vertex 25 0.5 -0.5
      vertex 25 25 -0.5
      vertex -25 25 -0.5
    endloop
  endfacet
  facet normal 0 0 1
    outer loop
      vertex -25 0.5 -0.5
      vertex 25 0.5 -0.5
      vertex -25 25 -0.5
    endloop
  endfacet
endsolid OpenSCAD_Model
