solid OpenSCAD_Model
  facet normal 0.994522 0.104529 0
    outer loop
      vertex 8.5 0 0.75
      vertex 8.31425 1.76725 -0.75
      vertex 8.31425 1.76725 0.75
    endloop
  endfacet
  facet normal 0.994522 0.104529 0
    outer loop
      vertex 8.31425 1.76725 -0.75
      vertex 8.5 0 0.75
      vertex 8.5 0 -0.75
    endloop
  endfacet
  facet normal -0.994522 0.104529 0
    outer loop
      vertex -8.5 0 -0.75
      vertex -8.31425 1.76725 0.75
      vertex -8.31425 1.76725 -0.75
    endloop
  endfacet
  facet normal -0.994522 0.104529 0
    outer loop
      vertex -8.31425 1.76725 0.75
      vertex -8.5 0 -0.75
      vertex -8.5 0 0.75
    endloop
  endfacet
  facet normal 0 1 -0
    outer loop
      vertex 0.888492 8.45344 -0.75
      vertex -0.888492 8.45344 0.75
      vertex 0.888492 8.45344 0.75
    endloop
  endfacet
  facet normal 0 1 0
    outer loop
      vertex -0.888492 8.45344 0.75
      vertex 0.888492 8.45344 -0.75
      vertex -0.888492 8.45344 -0.75
    endloop
  endfacet
  facet normal 0 -1 0
    outer loop
      vertex -0.888492 -8.45344 -0.75
      vertex 0.888492 -8.45344 0.75
      vertex -0.888492 -8.45344 0.75
    endloop
  endfacet
  facet normal 0 -1 -0
    outer loop
      vertex 0.888492 -8.45344 0.75
      vertex -0.888492 -8.45344 -0.75
      vertex 0.888492 -8.45344 -0.75
    endloop
  endfacet
  facet normal 0.587785 0.809017 -0
    outer loop
      vertex 5.68761 6.31673 -0.75
      vertex 4.25 7.36122 0.75
      vertex 5.68761 6.31673 0.75
    endloop
  endfacet
  facet normal 0.587785 0.809017 0
    outer loop
      vertex 4.25 7.36122 0.75
      vertex 5.68761 6.31673 -0.75
      vertex 4.25 7.36122 -0.75
    endloop
  endfacet
  facet normal -0.587785 0.809017 0
    outer loop
      vertex -4.25 7.36122 -0.75
      vertex -5.68761 6.31673 0.75
      vertex -4.25 7.36122 0.75
    endloop
  endfacet
  facet normal -0.587785 0.809017 0
    outer loop
      vertex -5.68761 6.31673 0.75
      vertex -4.25 7.36122 -0.75
      vertex -5.68761 6.31673 -0.75
    endloop
  endfacet
  facet normal -0.406737 0.913545 0
    outer loop
      vertex -2.62664 8.08398 -0.75
      vertex -4.25 7.36122 0.75
      vertex -2.62664 8.08398 0.75
    endloop
  endfacet
  facet normal -0.406737 0.913545 0
    outer loop
      vertex -4.25 7.36122 0.75
      vertex -2.62664 8.08398 -0.75
      vertex -4.25 7.36122 -0.75
    endloop
  endfacet
  facet normal 0.951057 -0.309017 0
    outer loop
      vertex 7.76514 -3.45726 0.75
      vertex 8.31425 -1.76725 -0.75
      vertex 8.31425 -1.76725 0.75
    endloop
  endfacet
  facet normal 0.951057 -0.309017 0
    outer loop
      vertex 8.31425 -1.76725 -0.75
      vertex 7.76514 -3.45726 0.75
      vertex 7.76514 -3.45726 -0.75
    endloop
  endfacet
  facet normal 0.866025 0.5 0
    outer loop
      vertex 7.76514 3.45726 0.75
      vertex 6.87664 4.99617 -0.75
      vertex 6.87664 4.99617 0.75
    endloop
  endfacet
  facet normal 0.866025 0.5 0
    outer loop
      vertex 6.87664 4.99617 -0.75
      vertex 7.76514 3.45726 0.75
      vertex 7.76514 3.45726 -0.75
    endloop
  endfacet
  facet normal 0.951057 0.309017 0
    outer loop
      vertex 8.31425 1.76725 0.75
      vertex 7.76514 3.45726 -0.75
      vertex 7.76514 3.45726 0.75
    endloop
  endfacet
  facet normal 0.951057 0.309017 0
    outer loop
      vertex 7.76514 3.45726 -0.75
      vertex 8.31425 1.76725 0.75
      vertex 8.31425 1.76725 -0.75
    endloop
  endfacet
  facet normal 0.743145 0.669131 0
    outer loop
      vertex 6.87664 4.99617 0.75
      vertex 5.68761 6.31673 -0.75
      vertex 5.68761 6.31673 0.75
    endloop
  endfacet
  facet normal 0.743145 0.669131 0
    outer loop
      vertex 5.68761 6.31673 -0.75
      vertex 6.87664 4.99617 0.75
      vertex 6.87664 4.99617 -0.75
    endloop
  endfacet
  facet normal 0.207912 0.978148 -0
    outer loop
      vertex 2.62664 8.08398 -0.75
      vertex 0.888492 8.45344 0.75
      vertex 2.62664 8.08398 0.75
    endloop
  endfacet
  facet normal 0.207912 0.978148 0
    outer loop
      vertex 0.888492 8.45344 0.75
      vertex 2.62664 8.08398 -0.75
      vertex 0.888492 8.45344 -0.75
    endloop
  endfacet
  facet normal 0.406736 0.913546 -0
    outer loop
      vertex 4.25 7.36122 -0.75
      vertex 2.62664 8.08398 0.75
      vertex 4.25 7.36122 0.75
    endloop
  endfacet
  facet normal 0.406736 0.913546 0
    outer loop
      vertex 2.62664 8.08398 0.75
      vertex 4.25 7.36122 -0.75
      vertex 2.62664 8.08398 -0.75
    endloop
  endfacet
  facet normal -0.866025 0.5 0
    outer loop
      vertex -7.76514 3.45726 -0.75
      vertex -6.87664 4.99617 0.75
      vertex -6.87664 4.99617 -0.75
    endloop
  endfacet
  facet normal -0.866025 0.5 0
    outer loop
      vertex -6.87664 4.99617 0.75
      vertex -7.76514 3.45726 -0.75
      vertex -7.76514 3.45726 0.75
    endloop
  endfacet
  facet normal -0.743145 0.669131 0
    outer loop
      vertex -6.87664 4.99617 -0.75
      vertex -5.68761 6.31673 0.75
      vertex -5.68761 6.31673 -0.75
    endloop
  endfacet
  facet normal -0.743145 0.669131 0
    outer loop
      vertex -5.68761 6.31673 0.75
      vertex -6.87664 4.99617 -0.75
      vertex -6.87664 4.99617 0.75
    endloop
  endfacet
  facet normal -0.951057 0.309017 0
    outer loop
      vertex -8.31425 1.76725 -0.75
      vertex -7.76514 3.45726 0.75
      vertex -7.76514 3.45726 -0.75
    endloop
  endfacet
  facet normal -0.951057 0.309017 0
    outer loop
      vertex -7.76514 3.45726 0.75
      vertex -8.31425 1.76725 -0.75
      vertex -8.31425 1.76725 0.75
    endloop
  endfacet
  facet normal 0 0 1
    outer loop
      vertex 2.5 0 0.75
      vertex 8.5 0 0.75
      vertex 8.31425 1.76725 0.75
    endloop
  endfacet
  facet normal 0 0 1
    outer loop
      vertex 2.44537 0.519779 0.75
      vertex 8.31425 1.76725 0.75
      vertex 7.76514 3.45726 0.75
    endloop
  endfacet
  facet normal 0 0 1
    outer loop
      vertex 8.5 0 0.75
      vertex 2.5 0 0.75
      vertex 8.31425 -1.76725 0.75
    endloop
  endfacet
  facet normal 0 0 1
    outer loop
      vertex 2.28386 1.01684 0.75
      vertex 7.76514 3.45726 0.75
      vertex 6.87664 4.99617 0.75
    endloop
  endfacet
  facet normal -0 0 1
    outer loop
      vertex 2.44537 -0.519779 0.75
      vertex 8.31425 -1.76725 0.75
      vertex 2.5 0 0.75
    endloop
  endfacet
  facet normal 0 0 1
    outer loop
      vertex 2.02254 1.46946 0.75
      vertex 6.87664 4.99617 0.75
      vertex 5.68761 6.31673 0.75
    endloop
  endfacet
  facet normal 0 0 1
    outer loop
      vertex 8.31425 -1.76725 0.75
      vertex 2.44537 -0.519779 0.75
      vertex 7.76514 -3.45726 0.75
    endloop
  endfacet
  facet normal 0 0 1
    outer loop
      vertex 1.67283 1.85786 0.75
      vertex 5.68761 6.31673 0.75
      vertex 4.25 7.36122 0.75
    endloop
  endfacet
  facet normal -0 0 1
    outer loop
      vertex 2.28386 -1.01684 0.75
      vertex 7.76514 -3.45726 0.75
      vertex 2.44537 -0.519779 0.75
    endloop
  endfacet
  facet normal 0 0 1
    outer loop
      vertex 1.25 2.16506 0.75
      vertex 4.25 7.36122 0.75
      vertex 2.62664 8.08398 0.75
    endloop
  endfacet
  facet normal 0 0 1
    outer loop
      vertex 7.76514 -3.45726 0.75
      vertex 2.28386 -1.01684 0.75
      vertex 6.87664 -4.99617 0.75
    endloop
  endfacet
  facet normal -0 0 1
    outer loop
      vertex 2.02254 -1.46946 0.75
      vertex 6.87664 -4.99617 0.75
      vertex 2.28386 -1.01684 0.75
    endloop
  endfacet
  facet normal 0 0 1
    outer loop
      vertex 8.31425 1.76725 0.75
      vertex 2.44537 0.519779 0.75
      vertex 2.5 0 0.75
    endloop
  endfacet
  facet normal 0 0 1
    outer loop
      vertex 7.76514 3.45726 0.75
      vertex 2.28386 1.01684 0.75
      vertex 2.44537 0.519779 0.75
    endloop
  endfacet
  facet normal 0 0 1
    outer loop
      vertex 6.87664 4.99617 0.75
      vertex 2.02254 1.46946 0.75
      vertex 2.28386 1.01684 0.75
    endloop
  endfacet
  facet normal 0 0 1
    outer loop
      vertex 5.68761 6.31673 0.75
      vertex 1.67283 1.85786 0.75
      vertex 2.02254 1.46946 0.75
    endloop
  endfacet
  facet normal 0 0 1
    outer loop
      vertex 4.25 7.36122 0.75
      vertex 1.25 2.16506 0.75
      vertex 1.67283 1.85786 0.75
    endloop
  endfacet
  facet normal 0 0 1
    outer loop
      vertex 0.772542 2.37764 0.75
      vertex 2.62664 8.08398 0.75
      vertex 0.888492 8.45344 0.75
    endloop
  endfacet
  facet normal 0 0 1
    outer loop
      vertex 2.62664 8.08398 0.75
      vertex 0.772542 2.37764 0.75
      vertex 1.25 2.16506 0.75
    endloop
  endfacet
  facet normal 0 0 1
    outer loop
      vertex 0.888492 8.45344 0.75
      vertex 0.261321 2.4863 0.75
      vertex 0.772542 2.37764 0.75
    endloop
  endfacet
  facet normal 0 0 1
    outer loop
      vertex 0.888492 8.45344 0.75
      vertex -0.261321 2.4863 0.75
      vertex 0.261321 2.4863 0.75
    endloop
  endfacet
  facet normal -0 0 1
    outer loop
      vertex -0.888492 8.45344 0.75
      vertex -0.261321 2.4863 0.75
      vertex 0.888492 8.45344 0.75
    endloop
  endfacet
  facet normal 0 0 1
    outer loop
      vertex -0.261321 2.4863 0.75
      vertex -0.888492 8.45344 0.75
      vertex -0.772542 2.37764 0.75
    endloop
  endfacet
  facet normal -0 0 1
    outer loop
      vertex -2.62664 8.08398 0.75
      vertex -0.772542 2.37764 0.75
      vertex -0.888492 8.45344 0.75
    endloop
  endfacet
  facet normal 0 0 1
    outer loop
      vertex -0.772542 2.37764 0.75
      vertex -2.62664 8.08398 0.75
      vertex -1.25 2.16506 0.75
    endloop
  endfacet
  facet normal -0 0 1
    outer loop
      vertex -4.25 7.36122 0.75
      vertex -1.25 2.16506 0.75
      vertex -2.62664 8.08398 0.75
    endloop
  endfacet
  facet normal 0 0 1
    outer loop
      vertex -1.25 2.16506 0.75
      vertex -4.25 7.36122 0.75
      vertex -1.67283 1.85786 0.75
    endloop
  endfacet
  facet normal -0 0 1
    outer loop
      vertex -5.68761 6.31673 0.75
      vertex -1.67283 1.85786 0.75
      vertex -4.25 7.36122 0.75
    endloop
  endfacet
  facet normal -0 0 1
    outer loop
      vertex -6.87664 4.99617 0.75
      vertex -2.02254 1.46946 0.75
      vertex -5.68761 6.31673 0.75
    endloop
  endfacet
  facet normal 0 0 1
    outer loop
      vertex -1.67283 1.85786 0.75
      vertex -5.68761 6.31673 0.75
      vertex -2.02254 1.46946 0.75
    endloop
  endfacet
  facet normal 0 0 1
    outer loop
      vertex 6.87664 -4.99617 0.75
      vertex 2.02254 -1.46946 0.75
      vertex 5.68761 -6.31673 0.75
    endloop
  endfacet
  facet normal -0 0 1
    outer loop
      vertex 1.67283 -1.85786 0.75
      vertex 5.68761 -6.31673 0.75
      vertex 2.02254 -1.46946 0.75
    endloop
  endfacet
  facet normal 0 0 1
    outer loop
      vertex 5.68761 -6.31673 0.75
      vertex 1.67283 -1.85786 0.75
      vertex 4.25 -7.36122 0.75
    endloop
  endfacet
  facet normal -0 0 1
    outer loop
      vertex 1.25 -2.16506 0.75
      vertex 4.25 -7.36122 0.75
      vertex 1.67283 -1.85786 0.75
    endloop
  endfacet
  facet normal 0 0 1
    outer loop
      vertex 4.25 -7.36122 0.75
      vertex 1.25 -2.16506 0.75
      vertex 2.62664 -8.08398 0.75
    endloop
  endfacet
  facet normal -0 0 1
    outer loop
      vertex 0.772542 -2.37764 0.75
      vertex 2.62664 -8.08398 0.75
      vertex 1.25 -2.16506 0.75
    endloop
  endfacet
  facet normal 0 0 1
    outer loop
      vertex 2.62664 -8.08398 0.75
      vertex 0.772542 -2.37764 0.75
      vertex 0.888492 -8.45344 0.75
    endloop
  endfacet
  facet normal -0 0 1
    outer loop
      vertex 0.261321 -2.4863 0.75
      vertex 0.888492 -8.45344 0.75
      vertex 0.772542 -2.37764 0.75
    endloop
  endfacet
  facet normal -0 0 1
    outer loop
      vertex -0.261321 -2.4863 0.75
      vertex 0.888492 -8.45344 0.75
      vertex 0.261321 -2.4863 0.75
    endloop
  endfacet
  facet normal 0 0 1
    outer loop
      vertex -0.888492 -8.45344 0.75
      vertex -0.261321 -2.4863 0.75
      vertex -0.772542 -2.37764 0.75
    endloop
  endfacet
  facet normal 0 0 1
    outer loop
      vertex -0.261321 -2.4863 0.75
      vertex -0.888492 -8.45344 0.75
      vertex 0.888492 -8.45344 0.75
    endloop
  endfacet
  facet normal 0 0 1
    outer loop
      vertex -2.62664 -8.08398 0.75
      vertex -0.772542 -2.37764 0.75
      vertex -1.25 -2.16506 0.75
    endloop
  endfacet
  facet normal 0 0 1
    outer loop
      vertex -4.25 -7.36122 0.75
      vertex -1.25 -2.16506 0.75
      vertex -1.67283 -1.85786 0.75
    endloop
  endfacet
  facet normal 0 0 1
    outer loop
      vertex -5.68761 -6.31673 0.75
      vertex -1.67283 -1.85786 0.75
      vertex -2.02254 -1.46946 0.75
    endloop
  endfacet
  facet normal 0 0 1
    outer loop
      vertex -6.87664 -4.99617 0.75
      vertex -2.02254 -1.46946 0.75
      vertex -2.28386 -1.01684 0.75
    endloop
  endfacet
  facet normal 0 0 1
    outer loop
      vertex -7.76514 -3.45726 0.75
      vertex -2.28386 -1.01684 0.75
      vertex -2.44537 -0.519779 0.75
    endloop
  endfacet
  facet normal 0 0 1
    outer loop
      vertex -0.772542 -2.37764 0.75
      vertex -2.62664 -8.08398 0.75
      vertex -0.888492 -8.45344 0.75
    endloop
  endfacet
  facet normal 0 0 1
    outer loop
      vertex -8.31425 -1.76725 0.75
      vertex -2.44537 -0.519779 0.75
      vertex -2.5 0 0.75
    endloop
  endfacet
  facet normal 0 0 1
    outer loop
      vertex -2.02254 1.46946 0.75
      vertex -6.87664 4.99617 0.75
      vertex -2.28386 1.01684 0.75
    endloop
  endfacet
  facet normal -0 0 1
    outer loop
      vertex -7.76514 3.45726 0.75
      vertex -2.28386 1.01684 0.75
      vertex -6.87664 4.99617 0.75
    endloop
  endfacet
  facet normal 0 0 1
    outer loop
      vertex -1.25 -2.16506 0.75
      vertex -4.25 -7.36122 0.75
      vertex -2.62664 -8.08398 0.75
    endloop
  endfacet
  facet normal 0 0 1
    outer loop
      vertex -2.28386 1.01684 0.75
      vertex -7.76514 3.45726 0.75
      vertex -2.44537 0.519779 0.75
    endloop
  endfacet
  facet normal 0 0 1
    outer loop
      vertex -1.67283 -1.85786 0.75
      vertex -5.68761 -6.31673 0.75
      vertex -4.25 -7.36122 0.75
    endloop
  endfacet
  facet normal -0 0 1
    outer loop
      vertex -8.31425 1.76725 0.75
      vertex -2.44537 0.519779 0.75
      vertex -7.76514 3.45726 0.75
    endloop
  endfacet
  facet normal 0 0 1
    outer loop
      vertex -2.02254 -1.46946 0.75
      vertex -6.87664 -4.99617 0.75
      vertex -5.68761 -6.31673 0.75
    endloop
  endfacet
  facet normal 0 0 1
    outer loop
      vertex -2.44537 0.519779 0.75
      vertex -8.31425 1.76725 0.75
      vertex -2.5 0 0.75
    endloop
  endfacet
  facet normal 0 0 1
    outer loop
      vertex -2.28386 -1.01684 0.75
      vertex -7.76514 -3.45726 0.75
      vertex -6.87664 -4.99617 0.75
    endloop
  endfacet
  facet normal 0 0 1
    outer loop
      vertex -8.5 0 0.75
      vertex -2.5 0 0.75
      vertex -8.31425 1.76725 0.75
    endloop
  endfacet
  facet normal 0 0 1
    outer loop
      vertex -2.44537 -0.519779 0.75
      vertex -8.31425 -1.76725 0.75
      vertex -7.76514 -3.45726 0.75
    endloop
  endfacet
  facet normal 0 0 1
    outer loop
      vertex -2.5 0 0.75
      vertex -8.5 0 0.75
      vertex -8.31425 -1.76725 0.75
    endloop
  endfacet
  facet normal -0.207912 0.978148 0
    outer loop
      vertex -0.888492 8.45344 -0.75
      vertex -2.62664 8.08398 0.75
      vertex -0.888492 8.45344 0.75
    endloop
  endfacet
  facet normal -0.207912 0.978148 0
    outer loop
      vertex -2.62664 8.08398 0.75
      vertex -0.888492 8.45344 -0.75
      vertex -2.62664 8.08398 -0.75
    endloop
  endfacet
  facet normal 0.994522 -0.104529 0
    outer loop
      vertex 8.31425 -1.76725 0.75
      vertex 8.5 0 -0.75
      vertex 8.5 0 0.75
    endloop
  endfacet
  facet normal 0.994522 -0.104529 0
    outer loop
      vertex 8.5 0 -0.75
      vertex 8.31425 -1.76725 0.75
      vertex 8.31425 -1.76725 -0.75
    endloop
  endfacet
  facet normal 0 0 -1
    outer loop
      vertex 2.5 0 -0.75
      vertex 8.5 0 -0.75
      vertex 8.31425 -1.76725 -0.75
    endloop
  endfacet
  facet normal 0 0 -1
    outer loop
      vertex 2.44537 -0.519779 -0.75
      vertex 8.31425 -1.76725 -0.75
      vertex 7.76514 -3.45726 -0.75
    endloop
  endfacet
  facet normal 0 0 -1
    outer loop
      vertex 8.5 0 -0.75
      vertex 2.5 0 -0.75
      vertex 8.31425 1.76725 -0.75
    endloop
  endfacet
  facet normal 0 0 -1
    outer loop
      vertex 2.28386 -1.01684 -0.75
      vertex 7.76514 -3.45726 -0.75
      vertex 6.87664 -4.99617 -0.75
    endloop
  endfacet
  facet normal 0 0 -1
    outer loop
      vertex 2.44537 0.519779 -0.75
      vertex 8.31425 1.76725 -0.75
      vertex 2.5 0 -0.75
    endloop
  endfacet
  facet normal 0 0 -1
    outer loop
      vertex 2.02254 -1.46946 -0.75
      vertex 6.87664 -4.99617 -0.75
      vertex 5.68761 -6.31673 -0.75
    endloop
  endfacet
  facet normal -0 0 -1
    outer loop
      vertex 8.31425 1.76725 -0.75
      vertex 2.44537 0.519779 -0.75
      vertex 7.76514 3.45726 -0.75
    endloop
  endfacet
  facet normal 0 0 -1
    outer loop
      vertex 1.67283 -1.85786 -0.75
      vertex 5.68761 -6.31673 -0.75
      vertex 4.25 -7.36122 -0.75
    endloop
  endfacet
  facet normal 0 0 -1
    outer loop
      vertex 2.28386 1.01684 -0.75
      vertex 7.76514 3.45726 -0.75
      vertex 2.44537 0.519779 -0.75
    endloop
  endfacet
  facet normal 0 0 -1
    outer loop
      vertex 1.25 -2.16506 -0.75
      vertex 4.25 -7.36122 -0.75
      vertex 2.62664 -8.08398 -0.75
    endloop
  endfacet
  facet normal -0 0 -1
    outer loop
      vertex 7.76514 3.45726 -0.75
      vertex 2.28386 1.01684 -0.75
      vertex 6.87664 4.99617 -0.75
    endloop
  endfacet
  facet normal 0 0 -1
    outer loop
      vertex 2.02254 1.46946 -0.75
      vertex 6.87664 4.99617 -0.75
      vertex 2.28386 1.01684 -0.75
    endloop
  endfacet
  facet normal 0 0 -1
    outer loop
      vertex 8.31425 -1.76725 -0.75
      vertex 2.44537 -0.519779 -0.75
      vertex 2.5 0 -0.75
    endloop
  endfacet
  facet normal 0 0 -1
    outer loop
      vertex 7.76514 -3.45726 -0.75
      vertex 2.28386 -1.01684 -0.75
      vertex 2.44537 -0.519779 -0.75
    endloop
  endfacet
  facet normal 0 0 -1
    outer loop
      vertex 6.87664 -4.99617 -0.75
      vertex 2.02254 -1.46946 -0.75
      vertex 2.28386 -1.01684 -0.75
    endloop
  endfacet
  facet normal 0 0 -1
    outer loop
      vertex 5.68761 -6.31673 -0.75
      vertex 1.67283 -1.85786 -0.75
      vertex 2.02254 -1.46946 -0.75
    endloop
  endfacet
  facet normal 0 0 -1
    outer loop
      vertex 4.25 -7.36122 -0.75
      vertex 1.25 -2.16506 -0.75
      vertex 1.67283 -1.85786 -0.75
    endloop
  endfacet
  facet normal 0 0 -1
    outer loop
      vertex 0.772542 -2.37764 -0.75
      vertex 2.62664 -8.08398 -0.75
      vertex 0.888492 -8.45344 -0.75
    endloop
  endfacet
  facet normal 0 0 -1
    outer loop
      vertex 2.62664 -8.08398 -0.75
      vertex 0.772542 -2.37764 -0.75
      vertex 1.25 -2.16506 -0.75
    endloop
  endfacet
  facet normal 0 0 -1
    outer loop
      vertex 0.888492 -8.45344 -0.75
      vertex 0.261321 -2.4863 -0.75
      vertex 0.772542 -2.37764 -0.75
    endloop
  endfacet
  facet normal 0 0 -1
    outer loop
      vertex 0.888492 -8.45344 -0.75
      vertex -0.261321 -2.4863 -0.75
      vertex 0.261321 -2.4863 -0.75
    endloop
  endfacet
  facet normal 0 0 -1
    outer loop
      vertex -0.888492 -8.45344 -0.75
      vertex -0.261321 -2.4863 -0.75
      vertex 0.888492 -8.45344 -0.75
    endloop
  endfacet
  facet normal -0 0 -1
    outer loop
      vertex -0.261321 -2.4863 -0.75
      vertex -0.888492 -8.45344 -0.75
      vertex -0.772542 -2.37764 -0.75
    endloop
  endfacet
  facet normal 0 0 -1
    outer loop
      vertex -2.62664 -8.08398 -0.75
      vertex -0.772542 -2.37764 -0.75
      vertex -0.888492 -8.45344 -0.75
    endloop
  endfacet
  facet normal -0 0 -1
    outer loop
      vertex -0.772542 -2.37764 -0.75
      vertex -2.62664 -8.08398 -0.75
      vertex -1.25 -2.16506 -0.75
    endloop
  endfacet
  facet normal 0 0 -1
    outer loop
      vertex -4.25 -7.36122 -0.75
      vertex -1.25 -2.16506 -0.75
      vertex -2.62664 -8.08398 -0.75
    endloop
  endfacet
  facet normal -0 0 -1
    outer loop
      vertex -1.25 -2.16506 -0.75
      vertex -4.25 -7.36122 -0.75
      vertex -1.67283 -1.85786 -0.75
    endloop
  endfacet
  facet normal 0 0 -1
    outer loop
      vertex -5.68761 -6.31673 -0.75
      vertex -1.67283 -1.85786 -0.75
      vertex -4.25 -7.36122 -0.75
    endloop
  endfacet
  facet normal 0 0 -1
    outer loop
      vertex -6.87664 -4.99617 -0.75
      vertex -2.02254 -1.46946 -0.75
      vertex -5.68761 -6.31673 -0.75
    endloop
  endfacet
  facet normal -0 0 -1
    outer loop
      vertex -1.67283 -1.85786 -0.75
      vertex -5.68761 -6.31673 -0.75
      vertex -2.02254 -1.46946 -0.75
    endloop
  endfacet
  facet normal -0 0 -1
    outer loop
      vertex 6.87664 4.99617 -0.75
      vertex 2.02254 1.46946 -0.75
      vertex 5.68761 6.31673 -0.75
    endloop
  endfacet
  facet normal 0 0 -1
    outer loop
      vertex 1.67283 1.85786 -0.75
      vertex 5.68761 6.31673 -0.75
      vertex 2.02254 1.46946 -0.75
    endloop
  endfacet
  facet normal -0 0 -1
    outer loop
      vertex 5.68761 6.31673 -0.75
      vertex 1.67283 1.85786 -0.75
      vertex 4.25 7.36122 -0.75
    endloop
  endfacet
  facet normal 0 0 -1
    outer loop
      vertex 1.25 2.16506 -0.75
      vertex 4.25 7.36122 -0.75
      vertex 1.67283 1.85786 -0.75
    endloop
  endfacet
  facet normal -0 0 -1
    outer loop
      vertex 4.25 7.36122 -0.75
      vertex 1.25 2.16506 -0.75
      vertex 2.62664 8.08398 -0.75
    endloop
  endfacet
  facet normal 0 0 -1
    outer loop
      vertex 0.772542 2.37764 -0.75
      vertex 2.62664 8.08398 -0.75
      vertex 1.25 2.16506 -0.75
    endloop
  endfacet
  facet normal -0 0 -1
    outer loop
      vertex 2.62664 8.08398 -0.75
      vertex 0.772542 2.37764 -0.75
      vertex 0.888492 8.45344 -0.75
    endloop
  endfacet
  facet normal 0 0 -1
    outer loop
      vertex 0.261321 2.4863 -0.75
      vertex 0.888492 8.45344 -0.75
      vertex 0.772542 2.37764 -0.75
    endloop
  endfacet
  facet normal 0 0 -1
    outer loop
      vertex -0.261321 2.4863 -0.75
      vertex 0.888492 8.45344 -0.75
      vertex 0.261321 2.4863 -0.75
    endloop
  endfacet
  facet normal 0 0 -1
    outer loop
      vertex -0.888492 8.45344 -0.75
      vertex -0.261321 2.4863 -0.75
      vertex -0.772542 2.37764 -0.75
    endloop
  endfacet
  facet normal 0 0 -1
    outer loop
      vertex -0.261321 2.4863 -0.75
      vertex -0.888492 8.45344 -0.75
      vertex 0.888492 8.45344 -0.75
    endloop
  endfacet
  facet normal 0 0 -1
    outer loop
      vertex -2.62664 8.08398 -0.75
      vertex -0.772542 2.37764 -0.75
      vertex -1.25 2.16506 -0.75
    endloop
  endfacet
  facet normal 0 0 -1
    outer loop
      vertex -4.25 7.36122 -0.75
      vertex -1.25 2.16506 -0.75
      vertex -1.67283 1.85786 -0.75
    endloop
  endfacet
  facet normal 0 0 -1
    outer loop
      vertex -5.68761 6.31673 -0.75
      vertex -1.67283 1.85786 -0.75
      vertex -2.02254 1.46946 -0.75
    endloop
  endfacet
  facet normal 0 0 -1
    outer loop
      vertex -6.87664 4.99617 -0.75
      vertex -2.02254 1.46946 -0.75
      vertex -2.28386 1.01684 -0.75
    endloop
  endfacet
  facet normal 0 0 -1
    outer loop
      vertex -7.76514 3.45726 -0.75
      vertex -2.28386 1.01684 -0.75
      vertex -2.44537 0.519779 -0.75
    endloop
  endfacet
  facet normal 0 0 -1
    outer loop
      vertex -0.772542 2.37764 -0.75
      vertex -2.62664 8.08398 -0.75
      vertex -0.888492 8.45344 -0.75
    endloop
  endfacet
  facet normal 0 0 -1
    outer loop
      vertex -8.31425 1.76725 -0.75
      vertex -2.44537 0.519779 -0.75
      vertex -2.5 0 -0.75
    endloop
  endfacet
  facet normal -0 0 -1
    outer loop
      vertex -2.02254 -1.46946 -0.75
      vertex -6.87664 -4.99617 -0.75
      vertex -2.28386 -1.01684 -0.75
    endloop
  endfacet
  facet normal 0 0 -1
    outer loop
      vertex -1.25 2.16506 -0.75
      vertex -4.25 7.36122 -0.75
      vertex -2.62664 8.08398 -0.75
    endloop
  endfacet
  facet normal 0 0 -1
    outer loop
      vertex -7.76514 -3.45726 -0.75
      vertex -2.28386 -1.01684 -0.75
      vertex -6.87664 -4.99617 -0.75
    endloop
  endfacet
  facet normal -0 0 -1
    outer loop
      vertex -2.28386 -1.01684 -0.75
      vertex -7.76514 -3.45726 -0.75
      vertex -2.44537 -0.519779 -0.75
    endloop
  endfacet
  facet normal 0 0 -1
    outer loop
      vertex -1.67283 1.85786 -0.75
      vertex -5.68761 6.31673 -0.75
      vertex -4.25 7.36122 -0.75
    endloop
  endfacet
  facet normal 0 0 -1
    outer loop
      vertex -8.31425 -1.76725 -0.75
      vertex -2.44537 -0.519779 -0.75
      vertex -7.76514 -3.45726 -0.75
    endloop
  endfacet
  facet normal 0 0 -1
    outer loop
      vertex -2.02254 1.46946 -0.75
      vertex -6.87664 4.99617 -0.75
      vertex -5.68761 6.31673 -0.75
    endloop
  endfacet
  facet normal -0 0 -1
    outer loop
      vertex -2.44537 -0.519779 -0.75
      vertex -8.31425 -1.76725 -0.75
      vertex -2.5 0 -0.75
    endloop
  endfacet
  facet normal 0 0 -1
    outer loop
      vertex -2.28386 1.01684 -0.75
      vertex -7.76514 3.45726 -0.75
      vertex -6.87664 4.99617 -0.75
    endloop
  endfacet
  facet normal 0 0 -1
    outer loop
      vertex -8.5 0 -0.75
      vertex -2.5 0 -0.75
      vertex -8.31425 -1.76725 -0.75
    endloop
  endfacet
  facet normal 0 0 -1
    outer loop
      vertex -2.44537 0.519779 -0.75
      vertex -8.31425 1.76725 -0.75
      vertex -7.76514 3.45726 -0.75
    endloop
  endfacet
  facet normal 0 0 -1
    outer loop
      vertex -2.5 0 -0.75
      vertex -8.5 0 -0.75
      vertex -8.31425 1.76725 -0.75
    endloop
  endfacet
  facet normal 0.866025 -0.5 0
    outer loop
      vertex 6.87664 -4.99617 0.75
      vertex 7.76514 -3.45726 -0.75
      vertex 7.76514 -3.45726 0.75
    endloop
  endfacet
  facet normal 0.866025 -0.5 0
    outer loop
      vertex 7.76514 -3.45726 -0.75
      vertex 6.87664 -4.99617 0.75
      vertex 6.87664 -4.99617 -0.75
    endloop
  endfacet
  facet normal -0.866025 -0.5 0
    outer loop
      vertex -6.87664 -4.99617 -0.75
      vertex -7.76514 -3.45726 0.75
      vertex -7.76514 -3.45726 -0.75
    endloop
  endfacet
  facet normal -0.866025 -0.5 0
    outer loop
      vertex -7.76514 -3.45726 0.75
      vertex -6.87664 -4.99617 -0.75
      vertex -6.87664 -4.99617 0.75
    endloop
  endfacet
  facet normal -0.743145 -0.669131 0
    outer loop
      vertex -5.68761 -6.31673 -0.75
      vertex -6.87664 -4.99617 0.75
      vertex -6.87664 -4.99617 -0.75
    endloop
  endfacet
  facet normal -0.743145 -0.669131 0
    outer loop
      vertex -6.87664 -4.99617 0.75
      vertex -5.68761 -6.31673 -0.75
      vertex -5.68761 -6.31673 0.75
    endloop
  endfacet
  facet normal -0.994522 -0.104529 0
    outer loop
      vertex -8.31425 -1.76725 -0.75
      vertex -8.5 0 0.75
      vertex -8.5 0 -0.75
    endloop
  endfacet
  facet normal -0.994522 -0.104529 0
    outer loop
      vertex -8.5 0 0.75
      vertex -8.31425 -1.76725 -0.75
      vertex -8.31425 -1.76725 0.75
    endloop
  endfacet
  facet normal 0.207912 -0.978148 0
    outer loop
      vertex 0.888492 -8.45344 -0.75
      vertex 2.62664 -8.08398 0.75
      vertex 0.888492 -8.45344 0.75
    endloop
  endfacet
  facet normal 0.207912 -0.978148 0
    outer loop
      vertex 2.62664 -8.08398 0.75
      vertex 0.888492 -8.45344 -0.75
      vertex 2.62664 -8.08398 -0.75
    endloop
  endfacet
  facet normal 0.587785 -0.809017 0
    outer loop
      vertex 4.25 -7.36122 -0.75
      vertex 5.68761 -6.31673 0.75
      vertex 4.25 -7.36122 0.75
    endloop
  endfacet
  facet normal 0.587785 -0.809017 0
    outer loop
      vertex 5.68761 -6.31673 0.75
      vertex 4.25 -7.36122 -0.75
      vertex 5.68761 -6.31673 -0.75
    endloop
  endfacet
  facet normal -0.951057 -0.309017 0
    outer loop
      vertex -7.76514 -3.45726 -0.75
      vertex -8.31425 -1.76725 0.75
      vertex -8.31425 -1.76725 -0.75
    endloop
  endfacet
  facet normal -0.951057 -0.309017 0
    outer loop
      vertex -8.31425 -1.76725 0.75
      vertex -7.76514 -3.45726 -0.75
      vertex -7.76514 -3.45726 0.75
    endloop
  endfacet
  facet normal 0.406736 -0.913546 0
    outer loop
      vertex 2.62664 -8.08398 -0.75
      vertex 4.25 -7.36122 0.75
      vertex 2.62664 -8.08398 0.75
    endloop
  endfacet
  facet normal 0.406736 -0.913546 0
    outer loop
      vertex 4.25 -7.36122 0.75
      vertex 2.62664 -8.08398 -0.75
      vertex 4.25 -7.36122 -0.75
    endloop
  endfacet
  facet normal 0.743145 -0.669131 0
    outer loop
      vertex 5.68761 -6.31673 0.75
      vertex 6.87664 -4.99617 -0.75
      vertex 6.87664 -4.99617 0.75
    endloop
  endfacet
  facet normal 0.743145 -0.669131 0
    outer loop
      vertex 6.87664 -4.99617 -0.75
      vertex 5.68761 -6.31673 0.75
      vertex 5.68761 -6.31673 -0.75
    endloop
  endfacet
  facet normal -0.406736 -0.913546 0
    outer loop
      vertex -4.25 -7.36122 -0.75
      vertex -2.62664 -8.08398 0.75
      vertex -4.25 -7.36122 0.75
    endloop
  endfacet
  facet normal -0.406736 -0.913546 -0
    outer loop
      vertex -2.62664 -8.08398 0.75
      vertex -4.25 -7.36122 -0.75
      vertex -2.62664 -8.08398 -0.75
    endloop
  endfacet
  facet normal -0.587785 -0.809017 0
    outer loop
      vertex -5.68761 -6.31673 -0.75
      vertex -4.25 -7.36122 0.75
      vertex -5.68761 -6.31673 0.75
    endloop
  endfacet
  facet normal -0.587785 -0.809017 -0
    outer loop
      vertex -4.25 -7.36122 0.75
      vertex -5.68761 -6.31673 -0.75
      vertex -4.25 -7.36122 -0.75
    endloop
  endfacet
  facet normal -0.207912 -0.978148 0
    outer loop
      vertex -2.62664 -8.08398 -0.75
      vertex -0.888492 -8.45344 0.75
      vertex -2.62664 -8.08398 0.75
    endloop
  endfacet
  facet normal -0.207912 -0.978148 -0
    outer loop
      vertex -0.888492 -8.45344 0.75
      vertex -2.62664 -8.08398 -0.75
      vertex -0.888492 -8.45344 -0.75
    endloop
  endfacet
  facet normal -0.866025 -0.5 0
    outer loop
      vertex 2.28386 1.01684 -0.75
      vertex 2.02254 1.46946 0.75
      vertex 2.02254 1.46946 -0.75
    endloop
  endfacet
  facet normal -0.866025 -0.5 0
    outer loop
      vertex 2.02254 1.46946 0.75
      vertex 2.28386 1.01684 -0.75
      vertex 2.28386 1.01684 0.75
    endloop
  endfacet
  facet normal 0 -1 0
    outer loop
      vertex -0.261321 2.4863 -0.75
      vertex 0.261321 2.4863 0.75
      vertex -0.261321 2.4863 0.75
    endloop
  endfacet
  facet normal 0 -1 -0
    outer loop
      vertex 0.261321 2.4863 0.75
      vertex -0.261321 2.4863 -0.75
      vertex 0.261321 2.4863 -0.75
    endloop
  endfacet
  facet normal 0.951056 -0.309018 0
    outer loop
      vertex -2.44537 0.519779 0.75
      vertex -2.28386 1.01684 -0.75
      vertex -2.28386 1.01684 0.75
    endloop
  endfacet
  facet normal 0.951056 -0.309018 0
    outer loop
      vertex -2.28386 1.01684 -0.75
      vertex -2.44537 0.519779 0.75
      vertex -2.44537 0.519779 -0.75
    endloop
  endfacet
  facet normal -0.743145 -0.669131 0
    outer loop
      vertex 2.02254 1.46946 -0.75
      vertex 1.67283 1.85786 0.75
      vertex 1.67283 1.85786 -0.75
    endloop
  endfacet
  facet normal -0.743145 -0.669131 0
    outer loop
      vertex 1.67283 1.85786 0.75
      vertex 2.02254 1.46946 -0.75
      vertex 2.02254 1.46946 0.75
    endloop
  endfacet
  facet normal -0.207912 -0.978148 0
    outer loop
      vertex 0.261321 2.4863 -0.75
      vertex 0.772542 2.37764 0.75
      vertex 0.261321 2.4863 0.75
    endloop
  endfacet
  facet normal -0.207912 -0.978148 -0
    outer loop
      vertex 0.772542 2.37764 0.75
      vertex 0.261321 2.4863 -0.75
      vertex 0.772542 2.37764 -0.75
    endloop
  endfacet
  facet normal 0.207912 -0.978148 0
    outer loop
      vertex -0.772542 2.37764 -0.75
      vertex -0.261321 2.4863 0.75
      vertex -0.772542 2.37764 0.75
    endloop
  endfacet
  facet normal 0.207912 -0.978148 0
    outer loop
      vertex -0.261321 2.4863 0.75
      vertex -0.772542 2.37764 -0.75
      vertex -0.261321 2.4863 -0.75
    endloop
  endfacet
  facet normal 0.866025 -0.5 0
    outer loop
      vertex -2.28386 1.01684 0.75
      vertex -2.02254 1.46946 -0.75
      vertex -2.02254 1.46946 0.75
    endloop
  endfacet
  facet normal 0.866025 -0.5 0
    outer loop
      vertex -2.02254 1.46946 -0.75
      vertex -2.28386 1.01684 0.75
      vertex -2.28386 1.01684 -0.75
    endloop
  endfacet
  facet normal -0.994522 0.104529 0
    outer loop
      vertex 2.44537 -0.519779 -0.75
      vertex 2.5 0 0.75
      vertex 2.5 0 -0.75
    endloop
  endfacet
  facet normal -0.994522 0.104529 0
    outer loop
      vertex 2.5 0 0.75
      vertex 2.44537 -0.519779 -0.75
      vertex 2.44537 -0.519779 0.75
    endloop
  endfacet
  facet normal -0.207912 0.978148 0
    outer loop
      vertex 0.772542 -2.37764 -0.75
      vertex 0.261321 -2.4863 0.75
      vertex 0.772542 -2.37764 0.75
    endloop
  endfacet
  facet normal -0.207912 0.978148 0
    outer loop
      vertex 0.261321 -2.4863 0.75
      vertex 0.772542 -2.37764 -0.75
      vertex 0.261321 -2.4863 -0.75
    endloop
  endfacet
  facet normal -0.951056 -0.309018 0
    outer loop
      vertex 2.44537 0.519779 -0.75
      vertex 2.28386 1.01684 0.75
      vertex 2.28386 1.01684 -0.75
    endloop
  endfacet
  facet normal -0.951056 -0.309018 0
    outer loop
      vertex 2.28386 1.01684 0.75
      vertex 2.44537 0.519779 -0.75
      vertex 2.44537 0.519779 0.75
    endloop
  endfacet
  facet normal -0.587786 -0.809017 0
    outer loop
      vertex 1.25 2.16506 -0.75
      vertex 1.67283 1.85786 0.75
      vertex 1.25 2.16506 0.75
    endloop
  endfacet
  facet normal -0.587786 -0.809017 -0
    outer loop
      vertex 1.67283 1.85786 0.75
      vertex 1.25 2.16506 -0.75
      vertex 1.67283 1.85786 -0.75
    endloop
  endfacet
  facet normal -0.406736 -0.913546 0
    outer loop
      vertex 0.772542 2.37764 -0.75
      vertex 1.25 2.16506 0.75
      vertex 0.772542 2.37764 0.75
    endloop
  endfacet
  facet normal -0.406736 -0.913546 -0
    outer loop
      vertex 1.25 2.16506 0.75
      vertex 0.772542 2.37764 -0.75
      vertex 1.25 2.16506 -0.75
    endloop
  endfacet
  facet normal 0.994522 -0.104529 0
    outer loop
      vertex -2.5 0 0.75
      vertex -2.44537 0.519779 -0.75
      vertex -2.44537 0.519779 0.75
    endloop
  endfacet
  facet normal 0.994522 -0.104529 0
    outer loop
      vertex -2.44537 0.519779 -0.75
      vertex -2.5 0 0.75
      vertex -2.5 0 -0.75
    endloop
  endfacet
  facet normal 0.743145 -0.669131 0
    outer loop
      vertex -2.02254 1.46946 0.75
      vertex -1.67283 1.85786 -0.75
      vertex -1.67283 1.85786 0.75
    endloop
  endfacet
  facet normal 0.743145 -0.669131 0
    outer loop
      vertex -1.67283 1.85786 -0.75
      vertex -2.02254 1.46946 0.75
      vertex -2.02254 1.46946 -0.75
    endloop
  endfacet
  facet normal 0.406737 -0.913545 0
    outer loop
      vertex -1.25 2.16506 -0.75
      vertex -0.772542 2.37764 0.75
      vertex -1.25 2.16506 0.75
    endloop
  endfacet
  facet normal 0.406737 -0.913545 0
    outer loop
      vertex -0.772542 2.37764 0.75
      vertex -1.25 2.16506 -0.75
      vertex -0.772542 2.37764 -0.75
    endloop
  endfacet
  facet normal 0.587785 -0.809017 0
    outer loop
      vertex -1.67283 1.85786 -0.75
      vertex -1.25 2.16506 0.75
      vertex -1.67283 1.85786 0.75
    endloop
  endfacet
  facet normal 0.587785 -0.809017 0
    outer loop
      vertex -1.25 2.16506 0.75
      vertex -1.67283 1.85786 -0.75
      vertex -1.25 2.16506 -0.75
    endloop
  endfacet
  facet normal -0.994522 -0.104529 0
    outer loop
      vertex 2.5 0 -0.75
      vertex 2.44537 0.519779 0.75
      vertex 2.44537 0.519779 -0.75
    endloop
  endfacet
  facet normal -0.994522 -0.104529 0
    outer loop
      vertex 2.44537 0.519779 0.75
      vertex 2.5 0 -0.75
      vertex 2.5 0 0.75
    endloop
  endfacet
  facet normal 0.207912 0.978148 -0
    outer loop
      vertex -0.261321 -2.4863 -0.75
      vertex -0.772542 -2.37764 0.75
      vertex -0.261321 -2.4863 0.75
    endloop
  endfacet
  facet normal 0.207912 0.978148 0
    outer loop
      vertex -0.772542 -2.37764 0.75
      vertex -0.261321 -2.4863 -0.75
      vertex -0.772542 -2.37764 -0.75
    endloop
  endfacet
  facet normal -0.587786 0.809017 0
    outer loop
      vertex 1.67283 -1.85786 -0.75
      vertex 1.25 -2.16506 0.75
      vertex 1.67283 -1.85786 0.75
    endloop
  endfacet
  facet normal -0.587786 0.809017 0
    outer loop
      vertex 1.25 -2.16506 0.75
      vertex 1.67283 -1.85786 -0.75
      vertex 1.25 -2.16506 -0.75
    endloop
  endfacet
  facet normal -0.951056 0.309018 0
    outer loop
      vertex 2.28386 -1.01684 -0.75
      vertex 2.44537 -0.519779 0.75
      vertex 2.44537 -0.519779 -0.75
    endloop
  endfacet
  facet normal -0.951056 0.309018 0
    outer loop
      vertex 2.44537 -0.519779 0.75
      vertex 2.28386 -1.01684 -0.75
      vertex 2.28386 -1.01684 0.75
    endloop
  endfacet
  facet normal -0.866025 0.5 0
    outer loop
      vertex 2.02254 -1.46946 -0.75
      vertex 2.28386 -1.01684 0.75
      vertex 2.28386 -1.01684 -0.75
    endloop
  endfacet
  facet normal -0.866025 0.5 0
    outer loop
      vertex 2.28386 -1.01684 0.75
      vertex 2.02254 -1.46946 -0.75
      vertex 2.02254 -1.46946 0.75
    endloop
  endfacet
  facet normal 0.994522 0.104529 0
    outer loop
      vertex -2.44537 -0.519779 0.75
      vertex -2.5 0 -0.75
      vertex -2.5 0 0.75
    endloop
  endfacet
  facet normal 0.994522 0.104529 0
    outer loop
      vertex -2.5 0 -0.75
      vertex -2.44537 -0.519779 0.75
      vertex -2.44537 -0.519779 -0.75
    endloop
  endfacet
  facet normal 0.866025 0.5 0
    outer loop
      vertex -2.02254 -1.46946 0.75
      vertex -2.28386 -1.01684 -0.75
      vertex -2.28386 -1.01684 0.75
    endloop
  endfacet
  facet normal 0.866025 0.5 0
    outer loop
      vertex -2.28386 -1.01684 -0.75
      vertex -2.02254 -1.46946 0.75
      vertex -2.02254 -1.46946 -0.75
    endloop
  endfacet
  facet normal -0.743145 0.669131 0
    outer loop
      vertex 1.67283 -1.85786 -0.75
      vertex 2.02254 -1.46946 0.75
      vertex 2.02254 -1.46946 -0.75
    endloop
  endfacet
  facet normal -0.743145 0.669131 0
    outer loop
      vertex 2.02254 -1.46946 0.75
      vertex 1.67283 -1.85786 -0.75
      vertex 1.67283 -1.85786 0.75
    endloop
  endfacet
  facet normal 0.587786 0.809017 -0
    outer loop
      vertex -1.25 -2.16506 -0.75
      vertex -1.67283 -1.85786 0.75
      vertex -1.25 -2.16506 0.75
    endloop
  endfacet
  facet normal 0.587786 0.809017 0
    outer loop
      vertex -1.67283 -1.85786 0.75
      vertex -1.25 -2.16506 -0.75
      vertex -1.67283 -1.85786 -0.75
    endloop
  endfacet
  facet normal 0 1 -0
    outer loop
      vertex 0.261321 -2.4863 -0.75
      vertex -0.261321 -2.4863 0.75
      vertex 0.261321 -2.4863 0.75
    endloop
  endfacet
  facet normal 0 1 0
    outer loop
      vertex -0.261321 -2.4863 0.75
      vertex 0.261321 -2.4863 -0.75
      vertex -0.261321 -2.4863 -0.75
    endloop
  endfacet
  facet normal 0.951056 0.309018 0
    outer loop
      vertex -2.28386 -1.01684 0.75
      vertex -2.44537 -0.519779 -0.75
      vertex -2.44537 -0.519779 0.75
    endloop
  endfacet
  facet normal 0.951056 0.309018 0
    outer loop
      vertex -2.44537 -0.519779 -0.75
      vertex -2.28386 -1.01684 0.75
      vertex -2.28386 -1.01684 -0.75
    endloop
  endfacet
  facet normal 0.743145 0.669131 0
    outer loop
      vertex -1.67283 -1.85786 0.75
      vertex -2.02254 -1.46946 -0.75
      vertex -2.02254 -1.46946 0.75
    endloop
  endfacet
  facet normal 0.743145 0.669131 0
    outer loop
      vertex -2.02254 -1.46946 -0.75
      vertex -1.67283 -1.85786 0.75
      vertex -1.67283 -1.85786 -0.75
    endloop
  endfacet
  facet normal -0.406736 0.913546 0
    outer loop
      vertex 1.25 -2.16506 -0.75
      vertex 0.772542 -2.37764 0.75
      vertex 1.25 -2.16506 0.75
    endloop
  endfacet
  facet normal -0.406736 0.913546 0
    outer loop
      vertex 0.772542 -2.37764 0.75
      vertex 1.25 -2.16506 -0.75
      vertex 0.772542 -2.37764 -0.75
    endloop
  endfacet
  facet normal 0.406736 0.913546 -0
    outer loop
      vertex -0.772542 -2.37764 -0.75
      vertex -1.25 -2.16506 0.75
      vertex -0.772542 -2.37764 0.75
    endloop
  endfacet
  facet normal 0.406736 0.913546 0
    outer loop
      vertex -1.25 -2.16506 0.75
      vertex -0.772542 -2.37764 -0.75
      vertex -1.25 -2.16506 -0.75
    endloop
  endfacet
endsolid OpenSCAD_Model
