solid OpenSCAD_Model
  facet normal -1 0 0
    outer loop
      vertex -165 -15 -38
      vertex -165 15 40
      vertex -165 15 -38
    endloop
  endfacet
  facet normal -1 -0 0
    outer loop
      vertex -165 15 40
      vertex -165 -15 -38
      vertex -165 -15 40
    endloop
  endfacet
  facet normal 0 0 1
    outer loop
      vertex 0 15 40
      vertex -163 13 40
      vertex 0 13 40
    endloop
  endfacet
  facet normal 0 0 1
    outer loop
      vertex -163 13 40
      vertex -165 15 40
      vertex -163 -13 40
    endloop
  endfacet
  facet normal -0 0 1
    outer loop
      vertex -165 15 40
      vertex -163 13 40
      vertex 0 15 40
    endloop
  endfacet
  facet normal -0 0 1
    outer loop
      vertex -163 -13 40
      vertex 0 -15 40
      vertex 0 -13 40
    endloop
  endfacet
  facet normal 0 0 1
    outer loop
      vertex -163 -13 40
      vertex -165 -15 40
      vertex 0 -15 40
    endloop
  endfacet
  facet normal 0 0 1
    outer loop
      vertex -165 -15 40
      vertex -163 -13 40
      vertex -165 15 40
    endloop
  endfacet
  facet normal 0 1 -0
    outer loop
      vertex -105 15 -16
      vertex -117 15 8
      vertex -105 15 8
    endloop
  endfacet
  facet normal 0 1 0
    outer loop
      vertex -117 15 8
      vertex -105 15 -16
      vertex -117 15 -16
    endloop
  endfacet
  facet normal 0 1 -0
    outer loop
      vertex -69 15 -16
      vertex -81 15 8
      vertex -69 15 8
    endloop
  endfacet
  facet normal 0 1 0
    outer loop
      vertex -81 15 8
      vertex -69 15 -16
      vertex -81 15 -16
    endloop
  endfacet
  facet normal 0 1 -0
    outer loop
      vertex -33 15 -16
      vertex -45 15 8
      vertex -33 15 8
    endloop
  endfacet
  facet normal 0 1 0
    outer loop
      vertex -45 15 8
      vertex -33 15 -16
      vertex -45 15 -16
    endloop
  endfacet
  facet normal 0 1 0
    outer loop
      vertex -33 15 8
      vertex 0 15 40
      vertex -9 15 8
    endloop
  endfacet
  facet normal 0 1 -0
    outer loop
      vertex 0 15 -38
      vertex -9 15 8
      vertex 0 15 40
    endloop
  endfacet
  facet normal 0 1 0
    outer loop
      vertex 0 15 -38
      vertex -33 15 -16
      vertex -9 15 -16
    endloop
  endfacet
  facet normal 0 1 0
    outer loop
      vertex -33 15 -16
      vertex 0 15 -38
      vertex -45 15 -16
    endloop
  endfacet
  facet normal 0 1 0
    outer loop
      vertex -45 15 -16
      vertex 0 15 -38
      vertex -69 15 -16
    endloop
  endfacet
  facet normal 0 1 0
    outer loop
      vertex -69 15 -16
      vertex 0 15 -38
      vertex -81 15 -16
    endloop
  endfacet
  facet normal 0 1 0
    outer loop
      vertex -165 15 -38
      vertex -81 15 -16
      vertex 0 15 -38
    endloop
  endfacet
  facet normal 0 1 0
    outer loop
      vertex -81 15 -16
      vertex -165 15 -38
      vertex -105 15 -16
    endloop
  endfacet
  facet normal 0 1 0
    outer loop
      vertex -105 15 -16
      vertex -165 15 -38
      vertex -117 15 -16
    endloop
  endfacet
  facet normal 0 1 0
    outer loop
      vertex -9 15 8
      vertex 0 15 -38
      vertex -9 15 -16
    endloop
  endfacet
  facet normal 0 1 0
    outer loop
      vertex -45 15 8
      vertex 0 15 40
      vertex -33 15 8
    endloop
  endfacet
  facet normal 0 1 0
    outer loop
      vertex -69 15 8
      vertex 0 15 40
      vertex -45 15 8
    endloop
  endfacet
  facet normal 0 1 0
    outer loop
      vertex -81 15 8
      vertex 0 15 40
      vertex -69 15 8
    endloop
  endfacet
  facet normal 0 1 0
    outer loop
      vertex 0 15 40
      vertex -81 15 8
      vertex -165 15 40
    endloop
  endfacet
  facet normal 0 1 -0
    outer loop
      vertex -105 15 8
      vertex -165 15 40
      vertex -81 15 8
    endloop
  endfacet
  facet normal 0 1 -0
    outer loop
      vertex -117 15 8
      vertex -165 15 40
      vertex -105 15 8
    endloop
  endfacet
  facet normal 0 1 -0
    outer loop
      vertex -141 15 8
      vertex -165 15 40
      vertex -117 15 8
    endloop
  endfacet
  facet normal 0 1 0
    outer loop
      vertex -165 15 -38
      vertex -141 15 8
      vertex -141 15 -16
    endloop
  endfacet
  facet normal 0 1 0
    outer loop
      vertex -141 15 8
      vertex -165 15 -38
      vertex -165 15 40
    endloop
  endfacet
  facet normal 0 1 0
    outer loop
      vertex -117 15 -16
      vertex -165 15 -38
      vertex -141 15 -16
    endloop
  endfacet
  facet normal 0 0 -1
    outer loop
      vertex 0 -23 -40
      vertex -163 -13 -40
      vertex 0 -13 -40
    endloop
  endfacet
  facet normal -0 0 -1
    outer loop
      vertex -163 -13 -40
      vertex -173 -23 -40
      vertex -163 13 -40
    endloop
  endfacet
  facet normal 0 0 -1
    outer loop
      vertex -173 -23 -40
      vertex -163 -13 -40
      vertex 0 -23 -40
    endloop
  endfacet
  facet normal 0 0 -1
    outer loop
      vertex -163 13 -40
      vertex 0 23 -40
      vertex 0 13 -40
    endloop
  endfacet
  facet normal 0 0 -1
    outer loop
      vertex -163 13 -40
      vertex -173 23 -40
      vertex 0 23 -40
    endloop
  endfacet
  facet normal 0 0 -1
    outer loop
      vertex -173 23 -40
      vertex -163 13 -40
      vertex -173 -23 -40
    endloop
  endfacet
  facet normal 0 -1 0
    outer loop
      vertex -165 -15 -38
      vertex 0 -15 40
      vertex -165 -15 40
    endloop
  endfacet
  facet normal 0 -1 -0
    outer loop
      vertex 0 -15 40
      vertex -165 -15 -38
      vertex 0 -15 -38
    endloop
  endfacet
  facet normal -1 0 0
    outer loop
      vertex -173 -23 -40
      vertex -173 23 -38
      vertex -173 23 -40
    endloop
  endfacet
  facet normal -1 -0 0
    outer loop
      vertex -173 23 -38
      vertex -173 -23 -40
      vertex -173 -23 -38
    endloop
  endfacet
  facet normal 0 0 1
    outer loop
      vertex 0 23 -38
      vertex -165 15 -38
      vertex 0 15 -38
    endloop
  endfacet
  facet normal 0 0 1
    outer loop
      vertex -165 15 -38
      vertex -173 23 -38
      vertex -165 -15 -38
    endloop
  endfacet
  facet normal -0 0 1
    outer loop
      vertex -173 23 -38
      vertex -165 15 -38
      vertex 0 23 -38
    endloop
  endfacet
  facet normal -0 0 1
    outer loop
      vertex -165 -15 -38
      vertex 0 -23 -38
      vertex 0 -15 -38
    endloop
  endfacet
  facet normal 0 0 1
    outer loop
      vertex -165 -15 -38
      vertex -173 -23 -38
      vertex 0 -23 -38
    endloop
  endfacet
  facet normal 0 0 1
    outer loop
      vertex -173 -23 -38
      vertex -165 -15 -38
      vertex -173 23 -38
    endloop
  endfacet
  facet normal 0 -1 0
    outer loop
      vertex -173 -23 -40
      vertex 0 -23 -38
      vertex -173 -23 -38
    endloop
  endfacet
  facet normal 0 -1 -0
    outer loop
      vertex 0 -23 -38
      vertex -173 -23 -40
      vertex 0 -23 -40
    endloop
  endfacet
  facet normal 0 1 -0
    outer loop
      vertex 0 23 -40
      vertex -173 23 -38
      vertex 0 23 -38
    endloop
  endfacet
  facet normal 0 1 0
    outer loop
      vertex -173 23 -38
      vertex 0 23 -40
      vertex -173 23 -40
    endloop
  endfacet
  facet normal 1 -0 0
    outer loop
      vertex -141 13 8
      vertex -141 15 -16
      vertex -141 15 8
    endloop
  endfacet
  facet normal 1 0 0
    outer loop
      vertex -141 15 -16
      vertex -141 13 8
      vertex -141 13 -16
    endloop
  endfacet
  facet normal 0 0 -1
    outer loop
      vertex -141 13 8
      vertex -117 15 8
      vertex -117 13 8
    endloop
  endfacet
  facet normal -0 0 -1
    outer loop
      vertex -117 15 8
      vertex -141 13 8
      vertex -141 15 8
    endloop
  endfacet
  facet normal -1 0 0
    outer loop
      vertex -117 13 -16
      vertex -117 15 8
      vertex -117 15 -16
    endloop
  endfacet
  facet normal -1 -0 0
    outer loop
      vertex -117 15 8
      vertex -117 13 -16
      vertex -117 13 8
    endloop
  endfacet
  facet normal -0 0 1
    outer loop
      vertex -141 15 -16
      vertex -117 13 -16
      vertex -117 15 -16
    endloop
  endfacet
  facet normal 0 0 1
    outer loop
      vertex -117 13 -16
      vertex -141 15 -16
      vertex -141 13 -16
    endloop
  endfacet
  facet normal 0 -1 0
    outer loop
      vertex -45 13 -16
      vertex -33 13 8
      vertex -45 13 8
    endloop
  endfacet
  facet normal 0 -1 -0
    outer loop
      vertex -33 13 8
      vertex -45 13 -16
      vertex -33 13 -16
    endloop
  endfacet
  facet normal 0 -1 0
    outer loop
      vertex -81 13 -16
      vertex -69 13 8
      vertex -81 13 8
    endloop
  endfacet
  facet normal 0 -1 -0
    outer loop
      vertex -69 13 8
      vertex -81 13 -16
      vertex -69 13 -16
    endloop
  endfacet
  facet normal 0 -1 0
    outer loop
      vertex -117 13 -16
      vertex -105 13 8
      vertex -117 13 8
    endloop
  endfacet
  facet normal 0 -1 -0
    outer loop
      vertex -105 13 8
      vertex -117 13 -16
      vertex -105 13 -16
    endloop
  endfacet
  facet normal 0 -1 0
    outer loop
      vertex -117 13 8
      vertex -163 13 40
      vertex -141 13 8
    endloop
  endfacet
  facet normal 0 -1 0
    outer loop
      vertex -163 13 -40
      vertex -141 13 8
      vertex -163 13 40
    endloop
  endfacet
  facet normal 0 -1 0
    outer loop
      vertex -163 13 -40
      vertex -117 13 -16
      vertex -141 13 -16
    endloop
  endfacet
  facet normal 0 -1 -0
    outer loop
      vertex -117 13 -16
      vertex -163 13 -40
      vertex -105 13 -16
    endloop
  endfacet
  facet normal 0 -1 -0
    outer loop
      vertex -105 13 -16
      vertex -163 13 -40
      vertex -81 13 -16
    endloop
  endfacet
  facet normal 0 -1 0
    outer loop
      vertex 0 13 -40
      vertex -81 13 -16
      vertex -163 13 -40
    endloop
  endfacet
  facet normal 0 -1 0
    outer loop
      vertex -81 13 -16
      vertex 0 13 -40
      vertex -69 13 -16
    endloop
  endfacet
  facet normal 0 -1 0
    outer loop
      vertex -69 13 -16
      vertex 0 13 -40
      vertex -45 13 -16
    endloop
  endfacet
  facet normal 0 -1 0
    outer loop
      vertex -45 13 -16
      vertex 0 13 -40
      vertex -33 13 -16
    endloop
  endfacet
  facet normal 0 -1 -0
    outer loop
      vertex -141 13 8
      vertex -163 13 -40
      vertex -141 13 -16
    endloop
  endfacet
  facet normal 0 -1 0
    outer loop
      vertex -105 13 8
      vertex -163 13 40
      vertex -117 13 8
    endloop
  endfacet
  facet normal 0 -1 0
    outer loop
      vertex -81 13 8
      vertex -163 13 40
      vertex -105 13 8
    endloop
  endfacet
  facet normal 0 -1 0
    outer loop
      vertex -163 13 40
      vertex -81 13 8
      vertex 0 13 40
    endloop
  endfacet
  facet normal 0 -1 0
    outer loop
      vertex -69 13 8
      vertex 0 13 40
      vertex -81 13 8
    endloop
  endfacet
  facet normal 0 -1 0
    outer loop
      vertex -45 13 8
      vertex 0 13 40
      vertex -69 13 8
    endloop
  endfacet
  facet normal 0 -1 0
    outer loop
      vertex -33 13 8
      vertex 0 13 40
      vertex -45 13 8
    endloop
  endfacet
  facet normal 0 -1 0
    outer loop
      vertex -9 13 8
      vertex 0 13 40
      vertex -33 13 8
    endloop
  endfacet
  facet normal 0 -1 0
    outer loop
      vertex 0 13 -40
      vertex -9 13 8
      vertex -9 13 -16
    endloop
  endfacet
  facet normal 0 -1 0
    outer loop
      vertex -9 13 8
      vertex 0 13 -40
      vertex 0 13 40
    endloop
  endfacet
  facet normal 0 -1 0
    outer loop
      vertex -33 13 -16
      vertex 0 13 -40
      vertex -9 13 -16
    endloop
  endfacet
  facet normal 1 -0 0
    outer loop
      vertex -105 13 8
      vertex -105 15 -16
      vertex -105 15 8
    endloop
  endfacet
  facet normal 1 0 0
    outer loop
      vertex -105 15 -16
      vertex -105 13 8
      vertex -105 13 -16
    endloop
  endfacet
  facet normal 0 0 -1
    outer loop
      vertex -105 13 8
      vertex -81 15 8
      vertex -81 13 8
    endloop
  endfacet
  facet normal -0 0 -1
    outer loop
      vertex -81 15 8
      vertex -105 13 8
      vertex -105 15 8
    endloop
  endfacet
  facet normal -1 0 0
    outer loop
      vertex -81 13 -16
      vertex -81 15 8
      vertex -81 15 -16
    endloop
  endfacet
  facet normal -1 -0 0
    outer loop
      vertex -81 15 8
      vertex -81 13 -16
      vertex -81 13 8
    endloop
  endfacet
  facet normal -0 0 1
    outer loop
      vertex -105 15 -16
      vertex -81 13 -16
      vertex -81 15 -16
    endloop
  endfacet
  facet normal 0 0 1
    outer loop
      vertex -81 13 -16
      vertex -105 15 -16
      vertex -105 13 -16
    endloop
  endfacet
  facet normal 1 -0 0
    outer loop
      vertex -69 13 8
      vertex -69 15 -16
      vertex -69 15 8
    endloop
  endfacet
  facet normal 1 0 0
    outer loop
      vertex -69 15 -16
      vertex -69 13 8
      vertex -69 13 -16
    endloop
  endfacet
  facet normal 0 0 -1
    outer loop
      vertex -69 13 8
      vertex -45 15 8
      vertex -45 13 8
    endloop
  endfacet
  facet normal -0 0 -1
    outer loop
      vertex -45 15 8
      vertex -69 13 8
      vertex -69 15 8
    endloop
  endfacet
  facet normal -1 0 0
    outer loop
      vertex -45 13 -16
      vertex -45 15 8
      vertex -45 15 -16
    endloop
  endfacet
  facet normal -1 -0 0
    outer loop
      vertex -45 15 8
      vertex -45 13 -16
      vertex -45 13 8
    endloop
  endfacet
  facet normal -0 0 1
    outer loop
      vertex -69 15 -16
      vertex -45 13 -16
      vertex -45 15 -16
    endloop
  endfacet
  facet normal 0 0 1
    outer loop
      vertex -45 13 -16
      vertex -69 15 -16
      vertex -69 13 -16
    endloop
  endfacet
  facet normal 1 -0 0
    outer loop
      vertex -33 13 8
      vertex -33 15 -16
      vertex -33 15 8
    endloop
  endfacet
  facet normal 1 0 0
    outer loop
      vertex -33 15 -16
      vertex -33 13 8
      vertex -33 13 -16
    endloop
  endfacet
  facet normal 0 0 -1
    outer loop
      vertex -33 13 8
      vertex -9 15 8
      vertex -9 13 8
    endloop
  endfacet
  facet normal -0 0 -1
    outer loop
      vertex -9 15 8
      vertex -33 13 8
      vertex -33 15 8
    endloop
  endfacet
  facet normal -1 0 0
    outer loop
      vertex -9 13 -16
      vertex -9 15 8
      vertex -9 15 -16
    endloop
  endfacet
  facet normal -1 -0 0
    outer loop
      vertex -9 15 8
      vertex -9 13 -16
      vertex -9 13 8
    endloop
  endfacet
  facet normal -0 0 1
    outer loop
      vertex -33 15 -16
      vertex -9 13 -16
      vertex -9 15 -16
    endloop
  endfacet
  facet normal 0 0 1
    outer loop
      vertex -9 13 -16
      vertex -33 15 -16
      vertex -33 13 -16
    endloop
  endfacet
  facet normal 1 -0 0
    outer loop
      vertex -163 -13 40
      vertex -163 13 -40
      vertex -163 13 40
    endloop
  endfacet
  facet normal 1 0 0
    outer loop
      vertex -163 13 -40
      vertex -163 -13 40
      vertex -163 -13 -40
    endloop
  endfacet
  facet normal 0 1 -0
    outer loop
      vertex 0 -13 -40
      vertex -163 -13 40
      vertex 0 -13 40
    endloop
  endfacet
  facet normal 0 1 0
    outer loop
      vertex -163 -13 40
      vertex 0 -13 -40
      vertex -163 -13 -40
    endloop
  endfacet
  facet normal 1 0 0
    outer loop
      vertex 0 -15 -38
      vertex 0 -13 40
      vertex 0 -15 40
    endloop
  endfacet
  facet normal 1 0 0
    outer loop
      vertex 0 -13 40
      vertex 0 -15 -38
      vertex 0 -13 -40
    endloop
  endfacet
  facet normal 1 0 0
    outer loop
      vertex 0 -23 -40
      vertex 0 -15 -38
      vertex 0 -23 -38
    endloop
  endfacet
  facet normal 1 0 0
    outer loop
      vertex 0 -15 -38
      vertex 0 -23 -40
      vertex 0 -13 -40
    endloop
  endfacet
  facet normal 1 0 0
    outer loop
      vertex 0 15 40
      vertex 0 13 40
      vertex 0 15 -38
    endloop
  endfacet
  facet normal 1 -0 0
    outer loop
      vertex 0 15 -38
      vertex 0 23 -40
      vertex 0 23 -38
    endloop
  endfacet
  facet normal 1 0 0
    outer loop
      vertex 0 15 -38
      vertex 0 13 -40
      vertex 0 23 -40
    endloop
  endfacet
  facet normal 1 0 0
    outer loop
      vertex 0 13 -40
      vertex 0 15 -38
      vertex 0 13 40
    endloop
  endfacet
endsolid OpenSCAD_Model
