solid OpenSCAD_Model
  facet normal -0 0 1
    outer loop
      vertex -5.6 80 50
      vertex 5.6 -80 50
      vertex 5.6 80 50
    endloop
  endfacet
  facet normal 0 0 1
    outer loop
      vertex 5.6 -80 50
      vertex -5.6 80 50
      vertex -5.6 -80 50
    endloop
  endfacet
  facet normal 0 0 -1
    outer loop
      vertex -5.6 -80 -50
      vertex 5.6 80 -50
      vertex 5.6 -80 -50
    endloop
  endfacet
  facet normal -0 0 -1
    outer loop
      vertex 5.6 80 -50
      vertex -5.6 -80 -50
      vertex -5.6 80 -50
    endloop
  endfacet
  facet normal 0 -1 0
    outer loop
      vertex -5.6 -80 -50
      vertex 5.6 -80 50
      vertex -5.6 -80 50
    endloop
  endfacet
  facet normal 0 -1 -0
    outer loop
      vertex 5.6 -80 50
      vertex -5.6 -80 -50
      vertex 5.6 -80 -50
    endloop
  endfacet
  facet normal 1 -0 0
    outer loop
      vertex 5.6 -80 50
      vertex 5.6 80 -50
      vertex 5.6 80 50
    endloop
  endfacet
  facet normal 1 0 0
    outer loop
      vertex 5.6 80 -50
      vertex 5.6 -80 50
      vertex 5.6 -80 -50
    endloop
  endfacet
  facet normal 0 1 -0
    outer loop
      vertex 5.6 80 -50
      vertex -5.6 80 50
      vertex 5.6 80 50
    endloop
  endfacet
  facet normal 0 1 0
    outer loop
      vertex -5.6 80 50
      vertex 5.6 80 -50
      vertex -5.6 80 -50
    endloop
  endfacet
  facet normal -1 0 0
    outer loop
      vertex -5.6 -80 -50
      vertex -5.6 80 50
      vertex -5.6 80 -50
    endloop
  endfacet
  facet normal -1 -0 0
    outer loop
      vertex -5.6 80 50
      vertex -5.6 -80 -50
      vertex -5.6 -80 50
    endloop
  endfacet
endsolid OpenSCAD_Model
