solid OpenSCAD_Model
  facet normal -1 0 0
    outer loop
      vertex -165 -20 -38
      vertex -165 20 40
      vertex -165 20 -38
    endloop
  endfacet
  facet normal -1 -0 0
    outer loop
      vertex -165 20 40
      vertex -165 -20 -38
      vertex -165 -20 40
    endloop
  endfacet
  facet normal 0 0 1
    outer loop
      vertex 165 20 40
      vertex 163 18 40
      vertex 165 -20 40
    endloop
  endfacet
  facet normal 0 0 1
    outer loop
      vertex 165 20 40
      vertex -163 18 40
      vertex 163 18 40
    endloop
  endfacet
  facet normal 0 0 1
    outer loop
      vertex -163 18 40
      vertex -165 20 40
      vertex -163 -18 40
    endloop
  endfacet
  facet normal -0 0 1
    outer loop
      vertex -165 20 40
      vertex -163 18 40
      vertex 165 20 40
    endloop
  endfacet
  facet normal -0 0 1
    outer loop
      vertex 163 -18 40
      vertex 165 -20 40
      vertex 163 18 40
    endloop
  endfacet
  facet normal -0 0 1
    outer loop
      vertex -163 -18 40
      vertex 165 -20 40
      vertex 163 -18 40
    endloop
  endfacet
  facet normal 0 0 1
    outer loop
      vertex -163 -18 40
      vertex -165 -20 40
      vertex 165 -20 40
    endloop
  endfacet
  facet normal 0 0 1
    outer loop
      vertex -165 -20 40
      vertex -163 -18 40
      vertex -165 20 40
    endloop
  endfacet
  facet normal 1 -0 0
    outer loop
      vertex 165 -20 40
      vertex 165 20 -38
      vertex 165 20 40
    endloop
  endfacet
  facet normal 1 0 0
    outer loop
      vertex 165 20 -38
      vertex 165 -20 40
      vertex 165 -20 -38
    endloop
  endfacet
  facet normal 0 0 -1
    outer loop
      vertex 173 -28 -40
      vertex 163 -18 -40
      vertex 173 28 -40
    endloop
  endfacet
  facet normal 0 0 -1
    outer loop
      vertex 173 -28 -40
      vertex -163 -18 -40
      vertex 163 -18 -40
    endloop
  endfacet
  facet normal -0 0 -1
    outer loop
      vertex -163 -18 -40
      vertex -173 -28 -40
      vertex -163 18 -40
    endloop
  endfacet
  facet normal 0 0 -1
    outer loop
      vertex -173 -28 -40
      vertex -163 -18 -40
      vertex 173 -28 -40
    endloop
  endfacet
  facet normal 0 0 -1
    outer loop
      vertex 163 18 -40
      vertex 173 28 -40
      vertex 163 -18 -40
    endloop
  endfacet
  facet normal 0 0 -1
    outer loop
      vertex -163 18 -40
      vertex 173 28 -40
      vertex 163 18 -40
    endloop
  endfacet
  facet normal 0 0 -1
    outer loop
      vertex -163 18 -40
      vertex -173 28 -40
      vertex 173 28 -40
    endloop
  endfacet
  facet normal 0 0 -1
    outer loop
      vertex -173 28 -40
      vertex -163 18 -40
      vertex -173 -28 -40
    endloop
  endfacet
  facet normal 0 -1 0
    outer loop
      vertex -165 -20 -38
      vertex 165 -20 40
      vertex -165 -20 40
    endloop
  endfacet
  facet normal 0 -1 -0
    outer loop
      vertex 165 -20 40
      vertex -165 -20 -38
      vertex 165 -20 -38
    endloop
  endfacet
  facet normal 0 1 -0
    outer loop
      vertex -105 20 -28
      vertex -117 20 -4
      vertex -105 20 -4
    endloop
  endfacet
  facet normal 0 1 0
    outer loop
      vertex -117 20 -4
      vertex -105 20 -28
      vertex -117 20 -28
    endloop
  endfacet
  facet normal 0 1 -0
    outer loop
      vertex -69 20 -28
      vertex -81 20 -4
      vertex -69 20 -4
    endloop
  endfacet
  facet normal 0 1 0
    outer loop
      vertex -81 20 -4
      vertex -69 20 -28
      vertex -81 20 -28
    endloop
  endfacet
  facet normal 0 1 -0
    outer loop
      vertex -33 20 -28
      vertex -45 20 -4
      vertex -33 20 -4
    endloop
  endfacet
  facet normal 0 1 0
    outer loop
      vertex -45 20 -4
      vertex -33 20 -28
      vertex -45 20 -28
    endloop
  endfacet
  facet normal 0 1 -0
    outer loop
      vertex 3 20 -28
      vertex -9 20 -4
      vertex 3 20 -4
    endloop
  endfacet
  facet normal 0 1 0
    outer loop
      vertex -9 20 -4
      vertex 3 20 -28
      vertex -9 20 -28
    endloop
  endfacet
  facet normal 0 1 -0
    outer loop
      vertex 39 20 -28
      vertex 27 20 -4
      vertex 39 20 -4
    endloop
  endfacet
  facet normal 0 1 0
    outer loop
      vertex 27 20 -4
      vertex 39 20 -28
      vertex 27 20 -28
    endloop
  endfacet
  facet normal 0 1 -0
    outer loop
      vertex 75 20 -28
      vertex 63 20 -4
      vertex 75 20 -4
    endloop
  endfacet
  facet normal 0 1 0
    outer loop
      vertex 63 20 -4
      vertex 75 20 -28
      vertex 63 20 -28
    endloop
  endfacet
  facet normal 0 1 -0
    outer loop
      vertex 111 20 -28
      vertex 99 20 -4
      vertex 111 20 -4
    endloop
  endfacet
  facet normal 0 1 0
    outer loop
      vertex 99 20 -4
      vertex 111 20 -28
      vertex 99 20 -28
    endloop
  endfacet
  facet normal 0 1 0
    outer loop
      vertex 111 20 -4
      vertex 165 20 40
      vertex 135 20 -4
    endloop
  endfacet
  facet normal 0 1 -0
    outer loop
      vertex 165 20 -38
      vertex 135 20 -4
      vertex 165 20 40
    endloop
  endfacet
  facet normal 0 1 0
    outer loop
      vertex 165 20 -38
      vertex 111 20 -28
      vertex 135 20 -28
    endloop
  endfacet
  facet normal 0 1 0
    outer loop
      vertex 111 20 -28
      vertex 165 20 -38
      vertex 99 20 -28
    endloop
  endfacet
  facet normal 0 1 0
    outer loop
      vertex 99 20 -28
      vertex 165 20 -38
      vertex 75 20 -28
    endloop
  endfacet
  facet normal 0 1 0
    outer loop
      vertex 75 20 -28
      vertex 165 20 -38
      vertex 63 20 -28
    endloop
  endfacet
  facet normal 0 1 0
    outer loop
      vertex 63 20 -28
      vertex 165 20 -38
      vertex 39 20 -28
    endloop
  endfacet
  facet normal 0 1 0
    outer loop
      vertex 39 20 -28
      vertex 165 20 -38
      vertex 27 20 -28
    endloop
  endfacet
  facet normal 0 1 0
    outer loop
      vertex 27 20 -28
      vertex 165 20 -38
      vertex 3 20 -28
    endloop
  endfacet
  facet normal 0 1 0
    outer loop
      vertex 3 20 -28
      vertex 165 20 -38
      vertex -9 20 -28
    endloop
  endfacet
  facet normal 0 1 0
    outer loop
      vertex -165 20 -38
      vertex -9 20 -28
      vertex 165 20 -38
    endloop
  endfacet
  facet normal 0 1 0
    outer loop
      vertex -9 20 -28
      vertex -165 20 -38
      vertex -33 20 -28
    endloop
  endfacet
  facet normal 0 1 0
    outer loop
      vertex -33 20 -28
      vertex -165 20 -38
      vertex -45 20 -28
    endloop
  endfacet
  facet normal 0 1 0
    outer loop
      vertex -45 20 -28
      vertex -165 20 -38
      vertex -69 20 -28
    endloop
  endfacet
  facet normal 0 1 0
    outer loop
      vertex -69 20 -28
      vertex -165 20 -38
      vertex -81 20 -28
    endloop
  endfacet
  facet normal 0 1 0
    outer loop
      vertex -81 20 -28
      vertex -165 20 -38
      vertex -105 20 -28
    endloop
  endfacet
  facet normal 0 1 0
    outer loop
      vertex -105 20 -28
      vertex -165 20 -38
      vertex -117 20 -28
    endloop
  endfacet
  facet normal 0 1 0
    outer loop
      vertex 135 20 -4
      vertex 165 20 -38
      vertex 135 20 -28
    endloop
  endfacet
  facet normal 0 1 0
    outer loop
      vertex 99 20 -4
      vertex 165 20 40
      vertex 111 20 -4
    endloop
  endfacet
  facet normal 0 1 0
    outer loop
      vertex 75 20 -4
      vertex 165 20 40
      vertex 99 20 -4
    endloop
  endfacet
  facet normal 0 1 0
    outer loop
      vertex 63 20 -4
      vertex 165 20 40
      vertex 75 20 -4
    endloop
  endfacet
  facet normal 0 1 0
    outer loop
      vertex 39 20 -4
      vertex 165 20 40
      vertex 63 20 -4
    endloop
  endfacet
  facet normal 0 1 0
    outer loop
      vertex 27 20 -4
      vertex 165 20 40
      vertex 39 20 -4
    endloop
  endfacet
  facet normal 0 1 0
    outer loop
      vertex 3 20 -4
      vertex 165 20 40
      vertex 27 20 -4
    endloop
  endfacet
  facet normal 0 1 0
    outer loop
      vertex 165 20 40
      vertex 3 20 -4
      vertex -165 20 40
    endloop
  endfacet
  facet normal 0 1 -0
    outer loop
      vertex -9 20 -4
      vertex -165 20 40
      vertex 3 20 -4
    endloop
  endfacet
  facet normal 0 1 -0
    outer loop
      vertex -33 20 -4
      vertex -165 20 40
      vertex -9 20 -4
    endloop
  endfacet
  facet normal 0 1 -0
    outer loop
      vertex -45 20 -4
      vertex -165 20 40
      vertex -33 20 -4
    endloop
  endfacet
  facet normal 0 1 -0
    outer loop
      vertex -69 20 -4
      vertex -165 20 40
      vertex -45 20 -4
    endloop
  endfacet
  facet normal 0 1 -0
    outer loop
      vertex -81 20 -4
      vertex -165 20 40
      vertex -69 20 -4
    endloop
  endfacet
  facet normal 0 1 -0
    outer loop
      vertex -105 20 -4
      vertex -165 20 40
      vertex -81 20 -4
    endloop
  endfacet
  facet normal 0 1 -0
    outer loop
      vertex -117 20 -4
      vertex -165 20 40
      vertex -105 20 -4
    endloop
  endfacet
  facet normal 0 1 -0
    outer loop
      vertex -141 20 -4
      vertex -165 20 40
      vertex -117 20 -4
    endloop
  endfacet
  facet normal 0 1 0
    outer loop
      vertex -165 20 -38
      vertex -141 20 -4
      vertex -141 20 -28
    endloop
  endfacet
  facet normal 0 1 0
    outer loop
      vertex -141 20 -4
      vertex -165 20 -38
      vertex -165 20 40
    endloop
  endfacet
  facet normal 0 1 0
    outer loop
      vertex -117 20 -28
      vertex -165 20 -38
      vertex -141 20 -28
    endloop
  endfacet
  facet normal -1 0 0
    outer loop
      vertex -173 -28 -40
      vertex -173 28 -38
      vertex -173 28 -40
    endloop
  endfacet
  facet normal -1 -0 0
    outer loop
      vertex -173 28 -38
      vertex -173 -28 -40
      vertex -173 -28 -38
    endloop
  endfacet
  facet normal 0 0 1
    outer loop
      vertex 173 28 -38
      vertex 165 20 -38
      vertex 173 -28 -38
    endloop
  endfacet
  facet normal 0 0 1
    outer loop
      vertex 173 28 -38
      vertex -165 20 -38
      vertex 165 20 -38
    endloop
  endfacet
  facet normal 0 0 1
    outer loop
      vertex -165 20 -38
      vertex -173 28 -38
      vertex -165 -20 -38
    endloop
  endfacet
  facet normal -0 0 1
    outer loop
      vertex -173 28 -38
      vertex -165 20 -38
      vertex 173 28 -38
    endloop
  endfacet
  facet normal -0 0 1
    outer loop
      vertex 165 -20 -38
      vertex 173 -28 -38
      vertex 165 20 -38
    endloop
  endfacet
  facet normal -0 0 1
    outer loop
      vertex -165 -20 -38
      vertex 173 -28 -38
      vertex 165 -20 -38
    endloop
  endfacet
  facet normal 0 0 1
    outer loop
      vertex -165 -20 -38
      vertex -173 -28 -38
      vertex 173 -28 -38
    endloop
  endfacet
  facet normal 0 0 1
    outer loop
      vertex -173 -28 -38
      vertex -165 -20 -38
      vertex -173 28 -38
    endloop
  endfacet
  facet normal 1 -0 0
    outer loop
      vertex 173 -28 -38
      vertex 173 28 -40
      vertex 173 28 -38
    endloop
  endfacet
  facet normal 1 0 0
    outer loop
      vertex 173 28 -40
      vertex 173 -28 -38
      vertex 173 -28 -40
    endloop
  endfacet
  facet normal 0 1 -0
    outer loop
      vertex 173 28 -40
      vertex -173 28 -38
      vertex 173 28 -38
    endloop
  endfacet
  facet normal 0 1 0
    outer loop
      vertex -173 28 -38
      vertex 173 28 -40
      vertex -173 28 -40
    endloop
  endfacet
  facet normal 0 -1 0
    outer loop
      vertex -173 -28 -40
      vertex 173 -28 -38
      vertex -173 -28 -38
    endloop
  endfacet
  facet normal 0 -1 -0
    outer loop
      vertex 173 -28 -38
      vertex -173 -28 -40
      vertex 173 -28 -40
    endloop
  endfacet
  facet normal 1 -0 0
    outer loop
      vertex -141 19 -4
      vertex -141 20 -28
      vertex -141 20 -4
    endloop
  endfacet
  facet normal 1 0 0
    outer loop
      vertex -141 20 -28
      vertex -141 19 -4
      vertex -141 19 -28
    endloop
  endfacet
  facet normal 0 0 -1
    outer loop
      vertex -141 19 -4
      vertex -117 20 -4
      vertex -117 19 -4
    endloop
  endfacet
  facet normal -0 0 -1
    outer loop
      vertex -117 20 -4
      vertex -141 19 -4
      vertex -141 20 -4
    endloop
  endfacet
  facet normal -1 0 0
    outer loop
      vertex -117 19 -28
      vertex -117 20 -4
      vertex -117 20 -28
    endloop
  endfacet
  facet normal -1 -0 0
    outer loop
      vertex -117 20 -4
      vertex -117 19 -28
      vertex -117 19 -4
    endloop
  endfacet
  facet normal -0 0 1
    outer loop
      vertex -141 20 -28
      vertex -117 19 -28
      vertex -117 20 -28
    endloop
  endfacet
  facet normal 0 0 1
    outer loop
      vertex -117 19 -28
      vertex -141 20 -28
      vertex -141 19 -28
    endloop
  endfacet
  facet normal 0 1 -0
    outer loop
      vertex -117 19 -28
      vertex -141 19 -4
      vertex -117 19 -4
    endloop
  endfacet
  facet normal 0 1 0
    outer loop
      vertex -141 19 -4
      vertex -117 19 -28
      vertex -141 19 -28
    endloop
  endfacet
  facet normal 1 -0 0
    outer loop
      vertex -105 19 -4
      vertex -105 20 -28
      vertex -105 20 -4
    endloop
  endfacet
  facet normal 1 0 0
    outer loop
      vertex -105 20 -28
      vertex -105 19 -4
      vertex -105 19 -28
    endloop
  endfacet
  facet normal 0 0 -1
    outer loop
      vertex -105 19 -4
      vertex -81 20 -4
      vertex -81 19 -4
    endloop
  endfacet
  facet normal -0 0 -1
    outer loop
      vertex -81 20 -4
      vertex -105 19 -4
      vertex -105 20 -4
    endloop
  endfacet
  facet normal -1 0 0
    outer loop
      vertex -81 19 -28
      vertex -81 20 -4
      vertex -81 20 -28
    endloop
  endfacet
  facet normal -1 -0 0
    outer loop
      vertex -81 20 -4
      vertex -81 19 -28
      vertex -81 19 -4
    endloop
  endfacet
  facet normal -0 0 1
    outer loop
      vertex -105 20 -28
      vertex -81 19 -28
      vertex -81 20 -28
    endloop
  endfacet
  facet normal 0 0 1
    outer loop
      vertex -81 19 -28
      vertex -105 20 -28
      vertex -105 19 -28
    endloop
  endfacet
  facet normal 0 1 -0
    outer loop
      vertex -81 19 -28
      vertex -105 19 -4
      vertex -81 19 -4
    endloop
  endfacet
  facet normal 0 1 0
    outer loop
      vertex -105 19 -4
      vertex -81 19 -28
      vertex -105 19 -28
    endloop
  endfacet
  facet normal 1 -0 0
    outer loop
      vertex -69 19 -4
      vertex -69 20 -28
      vertex -69 20 -4
    endloop
  endfacet
  facet normal 1 0 0
    outer loop
      vertex -69 20 -28
      vertex -69 19 -4
      vertex -69 19 -28
    endloop
  endfacet
  facet normal 0 0 -1
    outer loop
      vertex -69 19 -4
      vertex -45 20 -4
      vertex -45 19 -4
    endloop
  endfacet
  facet normal -0 0 -1
    outer loop
      vertex -45 20 -4
      vertex -69 19 -4
      vertex -69 20 -4
    endloop
  endfacet
  facet normal -1 0 0
    outer loop
      vertex -45 19 -28
      vertex -45 20 -4
      vertex -45 20 -28
    endloop
  endfacet
  facet normal -1 -0 0
    outer loop
      vertex -45 20 -4
      vertex -45 19 -28
      vertex -45 19 -4
    endloop
  endfacet
  facet normal -0 0 1
    outer loop
      vertex -69 20 -28
      vertex -45 19 -28
      vertex -45 20 -28
    endloop
  endfacet
  facet normal 0 0 1
    outer loop
      vertex -45 19 -28
      vertex -69 20 -28
      vertex -69 19 -28
    endloop
  endfacet
  facet normal 0 1 -0
    outer loop
      vertex -45 19 -28
      vertex -69 19 -4
      vertex -45 19 -4
    endloop
  endfacet
  facet normal 0 1 0
    outer loop
      vertex -69 19 -4
      vertex -45 19 -28
      vertex -69 19 -28
    endloop
  endfacet
  facet normal 1 -0 0
    outer loop
      vertex -33 19 -4
      vertex -33 20 -28
      vertex -33 20 -4
    endloop
  endfacet
  facet normal 1 0 0
    outer loop
      vertex -33 20 -28
      vertex -33 19 -4
      vertex -33 19 -28
    endloop
  endfacet
  facet normal 0 0 -1
    outer loop
      vertex -33 19 -4
      vertex -9 20 -4
      vertex -9 19 -4
    endloop
  endfacet
  facet normal -0 0 -1
    outer loop
      vertex -9 20 -4
      vertex -33 19 -4
      vertex -33 20 -4
    endloop
  endfacet
  facet normal -1 0 0
    outer loop
      vertex -9 19 -28
      vertex -9 20 -4
      vertex -9 20 -28
    endloop
  endfacet
  facet normal -1 -0 0
    outer loop
      vertex -9 20 -4
      vertex -9 19 -28
      vertex -9 19 -4
    endloop
  endfacet
  facet normal -0 0 1
    outer loop
      vertex -33 20 -28
      vertex -9 19 -28
      vertex -9 20 -28
    endloop
  endfacet
  facet normal 0 0 1
    outer loop
      vertex -9 19 -28
      vertex -33 20 -28
      vertex -33 19 -28
    endloop
  endfacet
  facet normal 0 1 -0
    outer loop
      vertex -9 19 -28
      vertex -33 19 -4
      vertex -9 19 -4
    endloop
  endfacet
  facet normal 0 1 0
    outer loop
      vertex -33 19 -4
      vertex -9 19 -28
      vertex -33 19 -28
    endloop
  endfacet
  facet normal 1 -0 0
    outer loop
      vertex 3 19 -4
      vertex 3 20 -28
      vertex 3 20 -4
    endloop
  endfacet
  facet normal 1 0 0
    outer loop
      vertex 3 20 -28
      vertex 3 19 -4
      vertex 3 19 -28
    endloop
  endfacet
  facet normal 0 0 -1
    outer loop
      vertex 3 19 -4
      vertex 27 20 -4
      vertex 27 19 -4
    endloop
  endfacet
  facet normal -0 0 -1
    outer loop
      vertex 27 20 -4
      vertex 3 19 -4
      vertex 3 20 -4
    endloop
  endfacet
  facet normal -1 0 0
    outer loop
      vertex 27 19 -28
      vertex 27 20 -4
      vertex 27 20 -28
    endloop
  endfacet
  facet normal -1 -0 0
    outer loop
      vertex 27 20 -4
      vertex 27 19 -28
      vertex 27 19 -4
    endloop
  endfacet
  facet normal -0 0 1
    outer loop
      vertex 3 20 -28
      vertex 27 19 -28
      vertex 27 20 -28
    endloop
  endfacet
  facet normal 0 0 1
    outer loop
      vertex 27 19 -28
      vertex 3 20 -28
      vertex 3 19 -28
    endloop
  endfacet
  facet normal 0 1 -0
    outer loop
      vertex 27 19 -28
      vertex 3 19 -4
      vertex 27 19 -4
    endloop
  endfacet
  facet normal 0 1 0
    outer loop
      vertex 3 19 -4
      vertex 27 19 -28
      vertex 3 19 -28
    endloop
  endfacet
  facet normal 1 -0 0
    outer loop
      vertex 39 19 -4
      vertex 39 20 -28
      vertex 39 20 -4
    endloop
  endfacet
  facet normal 1 0 0
    outer loop
      vertex 39 20 -28
      vertex 39 19 -4
      vertex 39 19 -28
    endloop
  endfacet
  facet normal 0 0 -1
    outer loop
      vertex 39 19 -4
      vertex 63 20 -4
      vertex 63 19 -4
    endloop
  endfacet
  facet normal -0 0 -1
    outer loop
      vertex 63 20 -4
      vertex 39 19 -4
      vertex 39 20 -4
    endloop
  endfacet
  facet normal -1 0 0
    outer loop
      vertex 63 19 -28
      vertex 63 20 -4
      vertex 63 20 -28
    endloop
  endfacet
  facet normal -1 -0 0
    outer loop
      vertex 63 20 -4
      vertex 63 19 -28
      vertex 63 19 -4
    endloop
  endfacet
  facet normal -0 0 1
    outer loop
      vertex 39 20 -28
      vertex 63 19 -28
      vertex 63 20 -28
    endloop
  endfacet
  facet normal 0 0 1
    outer loop
      vertex 63 19 -28
      vertex 39 20 -28
      vertex 39 19 -28
    endloop
  endfacet
  facet normal 0 1 -0
    outer loop
      vertex 63 19 -28
      vertex 39 19 -4
      vertex 63 19 -4
    endloop
  endfacet
  facet normal 0 1 0
    outer loop
      vertex 39 19 -4
      vertex 63 19 -28
      vertex 39 19 -28
    endloop
  endfacet
  facet normal 1 -0 0
    outer loop
      vertex 75 19 -4
      vertex 75 20 -28
      vertex 75 20 -4
    endloop
  endfacet
  facet normal 1 0 0
    outer loop
      vertex 75 20 -28
      vertex 75 19 -4
      vertex 75 19 -28
    endloop
  endfacet
  facet normal 0 0 -1
    outer loop
      vertex 75 19 -4
      vertex 99 20 -4
      vertex 99 19 -4
    endloop
  endfacet
  facet normal -0 0 -1
    outer loop
      vertex 99 20 -4
      vertex 75 19 -4
      vertex 75 20 -4
    endloop
  endfacet
  facet normal -1 0 0
    outer loop
      vertex 99 19 -28
      vertex 99 20 -4
      vertex 99 20 -28
    endloop
  endfacet
  facet normal -1 -0 0
    outer loop
      vertex 99 20 -4
      vertex 99 19 -28
      vertex 99 19 -4
    endloop
  endfacet
  facet normal -0 0 1
    outer loop
      vertex 75 20 -28
      vertex 99 19 -28
      vertex 99 20 -28
    endloop
  endfacet
  facet normal 0 0 1
    outer loop
      vertex 99 19 -28
      vertex 75 20 -28
      vertex 75 19 -28
    endloop
  endfacet
  facet normal 0 1 -0
    outer loop
      vertex 99 19 -28
      vertex 75 19 -4
      vertex 99 19 -4
    endloop
  endfacet
  facet normal 0 1 0
    outer loop
      vertex 75 19 -4
      vertex 99 19 -28
      vertex 75 19 -28
    endloop
  endfacet
  facet normal 1 -0 0
    outer loop
      vertex 111 19 -4
      vertex 111 20 -28
      vertex 111 20 -4
    endloop
  endfacet
  facet normal 1 0 0
    outer loop
      vertex 111 20 -28
      vertex 111 19 -4
      vertex 111 19 -28
    endloop
  endfacet
  facet normal 0 0 -1
    outer loop
      vertex 111 19 -4
      vertex 135 20 -4
      vertex 135 19 -4
    endloop
  endfacet
  facet normal -0 0 -1
    outer loop
      vertex 135 20 -4
      vertex 111 19 -4
      vertex 111 20 -4
    endloop
  endfacet
  facet normal -1 0 0
    outer loop
      vertex 135 19 -28
      vertex 135 20 -4
      vertex 135 20 -28
    endloop
  endfacet
  facet normal -1 -0 0
    outer loop
      vertex 135 20 -4
      vertex 135 19 -28
      vertex 135 19 -4
    endloop
  endfacet
  facet normal -0 0 1
    outer loop
      vertex 111 20 -28
      vertex 135 19 -28
      vertex 135 20 -28
    endloop
  endfacet
  facet normal 0 0 1
    outer loop
      vertex 135 19 -28
      vertex 111 20 -28
      vertex 111 19 -28
    endloop
  endfacet
  facet normal 0 1 -0
    outer loop
      vertex 135 19 -28
      vertex 111 19 -4
      vertex 135 19 -4
    endloop
  endfacet
  facet normal 0 1 0
    outer loop
      vertex 111 19 -4
      vertex 135 19 -28
      vertex 111 19 -28
    endloop
  endfacet
  facet normal 1 -0 0
    outer loop
      vertex -163 -18 40
      vertex -163 18 -40
      vertex -163 18 40
    endloop
  endfacet
  facet normal 1 0 0
    outer loop
      vertex -163 18 -40
      vertex -163 -18 40
      vertex -163 -18 -40
    endloop
  endfacet
  facet normal -1 0 0
    outer loop
      vertex 163 -18 -40
      vertex 163 18 40
      vertex 163 18 -40
    endloop
  endfacet
  facet normal -1 -0 0
    outer loop
      vertex 163 18 40
      vertex 163 -18 -40
      vertex 163 -18 40
    endloop
  endfacet
  facet normal 0 -1 0
    outer loop
      vertex -163 18 -40
      vertex 163 18 40
      vertex -163 18 40
    endloop
  endfacet
  facet normal 0 -1 -0
    outer loop
      vertex 163 18 40
      vertex -163 18 -40
      vertex 163 18 -40
    endloop
  endfacet
  facet normal 0 1 -0
    outer loop
      vertex 163 -18 -40
      vertex -163 -18 40
      vertex 163 -18 40
    endloop
  endfacet
  facet normal 0 1 0
    outer loop
      vertex -163 -18 40
      vertex 163 -18 -40
      vertex -163 -18 -40
    endloop
  endfacet
endsolid OpenSCAD_Model
