solid OpenSCAD_Model
  facet normal -1 0 0
    outer loop
      vertex 0 0 0
      vertex 0 3.25 15
      vertex 0 3.25 0
    endloop
  endfacet
  facet normal -1 -0 0
    outer loop
      vertex 0 3.25 15
      vertex 0 0 0
      vertex 0 0 15
    endloop
  endfacet
  facet normal -1 0 0
    outer loop
      vertex 0 6.75 0
      vertex 0 10 15
      vertex 0 10 0
    endloop
  endfacet
  facet normal -1 -0 0
    outer loop
      vertex 0 10 15
      vertex 0 6.75 0
      vertex 0 6.75 15
    endloop
  endfacet
  facet normal 0 0 1
    outer loop
      vertex 15 10 15
      vertex 11.01 7.25 15
      vertex 15 7.25 15
    endloop
  endfacet
  facet normal 0 0 1
    outer loop
      vertex 11.01 7.25 15
      vertex 3.49 6.75 15
      vertex 11.01 2.75 15
    endloop
  endfacet
  facet normal -0 0 1
    outer loop
      vertex 0 10 15
      vertex 11.01 7.25 15
      vertex 15 10 15
    endloop
  endfacet
  facet normal 0 0 1
    outer loop
      vertex 11.01 7.25 15
      vertex 0 10 15
      vertex 3.49 6.75 15
    endloop
  endfacet
  facet normal 0 0 1
    outer loop
      vertex 3.49 6.75 15
      vertex 0 10 15
      vertex 0 6.75 15
    endloop
  endfacet
  facet normal -0 0 1
    outer loop
      vertex 11.01 2.75 15
      vertex 15 0 15
      vertex 15 2.75 15
    endloop
  endfacet
  facet normal -0 0 1
    outer loop
      vertex 3.49 3.25 15
      vertex 11.01 2.75 15
      vertex 3.49 6.75 15
    endloop
  endfacet
  facet normal 0 0 1
    outer loop
      vertex 0 0 15
      vertex 11.01 2.75 15
      vertex 3.49 3.25 15
    endloop
  endfacet
  facet normal 0 0 1
    outer loop
      vertex 0 0 15
      vertex 3.49 3.25 15
      vertex 0 3.25 15
    endloop
  endfacet
  facet normal 0 0 1
    outer loop
      vertex 11.01 2.75 15
      vertex 0 0 15
      vertex 15 0 15
    endloop
  endfacet
  facet normal 1 -0 0
    outer loop
      vertex 15 0 15
      vertex 15 2.75 0
      vertex 15 2.75 15
    endloop
  endfacet
  facet normal 1 0 0
    outer loop
      vertex 15 2.75 0
      vertex 15 0 15
      vertex 15 0 0
    endloop
  endfacet
  facet normal 1 -0 0
    outer loop
      vertex 15 7.25 15
      vertex 15 10 0
      vertex 15 10 15
    endloop
  endfacet
  facet normal 1 0 0
    outer loop
      vertex 15 10 0
      vertex 15 7.25 15
      vertex 15 7.25 0
    endloop
  endfacet
  facet normal 0 0 -1
    outer loop
      vertex 15 0 0
      vertex 11.01 2.75 0
      vertex 15 2.75 0
    endloop
  endfacet
  facet normal 0 0 -1
    outer loop
      vertex 11.01 2.75 0
      vertex 3.49 3.25 0
      vertex 11.01 7.25 0
    endloop
  endfacet
  facet normal 0 0 -1
    outer loop
      vertex 0 0 0
      vertex 11.01 2.75 0
      vertex 15 0 0
    endloop
  endfacet
  facet normal -0 0 -1
    outer loop
      vertex 11.01 2.75 0
      vertex 0 0 0
      vertex 3.49 3.25 0
    endloop
  endfacet
  facet normal -0 0 -1
    outer loop
      vertex 3.49 3.25 0
      vertex 0 0 0
      vertex 0 3.25 0
    endloop
  endfacet
  facet normal 0 0 -1
    outer loop
      vertex 11.01 7.25 0
      vertex 15 10 0
      vertex 15 7.25 0
    endloop
  endfacet
  facet normal 0 0 -1
    outer loop
      vertex 3.49 6.75 0
      vertex 11.01 7.25 0
      vertex 3.49 3.25 0
    endloop
  endfacet
  facet normal 0 0 -1
    outer loop
      vertex 0 10 0
      vertex 11.01 7.25 0
      vertex 3.49 6.75 0
    endloop
  endfacet
  facet normal 0 0 -1
    outer loop
      vertex 0 10 0
      vertex 3.49 6.75 0
      vertex 0 6.75 0
    endloop
  endfacet
  facet normal 0 0 -1
    outer loop
      vertex 11.01 7.25 0
      vertex 0 10 0
      vertex 15 10 0
    endloop
  endfacet
  facet normal 0 -1 0
    outer loop
      vertex 0 0 0
      vertex 15 0 15
      vertex 0 0 15
    endloop
  endfacet
  facet normal 0 -1 -0
    outer loop
      vertex 15 0 15
      vertex 0 0 0
      vertex 15 0 0
    endloop
  endfacet
  facet normal 0 1 -0
    outer loop
      vertex 15 10 0
      vertex 0 10 15
      vertex 15 10 15
    endloop
  endfacet
  facet normal 0 1 0
    outer loop
      vertex 0 10 15
      vertex 15 10 0
      vertex 0 10 0
    endloop
  endfacet
  facet normal -1 0 0
    outer loop
      vertex 3.49 3.25 0
      vertex 3.49 6.75 15
      vertex 3.49 6.75 0
    endloop
  endfacet
  facet normal -1 -0 0
    outer loop
      vertex 3.49 6.75 15
      vertex 3.49 3.25 0
      vertex 3.49 3.25 15
    endloop
  endfacet
  facet normal 0 1 -0
    outer loop
      vertex 3.49 3.25 0
      vertex 0 3.25 15
      vertex 3.49 3.25 15
    endloop
  endfacet
  facet normal 0 1 0
    outer loop
      vertex 0 3.25 15
      vertex 3.49 3.25 0
      vertex 0 3.25 0
    endloop
  endfacet
  facet normal 0 -1 0
    outer loop
      vertex 0 6.75 0
      vertex 3.49 6.75 15
      vertex 0 6.75 15
    endloop
  endfacet
  facet normal 0 -1 -0
    outer loop
      vertex 3.49 6.75 15
      vertex 0 6.75 0
      vertex 3.49 6.75 0
    endloop
  endfacet
  facet normal 1 -0 0
    outer loop
      vertex 11.01 2.75 15
      vertex 11.01 7.25 0
      vertex 11.01 7.25 15
    endloop
  endfacet
  facet normal 1 0 0
    outer loop
      vertex 11.01 7.25 0
      vertex 11.01 2.75 15
      vertex 11.01 2.75 0
    endloop
  endfacet
  facet normal 0 1 -0
    outer loop
      vertex 15 2.75 0
      vertex 11.01 2.75 15
      vertex 15 2.75 15
    endloop
  endfacet
  facet normal 0 1 0
    outer loop
      vertex 11.01 2.75 15
      vertex 15 2.75 0
      vertex 11.01 2.75 0
    endloop
  endfacet
  facet normal 0 -1 0
    outer loop
      vertex 11.01 7.25 0
      vertex 15 7.25 15
      vertex 11.01 7.25 15
    endloop
  endfacet
  facet normal 0 -1 -0
    outer loop
      vertex 15 7.25 15
      vertex 11.01 7.25 0
      vertex 15 7.25 0
    endloop
  endfacet
endsolid OpenSCAD_Model
