solid OpenSCAD_Model
  facet normal -1 0 0
    outer loop
      vertex 12.6 -6.825 -4
      vertex 12.6 -14.175 -4
      vertex 12.6 -6.825 -3
    endloop
  endfacet
  facet normal -1 0 0
    outer loop
      vertex 12.6 -6.825 -3
      vertex 12.6 2.44929e-16 2
      vertex 12.6 -3.67394e-16 -3
    endloop
  endfacet
  facet normal -1 0 0
    outer loop
      vertex 12.6 -14.175 -3
      vertex 12.6 -6.825 -3
      vertex 12.6 -14.175 -4
    endloop
  endfacet
  facet normal -1 0 0
    outer loop
      vertex 12.6 -6.825 -3
      vertex 12.6 -14.175 -3
      vertex 12.6 2.44929e-16 2
    endloop
  endfacet
  facet normal -1 0 0
    outer loop
      vertex 12.6 -21 2
      vertex 12.6 -14.175 -3
      vertex 12.6 -21 -3
    endloop
  endfacet
  facet normal -1 0 0
    outer loop
      vertex 12.6 -14.175 -3
      vertex 12.6 -21 2
      vertex 12.6 2.44929e-16 2
    endloop
  endfacet
  facet normal -0.980785 -0.195092 0
    outer loop
      vertex 12.4401 0.803635 -3
      vertex 12.6 2.44929e-16 2
      vertex 12.4401 0.803635 2
    endloop
  endfacet
  facet normal -0.980785 -0.195092 2.38918e-17
    outer loop
      vertex 12.6 2.44929e-16 2
      vertex 12.4401 0.803635 -3
      vertex 12.6 -3.67394e-16 -3
    endloop
  endfacet
  facet normal 0.555569 0.831471 -0
    outer loop
      vertex -11.3036 -22.9401 -3
      vertex -11.9849 -22.4849 2
      vertex -11.3036 -22.9401 2
    endloop
  endfacet
  facet normal 0.555569 0.831471 0
    outer loop
      vertex -11.9849 -22.4849 2
      vertex -11.3036 -22.9401 -3
      vertex -11.9849 -22.4849 -3
    endloop
  endfacet
  facet normal 0.980785 -0.195092 0
    outer loop
      vertex -12.6 2.44929e-16 2
      vertex -12.4401 0.803635 -3
      vertex -12.4401 0.803635 2
    endloop
  endfacet
  facet normal 0.980785 -0.195092 2.03243e-17
    outer loop
      vertex -12.4401 0.803635 -3
      vertex -12.6 2.44929e-16 2
      vertex -12.6 -3.67394e-16 -3
    endloop
  endfacet
  facet normal 1 0 0
    outer loop
      vertex -12.6 2.44929e-16 2
      vertex -12.6 -6.825 -3
      vertex -12.6 -3.67394e-16 -3
    endloop
  endfacet
  facet normal 1 0 0
    outer loop
      vertex -12.6 -6.825 -3
      vertex -12.6 -14.175 -3
      vertex -12.6 -6.825 -4
    endloop
  endfacet
  facet normal 1 0 0
    outer loop
      vertex -12.6 2.44929e-16 2
      vertex -12.6 -14.175 -3
      vertex -12.6 -6.825 -3
    endloop
  endfacet
  facet normal 1 -0 0
    outer loop
      vertex -12.6 -21 2
      vertex -12.6 -14.175 -3
      vertex -12.6 2.44929e-16 2
    endloop
  endfacet
  facet normal 1 0 0
    outer loop
      vertex -12.6 -14.175 -3
      vertex -12.6 -21 2
      vertex -12.6 -21 -3
    endloop
  endfacet
  facet normal 1 0 0
    outer loop
      vertex -12.6 -6.825 -4
      vertex -12.6 -14.175 -3
      vertex -12.6 -14.175 -4
    endloop
  endfacet
  facet normal 0 0 1
    outer loop
      vertex -5.9999 -17 -3
      vertex -11.3036 -22.9401 -3
      vertex -11 -23.0005 -3
    endloop
  endfacet
  facet normal 0 0 1
    outer loop
      vertex -5.9999 -17 -3
      vertex -12.6 -21 -3
      vertex -11.3036 -22.9401 -3
    endloop
  endfacet
  facet normal 0 0 1
    outer loop
      vertex -11.3036 -22.9401 -3
      vertex -12.6 -21 -3
      vertex -11.9849 -22.4849 -3
    endloop
  endfacet
  facet normal 0 0 1
    outer loop
      vertex -12.6 -21 -3
      vertex -8.4 -14.175 -3
      vertex -12.6 -14.175 -3
    endloop
  endfacet
  facet normal 0 0 1
    outer loop
      vertex -11.9849 -22.4849 -3
      vertex -12.6 -21 -3
      vertex -12.4401 -21.8036 -3
    endloop
  endfacet
  facet normal 0 0 1
    outer loop
      vertex -8.71399 -2.8875 -3
      vertex -8.4 -6.825 -3
      vertex -8.1375 -3.46399 -3
    endloop
  endfacet
  facet normal 0 0 1
    outer loop
      vertex -12.6 -3.67394e-16 -3
      vertex -8.71399 -2.8875 -3
      vertex -8.925 -2.1 -3
    endloop
  endfacet
  facet normal 0 0 1
    outer loop
      vertex -8.71399 -1.3125 -3
      vertex -12.6 -3.67394e-16 -3
      vertex -8.925 -2.1 -3
    endloop
  endfacet
  facet normal 0 0 1
    outer loop
      vertex -12.6 -3.67394e-16 -3
      vertex -10.5 2.1 -3
      vertex -11.3036 1.94015 -3
    endloop
  endfacet
  facet normal 0 0 1
    outer loop
      vertex -12.6 -3.67394e-16 -3
      vertex -11.3036 1.94015 -3
      vertex -11.9849 1.48492 -3
    endloop
  endfacet
  facet normal 0 0 1
    outer loop
      vertex -12.6 -3.67394e-16 -3
      vertex -11.9849 1.48492 -3
      vertex -12.4401 0.803635 -3
    endloop
  endfacet
  facet normal 0 0 1
    outer loop
      vertex -8.71399 -2.8875 -3
      vertex -12.6 -3.67394e-16 -3
      vertex -12.6 -6.825 -3
    endloop
  endfacet
  facet normal 0 0 1
    outer loop
      vertex -8.71399 -2.8875 -3
      vertex -12.6 -6.825 -3
      vertex -8.4 -6.825 -3
    endloop
  endfacet
  facet normal -0 0 1
    outer loop
      vertex -5.70096 -1.25 -3
      vertex -4.4999 -2 -3
      vertex -4.4999 2.1 -3
    endloop
  endfacet
  facet normal 0 0 1
    outer loop
      vertex -4.4999 -2 -3
      vertex -5.70096 -1.25 -3
      vertex -5.5 -2 -3
    endloop
  endfacet
  facet normal 0 0 1
    outer loop
      vertex -4.4999 2.1 -3
      vertex -6.25 -0.700961 -3
      vertex -5.70096 -1.25 -3
    endloop
  endfacet
  facet normal 0 0 1
    outer loop
      vertex -4.4999 2.1 -3
      vertex -7 -0.5 -3
      vertex -6.25 -0.700961 -3
    endloop
  endfacet
  facet normal 0 0 1
    outer loop
      vertex -7.35 -0.525 -3
      vertex -7 -0.5 -3
      vertex -4.4999 2.1 -3
    endloop
  endfacet
  facet normal 0 0 1
    outer loop
      vertex -7 -0.5 -3
      vertex -7.35 -0.525 -3
      vertex -7.22165 -0.559391 -3
    endloop
  endfacet
  facet normal -0 0 1
    outer loop
      vertex -10.5 2.1 -3
      vertex -7.35 -0.525 -3
      vertex -4.4999 2.1 -3
    endloop
  endfacet
  facet normal -0 0 1
    outer loop
      vertex -12.6 -3.67394e-16 -3
      vertex -8.71399 -1.3125 -3
      vertex -10.5 2.1 -3
    endloop
  endfacet
  facet normal 0 0 1
    outer loop
      vertex -8.1375 -0.736009 -3
      vertex -10.5 2.1 -3
      vertex -8.71399 -1.3125 -3
    endloop
  endfacet
  facet normal 0 0 1
    outer loop
      vertex -7.35 -0.525 -3
      vertex -10.5 2.1 -3
      vertex -8.1375 -0.736009 -3
    endloop
  endfacet
  facet normal 0 0 1
    outer loop
      vertex 12.6 -3.67394e-16 -3
      vertex 8.71399 -1.3125 -3
      vertex 8.925 -2.1 -3
    endloop
  endfacet
  facet normal 0 0 1
    outer loop
      vertex 10.5 2.1 -3
      vertex 8.1375 -0.736009 -3
      vertex 8.71399 -1.3125 -3
    endloop
  endfacet
  facet normal 0 0 1
    outer loop
      vertex 10.5 2.1 -3
      vertex 7.35 -0.525 -3
      vertex 8.1375 -0.736009 -3
    endloop
  endfacet
  facet normal -0 0 1
    outer loop
      vertex 4.4999 2.1 -3
      vertex 7.35 -0.525 -3
      vertex 10.5 2.1 -3
    endloop
  endfacet
  facet normal 0 0 1
    outer loop
      vertex 7.35 -0.525 -3
      vertex 7 -0.5 -3
      vertex 7.22165 -0.559391 -3
    endloop
  endfacet
  facet normal 0 0 1
    outer loop
      vertex 7.35 -0.525 -3
      vertex 4.4999 2.1 -3
      vertex 7 -0.5 -3
    endloop
  endfacet
  facet normal 0 0 1
    outer loop
      vertex 4.4999 -2 -3
      vertex 5.70096 -1.25 -3
      vertex 4.4999 2.1 -3
    endloop
  endfacet
  facet normal 0 0 1
    outer loop
      vertex 6.25 -0.700961 -3
      vertex 4.4999 2.1 -3
      vertex 5.70096 -1.25 -3
    endloop
  endfacet
  facet normal 0 0 1
    outer loop
      vertex 7 -0.5 -3
      vertex 4.4999 2.1 -3
      vertex 6.25 -0.700961 -3
    endloop
  endfacet
  facet normal 0 0 1
    outer loop
      vertex 10.5 2.1 -3
      vertex 12.6 -3.67394e-16 -3
      vertex 12.4401 0.803635 -3
    endloop
  endfacet
  facet normal 0 0 1
    outer loop
      vertex 10.5 2.1 -3
      vertex 12.4401 0.803635 -3
      vertex 11.9849 1.48492 -3
    endloop
  endfacet
  facet normal 0 0 1
    outer loop
      vertex 10.5 2.1 -3
      vertex 11.9849 1.48492 -3
      vertex 11.3036 1.94015 -3
    endloop
  endfacet
  facet normal 0 0 1
    outer loop
      vertex 8.71399 -1.3125 -3
      vertex 12.6 -3.67394e-16 -3
      vertex 10.5 2.1 -3
    endloop
  endfacet
  facet normal 0 0 1
    outer loop
      vertex 8.71399 -2.8875 -3
      vertex 12.6 -3.67394e-16 -3
      vertex 8.925 -2.1 -3
    endloop
  endfacet
  facet normal 0 0 1
    outer loop
      vertex 12.6 -3.67394e-16 -3
      vertex 8.71399 -2.8875 -3
      vertex 12.6 -6.825 -3
    endloop
  endfacet
  facet normal 0 0 1
    outer loop
      vertex 8.71399 -2.8875 -3
      vertex 8.4 -6.825 -3
      vertex 12.6 -6.825 -3
    endloop
  endfacet
  facet normal -0 0 1
    outer loop
      vertex 7.35 -3.675 -3
      vertex 8.4 -6.825 -3
      vertex 8.1375 -3.46399 -3
    endloop
  endfacet
  facet normal -0 0 1
    outer loop
      vertex 8.1375 -3.46399 -3
      vertex 8.4 -6.825 -3
      vertex 8.71399 -2.8875 -3
    endloop
  endfacet
  facet normal -0 0 1
    outer loop
      vertex 8.4 -14.175 -3
      vertex 12.6 -21 -3
      vertex 12.6 -14.175 -3
    endloop
  endfacet
  facet normal -0 0 1
    outer loop
      vertex 5.9999 -17 -3
      vertex 12.6 -21 -3
      vertex 8.4 -14.175 -3
    endloop
  endfacet
  facet normal 0 -0 1
    outer loop
      vertex 11 -23.0005 -3
      vertex 12.6 -21 -3
      vertex 5.9999 -17 -3
    endloop
  endfacet
  facet normal 0 0 1
    outer loop
      vertex 12.6 -21 -3
      vertex 11 -23.0005 -3
      vertex 12.4401 -21.8036 -3
    endloop
  endfacet
  facet normal 0 0 1
    outer loop
      vertex 12.4401 -21.8036 -3
      vertex 11 -23.0005 -3
      vertex 11.9849 -22.4849 -3
    endloop
  endfacet
  facet normal 0 0 1
    outer loop
      vertex 11.9849 -22.4849 -3
      vertex 11 -23.0005 -3
      vertex 11.3036 -22.9401 -3
    endloop
  endfacet
  facet normal 0 0 1
    outer loop
      vertex 8.4 -6.825 -3
      vertex 7.35 -3.675 -3
      vertex 5.9999 -5 -3
    endloop
  endfacet
  facet normal 0 0 1
    outer loop
      vertex 5.9999 -5 -3
      vertex 7.35 -3.675 -3
      vertex 6.5625 -3.46399 -3
    endloop
  endfacet
  facet normal 0 0 1
    outer loop
      vertex 6.25 -3.29904 -3
      vertex 6.5625 -3.46399 -3
      vertex 6.45155 -3.35304 -3
    endloop
  endfacet
  facet normal 0 0 1
    outer loop
      vertex 6.5625 -3.46399 -3
      vertex 6.25 -3.29904 -3
      vertex 5.9999 -5 -3
    endloop
  endfacet
  facet normal 0 0 1
    outer loop
      vertex 8.4 -6.825 -3
      vertex 5.9999 -5 -3
      vertex 8.4 -14.175 -3
    endloop
  endfacet
  facet normal 0 0 1
    outer loop
      vertex 5.9999 -17 -3
      vertex 8.4 -14.175 -3
      vertex 5.9999 -5 -3
    endloop
  endfacet
  facet normal 0 0 1
    outer loop
      vertex 3 -23.1 -3
      vertex 11 -23.0005 -3
      vertex 5.9999 -17 -3
    endloop
  endfacet
  facet normal 0 0 1
    outer loop
      vertex 11 -23.0005 -3
      vertex 3 -23.1 -3
      vertex 11 -24 -3
    endloop
  endfacet
  facet normal 0 0 1
    outer loop
      vertex 11 -24 -3
      vertex 3 -23.1 -3
      vertex 3 -24 -3
    endloop
  endfacet
  facet normal 0 0 1
    outer loop
      vertex 5.9999 -17 -3
      vertex -3 -23.1 -3
      vertex 3 -23.1 -3
    endloop
  endfacet
  facet normal -0 0 1
    outer loop
      vertex -5.9999 -17 -3
      vertex -3 -23.1 -3
      vertex 5.9999 -17 -3
    endloop
  endfacet
  facet normal -0 0 1
    outer loop
      vertex -11 -23.0005 -3
      vertex -3 -23.1 -3
      vertex -5.9999 -17 -3
    endloop
  endfacet
  facet normal 0 0 1
    outer loop
      vertex -6.25 -3.29904 -3
      vertex -6.5625 -3.46399 -3
      vertex -5.9999 -5 -3
    endloop
  endfacet
  facet normal -0 0 1
    outer loop
      vertex -7.35 -3.675 -3
      vertex -5.9999 -5 -3
      vertex -6.5625 -3.46399 -3
    endloop
  endfacet
  facet normal 0 0 1
    outer loop
      vertex -5.9999 -5 -3
      vertex -7.35 -3.675 -3
      vertex -8.4 -6.825 -3
    endloop
  endfacet
  facet normal 0 0 1
    outer loop
      vertex -8.4 -6.825 -3
      vertex -7.35 -3.675 -3
      vertex -8.1375 -3.46399 -3
    endloop
  endfacet
  facet normal 0 0 1
    outer loop
      vertex -8.4 -14.175 -3
      vertex -5.9999 -5 -3
      vertex -8.4 -6.825 -3
    endloop
  endfacet
  facet normal 0 0 1
    outer loop
      vertex -5.9999 -5 -3
      vertex -8.4 -14.175 -3
      vertex -5.9999 -17 -3
    endloop
  endfacet
  facet normal 0 0 1
    outer loop
      vertex -12.6 -21 -3
      vertex -5.9999 -17 -3
      vertex -8.4 -14.175 -3
    endloop
  endfacet
  facet normal 0 0 1
    outer loop
      vertex -11 -24 -3
      vertex -3 -23.1 -3
      vertex -11 -23.0005 -3
    endloop
  endfacet
  facet normal 0 0 1
    outer loop
      vertex -3 -23.1 -3
      vertex -11 -24 -3
      vertex -3 -24 -3
    endloop
  endfacet
  facet normal 0 0 1
    outer loop
      vertex 5.70096 -2.75 -3
      vertex 5.9999 -5 -3
      vertex 6.25 -3.29904 -3
    endloop
  endfacet
  facet normal -0 0 1
    outer loop
      vertex 4.4999 -2 -3
      vertex 5.70096 -2.75 -3
      vertex 5.5 -2 -3
    endloop
  endfacet
  facet normal 0 0 1
    outer loop
      vertex 5.70096 -1.25 -3
      vertex 4.4999 -2 -3
      vertex 5.5 -2 -3
    endloop
  endfacet
  facet normal 0 0 1
    outer loop
      vertex 5.70096 -2.75 -3
      vertex 4.4999 -2 -3
      vertex 5.9999 -5 -3
    endloop
  endfacet
  facet normal -0 0 1
    outer loop
      vertex -4.4999 -2 -3
      vertex 5.9999 -5 -3
      vertex 4.4999 -2 -3
    endloop
  endfacet
  facet normal 0 0 1
    outer loop
      vertex -5.70096 -2.75 -3
      vertex -4.4999 -2 -3
      vertex -5.5 -2 -3
    endloop
  endfacet
  facet normal 0 0 1
    outer loop
      vertex -5.9999 -5 -3
      vertex -4.4999 -2 -3
      vertex -5.70096 -2.75 -3
    endloop
  endfacet
  facet normal 0 0 1
    outer loop
      vertex -4.4999 -2 -3
      vertex -5.9999 -5 -3
      vertex 5.9999 -5 -3
    endloop
  endfacet
  facet normal 0 0 1
    outer loop
      vertex -6.5625 -3.46399 -3
      vertex -6.25 -3.29904 -3
      vertex -6.45155 -3.35304 -3
    endloop
  endfacet
  facet normal -0 0 1
    outer loop
      vertex -6.25 -3.29904 -3
      vertex -5.9999 -5 -3
      vertex -5.70096 -2.75 -3
    endloop
  endfacet
  facet normal 0.83147 -0.55557 0
    outer loop
      vertex -12.4401 0.803635 2
      vertex -11.9849 1.48492 -3
      vertex -11.9849 1.48492 2
    endloop
  endfacet
  facet normal 0.83147 -0.55557 0
    outer loop
      vertex -11.9849 1.48492 -3
      vertex -12.4401 0.803635 2
      vertex -12.4401 0.803635 -3
    endloop
  endfacet
  facet normal -0.83147 0.555569 0
    outer loop
      vertex 11.9849 -22.4849 -3
      vertex 12.4401 -21.8036 2
      vertex 12.4401 -21.8036 -3
    endloop
  endfacet
  facet normal -0.83147 0.555569 0
    outer loop
      vertex 12.4401 -21.8036 2
      vertex 11.9849 -22.4849 -3
      vertex 11.9849 -22.4849 2
    endloop
  endfacet
  facet normal -0.83147 -0.55557 0
    outer loop
      vertex 12.4401 0.803635 -3
      vertex 11.9849 1.48492 2
      vertex 11.9849 1.48492 -3
    endloop
  endfacet
  facet normal -0.83147 -0.55557 0
    outer loop
      vertex 11.9849 1.48492 2
      vertex 12.4401 0.803635 -3
      vertex 12.4401 0.803635 2
    endloop
  endfacet
  facet normal 0 -1 0
    outer loop
      vertex -10.5 2.1 2
      vertex -4.4999 2.1 -2.57176e-16
      vertex 10.5 2.1 2
    endloop
  endfacet
  facet normal 0 -1 0
    outer loop
      vertex -10.5 2.1 -3
      vertex -4.4999 2.1 -2.57176e-16
      vertex -10.5 2.1 2
    endloop
  endfacet
  facet normal 0 -1 -0
    outer loop
      vertex -4.4999 2.1 -2.57176e-16
      vertex -10.5 2.1 -3
      vertex -4.4999 2.1 -3
    endloop
  endfacet
  facet normal 0 -1 0
    outer loop
      vertex 4.4999 2.1 -2.57176e-16
      vertex 10.5 2.1 2
      vertex -4.4999 2.1 -2.57176e-16
    endloop
  endfacet
  facet normal 0 -1 0
    outer loop
      vertex 10.5 2.1 -3
      vertex 4.4999 2.1 -2.57176e-16
      vertex 4.4999 2.1 -3
    endloop
  endfacet
  facet normal 0 -1 0
    outer loop
      vertex 4.4999 2.1 -2.57176e-16
      vertex 10.5 2.1 -3
      vertex 10.5 2.1 2
    endloop
  endfacet
  facet normal 0 1 -0
    outer loop
      vertex 3 -23.1 -3
      vertex -3 -23.1 2
      vertex 3 -23.1 2
    endloop
  endfacet
  facet normal 0 1 0
    outer loop
      vertex -3 -23.1 2
      vertex 3 -23.1 -3
      vertex -3 -23.1 -3
    endloop
  endfacet
  facet normal 0.195095 0.980784 -0
    outer loop
      vertex -11 -23.0005 -3
      vertex -11.3036 -22.9401 2
      vertex -11 -23.0005 2
    endloop
  endfacet
  facet normal 0.195095 0.980784 0
    outer loop
      vertex -11.3036 -22.9401 2
      vertex -11 -23.0005 -3
      vertex -11.3036 -22.9401 -3
    endloop
  endfacet
  facet normal -0.55557 -0.83147 0
    outer loop
      vertex 11.3036 1.94015 -3
      vertex 11.9849 1.48492 2
      vertex 11.3036 1.94015 2
    endloop
  endfacet
  facet normal -0.55557 -0.83147 -0
    outer loop
      vertex 11.9849 1.48492 2
      vertex 11.3036 1.94015 -3
      vertex 11.9849 1.48492 -3
    endloop
  endfacet
  facet normal -0.195091 -0.980785 0
    outer loop
      vertex 10.5 2.1 -3
      vertex 11.3036 1.94015 2
      vertex 10.5 2.1 2
    endloop
  endfacet
  facet normal -0.195091 -0.980785 -0
    outer loop
      vertex 11.3036 1.94015 2
      vertex 10.5 2.1 -3
      vertex 11.3036 1.94015 -3
    endloop
  endfacet
  facet normal 0.195091 -0.980785 0
    outer loop
      vertex -11.3036 1.94015 -3
      vertex -10.5 2.1 2
      vertex -11.3036 1.94015 2
    endloop
  endfacet
  facet normal 0.195091 -0.980785 0
    outer loop
      vertex -10.5 2.1 2
      vertex -11.3036 1.94015 -3
      vertex -10.5 2.1 -3
    endloop
  endfacet
  facet normal 0.55557 -0.83147 0
    outer loop
      vertex -11.9849 1.48492 -3
      vertex -11.3036 1.94015 2
      vertex -11.9849 1.48492 2
    endloop
  endfacet
  facet normal 0.55557 -0.83147 0
    outer loop
      vertex -11.3036 1.94015 2
      vertex -11.9849 1.48492 -3
      vertex -11.3036 1.94015 -3
    endloop
  endfacet
  facet normal 0.980785 0.195092 0
    outer loop
      vertex -12.4401 -21.8036 2
      vertex -12.6 -21 -3
      vertex -12.6 -21 2
    endloop
  endfacet
  facet normal 0.980785 0.195092 0
    outer loop
      vertex -12.6 -21 -3
      vertex -12.4401 -21.8036 2
      vertex -12.4401 -21.8036 -3
    endloop
  endfacet
  facet normal 0.83147 0.555569 0
    outer loop
      vertex -11.9849 -22.4849 2
      vertex -12.4401 -21.8036 -3
      vertex -12.4401 -21.8036 2
    endloop
  endfacet
  facet normal 0.83147 0.555569 0
    outer loop
      vertex -12.4401 -21.8036 -3
      vertex -11.9849 -22.4849 2
      vertex -11.9849 -22.4849 -3
    endloop
  endfacet
  facet normal -0.980785 0.195092 0
    outer loop
      vertex 12.4401 -21.8036 -3
      vertex 12.6 -21 2
      vertex 12.6 -21 -3
    endloop
  endfacet
  facet normal -0.980785 0.195092 0
    outer loop
      vertex 12.6 -21 2
      vertex 12.4401 -21.8036 -3
      vertex 12.4401 -21.8036 2
    endloop
  endfacet
  facet normal -0.195095 0.980784 0
    outer loop
      vertex 11.3036 -22.9401 -3
      vertex 11 -23.0005 2
      vertex 11.3036 -22.9401 2
    endloop
  endfacet
  facet normal -0.195095 0.980784 0
    outer loop
      vertex 11 -23.0005 2
      vertex 11.3036 -22.9401 -3
      vertex 11 -23.0005 -3
    endloop
  endfacet
  facet normal -0.555569 0.831471 0
    outer loop
      vertex 11.9849 -22.4849 -3
      vertex 11.3036 -22.9401 2
      vertex 11.9849 -22.4849 2
    endloop
  endfacet
  facet normal -0.555569 0.831471 0
    outer loop
      vertex 11.3036 -22.9401 2
      vertex 11.9849 -22.4849 -3
      vertex 11.3036 -22.9401 -3
    endloop
  endfacet
  facet normal 0.965926 -0.258819 0
    outer loop
      vertex 8.71399 -2.8875 -1
      vertex 8.925 -2.1 -3
      vertex 8.925 -2.1 -1
    endloop
  endfacet
  facet normal 0.965926 -0.258819 0
    outer loop
      vertex 8.925 -2.1 -3
      vertex 8.71399 -2.8875 -1
      vertex 8.71399 -2.8875 -3
    endloop
  endfacet
  facet normal -0.258819 -0.965926 0
    outer loop
      vertex 6.5625 -3.46399 -3
      vertex 7.35 -3.675 -1
      vertex 6.5625 -3.46399 -1
    endloop
  endfacet
  facet normal -0.258819 -0.965926 -0
    outer loop
      vertex 7.35 -3.675 -1
      vertex 6.5625 -3.46399 -3
      vertex 7.35 -3.675 -3
    endloop
  endfacet
  facet normal -0.707106 -0.707108 0
    outer loop
      vertex 6.45155 -3.35304 -3
      vertex 6.5625 -3.46399 -1
      vertex 6.45155 -3.35304 -1
    endloop
  endfacet
  facet normal -0.707106 -0.707108 -0
    outer loop
      vertex 6.5625 -3.46399 -1
      vertex 6.45155 -3.35304 -3
      vertex 6.5625 -3.46399 -3
    endloop
  endfacet
  facet normal 0.965926 0.258819 0
    outer loop
      vertex 8.925 -2.1 -1
      vertex 8.71399 -1.3125 -3
      vertex 8.71399 -1.3125 -1
    endloop
  endfacet
  facet normal 0.965926 0.258819 0
    outer loop
      vertex 8.71399 -1.3125 -3
      vertex 8.925 -2.1 -1
      vertex 8.925 -2.1 -3
    endloop
  endfacet
  facet normal 0.707106 0.707107 -0
    outer loop
      vertex 8.71399 -1.3125 -3
      vertex 8.1375 -0.736009 -1
      vertex 8.71399 -1.3125 -1
    endloop
  endfacet
  facet normal 0.707106 0.707107 0
    outer loop
      vertex 8.1375 -0.736009 -1
      vertex 8.71399 -1.3125 -3
      vertex 8.1375 -0.736009 -3
    endloop
  endfacet
  facet normal 0.258818 0.965926 -0
    outer loop
      vertex 8.1375 -0.736009 -3
      vertex 7.35 -0.525 -1
      vertex 8.1375 -0.736009 -1
    endloop
  endfacet
  facet normal 0.258818 0.965926 0
    outer loop
      vertex 7.35 -0.525 -1
      vertex 8.1375 -0.736009 -3
      vertex 7.35 -0.525 -3
    endloop
  endfacet
  facet normal 0.258819 -0.965926 0
    outer loop
      vertex 7.35 -3.675 -3
      vertex 8.1375 -3.46399 -1
      vertex 7.35 -3.675 -1
    endloop
  endfacet
  facet normal 0.258819 -0.965926 0
    outer loop
      vertex 8.1375 -3.46399 -1
      vertex 7.35 -3.675 -3
      vertex 8.1375 -3.46399 -3
    endloop
  endfacet
  facet normal 0.707106 -0.707107 0
    outer loop
      vertex 8.1375 -3.46399 -3
      vertex 8.71399 -2.8875 -1
      vertex 8.1375 -3.46399 -1
    endloop
  endfacet
  facet normal 0.707106 -0.707107 0
    outer loop
      vertex 8.71399 -2.8875 -1
      vertex 8.1375 -3.46399 -3
      vertex 8.71399 -2.8875 -3
    endloop
  endfacet
  facet normal -0.258818 0.965926 0
    outer loop
      vertex 7.35 -0.525 -3
      vertex 7.22165 -0.559391 -1
      vertex 7.35 -0.525 -1
    endloop
  endfacet
  facet normal -0.258818 0.965926 0
    outer loop
      vertex 7.22165 -0.559391 -1
      vertex 7.35 -0.525 -3
      vertex 7.22165 -0.559391 -3
    endloop
  endfacet
  facet normal -0.965926 -0.258819 0
    outer loop
      vertex -8.71399 -2.8875 -3
      vertex -8.925 -2.1 -1
      vertex -8.925 -2.1 -3
    endloop
  endfacet
  facet normal -0.965926 -0.258819 0
    outer loop
      vertex -8.925 -2.1 -1
      vertex -8.71399 -2.8875 -3
      vertex -8.71399 -2.8875 -1
    endloop
  endfacet
  facet normal 0.258818 0.965926 -0
    outer loop
      vertex -7.22165 -0.559391 -3
      vertex -7.35 -0.525 -1
      vertex -7.22165 -0.559391 -1
    endloop
  endfacet
  facet normal 0.258818 0.965926 0
    outer loop
      vertex -7.35 -0.525 -1
      vertex -7.22165 -0.559391 -3
      vertex -7.35 -0.525 -3
    endloop
  endfacet
  facet normal -0.258818 0.965926 0
    outer loop
      vertex -7.35 -0.525 -3
      vertex -8.1375 -0.736009 -1
      vertex -7.35 -0.525 -1
    endloop
  endfacet
  facet normal -0.258818 0.965926 0
    outer loop
      vertex -8.1375 -0.736009 -1
      vertex -7.35 -0.525 -3
      vertex -8.1375 -0.736009 -3
    endloop
  endfacet
  facet normal -0.707106 -0.707107 0
    outer loop
      vertex -8.71399 -2.8875 -3
      vertex -8.1375 -3.46399 -1
      vertex -8.71399 -2.8875 -1
    endloop
  endfacet
  facet normal -0.707106 -0.707107 -0
    outer loop
      vertex -8.1375 -3.46399 -1
      vertex -8.71399 -2.8875 -3
      vertex -8.1375 -3.46399 -3
    endloop
  endfacet
  facet normal 0.707106 -0.707108 0
    outer loop
      vertex -6.5625 -3.46399 -3
      vertex -6.45155 -3.35304 -1
      vertex -6.5625 -3.46399 -1
    endloop
  endfacet
  facet normal 0.707106 -0.707108 0
    outer loop
      vertex -6.45155 -3.35304 -1
      vertex -6.5625 -3.46399 -3
      vertex -6.45155 -3.35304 -3
    endloop
  endfacet
  facet normal -0.707106 0.707107 0
    outer loop
      vertex -8.1375 -0.736009 -3
      vertex -8.71399 -1.3125 -1
      vertex -8.1375 -0.736009 -1
    endloop
  endfacet
  facet normal -0.707106 0.707107 0
    outer loop
      vertex -8.71399 -1.3125 -1
      vertex -8.1375 -0.736009 -3
      vertex -8.71399 -1.3125 -3
    endloop
  endfacet
  facet normal -0.965926 0.258819 0
    outer loop
      vertex -8.925 -2.1 -3
      vertex -8.71399 -1.3125 -1
      vertex -8.71399 -1.3125 -3
    endloop
  endfacet
  facet normal -0.965926 0.258819 0
    outer loop
      vertex -8.71399 -1.3125 -1
      vertex -8.925 -2.1 -3
      vertex -8.925 -2.1 -1
    endloop
  endfacet
  facet normal -0.258819 -0.965926 0
    outer loop
      vertex -8.1375 -3.46399 -3
      vertex -7.35 -3.675 -1
      vertex -8.1375 -3.46399 -1
    endloop
  endfacet
  facet normal -0.258819 -0.965926 -0
    outer loop
      vertex -7.35 -3.675 -1
      vertex -8.1375 -3.46399 -3
      vertex -7.35 -3.675 -3
    endloop
  endfacet
  facet normal 0.258819 -0.965926 0
    outer loop
      vertex -7.35 -3.675 -3
      vertex -6.5625 -3.46399 -1
      vertex -7.35 -3.675 -1
    endloop
  endfacet
  facet normal 0.258819 -0.965926 0
    outer loop
      vertex -6.5625 -3.46399 -1
      vertex -7.35 -3.675 -3
      vertex -6.5625 -3.46399 -3
    endloop
  endfacet
  facet normal 1 -0 0
    outer loop
      vertex 8.4 -14.175 -3
      vertex 8.4 -6.825 -4
      vertex 8.4 -6.825 -3
    endloop
  endfacet
  facet normal 1 0 0
    outer loop
      vertex 8.4 -6.825 -4
      vertex 8.4 -14.175 -3
      vertex 8.4 -14.175 -4
    endloop
  endfacet
  facet normal 0 -1 0
    outer loop
      vertex 8.4 -6.825 -4
      vertex 12.6 -6.825 -3
      vertex 8.4 -6.825 -3
    endloop
  endfacet
  facet normal 0 -1 -0
    outer loop
      vertex 12.6 -6.825 -3
      vertex 8.4 -6.825 -4
      vertex 12.6 -6.825 -4
    endloop
  endfacet
  facet normal -0 0 1
    outer loop
      vertex 8.4 -6.825 -4
      vertex 12.6 -14.175 -4
      vertex 12.6 -6.825 -4
    endloop
  endfacet
  facet normal 0 0 1
    outer loop
      vertex 12.6 -14.175 -4
      vertex 8.4 -6.825 -4
      vertex 8.4 -14.175 -4
    endloop
  endfacet
  facet normal 0 1 -0
    outer loop
      vertex 12.6 -14.175 -4
      vertex 8.4 -14.175 -3
      vertex 12.6 -14.175 -3
    endloop
  endfacet
  facet normal 0 1 0
    outer loop
      vertex 8.4 -14.175 -3
      vertex 12.6 -14.175 -4
      vertex 8.4 -14.175 -4
    endloop
  endfacet
  facet normal 0 -1 0
    outer loop
      vertex -12.6 -6.825 -4
      vertex -8.4 -6.825 -3
      vertex -12.6 -6.825 -3
    endloop
  endfacet
  facet normal 0 -1 -0
    outer loop
      vertex -8.4 -6.825 -3
      vertex -12.6 -6.825 -4
      vertex -8.4 -6.825 -4
    endloop
  endfacet
  facet normal -0 0 1
    outer loop
      vertex -12.6 -6.825 -4
      vertex -8.4 -14.175 -4
      vertex -8.4 -6.825 -4
    endloop
  endfacet
  facet normal 0 0 1
    outer loop
      vertex -8.4 -14.175 -4
      vertex -12.6 -6.825 -4
      vertex -12.6 -14.175 -4
    endloop
  endfacet
  facet normal -1 0 0
    outer loop
      vertex -8.4 -14.175 -4
      vertex -8.4 -6.825 -3
      vertex -8.4 -6.825 -4
    endloop
  endfacet
  facet normal -1 -0 0
    outer loop
      vertex -8.4 -6.825 -3
      vertex -8.4 -14.175 -4
      vertex -8.4 -14.175 -3
    endloop
  endfacet
  facet normal 0 1 -0
    outer loop
      vertex -8.4 -14.175 -4
      vertex -12.6 -14.175 -3
      vertex -8.4 -14.175 -3
    endloop
  endfacet
  facet normal 0 1 0
    outer loop
      vertex -12.6 -14.175 -3
      vertex -8.4 -14.175 -4
      vertex -12.6 -14.175 -4
    endloop
  endfacet
  facet normal 0 0 1
    outer loop
      vertex -7.35 -0.525 -1
      vertex -7.75 -0.700961 -1
      vertex -7.22165 -0.559391 -1
    endloop
  endfacet
  facet normal 0 0 1
    outer loop
      vertex -8.1375 -0.736009 -1
      vertex -7.75 -0.700961 -1
      vertex -7.35 -0.525 -1
    endloop
  endfacet
  facet normal -0 0 1
    outer loop
      vertex -8.1375 -0.736009 -1
      vertex -8.29904 -1.25 -1
      vertex -7.75 -0.700961 -1
    endloop
  endfacet
  facet normal 0 0 1
    outer loop
      vertex -8.29904 -1.25 -1
      vertex -8.71399 -1.3125 -1
      vertex -8.5 -2 -1
    endloop
  endfacet
  facet normal 0 0 1
    outer loop
      vertex -8.71399 -1.3125 -1
      vertex -8.29904 -1.25 -1
      vertex -8.1375 -0.736009 -1
    endloop
  endfacet
  facet normal 0 0 1
    outer loop
      vertex -7 -3.5 -1
      vertex -6.5625 -3.46399 -1
      vertex -6.45155 -3.35304 -1
    endloop
  endfacet
  facet normal -0 0 1
    outer loop
      vertex -7 -3.5 -1
      vertex -7.35 -3.675 -1
      vertex -6.5625 -3.46399 -1
    endloop
  endfacet
  facet normal 0 0 1
    outer loop
      vertex -7.75 -3.29904 -1
      vertex -7.35 -3.675 -1
      vertex -7 -3.5 -1
    endloop
  endfacet
  facet normal 0 0 1
    outer loop
      vertex -7.75 -3.29904 -1
      vertex -8.1375 -3.46399 -1
      vertex -7.35 -3.675 -1
    endloop
  endfacet
  facet normal 0 0 1
    outer loop
      vertex -8.29904 -2.75 -1
      vertex -8.1375 -3.46399 -1
      vertex -7.75 -3.29904 -1
    endloop
  endfacet
  facet normal -0 0 1
    outer loop
      vertex -8.925 -2.1 -1
      vertex -8.29904 -2.75 -1
      vertex -8.5 -2 -1
    endloop
  endfacet
  facet normal 0 0 1
    outer loop
      vertex -8.925 -2.1 -1
      vertex -8.5 -2 -1
      vertex -8.71399 -1.3125 -1
    endloop
  endfacet
  facet normal 0 0 1
    outer loop
      vertex -8.29904 -2.75 -1
      vertex -8.71399 -2.8875 -1
      vertex -8.1375 -3.46399 -1
    endloop
  endfacet
  facet normal 0 0 1
    outer loop
      vertex -8.29904 -2.75 -1
      vertex -8.925 -2.1 -1
      vertex -8.71399 -2.8875 -1
    endloop
  endfacet
  facet normal -0 0 1
    outer loop
      vertex 8.5 -2 -1
      vertex 8.925 -2.1 -1
      vertex 8.71399 -1.3125 -1
    endloop
  endfacet
  facet normal 0 0 1
    outer loop
      vertex 8.29904 -2.75 -1
      vertex 8.925 -2.1 -1
      vertex 8.5 -2 -1
    endloop
  endfacet
  facet normal 0 0 1
    outer loop
      vertex 8.71399 -1.3125 -1
      vertex 8.29904 -1.25 -1
      vertex 8.5 -2 -1
    endloop
  endfacet
  facet normal 0 0 1
    outer loop
      vertex 8.1375 -0.736009 -1
      vertex 8.29904 -1.25 -1
      vertex 8.71399 -1.3125 -1
    endloop
  endfacet
  facet normal 0 0 1
    outer loop
      vertex 8.1375 -0.736009 -1
      vertex 7.75 -0.700961 -1
      vertex 8.29904 -1.25 -1
    endloop
  endfacet
  facet normal 0 0 1
    outer loop
      vertex 7.35 -0.525 -1
      vertex 7.75 -0.700961 -1
      vertex 8.1375 -0.736009 -1
    endloop
  endfacet
  facet normal 0 0 1
    outer loop
      vertex 7.75 -0.700961 -1
      vertex 7.35 -0.525 -1
      vertex 7.22165 -0.559391 -1
    endloop
  endfacet
  facet normal 0 0 1
    outer loop
      vertex 8.925 -2.1 -1
      vertex 8.29904 -2.75 -1
      vertex 8.71399 -2.8875 -1
    endloop
  endfacet
  facet normal 0 0 1
    outer loop
      vertex 8.29904 -2.75 -1
      vertex 8.1375 -3.46399 -1
      vertex 8.71399 -2.8875 -1
    endloop
  endfacet
  facet normal -0 0 1
    outer loop
      vertex 7.75 -3.29904 -1
      vertex 8.1375 -3.46399 -1
      vertex 8.29904 -2.75 -1
    endloop
  endfacet
  facet normal 0 0 1
    outer loop
      vertex 7.75 -3.29904 -1
      vertex 7.35 -3.675 -1
      vertex 8.1375 -3.46399 -1
    endloop
  endfacet
  facet normal -0 0 1
    outer loop
      vertex 7 -3.5 -1
      vertex 7.35 -3.675 -1
      vertex 7.75 -3.29904 -1
    endloop
  endfacet
  facet normal 0 0 1
    outer loop
      vertex 7 -3.5 -1
      vertex 6.5625 -3.46399 -1
      vertex 7.35 -3.675 -1
    endloop
  endfacet
  facet normal -0 -0 1
    outer loop
      vertex 6.5625 -3.46399 -1
      vertex 7 -3.5 -1
      vertex 6.45155 -3.35304 -1
    endloop
  endfacet
  facet normal 0.980785 -0.195092 0
    outer loop
      vertex 13.3478 -22.7654 2
      vertex 13.5 -22 -5
      vertex 13.5 -22 2
    endloop
  endfacet
  facet normal 0.980785 -0.195092 0
    outer loop
      vertex 13.5 -22 -5
      vertex 13.3478 -22.7654 2
      vertex 13.3478 -22.7654 -5
    endloop
  endfacet
  facet normal -0.555569 -0.83147 0
    outer loop
      vertex -12.9142 -23.4142 -5
      vertex -12.2654 -23.8478 2
      vertex -12.9142 -23.4142 2
    endloop
  endfacet
  facet normal -0.555571 -0.831469 2.26557e-07
    outer loop
      vertex -12.2654 -23.8478 2
      vertex -12.9142 -23.4142 -5
      vertex -12.2654 -23.8478 -5
    endloop
  endfacet
  facet normal 0 0 -1
    outer loop
      vertex 11.5 -24 -5
      vertex 13.5 -22 -5
      vertex 13.3478 -22.7654 -5
    endloop
  endfacet
  facet normal 0 0 -1
    outer loop
      vertex 13.5 -22 -5
      vertex 8.29904 -2.75 -5
      vertex 13.5 1 -5
    endloop
  endfacet
  facet normal 0 0 -1
    outer loop
      vertex 11.5 -24 -5
      vertex 13.3478 -22.7654 -5
      vertex 12.9142 -23.4142 -5
    endloop
  endfacet
  facet normal 0 -0 -1
    outer loop
      vertex 8.5 -2 -5
      vertex 13.5 1 -5
      vertex 8.29904 -2.75 -5
    endloop
  endfacet
  facet normal 0 0 -1
    outer loop
      vertex 11.5 -24 -5
      vertex 12.9142 -23.4142 -5
      vertex 12.2654 -23.8478 -5
    endloop
  endfacet
  facet normal 0 0 -1
    outer loop
      vertex 8.29904 -1.25 -5
      vertex 13.5 1 -5
      vertex 8.5 -2 -5
    endloop
  endfacet
  facet normal -0 0 -1
    outer loop
      vertex 13.5 -22 -5
      vertex 11.5 -24 -5
      vertex 7 -3.5 -5
    endloop
  endfacet
  facet normal 0 -0 -1
    outer loop
      vertex 11.5 3 -5
      vertex 13.5 1 -5
      vertex 8.29904 -1.25 -5
    endloop
  endfacet
  facet normal 0 0 -1
    outer loop
      vertex 13.5 1 -5
      vertex 11.5 3 -5
      vertex 13.3478 1.76537 -5
    endloop
  endfacet
  facet normal 0 0 -1
    outer loop
      vertex 13.3478 1.76537 -5
      vertex 11.5 3 -5
      vertex 12.9142 2.41421 -5
    endloop
  endfacet
  facet normal 0 0 -1
    outer loop
      vertex 13.5 -22 -5
      vertex 7.75 -3.29904 -5
      vertex 8.29904 -2.75 -5
    endloop
  endfacet
  facet normal 0 0 -1
    outer loop
      vertex 13.5 -22 -5
      vertex 7 -3.5 -5
      vertex 7.75 -3.29904 -5
    endloop
  endfacet
  facet normal 0 0 -1
    outer loop
      vertex 11.5 -24 -5
      vertex 6.25 -3.29904 -5
      vertex 7 -3.5 -5
    endloop
  endfacet
  facet normal 0 0 -1
    outer loop
      vertex -6.25 -3.29904 -5
      vertex 6.25 -3.29904 -5
      vertex 11.5 -24 -5
    endloop
  endfacet
  facet normal 0 0 -1
    outer loop
      vertex 5.70096 -2.75 -5
      vertex 4.4999 -2 -5
      vertex 5.5 -2 -5
    endloop
  endfacet
  facet normal 0 -0 -1
    outer loop
      vertex 4.4999 -2 -5
      vertex 6.25 -3.29904 -5
      vertex -6.25 -3.29904 -5
    endloop
  endfacet
  facet normal 0 0 -1
    outer loop
      vertex 6.25 -3.29904 -5
      vertex 4.4999 -2 -5
      vertex 5.70096 -2.75 -5
    endloop
  endfacet
  facet normal 0 0 -1
    outer loop
      vertex -5.70096 -1.25 -5
      vertex -4.4999 -2 -5
      vertex -5.5 -2 -5
    endloop
  endfacet
  facet normal -0 0 -1
    outer loop
      vertex 4.4999 -2 -5
      vertex -6.25 -3.29904 -5
      vertex -4.4999 -2 -5
    endloop
  endfacet
  facet normal -0 0 -1
    outer loop
      vertex -4.4999 -2 -5
      vertex -5.70096 -2.75 -5
      vertex -5.5 -2 -5
    endloop
  endfacet
  facet normal 0 0 -1
    outer loop
      vertex -4.4999 -2 -5
      vertex -6.25 -3.29904 -5
      vertex -5.70096 -2.75 -5
    endloop
  endfacet
  facet normal 0 0 -1
    outer loop
      vertex -11.5 -24 -5
      vertex -6.25 -3.29904 -5
      vertex 11.5 -24 -5
    endloop
  endfacet
  facet normal 0 0 -1
    outer loop
      vertex -6.25 -3.29904 -5
      vertex -11.5 -24 -5
      vertex -7 -3.5 -5
    endloop
  endfacet
  facet normal 0 0 -1
    outer loop
      vertex -13.5 -22 -5
      vertex -7 -3.5 -5
      vertex -11.5 -24 -5
    endloop
  endfacet
  facet normal -0 0 -1
    outer loop
      vertex -7.75 -3.29904 -5
      vertex -13.5 -22 -5
      vertex -8.29904 -2.75 -5
    endloop
  endfacet
  facet normal -0 0 -1
    outer loop
      vertex -7 -3.5 -5
      vertex -13.5 -22 -5
      vertex -7.75 -3.29904 -5
    endloop
  endfacet
  facet normal 0 0 -1
    outer loop
      vertex 12.9142 2.41421 -5
      vertex 11.5 3 -5
      vertex 12.2654 2.84776 -5
    endloop
  endfacet
  facet normal 0 0 -1
    outer loop
      vertex 7.75 -0.700961 -5
      vertex 11.5 3 -5
      vertex 8.29904 -1.25 -5
    endloop
  endfacet
  facet normal 0 0 -1
    outer loop
      vertex 7 -0.5 -5
      vertex 11.5 3 -5
      vertex 7.75 -0.700961 -5
    endloop
  endfacet
  facet normal 0 0 -1
    outer loop
      vertex 4.4999 3 -5
      vertex 7 -0.5 -5
      vertex 6.25 -0.700961 -5
    endloop
  endfacet
  facet normal 0 0 -1
    outer loop
      vertex 4.4999 -2 -5
      vertex 5.70096 -1.25 -5
      vertex 5.5 -2 -5
    endloop
  endfacet
  facet normal 0 0 -1
    outer loop
      vertex 4.4999 3 -5
      vertex 5.70096 -1.25 -5
      vertex 4.4999 -2 -5
    endloop
  endfacet
  facet normal 0 0 -1
    outer loop
      vertex 7 -0.5 -5
      vertex 4.4999 3 -5
      vertex 11.5 3 -5
    endloop
  endfacet
  facet normal 0 0 -1
    outer loop
      vertex 5.70096 -1.25 -5
      vertex 4.4999 3 -5
      vertex 6.25 -0.700961 -5
    endloop
  endfacet
  facet normal 0 0 -1
    outer loop
      vertex -4.4999 -2 -5
      vertex -5.70096 -1.25 -5
      vertex -4.4999 3 -5
    endloop
  endfacet
  facet normal 0 0 -1
    outer loop
      vertex -6.25 -0.700961 -5
      vertex -4.4999 3 -5
      vertex -5.70096 -1.25 -5
    endloop
  endfacet
  facet normal 0 0 -1
    outer loop
      vertex -7 -0.5 -5
      vertex -4.4999 3 -5
      vertex -6.25 -0.700961 -5
    endloop
  endfacet
  facet normal 0 0 -1
    outer loop
      vertex -11.5 3 -5
      vertex -7 -0.5 -5
      vertex -7.75 -0.700961 -5
    endloop
  endfacet
  facet normal 0 0 -1
    outer loop
      vertex -11.5 3 -5
      vertex -7.75 -0.700961 -5
      vertex -8.29904 -1.25 -5
    endloop
  endfacet
  facet normal 0 0 -1
    outer loop
      vertex -7 -0.5 -5
      vertex -11.5 3 -5
      vertex -4.4999 3 -5
    endloop
  endfacet
  facet normal 0 0 -1
    outer loop
      vertex -13.5 1 -5
      vertex -8.29904 -1.25 -5
      vertex -8.5 -2 -5
    endloop
  endfacet
  facet normal 0 0 -1
    outer loop
      vertex -13.5 1 -5
      vertex -8.29904 -2.75 -5
      vertex -13.5 -22 -5
    endloop
  endfacet
  facet normal 0 0 -1
    outer loop
      vertex -13.5 -22 -5
      vertex -11.5 -24 -5
      vertex -12.2654 -23.8478 -5
    endloop
  endfacet
  facet normal 0 0 -1
    outer loop
      vertex -8.29904 -2.75 -5
      vertex -13.5 1 -5
      vertex -8.5 -2 -5
    endloop
  endfacet
  facet normal 0 0 -1
    outer loop
      vertex -13.5 -22 -5
      vertex -12.2654 -23.8478 -5
      vertex -12.9142 -23.4142 -5
    endloop
  endfacet
  facet normal 0 0 -1
    outer loop
      vertex -8.29904 -1.25 -5
      vertex -13.5 1 -5
      vertex -11.5 3 -5
    endloop
  endfacet
  facet normal 0 0 -1
    outer loop
      vertex -13.5 -22 -5
      vertex -12.9142 -23.4142 -5
      vertex -13.3478 -22.7654 -5
    endloop
  endfacet
  facet normal 0 0 -1
    outer loop
      vertex -11.5 3 -5
      vertex -13.5 1 -5
      vertex -12.2654 2.84776 -5
    endloop
  endfacet
  facet normal 0 0 -1
    outer loop
      vertex -12.2654 2.84776 -5
      vertex -13.5 1 -5
      vertex -12.9142 2.41421 -5
    endloop
  endfacet
  facet normal 0 0 -1
    outer loop
      vertex -12.9142 2.41421 -5
      vertex -13.5 1 -5
      vertex -13.3478 1.76537 -5
    endloop
  endfacet
  facet normal 0 1 0
    outer loop
      vertex 11.5 3 2
      vertex 4.4999 3 -3.67394e-16
      vertex -11.5 3 2
    endloop
  endfacet
  facet normal 0 1 -0
    outer loop
      vertex 11.5 3 -5
      vertex 4.4999 3 -3.67394e-16
      vertex 11.5 3 2
    endloop
  endfacet
  facet normal 0 1 0
    outer loop
      vertex 4.4999 3 -3.67394e-16
      vertex 11.5 3 -5
      vertex 4.4999 3 -5
    endloop
  endfacet
  facet normal 0 1 -0
    outer loop
      vertex -4.4999 3 -3.67394e-16
      vertex -11.5 3 2
      vertex 4.4999 3 -3.67394e-16
    endloop
  endfacet
  facet normal 0 1 0
    outer loop
      vertex -11.5 3 -5
      vertex -4.4999 3 -3.67394e-16
      vertex -4.4999 3 -5
    endloop
  endfacet
  facet normal 0 1 0
    outer loop
      vertex -4.4999 3 -3.67394e-16
      vertex -11.5 3 -5
      vertex -11.5 3 2
    endloop
  endfacet
  facet normal 0 0 1
    outer loop
      vertex 12.4401 0.803635 2
      vertex 13.5 1 2
      vertex 13.3478 1.76537 2
    endloop
  endfacet
  facet normal 0 0 1
    outer loop
      vertex 13.5 1 2
      vertex 12.6 2.44929e-16 2
      vertex 13.5 -22 2
    endloop
  endfacet
  facet normal 0 0 1
    outer loop
      vertex 11.9849 1.48492 2
      vertex 13.3478 1.76537 2
      vertex 12.9142 2.41421 2
    endloop
  endfacet
  facet normal -0 0 1
    outer loop
      vertex 12.6 -21 2
      vertex 13.5 -22 2
      vertex 12.6 2.44929e-16 2
    endloop
  endfacet
  facet normal -0 0 1
    outer loop
      vertex 12.4401 -21.8036 2
      vertex 13.5 -22 2
      vertex 12.6 -21 2
    endloop
  endfacet
  facet normal 0 0 1
    outer loop
      vertex 13.5 1 2
      vertex 12.4401 0.803635 2
      vertex 12.6 2.44929e-16 2
    endloop
  endfacet
  facet normal 0 0 1
    outer loop
      vertex 11.9849 1.48492 2
      vertex 12.9142 2.41421 2
      vertex 12.2654 2.84776 2
    endloop
  endfacet
  facet normal 0 0 1
    outer loop
      vertex 13.3478 1.76537 2
      vertex 11.9849 1.48492 2
      vertex 12.4401 0.803635 2
    endloop
  endfacet
  facet normal 0 0 1
    outer loop
      vertex 11.3036 1.94015 2
      vertex 12.2654 2.84776 2
      vertex 11.5 3 2
    endloop
  endfacet
  facet normal 0 0 1
    outer loop
      vertex 12.2654 2.84776 2
      vertex 11.3036 1.94015 2
      vertex 11.9849 1.48492 2
    endloop
  endfacet
  facet normal 0 0 1
    outer loop
      vertex 11.5 3 2
      vertex 10.5 2.1 2
      vertex 11.3036 1.94015 2
    endloop
  endfacet
  facet normal 0 0 1
    outer loop
      vertex 11.5 3 2
      vertex -10.5 2.1 2
      vertex 10.5 2.1 2
    endloop
  endfacet
  facet normal -0 0 1
    outer loop
      vertex -11.5 3 2
      vertex -10.5 2.1 2
      vertex 11.5 3 2
    endloop
  endfacet
  facet normal 0 0 1
    outer loop
      vertex -11.5 3 2
      vertex -11.3036 1.94015 2
      vertex -10.5 2.1 2
    endloop
  endfacet
  facet normal -0 0 1
    outer loop
      vertex -12.2654 2.84776 2
      vertex -11.3036 1.94015 2
      vertex -11.5 3 2
    endloop
  endfacet
  facet normal 0 0 1
    outer loop
      vertex -11.3036 1.94015 2
      vertex -12.2654 2.84776 2
      vertex -11.9849 1.48492 2
    endloop
  endfacet
  facet normal -0 0 1
    outer loop
      vertex -12.9142 2.41421 2
      vertex -11.9849 1.48492 2
      vertex -12.2654 2.84776 2
    endloop
  endfacet
  facet normal -0 0 1
    outer loop
      vertex -13.3478 1.76537 2
      vertex -11.9849 1.48492 2
      vertex -12.9142 2.41421 2
    endloop
  endfacet
  facet normal -0 0 1
    outer loop
      vertex -13.5 1 2
      vertex -12.4401 0.803635 2
      vertex -13.3478 1.76537 2
    endloop
  endfacet
  facet normal 0 0 1
    outer loop
      vertex -11.9849 1.48492 2
      vertex -13.3478 1.76537 2
      vertex -12.4401 0.803635 2
    endloop
  endfacet
  facet normal 0 0 1
    outer loop
      vertex 13.5 -22 2
      vertex 12.4401 -21.8036 2
      vertex 13.3478 -22.7654 2
    endloop
  endfacet
  facet normal -0 0 1
    outer loop
      vertex 11.9849 -22.4849 2
      vertex 13.3478 -22.7654 2
      vertex 12.4401 -21.8036 2
    endloop
  endfacet
  facet normal 0 0 1
    outer loop
      vertex 13.3478 -22.7654 2
      vertex 11.9849 -22.4849 2
      vertex 12.9142 -23.4142 2
    endloop
  endfacet
  facet normal 0 0 1
    outer loop
      vertex 12.9142 -23.4142 2
      vertex 11.9849 -22.4849 2
      vertex 12.2654 -23.8478 2
    endloop
  endfacet
  facet normal -0 0 1
    outer loop
      vertex 11.3036 -22.9401 2
      vertex 12.2654 -23.8478 2
      vertex 11.9849 -22.4849 2
    endloop
  endfacet
  facet normal 0 0 1
    outer loop
      vertex 12.2654 -23.8478 2
      vertex 11.3036 -22.9401 2
      vertex 11.5 -24 2
    endloop
  endfacet
  facet normal -0 0 1
    outer loop
      vertex 11 -23.0005 2
      vertex 11.5 -24 2
      vertex 11.3036 -22.9401 2
    endloop
  endfacet
  facet normal 0 0 1
    outer loop
      vertex 11.5 -24 2
      vertex 11 -23.0005 2
      vertex 11 -24 2
    endloop
  endfacet
  facet normal 0 0 1
    outer loop
      vertex -11.5 -24 2
      vertex -11 -23.0005 2
      vertex -11.3036 -22.9401 2
    endloop
  endfacet
  facet normal 0 0 1
    outer loop
      vertex -11 -23.0005 2
      vertex -11.5 -24 2
      vertex -11 -24 2
    endloop
  endfacet
  facet normal 0 0 1
    outer loop
      vertex -12.2654 -23.8478 2
      vertex -11.3036 -22.9401 2
      vertex -11.9849 -22.4849 2
    endloop
  endfacet
  facet normal 0 0 1
    outer loop
      vertex -11.3036 -22.9401 2
      vertex -12.2654 -23.8478 2
      vertex -11.5 -24 2
    endloop
  endfacet
  facet normal 0 0 1
    outer loop
      vertex -13.3478 -22.7654 2
      vertex -11.9849 -22.4849 2
      vertex -12.4401 -21.8036 2
    endloop
  endfacet
  facet normal 0 0 1
    outer loop
      vertex -13.5 -22 2
      vertex -12.4401 -21.8036 2
      vertex -12.6 -21 2
    endloop
  endfacet
  facet normal 0 0 1
    outer loop
      vertex -11.9849 -22.4849 2
      vertex -12.9142 -23.4142 2
      vertex -12.2654 -23.8478 2
    endloop
  endfacet
  facet normal 0 0 1
    outer loop
      vertex -12.6 2.44929e-16 2
      vertex -13.5 1 2
      vertex -12.6 -21 2
    endloop
  endfacet
  facet normal 0 0 1
    outer loop
      vertex -12.4401 0.803635 2
      vertex -13.5 1 2
      vertex -12.6 2.44929e-16 2
    endloop
  endfacet
  facet normal 0 0 1
    outer loop
      vertex -13.5 -22 2
      vertex -12.6 -21 2
      vertex -13.5 1 2
    endloop
  endfacet
  facet normal 0 0 1
    outer loop
      vertex -12.4401 -21.8036 2
      vertex -13.5 -22 2
      vertex -13.3478 -22.7654 2
    endloop
  endfacet
  facet normal 0 0 1
    outer loop
      vertex -11.9849 -22.4849 2
      vertex -13.3478 -22.7654 2
      vertex -12.9142 -23.4142 2
    endloop
  endfacet
  facet normal -0 0 1
    outer loop
      vertex -3 -23.1 2
      vertex 3 -24 2
      vertex 3 -23.1 2
    endloop
  endfacet
  facet normal 0 0 1
    outer loop
      vertex 3 -24 2
      vertex -3 -23.1 2
      vertex -3 -24 2
    endloop
  endfacet
  facet normal 1 -0 0
    outer loop
      vertex 13.5 -22 2
      vertex 13.5 1 -5
      vertex 13.5 1 2
    endloop
  endfacet
  facet normal 1 0 0
    outer loop
      vertex 13.5 1 -5
      vertex 13.5 -22 2
      vertex 13.5 -22 -5
    endloop
  endfacet
  facet normal 0.195093 -0.980785 0
    outer loop
      vertex 11.5 -24 -5
      vertex 12.2654 -23.8478 2
      vertex 11.5 -24 2
    endloop
  endfacet
  facet normal 0.19509 -0.980785 2.67243e-07
    outer loop
      vertex 12.2654 -23.8478 2
      vertex 11.5 -24 -5
      vertex 12.2654 -23.8478 -5
    endloop
  endfacet
  facet normal 0 -1 0
    outer loop
      vertex -11.5 -24 2
      vertex -11 -24 -3
      vertex -11 -24 2
    endloop
  endfacet
  facet normal 0 -1 0
    outer loop
      vertex -11.5 -24 -5
      vertex -3 -24 -3
      vertex -11 -24 -3
    endloop
  endfacet
  facet normal 0 -1 -0
    outer loop
      vertex -3 -24 -3
      vertex -11.5 -24 -5
      vertex 3 -24 -3
    endloop
  endfacet
  facet normal 0 -1 0
    outer loop
      vertex 11.5 -24 -5
      vertex 3 -24 -3
      vertex -11.5 -24 -5
    endloop
  endfacet
  facet normal 0 -1 0
    outer loop
      vertex -11.5 -24 -5
      vertex -11 -24 -3
      vertex -11.5 -24 2
    endloop
  endfacet
  facet normal 0 -1 0
    outer loop
      vertex -3 -24 -3
      vertex 3 -24 2
      vertex -3 -24 2
    endloop
  endfacet
  facet normal 0 -1 -0
    outer loop
      vertex 3 -24 2
      vertex -3 -24 -3
      vertex 3 -24 -3
    endloop
  endfacet
  facet normal 0 -1 0
    outer loop
      vertex 11 -24 -3
      vertex 11.5 -24 2
      vertex 11 -24 2
    endloop
  endfacet
  facet normal 0 -1 0
    outer loop
      vertex 11 -24 -3
      vertex 11.5 -24 -5
      vertex 11.5 -24 2
    endloop
  endfacet
  facet normal 0 -1 0
    outer loop
      vertex 3 -24 -3
      vertex 11.5 -24 -5
      vertex 11 -24 -3
    endloop
  endfacet
  facet normal -1 0 0
    outer loop
      vertex -13.5 -22 -5
      vertex -13.5 1 2
      vertex -13.5 1 -5
    endloop
  endfacet
  facet normal -1 -0 0
    outer loop
      vertex -13.5 1 2
      vertex -13.5 -22 -5
      vertex -13.5 -22 2
    endloop
  endfacet
  facet normal -0.980785 0.195091 0
    outer loop
      vertex -13.5 1 -5
      vertex -13.3478 1.76537 2
      vertex -13.3478 1.76537 -5
    endloop
  endfacet
  facet normal -0.980785 0.195091 0
    outer loop
      vertex -13.3478 1.76537 2
      vertex -13.5 1 -5
      vertex -13.5 1 2
    endloop
  endfacet
  facet normal -0.55557 0.83147 0
    outer loop
      vertex -12.2654 2.84776 -5
      vertex -12.9142 2.41421 2
      vertex -12.2654 2.84776 2
    endloop
  endfacet
  facet normal -0.55557 0.83147 0
    outer loop
      vertex -12.9142 2.41421 2
      vertex -12.2654 2.84776 -5
      vertex -12.9142 2.41421 -5
    endloop
  endfacet
  facet normal 0.83147 -0.555569 0
    outer loop
      vertex 12.9142 -23.4142 2
      vertex 13.3478 -22.7654 -5
      vertex 13.3478 -22.7654 2
    endloop
  endfacet
  facet normal 0.83147 -0.555569 0
    outer loop
      vertex 13.3478 -22.7654 -5
      vertex 12.9142 -23.4142 2
      vertex 12.9142 -23.4142 -5
    endloop
  endfacet
  facet normal 0.555569 -0.83147 2.26558e-07
    outer loop
      vertex 12.2654 -23.8478 -5
      vertex 12.9142 -23.4142 2
      vertex 12.2654 -23.8478 2
    endloop
  endfacet
  facet normal 0.555571 -0.831469 0
    outer loop
      vertex 12.9142 -23.4142 2
      vertex 12.2654 -23.8478 -5
      vertex 12.9142 -23.4142 -5
    endloop
  endfacet
  facet normal -0.195093 -0.980785 2.67243e-07
    outer loop
      vertex -12.2654 -23.8478 -5
      vertex -11.5 -24 2
      vertex -12.2654 -23.8478 2
    endloop
  endfacet
  facet normal -0.19509 -0.980785 -0
    outer loop
      vertex -11.5 -24 2
      vertex -12.2654 -23.8478 -5
      vertex -11.5 -24 -5
    endloop
  endfacet
  facet normal -0.195091 0.980785 0
    outer loop
      vertex -11.5 3 -5
      vertex -12.2654 2.84776 2
      vertex -11.5 3 2
    endloop
  endfacet
  facet normal -0.195091 0.980785 0
    outer loop
      vertex -12.2654 2.84776 2
      vertex -11.5 3 -5
      vertex -12.2654 2.84776 -5
    endloop
  endfacet
  facet normal 0.83147 0.55557 0
    outer loop
      vertex 13.3478 1.76537 2
      vertex 12.9142 2.41421 -5
      vertex 12.9142 2.41421 2
    endloop
  endfacet
  facet normal 0.83147 0.55557 0
    outer loop
      vertex 12.9142 2.41421 -5
      vertex 13.3478 1.76537 2
      vertex 13.3478 1.76537 -5
    endloop
  endfacet
  facet normal 0.195091 0.980785 -0
    outer loop
      vertex 12.2654 2.84776 -5
      vertex 11.5 3 2
      vertex 12.2654 2.84776 2
    endloop
  endfacet
  facet normal 0.195091 0.980785 0
    outer loop
      vertex 11.5 3 2
      vertex 12.2654 2.84776 -5
      vertex 11.5 3 -5
    endloop
  endfacet
  facet normal 0.980785 0.195091 0
    outer loop
      vertex 13.5 1 2
      vertex 13.3478 1.76537 -5
      vertex 13.3478 1.76537 2
    endloop
  endfacet
  facet normal 0.980785 0.195091 0
    outer loop
      vertex 13.3478 1.76537 -5
      vertex 13.5 1 2
      vertex 13.5 1 -5
    endloop
  endfacet
  facet normal -0.980785 -0.195092 0
    outer loop
      vertex -13.3478 -22.7654 -5
      vertex -13.5 -22 2
      vertex -13.5 -22 -5
    endloop
  endfacet
  facet normal -0.980785 -0.195092 0
    outer loop
      vertex -13.5 -22 2
      vertex -13.3478 -22.7654 -5
      vertex -13.3478 -22.7654 2
    endloop
  endfacet
  facet normal -0.83147 -0.555569 0
    outer loop
      vertex -12.9142 -23.4142 -5
      vertex -13.3478 -22.7654 2
      vertex -13.3478 -22.7654 -5
    endloop
  endfacet
  facet normal -0.83147 -0.555569 0
    outer loop
      vertex -13.3478 -22.7654 2
      vertex -12.9142 -23.4142 -5
      vertex -12.9142 -23.4142 2
    endloop
  endfacet
  facet normal -0.83147 0.55557 0
    outer loop
      vertex -13.3478 1.76537 -5
      vertex -12.9142 2.41421 2
      vertex -12.9142 2.41421 -5
    endloop
  endfacet
  facet normal -0.83147 0.55557 0
    outer loop
      vertex -12.9142 2.41421 2
      vertex -13.3478 1.76537 -5
      vertex -13.3478 1.76537 2
    endloop
  endfacet
  facet normal 0.55557 0.83147 -0
    outer loop
      vertex 12.9142 2.41421 -5
      vertex 12.2654 2.84776 2
      vertex 12.9142 2.41421 2
    endloop
  endfacet
  facet normal 0.55557 0.83147 0
    outer loop
      vertex 12.2654 2.84776 2
      vertex 12.9142 2.41421 -5
      vertex 12.2654 2.84776 -5
    endloop
  endfacet
  facet normal -0.965926 0.258819 0
    outer loop
      vertex 8.29904 -2.75 -5
      vertex 8.5 -2 -1
      vertex 8.5 -2 -5
    endloop
  endfacet
  facet normal -0.965926 0.258819 0
    outer loop
      vertex 8.5 -2 -1
      vertex 8.29904 -2.75 -5
      vertex 8.29904 -2.75 -1
    endloop
  endfacet
  facet normal 0.258819 0.965926 0
    outer loop
      vertex 7 -3.5 -1
      vertex 6.45155 -3.35304 -3
      vertex 6.45155 -3.35304 -1
    endloop
  endfacet
  facet normal 0.258819 0.965926 -0
    outer loop
      vertex 7 -3.5 -5
      vertex 6.45155 -3.35304 -3
      vertex 7 -3.5 -1
    endloop
  endfacet
  facet normal 0.258819 0.965926 -9.50425e-09
    outer loop
      vertex 6.25 -3.29904 -5
      vertex 6.45155 -3.35304 -3
      vertex 7 -3.5 -5
    endloop
  endfacet
  facet normal 0.258819 0.965926 0
    outer loop
      vertex 6.45155 -3.35304 -3
      vertex 6.25 -3.29904 -5
      vertex 6.25 -3.29904 -3
    endloop
  endfacet
  facet normal 0.965926 -0.258818 0
    outer loop
      vertex 5.5 -2 -3
      vertex 5.70096 -1.25 -5
      vertex 5.70096 -1.25 -3
    endloop
  endfacet
  facet normal 0.965926 -0.258818 0
    outer loop
      vertex 5.70096 -1.25 -5
      vertex 5.5 -2 -3
      vertex 5.5 -2 -5
    endloop
  endfacet
  facet normal 0.707106 0.707107 -0
    outer loop
      vertex 6.25 -3.29904 -5
      vertex 5.70096 -2.75 -3
      vertex 6.25 -3.29904 -3
    endloop
  endfacet
  facet normal 0.707106 0.707107 0
    outer loop
      vertex 5.70096 -2.75 -3
      vertex 6.25 -3.29904 -5
      vertex 5.70096 -2.75 -5
    endloop
  endfacet
  facet normal -0.965926 -0.258819 0
    outer loop
      vertex 8.5 -2 -5
      vertex 8.29904 -1.25 -1
      vertex 8.29904 -1.25 -5
    endloop
  endfacet
  facet normal -0.965926 -0.258819 0
    outer loop
      vertex 8.29904 -1.25 -1
      vertex 8.5 -2 -5
      vertex 8.5 -2 -1
    endloop
  endfacet
  facet normal -0.707107 -0.707107 0
    outer loop
      vertex 8.29904 -1.25 -5
      vertex 7.75 -0.700961 -1
      vertex 7.75 -0.700961 -5
    endloop
  endfacet
  facet normal -0.707107 -0.707107 0
    outer loop
      vertex 7.75 -0.700961 -1
      vertex 8.29904 -1.25 -5
      vertex 8.29904 -1.25 -1
    endloop
  endfacet
  facet normal -0.258818 -0.965926 -0
    outer loop
      vertex 7 -0.5 -3
      vertex 7 -0.5 -5
      vertex 7.22165 -0.559391 -3
    endloop
  endfacet
  facet normal -0.258818 -0.965926 0
    outer loop
      vertex 7.22165 -0.559391 -3
      vertex 7.75 -0.700961 -1
      vertex 7.22165 -0.559391 -1
    endloop
  endfacet
  facet normal -0.258818 -0.965926 -1.6443e-08
    outer loop
      vertex 7.75 -0.700961 -5
      vertex 7.22165 -0.559391 -3
      vertex 7 -0.5 -5
    endloop
  endfacet
  facet normal -0.258818 -0.965926 0
    outer loop
      vertex 7.22165 -0.559391 -3
      vertex 7.75 -0.700961 -5
      vertex 7.75 -0.700961 -1
    endloop
  endfacet
  facet normal 0.707107 -0.707106 0
    outer loop
      vertex 5.70096 -1.25 -3
      vertex 6.25 -0.700961 -5
      vertex 6.25 -0.700961 -3
    endloop
  endfacet
  facet normal 0.707107 -0.707106 0
    outer loop
      vertex 6.25 -0.700961 -5
      vertex 5.70096 -1.25 -3
      vertex 5.70096 -1.25 -5
    endloop
  endfacet
  facet normal -0.258819 0.965926 0
    outer loop
      vertex 7.75 -3.29904 -5
      vertex 7 -3.5 -1
      vertex 7.75 -3.29904 -1
    endloop
  endfacet
  facet normal -0.258819 0.965926 0
    outer loop
      vertex 7 -3.5 -1
      vertex 7.75 -3.29904 -5
      vertex 7 -3.5 -5
    endloop
  endfacet
  facet normal -0.707107 0.707107 0
    outer loop
      vertex 7.75 -3.29904 -5
      vertex 8.29904 -2.75 -1
      vertex 8.29904 -2.75 -5
    endloop
  endfacet
  facet normal -0.707107 0.707107 0
    outer loop
      vertex 8.29904 -2.75 -1
      vertex 7.75 -3.29904 -5
      vertex 7.75 -3.29904 -1
    endloop
  endfacet
  facet normal 0.258818 -0.965926 0
    outer loop
      vertex 6.25 -0.700961 -5
      vertex 7 -0.5 -3
      vertex 6.25 -0.700961 -3
    endloop
  endfacet
  facet normal 0.258818 -0.965926 0
    outer loop
      vertex 7 -0.5 -3
      vertex 6.25 -0.700961 -5
      vertex 7 -0.5 -5
    endloop
  endfacet
  facet normal 0.965926 0.258818 0
    outer loop
      vertex 5.70096 -2.75 -3
      vertex 5.5 -2 -5
      vertex 5.5 -2 -3
    endloop
  endfacet
  facet normal 0.965926 0.258818 0
    outer loop
      vertex 5.5 -2 -5
      vertex 5.70096 -2.75 -3
      vertex 5.70096 -2.75 -5
    endloop
  endfacet
  facet normal 0.965926 0.258819 0
    outer loop
      vertex -8.29904 -2.75 -1
      vertex -8.5 -2 -5
      vertex -8.5 -2 -1
    endloop
  endfacet
  facet normal 0.965926 0.258819 0
    outer loop
      vertex -8.5 -2 -5
      vertex -8.29904 -2.75 -1
      vertex -8.29904 -2.75 -5
    endloop
  endfacet
  facet normal -0.258818 -0.965926 0
    outer loop
      vertex -7 -0.5 -5
      vertex -6.25 -0.700961 -3
      vertex -7 -0.5 -3
    endloop
  endfacet
  facet normal -0.258818 -0.965926 -0
    outer loop
      vertex -6.25 -0.700961 -3
      vertex -7 -0.5 -5
      vertex -6.25 -0.700961 -5
    endloop
  endfacet
  facet normal 0.258818 -0.965926 0
    outer loop
      vertex -7.75 -0.700961 -1
      vertex -7.22165 -0.559391 -3
      vertex -7.22165 -0.559391 -1
    endloop
  endfacet
  facet normal 0.258818 -0.965926 0
    outer loop
      vertex -7.75 -0.700961 -5
      vertex -7.22165 -0.559391 -3
      vertex -7.75 -0.700961 -1
    endloop
  endfacet
  facet normal 0.258818 -0.965926 -1.6443e-08
    outer loop
      vertex -7 -0.5 -5
      vertex -7.22165 -0.559391 -3
      vertex -7.75 -0.700961 -5
    endloop
  endfacet
  facet normal 0.258818 -0.965926 0
    outer loop
      vertex -7.22165 -0.559391 -3
      vertex -7 -0.5 -5
      vertex -7 -0.5 -3
    endloop
  endfacet
  facet normal -0.707107 -0.707106 0
    outer loop
      vertex -5.70096 -1.25 -5
      vertex -6.25 -0.700961 -3
      vertex -6.25 -0.700961 -5
    endloop
  endfacet
  facet normal -0.707107 -0.707106 0
    outer loop
      vertex -6.25 -0.700961 -3
      vertex -5.70096 -1.25 -5
      vertex -5.70096 -1.25 -3
    endloop
  endfacet
  facet normal 0.707107 0.707107 0
    outer loop
      vertex -7.75 -3.29904 -1
      vertex -8.29904 -2.75 -5
      vertex -8.29904 -2.75 -1
    endloop
  endfacet
  facet normal 0.707107 0.707107 0
    outer loop
      vertex -8.29904 -2.75 -5
      vertex -7.75 -3.29904 -1
      vertex -7.75 -3.29904 -5
    endloop
  endfacet
  facet normal -0.965926 -0.258818 0
    outer loop
      vertex -5.5 -2 -5
      vertex -5.70096 -1.25 -3
      vertex -5.70096 -1.25 -5
    endloop
  endfacet
  facet normal -0.965926 -0.258818 0
    outer loop
      vertex -5.70096 -1.25 -3
      vertex -5.5 -2 -5
      vertex -5.5 -2 -3
    endloop
  endfacet
  facet normal -0.707106 0.707107 0
    outer loop
      vertex -5.70096 -2.75 -5
      vertex -6.25 -3.29904 -3
      vertex -5.70096 -2.75 -3
    endloop
  endfacet
  facet normal -0.707106 0.707107 0
    outer loop
      vertex -6.25 -3.29904 -3
      vertex -5.70096 -2.75 -5
      vertex -6.25 -3.29904 -5
    endloop
  endfacet
  facet normal -0.965926 0.258818 0
    outer loop
      vertex -5.70096 -2.75 -5
      vertex -5.5 -2 -3
      vertex -5.5 -2 -5
    endloop
  endfacet
  facet normal -0.965926 0.258818 0
    outer loop
      vertex -5.5 -2 -3
      vertex -5.70096 -2.75 -5
      vertex -5.70096 -2.75 -3
    endloop
  endfacet
  facet normal 0.707107 -0.707107 0
    outer loop
      vertex -8.29904 -1.25 -1
      vertex -7.75 -0.700961 -5
      vertex -7.75 -0.700961 -1
    endloop
  endfacet
  facet normal 0.707107 -0.707107 0
    outer loop
      vertex -7.75 -0.700961 -5
      vertex -8.29904 -1.25 -1
      vertex -8.29904 -1.25 -5
    endloop
  endfacet
  facet normal 0.965926 -0.258819 0
    outer loop
      vertex -8.5 -2 -1
      vertex -8.29904 -1.25 -5
      vertex -8.29904 -1.25 -1
    endloop
  endfacet
  facet normal 0.965926 -0.258819 0
    outer loop
      vertex -8.29904 -1.25 -5
      vertex -8.5 -2 -1
      vertex -8.5 -2 -5
    endloop
  endfacet
  facet normal 0.258819 0.965926 -0
    outer loop
      vertex -7 -3.5 -5
      vertex -7.75 -3.29904 -1
      vertex -7 -3.5 -1
    endloop
  endfacet
  facet normal 0.258819 0.965926 0
    outer loop
      vertex -7.75 -3.29904 -1
      vertex -7 -3.5 -5
      vertex -7.75 -3.29904 -5
    endloop
  endfacet
  facet normal -0.258819 0.965926 0
    outer loop
      vertex -6.25 -3.29904 -3
      vertex -6.25 -3.29904 -5
      vertex -6.45155 -3.35304 -3
    endloop
  endfacet
  facet normal -0.258819 0.965926 0
    outer loop
      vertex -6.45155 -3.35304 -3
      vertex -7 -3.5 -1
      vertex -6.45155 -3.35304 -1
    endloop
  endfacet
  facet normal -0.258819 0.965926 -9.50425e-09
    outer loop
      vertex -7 -3.5 -5
      vertex -6.45155 -3.35304 -3
      vertex -6.25 -3.29904 -5
    endloop
  endfacet
  facet normal -0.258819 0.965926 0
    outer loop
      vertex -6.45155 -3.35304 -3
      vertex -7 -3.5 -5
      vertex -7 -3.5 -1
    endloop
  endfacet
  facet normal 1 -0 0
    outer loop
      vertex 3 -24 2
      vertex 3 -23.1 -3
      vertex 3 -23.1 2
    endloop
  endfacet
  facet normal 1 0 0
    outer loop
      vertex 3 -23.1 -3
      vertex 3 -24 2
      vertex 3 -24 -3
    endloop
  endfacet
  facet normal -1 0 0
    outer loop
      vertex 11 -24 -3
      vertex 11 -23.0005 2
      vertex 11 -23.0005 -3
    endloop
  endfacet
  facet normal -1 -0 0
    outer loop
      vertex 11 -23.0005 2
      vertex 11 -24 -3
      vertex 11 -24 2
    endloop
  endfacet
  facet normal 1 -0 0
    outer loop
      vertex -11 -24 2
      vertex -11 -23.0005 -3
      vertex -11 -23.0005 2
    endloop
  endfacet
  facet normal 1 0 0
    outer loop
      vertex -11 -23.0005 -3
      vertex -11 -24 2
      vertex -11 -24 -3
    endloop
  endfacet
  facet normal -1 0 0
    outer loop
      vertex -3 -24 -3
      vertex -3 -23.1 2
      vertex -3 -23.1 -3
    endloop
  endfacet
  facet normal -1 -0 0
    outer loop
      vertex -3 -23.1 2
      vertex -3 -24 -3
      vertex -3 -24 2
    endloop
  endfacet
  facet normal -1 0 0
    outer loop
      vertex 4.4999 3 -5
      vertex 4.4999 2.1 -3
      vertex 4.4999 3 -3.67394e-16
    endloop
  endfacet
  facet normal -1 0 0
    outer loop
      vertex 4.4999 -2 -5
      vertex 4.4999 2.1 -3
      vertex 4.4999 3 -5
    endloop
  endfacet
  facet normal -1 -0 0
    outer loop
      vertex 4.4999 2.1 -3
      vertex 4.4999 -2 -5
      vertex 4.4999 -2 -3
    endloop
  endfacet
  facet normal -1 -0 0
    outer loop
      vertex 4.4999 3 -3.67394e-16
      vertex 4.4999 2.1 -3
      vertex 4.4999 2.1 -2.57176e-16
    endloop
  endfacet
  facet normal 0 1 -0
    outer loop
      vertex 4.4999 -2 -5
      vertex -4.4999 -2 -3
      vertex 4.4999 -2 -3
    endloop
  endfacet
  facet normal 0 1 0
    outer loop
      vertex -4.4999 -2 -3
      vertex 4.4999 -2 -5
      vertex -4.4999 -2 -5
    endloop
  endfacet
  facet normal 0 -1.22465e-16 -1
    outer loop
      vertex -4.4999 2.1 -2.57176e-16
      vertex 4.4999 3 -3.67394e-16
      vertex 4.4999 2.1 -2.57176e-16
    endloop
  endfacet
  facet normal -0 -1.22465e-16 -1
    outer loop
      vertex 4.4999 3 -3.67394e-16
      vertex -4.4999 2.1 -2.57176e-16
      vertex -4.4999 3 -3.67394e-16
    endloop
  endfacet
  facet normal 1 0 0
    outer loop
      vertex -4.4999 2.1 -3
      vertex -4.4999 3 -3.67394e-16
      vertex -4.4999 2.1 -2.57176e-16
    endloop
  endfacet
  facet normal 1 0 0
    outer loop
      vertex -4.4999 3 -3.67394e-16
      vertex -4.4999 2.1 -3
      vertex -4.4999 3 -5
    endloop
  endfacet
  facet normal 1 0 0
    outer loop
      vertex -4.4999 -2 -5
      vertex -4.4999 2.1 -3
      vertex -4.4999 -2 -3
    endloop
  endfacet
  facet normal 1 0 0
    outer loop
      vertex -4.4999 2.1 -3
      vertex -4.4999 -2 -5
      vertex -4.4999 3 -5
    endloop
  endfacet
  facet normal -0 0 1
    outer loop
      vertex -5.9999 -5 -4
      vertex 5.9999 -17 -4
      vertex 5.9999 -5 -4
    endloop
  endfacet
  facet normal 0 0 1
    outer loop
      vertex 5.9999 -17 -4
      vertex -5.9999 -5 -4
      vertex -5.9999 -17 -4
    endloop
  endfacet
  facet normal -1 0 0
    outer loop
      vertex 5.9999 -17 -4
      vertex 5.9999 -5 -3
      vertex 5.9999 -5 -4
    endloop
  endfacet
  facet normal -1 -0 0
    outer loop
      vertex 5.9999 -5 -3
      vertex 5.9999 -17 -4
      vertex 5.9999 -17 -3
    endloop
  endfacet
  facet normal 0 1 -0
    outer loop
      vertex 5.9999 -17 -4
      vertex -5.9999 -17 -3
      vertex 5.9999 -17 -3
    endloop
  endfacet
  facet normal 0 1 0
    outer loop
      vertex -5.9999 -17 -3
      vertex 5.9999 -17 -4
      vertex -5.9999 -17 -4
    endloop
  endfacet
  facet normal 0 -1 0
    outer loop
      vertex -5.9999 -5 -4
      vertex 5.9999 -5 -3
      vertex -5.9999 -5 -3
    endloop
  endfacet
  facet normal 0 -1 -0
    outer loop
      vertex 5.9999 -5 -3
      vertex -5.9999 -5 -4
      vertex 5.9999 -5 -4
    endloop
  endfacet
  facet normal 1 -0 0
    outer loop
      vertex -5.9999 -17 -3
      vertex -5.9999 -5 -4
      vertex -5.9999 -5 -3
    endloop
  endfacet
  facet normal 1 0 0
    outer loop
      vertex -5.9999 -5 -4
      vertex -5.9999 -17 -3
      vertex -5.9999 -17 -4
    endloop
  endfacet
endsolid OpenSCAD_Model
