solid OpenSCAD_Model
  facet normal -1 0 0
    outer loop
      vertex -14.75 -22.75 4
      vertex -14.75 6.75 14
      vertex -14.75 6.75 4
    endloop
  endfacet
  facet normal -1 -0 0
    outer loop
      vertex -14.75 6.75 14
      vertex -14.75 -22.75 4
      vertex -14.75 -22.75 14
    endloop
  endfacet
  facet normal 0 0 1
    outer loop
      vertex -3.75 6.75 14
      vertex -13.75 5.75 14
      vertex -3.75 5.75 14
    endloop
  endfacet
  facet normal 0 0 1
    outer loop
      vertex -13.75 5.75 14
      vertex -14.75 6.75 14
      vertex -13.75 -21.75 14
    endloop
  endfacet
  facet normal -0 0 1
    outer loop
      vertex -14.75 6.75 14
      vertex -13.75 5.75 14
      vertex -3.75 6.75 14
    endloop
  endfacet
  facet normal -0 0 1
    outer loop
      vertex -13.75 -21.75 14
      vertex -3.75 -22.75 14
      vertex -3.75 -21.75 14
    endloop
  endfacet
  facet normal 0 0 1
    outer loop
      vertex -13.75 -21.75 14
      vertex -14.75 -22.75 14
      vertex -3.75 -22.75 14
    endloop
  endfacet
  facet normal 0 0 1
    outer loop
      vertex -14.75 -22.75 14
      vertex -13.75 -21.75 14
      vertex -14.75 6.75 14
    endloop
  endfacet
  facet normal 0 0 1
    outer loop
      vertex 14.75 6.75 14
      vertex 13.75 5.75 14
      vertex 14.75 -22.75 14
    endloop
  endfacet
  facet normal -0 0 1
    outer loop
      vertex 3.75 6.75 14
      vertex 13.75 5.75 14
      vertex 14.75 6.75 14
    endloop
  endfacet
  facet normal 0 0 1
    outer loop
      vertex 13.75 5.75 14
      vertex 3.75 6.75 14
      vertex 3.75 5.75 14
    endloop
  endfacet
  facet normal -0 0 1
    outer loop
      vertex 13.75 -21.75 14
      vertex 14.75 -22.75 14
      vertex 13.75 5.75 14
    endloop
  endfacet
  facet normal 0 0 1
    outer loop
      vertex 3.75 -22.75 14
      vertex 13.75 -21.75 14
      vertex 3.75 -21.75 14
    endloop
  endfacet
  facet normal 0 0 1
    outer loop
      vertex 13.75 -21.75 14
      vertex 3.75 -22.75 14
      vertex 14.75 -22.75 14
    endloop
  endfacet
  facet normal 1 -0 0
    outer loop
      vertex 14.75 -22.75 14
      vertex 14.75 6.75 4
      vertex 14.75 6.75 14
    endloop
  endfacet
  facet normal 1 0 0
    outer loop
      vertex 14.75 6.75 4
      vertex 14.75 -22.75 14
      vertex 14.75 -22.75 4
    endloop
  endfacet
  facet normal 0 1 0
    outer loop
      vertex 14.75 6.75 14
      vertex 11 6.75 5
      vertex 3.75 6.75 14
    endloop
  endfacet
  facet normal 0 1 -0
    outer loop
      vertex 14.75 6.75 4
      vertex 11 6.75 5
      vertex 14.75 6.75 14
    endloop
  endfacet
  facet normal 0 1 0
    outer loop
      vertex 11 6.75 5
      vertex 14.75 6.75 4
      vertex 11 6.75 4
    endloop
  endfacet
  facet normal 0 1 0
    outer loop
      vertex 3.75 6.75 14
      vertex 11 6.75 5
      vertex 3.75 6.75 5
    endloop
  endfacet
  facet normal 0 1 0
    outer loop
      vertex -11 6.75 5
      vertex -3.75 6.75 14
      vertex -3.75 6.75 5
    endloop
  endfacet
  facet normal 0 1 0
    outer loop
      vertex -3.75 6.75 14
      vertex -11 6.75 5
      vertex -14.75 6.75 14
    endloop
  endfacet
  facet normal 0 1 0
    outer loop
      vertex -14.75 6.75 4
      vertex -11 6.75 5
      vertex -11 6.75 4
    endloop
  endfacet
  facet normal 0 1 0
    outer loop
      vertex -11 6.75 5
      vertex -14.75 6.75 4
      vertex -14.75 6.75 14
    endloop
  endfacet
  facet normal 0 0 -1
    outer loop
      vertex 14.75 -22.75 4
      vertex 11 -21.5 4
      vertex 14.75 6.75 4
    endloop
  endfacet
  facet normal 0 0 -1
    outer loop
      vertex 14.75 -22.75 4
      vertex -11 -21.5 4
      vertex 11 -21.5 4
    endloop
  endfacet
  facet normal 0 0 -1
    outer loop
      vertex -14.75 -22.75 4
      vertex -11 -21.5 4
      vertex 14.75 -22.75 4
    endloop
  endfacet
  facet normal 0 0 -1
    outer loop
      vertex -14.75 6.75 4
      vertex -11 -21.5 4
      vertex -14.75 -22.75 4
    endloop
  endfacet
  facet normal 0 0 -1
    outer loop
      vertex -11 -21.5 4
      vertex -14.75 6.75 4
      vertex -11 6.75 4
    endloop
  endfacet
  facet normal -0 0 -1
    outer loop
      vertex 14.75 6.75 4
      vertex 11 -21.5 4
      vertex 11 6.75 4
    endloop
  endfacet
  facet normal 0 -1 0
    outer loop
      vertex -14.75 -22.75 14
      vertex -3.75 -22.75 5
      vertex -3.75 -22.75 14
    endloop
  endfacet
  facet normal 0 -1 -0
    outer loop
      vertex -3.75 -22.75 5
      vertex -14.75 -22.75 4
      vertex 3.75 -22.75 5
    endloop
  endfacet
  facet normal 0 -1 0
    outer loop
      vertex -14.75 -22.75 4
      vertex -3.75 -22.75 5
      vertex -14.75 -22.75 14
    endloop
  endfacet
  facet normal 0 -1 0
    outer loop
      vertex 3.75 -22.75 5
      vertex 14.75 -22.75 14
      vertex 3.75 -22.75 14
    endloop
  endfacet
  facet normal 0 -1 0
    outer loop
      vertex 3.75 -22.75 5
      vertex 14.75 -22.75 4
      vertex 14.75 -22.75 14
    endloop
  endfacet
  facet normal 0 -1 0
    outer loop
      vertex 14.75 -22.75 4
      vertex 3.75 -22.75 5
      vertex -14.75 -22.75 4
    endloop
  endfacet
  facet normal 1 -0 0
    outer loop
      vertex -13.75 -21.75 14
      vertex -13.75 5.75 5
      vertex -13.75 5.75 14
    endloop
  endfacet
  facet normal 1 0 0
    outer loop
      vertex -13.75 5.75 5
      vertex -13.75 -21.75 14
      vertex -13.75 -21.75 5
    endloop
  endfacet
  facet normal -1 0 0
    outer loop
      vertex 13.75 -21.75 5
      vertex 13.75 5.75 14
      vertex 13.75 5.75 5
    endloop
  endfacet
  facet normal -1 -0 0
    outer loop
      vertex 13.75 5.75 14
      vertex 13.75 -21.75 5
      vertex 13.75 -21.75 14
    endloop
  endfacet
  facet normal 0 -1 0
    outer loop
      vertex -11 5.75 5
      vertex -13.75 5.75 14
      vertex -13.75 5.75 5
    endloop
  endfacet
  facet normal 0 -1 0
    outer loop
      vertex -13.75 5.75 14
      vertex -11 5.75 5
      vertex -3.75 5.75 14
    endloop
  endfacet
  facet normal 0 -1 -0
    outer loop
      vertex -3.75 5.75 14
      vertex -11 5.75 5
      vertex -3.75 5.75 5
    endloop
  endfacet
  facet normal 0 -1 0
    outer loop
      vertex 11 5.75 5
      vertex 3.75 5.75 14
      vertex 3.75 5.75 5
    endloop
  endfacet
  facet normal 0 -1 0
    outer loop
      vertex 3.75 5.75 14
      vertex 11 5.75 5
      vertex 13.75 5.75 14
    endloop
  endfacet
  facet normal 0 -1 -0
    outer loop
      vertex 13.75 5.75 14
      vertex 11 5.75 5
      vertex 13.75 5.75 5
    endloop
  endfacet
  facet normal 0 0 1
    outer loop
      vertex -11 5.75 5
      vertex -13.75 5.75 5
      vertex -11 -21.5 5
    endloop
  endfacet
  facet normal 0 0 1
    outer loop
      vertex 11 -21.5 5
      vertex 13.75 5.75 5
      vertex 11 5.75 5
    endloop
  endfacet
  facet normal 0 0 1
    outer loop
      vertex 13.75 5.75 5
      vertex 11 -21.5 5
      vertex 13.75 -21.75 5
    endloop
  endfacet
  facet normal 0 0 1
    outer loop
      vertex 11 -21.5 5
      vertex 3.75 -21.75 5
      vertex 13.75 -21.75 5
    endloop
  endfacet
  facet normal 0 0 1
    outer loop
      vertex 3.75 -21.75 5
      vertex -3.75 -21.75 5
      vertex 3.75 -22.75 5
    endloop
  endfacet
  facet normal 0 0 1
    outer loop
      vertex 11 -21.5 5
      vertex -3.75 -21.75 5
      vertex 3.75 -21.75 5
    endloop
  endfacet
  facet normal -0 0 1
    outer loop
      vertex -11 -21.5 5
      vertex -3.75 -21.75 5
      vertex 11 -21.5 5
    endloop
  endfacet
  facet normal 0 0 1
    outer loop
      vertex -11 -21.5 5
      vertex -13.75 -21.75 5
      vertex -3.75 -21.75 5
    endloop
  endfacet
  facet normal 0 0 1
    outer loop
      vertex -13.75 -21.75 5
      vertex -11 -21.5 5
      vertex -13.75 5.75 5
    endloop
  endfacet
  facet normal 0 0 1
    outer loop
      vertex 3.75 -22.75 5
      vertex -3.75 -21.75 5
      vertex -3.75 -22.75 5
    endloop
  endfacet
  facet normal 0 0 1
    outer loop
      vertex 11 21.5 5
      vertex 3.75 6.75 5
      vertex 11 6.75 5
    endloop
  endfacet
  facet normal 0 0 1
    outer loop
      vertex 3.75 6.75 5
      vertex -3.75 6.75 5
      vertex 3.75 5.75 5
    endloop
  endfacet
  facet normal 0 0 1
    outer loop
      vertex 11 21.5 5
      vertex -3.75 6.75 5
      vertex 3.75 6.75 5
    endloop
  endfacet
  facet normal -0 0 1
    outer loop
      vertex -11 21.5 5
      vertex -3.75 6.75 5
      vertex 11 21.5 5
    endloop
  endfacet
  facet normal 0 0 1
    outer loop
      vertex -3.75 6.75 5
      vertex -11 21.5 5
      vertex -11 6.75 5
    endloop
  endfacet
  facet normal -0 0 1
    outer loop
      vertex 3.75 5.75 5
      vertex 11 -21.5 5
      vertex 11 5.75 5
    endloop
  endfacet
  facet normal 0 0 1
    outer loop
      vertex -3.75 5.75 5
      vertex 3.75 5.75 5
      vertex -3.75 6.75 5
    endloop
  endfacet
  facet normal 0 0 1
    outer loop
      vertex 3.75 5.75 5
      vertex -3.75 5.75 5
      vertex 11 -21.5 5
    endloop
  endfacet
  facet normal 0 0 1
    outer loop
      vertex -11 -21.5 5
      vertex -3.75 5.75 5
      vertex -11 5.75 5
    endloop
  endfacet
  facet normal 0 0 1
    outer loop
      vertex -3.75 5.75 5
      vertex -11 -21.5 5
      vertex 11 -21.5 5
    endloop
  endfacet
  facet normal 0 1 -0
    outer loop
      vertex -3.75 -21.75 5
      vertex -13.75 -21.75 14
      vertex -3.75 -21.75 14
    endloop
  endfacet
  facet normal 0 1 0
    outer loop
      vertex -13.75 -21.75 14
      vertex -3.75 -21.75 5
      vertex -13.75 -21.75 5
    endloop
  endfacet
  facet normal 0 1 -0
    outer loop
      vertex 13.75 -21.75 5
      vertex 3.75 -21.75 14
      vertex 13.75 -21.75 14
    endloop
  endfacet
  facet normal 0 1 0
    outer loop
      vertex 3.75 -21.75 14
      vertex 13.75 -21.75 5
      vertex 3.75 -21.75 5
    endloop
  endfacet
  facet normal 1 -0 0
    outer loop
      vertex -3.75 -22.75 14
      vertex -3.75 -21.75 5
      vertex -3.75 -21.75 14
    endloop
  endfacet
  facet normal 1 0 0
    outer loop
      vertex -3.75 -21.75 5
      vertex -3.75 -22.75 14
      vertex -3.75 -22.75 5
    endloop
  endfacet
  facet normal 1 -0 0
    outer loop
      vertex -3.75 5.75 14
      vertex -3.75 6.75 5
      vertex -3.75 6.75 14
    endloop
  endfacet
  facet normal 1 0 0
    outer loop
      vertex -3.75 6.75 5
      vertex -3.75 5.75 14
      vertex -3.75 5.75 5
    endloop
  endfacet
  facet normal -1 0 0
    outer loop
      vertex 3.75 -22.75 5
      vertex 3.75 -21.75 14
      vertex 3.75 -21.75 5
    endloop
  endfacet
  facet normal -1 -0 0
    outer loop
      vertex 3.75 -21.75 14
      vertex 3.75 -22.75 5
      vertex 3.75 -22.75 14
    endloop
  endfacet
  facet normal -1 0 0
    outer loop
      vertex 3.75 5.75 5
      vertex 3.75 6.75 14
      vertex 3.75 6.75 5
    endloop
  endfacet
  facet normal -1 -0 0
    outer loop
      vertex 3.75 6.75 14
      vertex 3.75 5.75 5
      vertex 3.75 5.75 14
    endloop
  endfacet
  facet normal -1 0 0
    outer loop
      vertex -11 21.5 -5
      vertex -11 6.75 4
      vertex -11 21.5 5
    endloop
  endfacet
  facet normal -1 0 0
    outer loop
      vertex -11 -21.5 -5
      vertex -11 6.75 4
      vertex -11 21.5 -5
    endloop
  endfacet
  facet normal -1 -0 0
    outer loop
      vertex -11 6.75 4
      vertex -11 -21.5 -5
      vertex -11 -21.5 4
    endloop
  endfacet
  facet normal -1 -0 0
    outer loop
      vertex -11 21.5 5
      vertex -11 6.75 4
      vertex -11 6.75 5
    endloop
  endfacet
  facet normal 1 0 0
    outer loop
      vertex 11 6.75 4
      vertex 11 21.5 5
      vertex 11 6.75 5
    endloop
  endfacet
  facet normal 1 0 0
    outer loop
      vertex 11 21.5 5
      vertex 11 6.75 4
      vertex 11 21.5 -5
    endloop
  endfacet
  facet normal 1 0 0
    outer loop
      vertex 11 -21.5 -5
      vertex 11 6.75 4
      vertex 11 -21.5 4
    endloop
  endfacet
  facet normal 1 0 0
    outer loop
      vertex 11 6.75 4
      vertex 11 -21.5 -5
      vertex 11 21.5 -5
    endloop
  endfacet
  facet normal 0 1 0
    outer loop
      vertex 11 21.5 5
      vertex 3.75 21.5 3.5
      vertex -11 21.5 5
    endloop
  endfacet
  facet normal 0 1 -0
    outer loop
      vertex 11 21.5 -5
      vertex 3.75 21.5 3.5
      vertex 11 21.5 5
    endloop
  endfacet
  facet normal 0 1 0
    outer loop
      vertex 3.75 21.5 3.5
      vertex 11 21.5 -5
      vertex 3.75 21.5 -5
    endloop
  endfacet
  facet normal 0 1 -0
    outer loop
      vertex -3.75 21.5 3.5
      vertex -11 21.5 5
      vertex 3.75 21.5 3.5
    endloop
  endfacet
  facet normal 0 1 0
    outer loop
      vertex -11 21.5 -5
      vertex -3.75 21.5 3.5
      vertex -3.75 21.5 -5
    endloop
  endfacet
  facet normal 0 1 0
    outer loop
      vertex -3.75 21.5 3.5
      vertex -11 21.5 -5
      vertex -11 21.5 5
    endloop
  endfacet
  facet normal 0 0 -1
    outer loop
      vertex 11 -21.5 -5
      vertex 10 -20.5 -5
      vertex 11 21.5 -5
    endloop
  endfacet
  facet normal 0 0 -1
    outer loop
      vertex 11 -21.5 -5
      vertex -10 -20.5 -5
      vertex 10 -20.5 -5
    endloop
  endfacet
  facet normal -0 0 -1
    outer loop
      vertex -10 -20.5 -5
      vertex -11 -21.5 -5
      vertex -10 20.5 -5
    endloop
  endfacet
  facet normal 0 0 -1
    outer loop
      vertex -11 -21.5 -5
      vertex -10 -20.5 -5
      vertex 11 -21.5 -5
    endloop
  endfacet
  facet normal 0 0 -1
    outer loop
      vertex 10 20.5 -5
      vertex 11 21.5 -5
      vertex 10 -20.5 -5
    endloop
  endfacet
  facet normal 0 0 -1
    outer loop
      vertex 3.75 21.5 -5
      vertex 10 20.5 -5
      vertex 3.75 20.5 -5
    endloop
  endfacet
  facet normal 0 0 -1
    outer loop
      vertex 10 20.5 -5
      vertex 3.75 21.5 -5
      vertex 11 21.5 -5
    endloop
  endfacet
  facet normal 0 0 -1
    outer loop
      vertex -10 20.5 -5
      vertex -3.75 21.5 -5
      vertex -3.75 20.5 -5
    endloop
  endfacet
  facet normal 0 0 -1
    outer loop
      vertex -10 20.5 -5
      vertex -11 21.5 -5
      vertex -3.75 21.5 -5
    endloop
  endfacet
  facet normal 0 0 -1
    outer loop
      vertex -11 21.5 -5
      vertex -10 20.5 -5
      vertex -11 -21.5 -5
    endloop
  endfacet
  facet normal 0 -1 0
    outer loop
      vertex -11 -21.5 -5
      vertex 11 -21.5 4
      vertex -11 -21.5 4
    endloop
  endfacet
  facet normal 0 -1 -0
    outer loop
      vertex 11 -21.5 4
      vertex -11 -21.5 -5
      vertex 11 -21.5 -5
    endloop
  endfacet
  facet normal 1 -0 0
    outer loop
      vertex -10 -20.5 3.9
      vertex -10 20.5 -5
      vertex -10 20.5 3.9
    endloop
  endfacet
  facet normal 1 0 0
    outer loop
      vertex -10 20.5 -5
      vertex -10 -20.5 3.9
      vertex -10 -20.5 -5
    endloop
  endfacet
  facet normal 0 0 -1
    outer loop
      vertex -10 -20.5 3.9
      vertex 10 20.5 3.9
      vertex 10 -20.5 3.9
    endloop
  endfacet
  facet normal -0 0 -1
    outer loop
      vertex 10 20.5 3.9
      vertex -10 -20.5 3.9
      vertex -10 20.5 3.9
    endloop
  endfacet
  facet normal -1 0 0
    outer loop
      vertex 10 -20.5 -5
      vertex 10 20.5 3.9
      vertex 10 20.5 -5
    endloop
  endfacet
  facet normal -1 -0 0
    outer loop
      vertex 10 20.5 3.9
      vertex 10 -20.5 -5
      vertex 10 -20.5 3.9
    endloop
  endfacet
  facet normal 0 -1 0
    outer loop
      vertex -10 20.5 3.9
      vertex -3.75 20.5 3.5
      vertex 10 20.5 3.9
    endloop
  endfacet
  facet normal 0 -1 0
    outer loop
      vertex -10 20.5 -5
      vertex -3.75 20.5 3.5
      vertex -10 20.5 3.9
    endloop
  endfacet
  facet normal 0 -1 -0
    outer loop
      vertex -3.75 20.5 3.5
      vertex -10 20.5 -5
      vertex -3.75 20.5 -5
    endloop
  endfacet
  facet normal 0 -1 0
    outer loop
      vertex 3.75 20.5 3.5
      vertex 10 20.5 3.9
      vertex -3.75 20.5 3.5
    endloop
  endfacet
  facet normal 0 -1 0
    outer loop
      vertex 10 20.5 -5
      vertex 3.75 20.5 3.5
      vertex 3.75 20.5 -5
    endloop
  endfacet
  facet normal 0 -1 0
    outer loop
      vertex 3.75 20.5 3.5
      vertex 10 20.5 -5
      vertex 10 20.5 3.9
    endloop
  endfacet
  facet normal 0 1 -0
    outer loop
      vertex 10 -20.5 -5
      vertex -10 -20.5 3.9
      vertex 10 -20.5 3.9
    endloop
  endfacet
  facet normal 0 1 0
    outer loop
      vertex -10 -20.5 3.9
      vertex 10 -20.5 -5
      vertex -10 -20.5 -5
    endloop
  endfacet
  facet normal 1 -0 0
    outer loop
      vertex -3.75 20.5 3.5
      vertex -3.75 21.5 -5
      vertex -3.75 21.5 3.5
    endloop
  endfacet
  facet normal 1 0 0
    outer loop
      vertex -3.75 21.5 -5
      vertex -3.75 20.5 3.5
      vertex -3.75 20.5 -5
    endloop
  endfacet
  facet normal 0 0 -1
    outer loop
      vertex -3.75 20.5 3.5
      vertex 3.75 21.5 3.5
      vertex 3.75 20.5 3.5
    endloop
  endfacet
  facet normal -0 0 -1
    outer loop
      vertex 3.75 21.5 3.5
      vertex -3.75 20.5 3.5
      vertex -3.75 21.5 3.5
    endloop
  endfacet
  facet normal -1 0 0
    outer loop
      vertex 3.75 20.5 -5
      vertex 3.75 21.5 3.5
      vertex 3.75 21.5 -5
    endloop
  endfacet
  facet normal -1 -0 0
    outer loop
      vertex 3.75 21.5 3.5
      vertex 3.75 20.5 -5
      vertex 3.75 20.5 3.5
    endloop
  endfacet
endsolid OpenSCAD_Model
